%TF.GenerationSoftware,KiCad,Pcbnew,9.0.1*%
%TF.CreationDate,2025-04-10T15:19:34-04:00*%
%TF.ProjectId,ride-along-module,72696465-2d61-46c6-9f6e-672d6d6f6475,rev?*%
%TF.SameCoordinates,Original*%
%TF.FileFunction,Legend,Top*%
%TF.FilePolarity,Positive*%
%FSLAX46Y46*%
G04 Gerber Fmt 4.6, Leading zero omitted, Abs format (unit mm)*
G04 Created by KiCad (PCBNEW 9.0.1) date 2025-04-10 15:19:34*
%MOMM*%
%LPD*%
G01*
G04 APERTURE LIST*
%ADD10C,0.145143*%
%ADD11C,0.150000*%
%ADD12C,0.120000*%
G04 APERTURE END LIST*
D10*
X126225906Y-87625112D02*
X125887239Y-87141303D01*
X125645334Y-87625112D02*
X125645334Y-86609112D01*
X125645334Y-86609112D02*
X126032382Y-86609112D01*
X126032382Y-86609112D02*
X126129144Y-86657493D01*
X126129144Y-86657493D02*
X126177525Y-86705874D01*
X126177525Y-86705874D02*
X126225906Y-86802636D01*
X126225906Y-86802636D02*
X126225906Y-86947779D01*
X126225906Y-86947779D02*
X126177525Y-87044541D01*
X126177525Y-87044541D02*
X126129144Y-87092922D01*
X126129144Y-87092922D02*
X126032382Y-87141303D01*
X126032382Y-87141303D02*
X125645334Y-87141303D01*
X126661334Y-87625112D02*
X126661334Y-86947779D01*
X126661334Y-86609112D02*
X126612953Y-86657493D01*
X126612953Y-86657493D02*
X126661334Y-86705874D01*
X126661334Y-86705874D02*
X126709715Y-86657493D01*
X126709715Y-86657493D02*
X126661334Y-86609112D01*
X126661334Y-86609112D02*
X126661334Y-86705874D01*
X127580573Y-87625112D02*
X127580573Y-86609112D01*
X127580573Y-87576732D02*
X127483811Y-87625112D01*
X127483811Y-87625112D02*
X127290287Y-87625112D01*
X127290287Y-87625112D02*
X127193525Y-87576732D01*
X127193525Y-87576732D02*
X127145144Y-87528351D01*
X127145144Y-87528351D02*
X127096763Y-87431589D01*
X127096763Y-87431589D02*
X127096763Y-87141303D01*
X127096763Y-87141303D02*
X127145144Y-87044541D01*
X127145144Y-87044541D02*
X127193525Y-86996160D01*
X127193525Y-86996160D02*
X127290287Y-86947779D01*
X127290287Y-86947779D02*
X127483811Y-86947779D01*
X127483811Y-86947779D02*
X127580573Y-86996160D01*
X128451430Y-87576732D02*
X128354668Y-87625112D01*
X128354668Y-87625112D02*
X128161144Y-87625112D01*
X128161144Y-87625112D02*
X128064382Y-87576732D01*
X128064382Y-87576732D02*
X128016001Y-87479970D01*
X128016001Y-87479970D02*
X128016001Y-87092922D01*
X128016001Y-87092922D02*
X128064382Y-86996160D01*
X128064382Y-86996160D02*
X128161144Y-86947779D01*
X128161144Y-86947779D02*
X128354668Y-86947779D01*
X128354668Y-86947779D02*
X128451430Y-86996160D01*
X128451430Y-86996160D02*
X128499811Y-87092922D01*
X128499811Y-87092922D02*
X128499811Y-87189684D01*
X128499811Y-87189684D02*
X128016001Y-87286446D01*
X128935239Y-87238065D02*
X129709335Y-87238065D01*
X130144763Y-87334827D02*
X130628573Y-87334827D01*
X130048001Y-87625112D02*
X130386668Y-86609112D01*
X130386668Y-86609112D02*
X130725335Y-87625112D01*
X131209144Y-87625112D02*
X131112382Y-87576732D01*
X131112382Y-87576732D02*
X131064001Y-87479970D01*
X131064001Y-87479970D02*
X131064001Y-86609112D01*
X131741334Y-87625112D02*
X131644572Y-87576732D01*
X131644572Y-87576732D02*
X131596191Y-87528351D01*
X131596191Y-87528351D02*
X131547810Y-87431589D01*
X131547810Y-87431589D02*
X131547810Y-87141303D01*
X131547810Y-87141303D02*
X131596191Y-87044541D01*
X131596191Y-87044541D02*
X131644572Y-86996160D01*
X131644572Y-86996160D02*
X131741334Y-86947779D01*
X131741334Y-86947779D02*
X131886477Y-86947779D01*
X131886477Y-86947779D02*
X131983239Y-86996160D01*
X131983239Y-86996160D02*
X132031620Y-87044541D01*
X132031620Y-87044541D02*
X132080001Y-87141303D01*
X132080001Y-87141303D02*
X132080001Y-87431589D01*
X132080001Y-87431589D02*
X132031620Y-87528351D01*
X132031620Y-87528351D02*
X131983239Y-87576732D01*
X131983239Y-87576732D02*
X131886477Y-87625112D01*
X131886477Y-87625112D02*
X131741334Y-87625112D01*
X132515429Y-86947779D02*
X132515429Y-87625112D01*
X132515429Y-87044541D02*
X132563810Y-86996160D01*
X132563810Y-86996160D02*
X132660572Y-86947779D01*
X132660572Y-86947779D02*
X132805715Y-86947779D01*
X132805715Y-86947779D02*
X132902477Y-86996160D01*
X132902477Y-86996160D02*
X132950858Y-87092922D01*
X132950858Y-87092922D02*
X132950858Y-87625112D01*
X133870096Y-86947779D02*
X133870096Y-87770255D01*
X133870096Y-87770255D02*
X133821715Y-87867017D01*
X133821715Y-87867017D02*
X133773334Y-87915398D01*
X133773334Y-87915398D02*
X133676572Y-87963779D01*
X133676572Y-87963779D02*
X133531429Y-87963779D01*
X133531429Y-87963779D02*
X133434667Y-87915398D01*
X133870096Y-87576732D02*
X133773334Y-87625112D01*
X133773334Y-87625112D02*
X133579810Y-87625112D01*
X133579810Y-87625112D02*
X133483048Y-87576732D01*
X133483048Y-87576732D02*
X133434667Y-87528351D01*
X133434667Y-87528351D02*
X133386286Y-87431589D01*
X133386286Y-87431589D02*
X133386286Y-87141303D01*
X133386286Y-87141303D02*
X133434667Y-87044541D01*
X133434667Y-87044541D02*
X133483048Y-86996160D01*
X133483048Y-86996160D02*
X133579810Y-86947779D01*
X133579810Y-86947779D02*
X133773334Y-86947779D01*
X133773334Y-86947779D02*
X133870096Y-86996160D01*
X135128000Y-87625112D02*
X135128000Y-86609112D01*
X135128000Y-86609112D02*
X135466667Y-87334827D01*
X135466667Y-87334827D02*
X135805334Y-86609112D01*
X135805334Y-86609112D02*
X135805334Y-87625112D01*
X136434286Y-87625112D02*
X136337524Y-87576732D01*
X136337524Y-87576732D02*
X136289143Y-87528351D01*
X136289143Y-87528351D02*
X136240762Y-87431589D01*
X136240762Y-87431589D02*
X136240762Y-87141303D01*
X136240762Y-87141303D02*
X136289143Y-87044541D01*
X136289143Y-87044541D02*
X136337524Y-86996160D01*
X136337524Y-86996160D02*
X136434286Y-86947779D01*
X136434286Y-86947779D02*
X136579429Y-86947779D01*
X136579429Y-86947779D02*
X136676191Y-86996160D01*
X136676191Y-86996160D02*
X136724572Y-87044541D01*
X136724572Y-87044541D02*
X136772953Y-87141303D01*
X136772953Y-87141303D02*
X136772953Y-87431589D01*
X136772953Y-87431589D02*
X136724572Y-87528351D01*
X136724572Y-87528351D02*
X136676191Y-87576732D01*
X136676191Y-87576732D02*
X136579429Y-87625112D01*
X136579429Y-87625112D02*
X136434286Y-87625112D01*
X137643810Y-87625112D02*
X137643810Y-86609112D01*
X137643810Y-87576732D02*
X137547048Y-87625112D01*
X137547048Y-87625112D02*
X137353524Y-87625112D01*
X137353524Y-87625112D02*
X137256762Y-87576732D01*
X137256762Y-87576732D02*
X137208381Y-87528351D01*
X137208381Y-87528351D02*
X137160000Y-87431589D01*
X137160000Y-87431589D02*
X137160000Y-87141303D01*
X137160000Y-87141303D02*
X137208381Y-87044541D01*
X137208381Y-87044541D02*
X137256762Y-86996160D01*
X137256762Y-86996160D02*
X137353524Y-86947779D01*
X137353524Y-86947779D02*
X137547048Y-86947779D01*
X137547048Y-86947779D02*
X137643810Y-86996160D01*
X138563048Y-86947779D02*
X138563048Y-87625112D01*
X138127619Y-86947779D02*
X138127619Y-87479970D01*
X138127619Y-87479970D02*
X138176000Y-87576732D01*
X138176000Y-87576732D02*
X138272762Y-87625112D01*
X138272762Y-87625112D02*
X138417905Y-87625112D01*
X138417905Y-87625112D02*
X138514667Y-87576732D01*
X138514667Y-87576732D02*
X138563048Y-87528351D01*
X139192000Y-87625112D02*
X139095238Y-87576732D01*
X139095238Y-87576732D02*
X139046857Y-87479970D01*
X139046857Y-87479970D02*
X139046857Y-86609112D01*
X139966095Y-87576732D02*
X139869333Y-87625112D01*
X139869333Y-87625112D02*
X139675809Y-87625112D01*
X139675809Y-87625112D02*
X139579047Y-87576732D01*
X139579047Y-87576732D02*
X139530666Y-87479970D01*
X139530666Y-87479970D02*
X139530666Y-87092922D01*
X139530666Y-87092922D02*
X139579047Y-86996160D01*
X139579047Y-86996160D02*
X139675809Y-86947779D01*
X139675809Y-86947779D02*
X139869333Y-86947779D01*
X139869333Y-86947779D02*
X139966095Y-86996160D01*
X139966095Y-86996160D02*
X140014476Y-87092922D01*
X140014476Y-87092922D02*
X140014476Y-87189684D01*
X140014476Y-87189684D02*
X139530666Y-87286446D01*
X141804571Y-87625112D02*
X141465904Y-87141303D01*
X141223999Y-87625112D02*
X141223999Y-86609112D01*
X141223999Y-86609112D02*
X141611047Y-86609112D01*
X141611047Y-86609112D02*
X141707809Y-86657493D01*
X141707809Y-86657493D02*
X141756190Y-86705874D01*
X141756190Y-86705874D02*
X141804571Y-86802636D01*
X141804571Y-86802636D02*
X141804571Y-86947779D01*
X141804571Y-86947779D02*
X141756190Y-87044541D01*
X141756190Y-87044541D02*
X141707809Y-87092922D01*
X141707809Y-87092922D02*
X141611047Y-87141303D01*
X141611047Y-87141303D02*
X141223999Y-87141303D01*
X142627047Y-87576732D02*
X142530285Y-87625112D01*
X142530285Y-87625112D02*
X142336761Y-87625112D01*
X142336761Y-87625112D02*
X142239999Y-87576732D01*
X142239999Y-87576732D02*
X142191618Y-87479970D01*
X142191618Y-87479970D02*
X142191618Y-87092922D01*
X142191618Y-87092922D02*
X142239999Y-86996160D01*
X142239999Y-86996160D02*
X142336761Y-86947779D01*
X142336761Y-86947779D02*
X142530285Y-86947779D01*
X142530285Y-86947779D02*
X142627047Y-86996160D01*
X142627047Y-86996160D02*
X142675428Y-87092922D01*
X142675428Y-87092922D02*
X142675428Y-87189684D01*
X142675428Y-87189684D02*
X142191618Y-87286446D01*
X143014094Y-86947779D02*
X143255999Y-87625112D01*
X143255999Y-87625112D02*
X143497904Y-86947779D01*
X143884951Y-87528351D02*
X143933332Y-87576732D01*
X143933332Y-87576732D02*
X143884951Y-87625112D01*
X143884951Y-87625112D02*
X143836570Y-87576732D01*
X143836570Y-87576732D02*
X143884951Y-87528351D01*
X143884951Y-87528351D02*
X143884951Y-87625112D01*
X145675047Y-87625112D02*
X145094475Y-87625112D01*
X145384761Y-87625112D02*
X145384761Y-86609112D01*
X145384761Y-86609112D02*
X145287999Y-86754255D01*
X145287999Y-86754255D02*
X145191237Y-86851017D01*
X145191237Y-86851017D02*
X145094475Y-86899398D01*
D11*
X132548333Y-78210580D02*
X132500714Y-78258200D01*
X132500714Y-78258200D02*
X132357857Y-78305819D01*
X132357857Y-78305819D02*
X132262619Y-78305819D01*
X132262619Y-78305819D02*
X132119762Y-78258200D01*
X132119762Y-78258200D02*
X132024524Y-78162961D01*
X132024524Y-78162961D02*
X131976905Y-78067723D01*
X131976905Y-78067723D02*
X131929286Y-77877247D01*
X131929286Y-77877247D02*
X131929286Y-77734390D01*
X131929286Y-77734390D02*
X131976905Y-77543914D01*
X131976905Y-77543914D02*
X132024524Y-77448676D01*
X132024524Y-77448676D02*
X132119762Y-77353438D01*
X132119762Y-77353438D02*
X132262619Y-77305819D01*
X132262619Y-77305819D02*
X132357857Y-77305819D01*
X132357857Y-77305819D02*
X132500714Y-77353438D01*
X132500714Y-77353438D02*
X132548333Y-77401057D01*
X133119762Y-77734390D02*
X133024524Y-77686771D01*
X133024524Y-77686771D02*
X132976905Y-77639152D01*
X132976905Y-77639152D02*
X132929286Y-77543914D01*
X132929286Y-77543914D02*
X132929286Y-77496295D01*
X132929286Y-77496295D02*
X132976905Y-77401057D01*
X132976905Y-77401057D02*
X133024524Y-77353438D01*
X133024524Y-77353438D02*
X133119762Y-77305819D01*
X133119762Y-77305819D02*
X133310238Y-77305819D01*
X133310238Y-77305819D02*
X133405476Y-77353438D01*
X133405476Y-77353438D02*
X133453095Y-77401057D01*
X133453095Y-77401057D02*
X133500714Y-77496295D01*
X133500714Y-77496295D02*
X133500714Y-77543914D01*
X133500714Y-77543914D02*
X133453095Y-77639152D01*
X133453095Y-77639152D02*
X133405476Y-77686771D01*
X133405476Y-77686771D02*
X133310238Y-77734390D01*
X133310238Y-77734390D02*
X133119762Y-77734390D01*
X133119762Y-77734390D02*
X133024524Y-77782009D01*
X133024524Y-77782009D02*
X132976905Y-77829628D01*
X132976905Y-77829628D02*
X132929286Y-77924866D01*
X132929286Y-77924866D02*
X132929286Y-78115342D01*
X132929286Y-78115342D02*
X132976905Y-78210580D01*
X132976905Y-78210580D02*
X133024524Y-78258200D01*
X133024524Y-78258200D02*
X133119762Y-78305819D01*
X133119762Y-78305819D02*
X133310238Y-78305819D01*
X133310238Y-78305819D02*
X133405476Y-78258200D01*
X133405476Y-78258200D02*
X133453095Y-78210580D01*
X133453095Y-78210580D02*
X133500714Y-78115342D01*
X133500714Y-78115342D02*
X133500714Y-77924866D01*
X133500714Y-77924866D02*
X133453095Y-77829628D01*
X133453095Y-77829628D02*
X133405476Y-77782009D01*
X133405476Y-77782009D02*
X133310238Y-77734390D01*
X151471333Y-67891819D02*
X151138000Y-67415628D01*
X150899905Y-67891819D02*
X150899905Y-66891819D01*
X150899905Y-66891819D02*
X151280857Y-66891819D01*
X151280857Y-66891819D02*
X151376095Y-66939438D01*
X151376095Y-66939438D02*
X151423714Y-66987057D01*
X151423714Y-66987057D02*
X151471333Y-67082295D01*
X151471333Y-67082295D02*
X151471333Y-67225152D01*
X151471333Y-67225152D02*
X151423714Y-67320390D01*
X151423714Y-67320390D02*
X151376095Y-67368009D01*
X151376095Y-67368009D02*
X151280857Y-67415628D01*
X151280857Y-67415628D02*
X150899905Y-67415628D01*
X152423714Y-67891819D02*
X151852286Y-67891819D01*
X152138000Y-67891819D02*
X152138000Y-66891819D01*
X152138000Y-66891819D02*
X152042762Y-67034676D01*
X152042762Y-67034676D02*
X151947524Y-67129914D01*
X151947524Y-67129914D02*
X151852286Y-67177533D01*
X126699333Y-64589819D02*
X126366000Y-64113628D01*
X126127905Y-64589819D02*
X126127905Y-63589819D01*
X126127905Y-63589819D02*
X126508857Y-63589819D01*
X126508857Y-63589819D02*
X126604095Y-63637438D01*
X126604095Y-63637438D02*
X126651714Y-63685057D01*
X126651714Y-63685057D02*
X126699333Y-63780295D01*
X126699333Y-63780295D02*
X126699333Y-63923152D01*
X126699333Y-63923152D02*
X126651714Y-64018390D01*
X126651714Y-64018390D02*
X126604095Y-64066009D01*
X126604095Y-64066009D02*
X126508857Y-64113628D01*
X126508857Y-64113628D02*
X126127905Y-64113628D01*
X127556476Y-63923152D02*
X127556476Y-64589819D01*
X127318381Y-63542200D02*
X127080286Y-64256485D01*
X127080286Y-64256485D02*
X127699333Y-64256485D01*
X127614819Y-67540094D02*
X126614819Y-67540094D01*
X126614819Y-67540094D02*
X126614819Y-67301999D01*
X126614819Y-67301999D02*
X126662438Y-67159142D01*
X126662438Y-67159142D02*
X126757676Y-67063904D01*
X126757676Y-67063904D02*
X126852914Y-67016285D01*
X126852914Y-67016285D02*
X127043390Y-66968666D01*
X127043390Y-66968666D02*
X127186247Y-66968666D01*
X127186247Y-66968666D02*
X127376723Y-67016285D01*
X127376723Y-67016285D02*
X127471961Y-67063904D01*
X127471961Y-67063904D02*
X127567200Y-67159142D01*
X127567200Y-67159142D02*
X127614819Y-67301999D01*
X127614819Y-67301999D02*
X127614819Y-67540094D01*
X126614819Y-66635332D02*
X126614819Y-66016285D01*
X126614819Y-66016285D02*
X126995771Y-66349618D01*
X126995771Y-66349618D02*
X126995771Y-66206761D01*
X126995771Y-66206761D02*
X127043390Y-66111523D01*
X127043390Y-66111523D02*
X127091009Y-66063904D01*
X127091009Y-66063904D02*
X127186247Y-66016285D01*
X127186247Y-66016285D02*
X127424342Y-66016285D01*
X127424342Y-66016285D02*
X127519580Y-66063904D01*
X127519580Y-66063904D02*
X127567200Y-66111523D01*
X127567200Y-66111523D02*
X127614819Y-66206761D01*
X127614819Y-66206761D02*
X127614819Y-66492475D01*
X127614819Y-66492475D02*
X127567200Y-66587713D01*
X127567200Y-66587713D02*
X127519580Y-66635332D01*
X124692580Y-74175857D02*
X124740200Y-74223476D01*
X124740200Y-74223476D02*
X124787819Y-74366333D01*
X124787819Y-74366333D02*
X124787819Y-74461571D01*
X124787819Y-74461571D02*
X124740200Y-74604428D01*
X124740200Y-74604428D02*
X124644961Y-74699666D01*
X124644961Y-74699666D02*
X124549723Y-74747285D01*
X124549723Y-74747285D02*
X124359247Y-74794904D01*
X124359247Y-74794904D02*
X124216390Y-74794904D01*
X124216390Y-74794904D02*
X124025914Y-74747285D01*
X124025914Y-74747285D02*
X123930676Y-74699666D01*
X123930676Y-74699666D02*
X123835438Y-74604428D01*
X123835438Y-74604428D02*
X123787819Y-74461571D01*
X123787819Y-74461571D02*
X123787819Y-74366333D01*
X123787819Y-74366333D02*
X123835438Y-74223476D01*
X123835438Y-74223476D02*
X123883057Y-74175857D01*
X124787819Y-73223476D02*
X124787819Y-73794904D01*
X124787819Y-73509190D02*
X123787819Y-73509190D01*
X123787819Y-73509190D02*
X123930676Y-73604428D01*
X123930676Y-73604428D02*
X124025914Y-73699666D01*
X124025914Y-73699666D02*
X124073533Y-73794904D01*
X124216390Y-72652047D02*
X124168771Y-72747285D01*
X124168771Y-72747285D02*
X124121152Y-72794904D01*
X124121152Y-72794904D02*
X124025914Y-72842523D01*
X124025914Y-72842523D02*
X123978295Y-72842523D01*
X123978295Y-72842523D02*
X123883057Y-72794904D01*
X123883057Y-72794904D02*
X123835438Y-72747285D01*
X123835438Y-72747285D02*
X123787819Y-72652047D01*
X123787819Y-72652047D02*
X123787819Y-72461571D01*
X123787819Y-72461571D02*
X123835438Y-72366333D01*
X123835438Y-72366333D02*
X123883057Y-72318714D01*
X123883057Y-72318714D02*
X123978295Y-72271095D01*
X123978295Y-72271095D02*
X124025914Y-72271095D01*
X124025914Y-72271095D02*
X124121152Y-72318714D01*
X124121152Y-72318714D02*
X124168771Y-72366333D01*
X124168771Y-72366333D02*
X124216390Y-72461571D01*
X124216390Y-72461571D02*
X124216390Y-72652047D01*
X124216390Y-72652047D02*
X124264009Y-72747285D01*
X124264009Y-72747285D02*
X124311628Y-72794904D01*
X124311628Y-72794904D02*
X124406866Y-72842523D01*
X124406866Y-72842523D02*
X124597342Y-72842523D01*
X124597342Y-72842523D02*
X124692580Y-72794904D01*
X124692580Y-72794904D02*
X124740200Y-72747285D01*
X124740200Y-72747285D02*
X124787819Y-72652047D01*
X124787819Y-72652047D02*
X124787819Y-72461571D01*
X124787819Y-72461571D02*
X124740200Y-72366333D01*
X124740200Y-72366333D02*
X124692580Y-72318714D01*
X124692580Y-72318714D02*
X124597342Y-72271095D01*
X124597342Y-72271095D02*
X124406866Y-72271095D01*
X124406866Y-72271095D02*
X124311628Y-72318714D01*
X124311628Y-72318714D02*
X124264009Y-72366333D01*
X124264009Y-72366333D02*
X124216390Y-72461571D01*
X159472333Y-79989819D02*
X159139000Y-79513628D01*
X158900905Y-79989819D02*
X158900905Y-78989819D01*
X158900905Y-78989819D02*
X159281857Y-78989819D01*
X159281857Y-78989819D02*
X159377095Y-79037438D01*
X159377095Y-79037438D02*
X159424714Y-79085057D01*
X159424714Y-79085057D02*
X159472333Y-79180295D01*
X159472333Y-79180295D02*
X159472333Y-79323152D01*
X159472333Y-79323152D02*
X159424714Y-79418390D01*
X159424714Y-79418390D02*
X159377095Y-79466009D01*
X159377095Y-79466009D02*
X159281857Y-79513628D01*
X159281857Y-79513628D02*
X158900905Y-79513628D01*
X159853286Y-79085057D02*
X159900905Y-79037438D01*
X159900905Y-79037438D02*
X159996143Y-78989819D01*
X159996143Y-78989819D02*
X160234238Y-78989819D01*
X160234238Y-78989819D02*
X160329476Y-79037438D01*
X160329476Y-79037438D02*
X160377095Y-79085057D01*
X160377095Y-79085057D02*
X160424714Y-79180295D01*
X160424714Y-79180295D02*
X160424714Y-79275533D01*
X160424714Y-79275533D02*
X160377095Y-79418390D01*
X160377095Y-79418390D02*
X159805667Y-79989819D01*
X159805667Y-79989819D02*
X160424714Y-79989819D01*
X132910095Y-78989819D02*
X132910095Y-79799342D01*
X132910095Y-79799342D02*
X132957714Y-79894580D01*
X132957714Y-79894580D02*
X133005333Y-79942200D01*
X133005333Y-79942200D02*
X133100571Y-79989819D01*
X133100571Y-79989819D02*
X133291047Y-79989819D01*
X133291047Y-79989819D02*
X133386285Y-79942200D01*
X133386285Y-79942200D02*
X133433904Y-79894580D01*
X133433904Y-79894580D02*
X133481523Y-79799342D01*
X133481523Y-79799342D02*
X133481523Y-78989819D01*
X134386285Y-79323152D02*
X134386285Y-79989819D01*
X134148190Y-78942200D02*
X133910095Y-79656485D01*
X133910095Y-79656485D02*
X134529142Y-79656485D01*
X131564142Y-70943580D02*
X131516523Y-70991200D01*
X131516523Y-70991200D02*
X131373666Y-71038819D01*
X131373666Y-71038819D02*
X131278428Y-71038819D01*
X131278428Y-71038819D02*
X131135571Y-70991200D01*
X131135571Y-70991200D02*
X131040333Y-70895961D01*
X131040333Y-70895961D02*
X130992714Y-70800723D01*
X130992714Y-70800723D02*
X130945095Y-70610247D01*
X130945095Y-70610247D02*
X130945095Y-70467390D01*
X130945095Y-70467390D02*
X130992714Y-70276914D01*
X130992714Y-70276914D02*
X131040333Y-70181676D01*
X131040333Y-70181676D02*
X131135571Y-70086438D01*
X131135571Y-70086438D02*
X131278428Y-70038819D01*
X131278428Y-70038819D02*
X131373666Y-70038819D01*
X131373666Y-70038819D02*
X131516523Y-70086438D01*
X131516523Y-70086438D02*
X131564142Y-70134057D01*
X132516523Y-71038819D02*
X131945095Y-71038819D01*
X132230809Y-71038819D02*
X132230809Y-70038819D01*
X132230809Y-70038819D02*
X132135571Y-70181676D01*
X132135571Y-70181676D02*
X132040333Y-70276914D01*
X132040333Y-70276914D02*
X131945095Y-70324533D01*
X133135571Y-70038819D02*
X133230809Y-70038819D01*
X133230809Y-70038819D02*
X133326047Y-70086438D01*
X133326047Y-70086438D02*
X133373666Y-70134057D01*
X133373666Y-70134057D02*
X133421285Y-70229295D01*
X133421285Y-70229295D02*
X133468904Y-70419771D01*
X133468904Y-70419771D02*
X133468904Y-70657866D01*
X133468904Y-70657866D02*
X133421285Y-70848342D01*
X133421285Y-70848342D02*
X133373666Y-70943580D01*
X133373666Y-70943580D02*
X133326047Y-70991200D01*
X133326047Y-70991200D02*
X133230809Y-71038819D01*
X133230809Y-71038819D02*
X133135571Y-71038819D01*
X133135571Y-71038819D02*
X133040333Y-70991200D01*
X133040333Y-70991200D02*
X132992714Y-70943580D01*
X132992714Y-70943580D02*
X132945095Y-70848342D01*
X132945095Y-70848342D02*
X132897476Y-70657866D01*
X132897476Y-70657866D02*
X132897476Y-70419771D01*
X132897476Y-70419771D02*
X132945095Y-70229295D01*
X132945095Y-70229295D02*
X132992714Y-70134057D01*
X132992714Y-70134057D02*
X133040333Y-70086438D01*
X133040333Y-70086438D02*
X133135571Y-70038819D01*
X152931905Y-78051819D02*
X152931905Y-77051819D01*
X152931905Y-77051819D02*
X153170000Y-77051819D01*
X153170000Y-77051819D02*
X153312857Y-77099438D01*
X153312857Y-77099438D02*
X153408095Y-77194676D01*
X153408095Y-77194676D02*
X153455714Y-77289914D01*
X153455714Y-77289914D02*
X153503333Y-77480390D01*
X153503333Y-77480390D02*
X153503333Y-77623247D01*
X153503333Y-77623247D02*
X153455714Y-77813723D01*
X153455714Y-77813723D02*
X153408095Y-77908961D01*
X153408095Y-77908961D02*
X153312857Y-78004200D01*
X153312857Y-78004200D02*
X153170000Y-78051819D01*
X153170000Y-78051819D02*
X152931905Y-78051819D01*
X153884286Y-77147057D02*
X153931905Y-77099438D01*
X153931905Y-77099438D02*
X154027143Y-77051819D01*
X154027143Y-77051819D02*
X154265238Y-77051819D01*
X154265238Y-77051819D02*
X154360476Y-77099438D01*
X154360476Y-77099438D02*
X154408095Y-77147057D01*
X154408095Y-77147057D02*
X154455714Y-77242295D01*
X154455714Y-77242295D02*
X154455714Y-77337533D01*
X154455714Y-77337533D02*
X154408095Y-77480390D01*
X154408095Y-77480390D02*
X153836667Y-78051819D01*
X153836667Y-78051819D02*
X154455714Y-78051819D01*
X133468819Y-74021404D02*
X134278342Y-74021404D01*
X134278342Y-74021404D02*
X134373580Y-73973785D01*
X134373580Y-73973785D02*
X134421200Y-73926166D01*
X134421200Y-73926166D02*
X134468819Y-73830928D01*
X134468819Y-73830928D02*
X134468819Y-73640452D01*
X134468819Y-73640452D02*
X134421200Y-73545214D01*
X134421200Y-73545214D02*
X134373580Y-73497595D01*
X134373580Y-73497595D02*
X134278342Y-73449976D01*
X134278342Y-73449976D02*
X133468819Y-73449976D01*
X133468819Y-72497595D02*
X133468819Y-72973785D01*
X133468819Y-72973785D02*
X133945009Y-73021404D01*
X133945009Y-73021404D02*
X133897390Y-72973785D01*
X133897390Y-72973785D02*
X133849771Y-72878547D01*
X133849771Y-72878547D02*
X133849771Y-72640452D01*
X133849771Y-72640452D02*
X133897390Y-72545214D01*
X133897390Y-72545214D02*
X133945009Y-72497595D01*
X133945009Y-72497595D02*
X134040247Y-72449976D01*
X134040247Y-72449976D02*
X134278342Y-72449976D01*
X134278342Y-72449976D02*
X134373580Y-72497595D01*
X134373580Y-72497595D02*
X134421200Y-72545214D01*
X134421200Y-72545214D02*
X134468819Y-72640452D01*
X134468819Y-72640452D02*
X134468819Y-72878547D01*
X134468819Y-72878547D02*
X134421200Y-72973785D01*
X134421200Y-72973785D02*
X134373580Y-73021404D01*
X148344095Y-86703819D02*
X148915523Y-86703819D01*
X148629809Y-87703819D02*
X148629809Y-86703819D01*
X149248857Y-87703819D02*
X149248857Y-86703819D01*
X149248857Y-86703819D02*
X149629809Y-86703819D01*
X149629809Y-86703819D02*
X149725047Y-86751438D01*
X149725047Y-86751438D02*
X149772666Y-86799057D01*
X149772666Y-86799057D02*
X149820285Y-86894295D01*
X149820285Y-86894295D02*
X149820285Y-87037152D01*
X149820285Y-87037152D02*
X149772666Y-87132390D01*
X149772666Y-87132390D02*
X149725047Y-87180009D01*
X149725047Y-87180009D02*
X149629809Y-87227628D01*
X149629809Y-87227628D02*
X149248857Y-87227628D01*
X150153619Y-86703819D02*
X150772666Y-86703819D01*
X150772666Y-86703819D02*
X150439333Y-87084771D01*
X150439333Y-87084771D02*
X150582190Y-87084771D01*
X150582190Y-87084771D02*
X150677428Y-87132390D01*
X150677428Y-87132390D02*
X150725047Y-87180009D01*
X150725047Y-87180009D02*
X150772666Y-87275247D01*
X150772666Y-87275247D02*
X150772666Y-87513342D01*
X150772666Y-87513342D02*
X150725047Y-87608580D01*
X150725047Y-87608580D02*
X150677428Y-87656200D01*
X150677428Y-87656200D02*
X150582190Y-87703819D01*
X150582190Y-87703819D02*
X150296476Y-87703819D01*
X150296476Y-87703819D02*
X150201238Y-87656200D01*
X150201238Y-87656200D02*
X150153619Y-87608580D01*
X141184333Y-81639580D02*
X141136714Y-81687200D01*
X141136714Y-81687200D02*
X140993857Y-81734819D01*
X140993857Y-81734819D02*
X140898619Y-81734819D01*
X140898619Y-81734819D02*
X140755762Y-81687200D01*
X140755762Y-81687200D02*
X140660524Y-81591961D01*
X140660524Y-81591961D02*
X140612905Y-81496723D01*
X140612905Y-81496723D02*
X140565286Y-81306247D01*
X140565286Y-81306247D02*
X140565286Y-81163390D01*
X140565286Y-81163390D02*
X140612905Y-80972914D01*
X140612905Y-80972914D02*
X140660524Y-80877676D01*
X140660524Y-80877676D02*
X140755762Y-80782438D01*
X140755762Y-80782438D02*
X140898619Y-80734819D01*
X140898619Y-80734819D02*
X140993857Y-80734819D01*
X140993857Y-80734819D02*
X141136714Y-80782438D01*
X141136714Y-80782438D02*
X141184333Y-80830057D01*
X142136714Y-81734819D02*
X141565286Y-81734819D01*
X141851000Y-81734819D02*
X141851000Y-80734819D01*
X141851000Y-80734819D02*
X141755762Y-80877676D01*
X141755762Y-80877676D02*
X141660524Y-80972914D01*
X141660524Y-80972914D02*
X141565286Y-81020533D01*
X119069095Y-61343819D02*
X119640523Y-61343819D01*
X119354809Y-62343819D02*
X119354809Y-61343819D01*
X119973857Y-62343819D02*
X119973857Y-61343819D01*
X119973857Y-61343819D02*
X120354809Y-61343819D01*
X120354809Y-61343819D02*
X120450047Y-61391438D01*
X120450047Y-61391438D02*
X120497666Y-61439057D01*
X120497666Y-61439057D02*
X120545285Y-61534295D01*
X120545285Y-61534295D02*
X120545285Y-61677152D01*
X120545285Y-61677152D02*
X120497666Y-61772390D01*
X120497666Y-61772390D02*
X120450047Y-61820009D01*
X120450047Y-61820009D02*
X120354809Y-61867628D01*
X120354809Y-61867628D02*
X119973857Y-61867628D01*
X121402428Y-61677152D02*
X121402428Y-62343819D01*
X121164333Y-61296200D02*
X120926238Y-62010485D01*
X120926238Y-62010485D02*
X121545285Y-62010485D01*
X135215333Y-64589819D02*
X134882000Y-64113628D01*
X134643905Y-64589819D02*
X134643905Y-63589819D01*
X134643905Y-63589819D02*
X135024857Y-63589819D01*
X135024857Y-63589819D02*
X135120095Y-63637438D01*
X135120095Y-63637438D02*
X135167714Y-63685057D01*
X135167714Y-63685057D02*
X135215333Y-63780295D01*
X135215333Y-63780295D02*
X135215333Y-63923152D01*
X135215333Y-63923152D02*
X135167714Y-64018390D01*
X135167714Y-64018390D02*
X135120095Y-64066009D01*
X135120095Y-64066009D02*
X135024857Y-64113628D01*
X135024857Y-64113628D02*
X134643905Y-64113628D01*
X136120095Y-63589819D02*
X135643905Y-63589819D01*
X135643905Y-63589819D02*
X135596286Y-64066009D01*
X135596286Y-64066009D02*
X135643905Y-64018390D01*
X135643905Y-64018390D02*
X135739143Y-63970771D01*
X135739143Y-63970771D02*
X135977238Y-63970771D01*
X135977238Y-63970771D02*
X136072476Y-64018390D01*
X136072476Y-64018390D02*
X136120095Y-64066009D01*
X136120095Y-64066009D02*
X136167714Y-64161247D01*
X136167714Y-64161247D02*
X136167714Y-64399342D01*
X136167714Y-64399342D02*
X136120095Y-64494580D01*
X136120095Y-64494580D02*
X136072476Y-64542200D01*
X136072476Y-64542200D02*
X135977238Y-64589819D01*
X135977238Y-64589819D02*
X135739143Y-64589819D01*
X135739143Y-64589819D02*
X135643905Y-64542200D01*
X135643905Y-64542200D02*
X135596286Y-64494580D01*
X141997580Y-58554857D02*
X142045200Y-58602476D01*
X142045200Y-58602476D02*
X142092819Y-58745333D01*
X142092819Y-58745333D02*
X142092819Y-58840571D01*
X142092819Y-58840571D02*
X142045200Y-58983428D01*
X142045200Y-58983428D02*
X141949961Y-59078666D01*
X141949961Y-59078666D02*
X141854723Y-59126285D01*
X141854723Y-59126285D02*
X141664247Y-59173904D01*
X141664247Y-59173904D02*
X141521390Y-59173904D01*
X141521390Y-59173904D02*
X141330914Y-59126285D01*
X141330914Y-59126285D02*
X141235676Y-59078666D01*
X141235676Y-59078666D02*
X141140438Y-58983428D01*
X141140438Y-58983428D02*
X141092819Y-58840571D01*
X141092819Y-58840571D02*
X141092819Y-58745333D01*
X141092819Y-58745333D02*
X141140438Y-58602476D01*
X141140438Y-58602476D02*
X141188057Y-58554857D01*
X142092819Y-57602476D02*
X142092819Y-58173904D01*
X142092819Y-57888190D02*
X141092819Y-57888190D01*
X141092819Y-57888190D02*
X141235676Y-57983428D01*
X141235676Y-57983428D02*
X141330914Y-58078666D01*
X141330914Y-58078666D02*
X141378533Y-58173904D01*
X141092819Y-56697714D02*
X141092819Y-57173904D01*
X141092819Y-57173904D02*
X141569009Y-57221523D01*
X141569009Y-57221523D02*
X141521390Y-57173904D01*
X141521390Y-57173904D02*
X141473771Y-57078666D01*
X141473771Y-57078666D02*
X141473771Y-56840571D01*
X141473771Y-56840571D02*
X141521390Y-56745333D01*
X141521390Y-56745333D02*
X141569009Y-56697714D01*
X141569009Y-56697714D02*
X141664247Y-56650095D01*
X141664247Y-56650095D02*
X141902342Y-56650095D01*
X141902342Y-56650095D02*
X141997580Y-56697714D01*
X141997580Y-56697714D02*
X142045200Y-56745333D01*
X142045200Y-56745333D02*
X142092819Y-56840571D01*
X142092819Y-56840571D02*
X142092819Y-57078666D01*
X142092819Y-57078666D02*
X142045200Y-57173904D01*
X142045200Y-57173904D02*
X141997580Y-57221523D01*
X149233095Y-79591819D02*
X149804523Y-79591819D01*
X149518809Y-80591819D02*
X149518809Y-79591819D01*
X150137857Y-80591819D02*
X150137857Y-79591819D01*
X150137857Y-79591819D02*
X150518809Y-79591819D01*
X150518809Y-79591819D02*
X150614047Y-79639438D01*
X150614047Y-79639438D02*
X150661666Y-79687057D01*
X150661666Y-79687057D02*
X150709285Y-79782295D01*
X150709285Y-79782295D02*
X150709285Y-79925152D01*
X150709285Y-79925152D02*
X150661666Y-80020390D01*
X150661666Y-80020390D02*
X150614047Y-80068009D01*
X150614047Y-80068009D02*
X150518809Y-80115628D01*
X150518809Y-80115628D02*
X150137857Y-80115628D01*
X151661666Y-80591819D02*
X151090238Y-80591819D01*
X151375952Y-80591819D02*
X151375952Y-79591819D01*
X151375952Y-79591819D02*
X151280714Y-79734676D01*
X151280714Y-79734676D02*
X151185476Y-79829914D01*
X151185476Y-79829914D02*
X151090238Y-79877533D01*
X136005333Y-65764580D02*
X135957714Y-65812200D01*
X135957714Y-65812200D02*
X135814857Y-65859819D01*
X135814857Y-65859819D02*
X135719619Y-65859819D01*
X135719619Y-65859819D02*
X135576762Y-65812200D01*
X135576762Y-65812200D02*
X135481524Y-65716961D01*
X135481524Y-65716961D02*
X135433905Y-65621723D01*
X135433905Y-65621723D02*
X135386286Y-65431247D01*
X135386286Y-65431247D02*
X135386286Y-65288390D01*
X135386286Y-65288390D02*
X135433905Y-65097914D01*
X135433905Y-65097914D02*
X135481524Y-65002676D01*
X135481524Y-65002676D02*
X135576762Y-64907438D01*
X135576762Y-64907438D02*
X135719619Y-64859819D01*
X135719619Y-64859819D02*
X135814857Y-64859819D01*
X135814857Y-64859819D02*
X135957714Y-64907438D01*
X135957714Y-64907438D02*
X136005333Y-64955057D01*
X136862476Y-64859819D02*
X136672000Y-64859819D01*
X136672000Y-64859819D02*
X136576762Y-64907438D01*
X136576762Y-64907438D02*
X136529143Y-64955057D01*
X136529143Y-64955057D02*
X136433905Y-65097914D01*
X136433905Y-65097914D02*
X136386286Y-65288390D01*
X136386286Y-65288390D02*
X136386286Y-65669342D01*
X136386286Y-65669342D02*
X136433905Y-65764580D01*
X136433905Y-65764580D02*
X136481524Y-65812200D01*
X136481524Y-65812200D02*
X136576762Y-65859819D01*
X136576762Y-65859819D02*
X136767238Y-65859819D01*
X136767238Y-65859819D02*
X136862476Y-65812200D01*
X136862476Y-65812200D02*
X136910095Y-65764580D01*
X136910095Y-65764580D02*
X136957714Y-65669342D01*
X136957714Y-65669342D02*
X136957714Y-65431247D01*
X136957714Y-65431247D02*
X136910095Y-65336009D01*
X136910095Y-65336009D02*
X136862476Y-65288390D01*
X136862476Y-65288390D02*
X136767238Y-65240771D01*
X136767238Y-65240771D02*
X136576762Y-65240771D01*
X136576762Y-65240771D02*
X136481524Y-65288390D01*
X136481524Y-65288390D02*
X136433905Y-65336009D01*
X136433905Y-65336009D02*
X136386286Y-65431247D01*
X150346580Y-77858857D02*
X150394200Y-77906476D01*
X150394200Y-77906476D02*
X150441819Y-78049333D01*
X150441819Y-78049333D02*
X150441819Y-78144571D01*
X150441819Y-78144571D02*
X150394200Y-78287428D01*
X150394200Y-78287428D02*
X150298961Y-78382666D01*
X150298961Y-78382666D02*
X150203723Y-78430285D01*
X150203723Y-78430285D02*
X150013247Y-78477904D01*
X150013247Y-78477904D02*
X149870390Y-78477904D01*
X149870390Y-78477904D02*
X149679914Y-78430285D01*
X149679914Y-78430285D02*
X149584676Y-78382666D01*
X149584676Y-78382666D02*
X149489438Y-78287428D01*
X149489438Y-78287428D02*
X149441819Y-78144571D01*
X149441819Y-78144571D02*
X149441819Y-78049333D01*
X149441819Y-78049333D02*
X149489438Y-77906476D01*
X149489438Y-77906476D02*
X149537057Y-77858857D01*
X150441819Y-76906476D02*
X150441819Y-77477904D01*
X150441819Y-77192190D02*
X149441819Y-77192190D01*
X149441819Y-77192190D02*
X149584676Y-77287428D01*
X149584676Y-77287428D02*
X149679914Y-77382666D01*
X149679914Y-77382666D02*
X149727533Y-77477904D01*
X149537057Y-76525523D02*
X149489438Y-76477904D01*
X149489438Y-76477904D02*
X149441819Y-76382666D01*
X149441819Y-76382666D02*
X149441819Y-76144571D01*
X149441819Y-76144571D02*
X149489438Y-76049333D01*
X149489438Y-76049333D02*
X149537057Y-76001714D01*
X149537057Y-76001714D02*
X149632295Y-75954095D01*
X149632295Y-75954095D02*
X149727533Y-75954095D01*
X149727533Y-75954095D02*
X149870390Y-76001714D01*
X149870390Y-76001714D02*
X150441819Y-76573142D01*
X150441819Y-76573142D02*
X150441819Y-75954095D01*
X152535095Y-86703819D02*
X153106523Y-86703819D01*
X152820809Y-87703819D02*
X152820809Y-86703819D01*
X153439857Y-87703819D02*
X153439857Y-86703819D01*
X153439857Y-86703819D02*
X153820809Y-86703819D01*
X153820809Y-86703819D02*
X153916047Y-86751438D01*
X153916047Y-86751438D02*
X153963666Y-86799057D01*
X153963666Y-86799057D02*
X154011285Y-86894295D01*
X154011285Y-86894295D02*
X154011285Y-87037152D01*
X154011285Y-87037152D02*
X153963666Y-87132390D01*
X153963666Y-87132390D02*
X153916047Y-87180009D01*
X153916047Y-87180009D02*
X153820809Y-87227628D01*
X153820809Y-87227628D02*
X153439857Y-87227628D01*
X154392238Y-86799057D02*
X154439857Y-86751438D01*
X154439857Y-86751438D02*
X154535095Y-86703819D01*
X154535095Y-86703819D02*
X154773190Y-86703819D01*
X154773190Y-86703819D02*
X154868428Y-86751438D01*
X154868428Y-86751438D02*
X154916047Y-86799057D01*
X154916047Y-86799057D02*
X154963666Y-86894295D01*
X154963666Y-86894295D02*
X154963666Y-86989533D01*
X154963666Y-86989533D02*
X154916047Y-87132390D01*
X154916047Y-87132390D02*
X154344619Y-87703819D01*
X154344619Y-87703819D02*
X154963666Y-87703819D01*
X124754819Y-70421166D02*
X124278628Y-70754499D01*
X124754819Y-70992594D02*
X123754819Y-70992594D01*
X123754819Y-70992594D02*
X123754819Y-70611642D01*
X123754819Y-70611642D02*
X123802438Y-70516404D01*
X123802438Y-70516404D02*
X123850057Y-70468785D01*
X123850057Y-70468785D02*
X123945295Y-70421166D01*
X123945295Y-70421166D02*
X124088152Y-70421166D01*
X124088152Y-70421166D02*
X124183390Y-70468785D01*
X124183390Y-70468785D02*
X124231009Y-70516404D01*
X124231009Y-70516404D02*
X124278628Y-70611642D01*
X124278628Y-70611642D02*
X124278628Y-70992594D01*
X123754819Y-69564023D02*
X123754819Y-69754499D01*
X123754819Y-69754499D02*
X123802438Y-69849737D01*
X123802438Y-69849737D02*
X123850057Y-69897356D01*
X123850057Y-69897356D02*
X123992914Y-69992594D01*
X123992914Y-69992594D02*
X124183390Y-70040213D01*
X124183390Y-70040213D02*
X124564342Y-70040213D01*
X124564342Y-70040213D02*
X124659580Y-69992594D01*
X124659580Y-69992594D02*
X124707200Y-69944975D01*
X124707200Y-69944975D02*
X124754819Y-69849737D01*
X124754819Y-69849737D02*
X124754819Y-69659261D01*
X124754819Y-69659261D02*
X124707200Y-69564023D01*
X124707200Y-69564023D02*
X124659580Y-69516404D01*
X124659580Y-69516404D02*
X124564342Y-69468785D01*
X124564342Y-69468785D02*
X124326247Y-69468785D01*
X124326247Y-69468785D02*
X124231009Y-69516404D01*
X124231009Y-69516404D02*
X124183390Y-69564023D01*
X124183390Y-69564023D02*
X124135771Y-69659261D01*
X124135771Y-69659261D02*
X124135771Y-69849737D01*
X124135771Y-69849737D02*
X124183390Y-69944975D01*
X124183390Y-69944975D02*
X124231009Y-69992594D01*
X124231009Y-69992594D02*
X124326247Y-70040213D01*
X117025009Y-71905714D02*
X117072628Y-71762857D01*
X117072628Y-71762857D02*
X117120247Y-71715238D01*
X117120247Y-71715238D02*
X117215485Y-71667619D01*
X117215485Y-71667619D02*
X117358342Y-71667619D01*
X117358342Y-71667619D02*
X117453580Y-71715238D01*
X117453580Y-71715238D02*
X117501200Y-71762857D01*
X117501200Y-71762857D02*
X117548819Y-71858095D01*
X117548819Y-71858095D02*
X117548819Y-72239047D01*
X117548819Y-72239047D02*
X116548819Y-72239047D01*
X116548819Y-72239047D02*
X116548819Y-71905714D01*
X116548819Y-71905714D02*
X116596438Y-71810476D01*
X116596438Y-71810476D02*
X116644057Y-71762857D01*
X116644057Y-71762857D02*
X116739295Y-71715238D01*
X116739295Y-71715238D02*
X116834533Y-71715238D01*
X116834533Y-71715238D02*
X116929771Y-71762857D01*
X116929771Y-71762857D02*
X116977390Y-71810476D01*
X116977390Y-71810476D02*
X117025009Y-71905714D01*
X117025009Y-71905714D02*
X117025009Y-72239047D01*
X116548819Y-71381904D02*
X116548819Y-70810476D01*
X117548819Y-71096190D02*
X116548819Y-71096190D01*
X117548819Y-69953333D02*
X117548819Y-70524761D01*
X117548819Y-70239047D02*
X116548819Y-70239047D01*
X116548819Y-70239047D02*
X116691676Y-70334285D01*
X116691676Y-70334285D02*
X116786914Y-70429523D01*
X116786914Y-70429523D02*
X116834533Y-70524761D01*
X127519580Y-80652857D02*
X127567200Y-80700476D01*
X127567200Y-80700476D02*
X127614819Y-80843333D01*
X127614819Y-80843333D02*
X127614819Y-80938571D01*
X127614819Y-80938571D02*
X127567200Y-81081428D01*
X127567200Y-81081428D02*
X127471961Y-81176666D01*
X127471961Y-81176666D02*
X127376723Y-81224285D01*
X127376723Y-81224285D02*
X127186247Y-81271904D01*
X127186247Y-81271904D02*
X127043390Y-81271904D01*
X127043390Y-81271904D02*
X126852914Y-81224285D01*
X126852914Y-81224285D02*
X126757676Y-81176666D01*
X126757676Y-81176666D02*
X126662438Y-81081428D01*
X126662438Y-81081428D02*
X126614819Y-80938571D01*
X126614819Y-80938571D02*
X126614819Y-80843333D01*
X126614819Y-80843333D02*
X126662438Y-80700476D01*
X126662438Y-80700476D02*
X126710057Y-80652857D01*
X127614819Y-79700476D02*
X127614819Y-80271904D01*
X127614819Y-79986190D02*
X126614819Y-79986190D01*
X126614819Y-79986190D02*
X126757676Y-80081428D01*
X126757676Y-80081428D02*
X126852914Y-80176666D01*
X126852914Y-80176666D02*
X126900533Y-80271904D01*
X126614819Y-79367142D02*
X126614819Y-78700476D01*
X126614819Y-78700476D02*
X127614819Y-79129047D01*
X155890419Y-72266133D02*
X156604704Y-72266133D01*
X156604704Y-72266133D02*
X156747561Y-72313752D01*
X156747561Y-72313752D02*
X156842800Y-72408990D01*
X156842800Y-72408990D02*
X156890419Y-72551847D01*
X156890419Y-72551847D02*
X156890419Y-72647085D01*
X156890419Y-71266133D02*
X156890419Y-71837561D01*
X156890419Y-71551847D02*
X155890419Y-71551847D01*
X155890419Y-71551847D02*
X156033276Y-71647085D01*
X156033276Y-71647085D02*
X156128514Y-71742323D01*
X156128514Y-71742323D02*
X156176133Y-71837561D01*
X159472333Y-64843819D02*
X159139000Y-64367628D01*
X158900905Y-64843819D02*
X158900905Y-63843819D01*
X158900905Y-63843819D02*
X159281857Y-63843819D01*
X159281857Y-63843819D02*
X159377095Y-63891438D01*
X159377095Y-63891438D02*
X159424714Y-63939057D01*
X159424714Y-63939057D02*
X159472333Y-64034295D01*
X159472333Y-64034295D02*
X159472333Y-64177152D01*
X159472333Y-64177152D02*
X159424714Y-64272390D01*
X159424714Y-64272390D02*
X159377095Y-64320009D01*
X159377095Y-64320009D02*
X159281857Y-64367628D01*
X159281857Y-64367628D02*
X158900905Y-64367628D01*
X159805667Y-63843819D02*
X160424714Y-63843819D01*
X160424714Y-63843819D02*
X160091381Y-64224771D01*
X160091381Y-64224771D02*
X160234238Y-64224771D01*
X160234238Y-64224771D02*
X160329476Y-64272390D01*
X160329476Y-64272390D02*
X160377095Y-64320009D01*
X160377095Y-64320009D02*
X160424714Y-64415247D01*
X160424714Y-64415247D02*
X160424714Y-64653342D01*
X160424714Y-64653342D02*
X160377095Y-64748580D01*
X160377095Y-64748580D02*
X160329476Y-64796200D01*
X160329476Y-64796200D02*
X160234238Y-64843819D01*
X160234238Y-64843819D02*
X159948524Y-64843819D01*
X159948524Y-64843819D02*
X159853286Y-64796200D01*
X159853286Y-64796200D02*
X159805667Y-64748580D01*
X131564142Y-76051580D02*
X131516523Y-76099200D01*
X131516523Y-76099200D02*
X131373666Y-76146819D01*
X131373666Y-76146819D02*
X131278428Y-76146819D01*
X131278428Y-76146819D02*
X131135571Y-76099200D01*
X131135571Y-76099200D02*
X131040333Y-76003961D01*
X131040333Y-76003961D02*
X130992714Y-75908723D01*
X130992714Y-75908723D02*
X130945095Y-75718247D01*
X130945095Y-75718247D02*
X130945095Y-75575390D01*
X130945095Y-75575390D02*
X130992714Y-75384914D01*
X130992714Y-75384914D02*
X131040333Y-75289676D01*
X131040333Y-75289676D02*
X131135571Y-75194438D01*
X131135571Y-75194438D02*
X131278428Y-75146819D01*
X131278428Y-75146819D02*
X131373666Y-75146819D01*
X131373666Y-75146819D02*
X131516523Y-75194438D01*
X131516523Y-75194438D02*
X131564142Y-75242057D01*
X132516523Y-76146819D02*
X131945095Y-76146819D01*
X132230809Y-76146819D02*
X132230809Y-75146819D01*
X132230809Y-75146819D02*
X132135571Y-75289676D01*
X132135571Y-75289676D02*
X132040333Y-75384914D01*
X132040333Y-75384914D02*
X131945095Y-75432533D01*
X133468904Y-76146819D02*
X132897476Y-76146819D01*
X133183190Y-76146819D02*
X133183190Y-75146819D01*
X133183190Y-75146819D02*
X133087952Y-75289676D01*
X133087952Y-75289676D02*
X132992714Y-75384914D01*
X132992714Y-75384914D02*
X132897476Y-75432533D01*
X143089333Y-83815580D02*
X143041714Y-83863200D01*
X143041714Y-83863200D02*
X142898857Y-83910819D01*
X142898857Y-83910819D02*
X142803619Y-83910819D01*
X142803619Y-83910819D02*
X142660762Y-83863200D01*
X142660762Y-83863200D02*
X142565524Y-83767961D01*
X142565524Y-83767961D02*
X142517905Y-83672723D01*
X142517905Y-83672723D02*
X142470286Y-83482247D01*
X142470286Y-83482247D02*
X142470286Y-83339390D01*
X142470286Y-83339390D02*
X142517905Y-83148914D01*
X142517905Y-83148914D02*
X142565524Y-83053676D01*
X142565524Y-83053676D02*
X142660762Y-82958438D01*
X142660762Y-82958438D02*
X142803619Y-82910819D01*
X142803619Y-82910819D02*
X142898857Y-82910819D01*
X142898857Y-82910819D02*
X143041714Y-82958438D01*
X143041714Y-82958438D02*
X143089333Y-83006057D01*
X143994095Y-82910819D02*
X143517905Y-82910819D01*
X143517905Y-82910819D02*
X143470286Y-83387009D01*
X143470286Y-83387009D02*
X143517905Y-83339390D01*
X143517905Y-83339390D02*
X143613143Y-83291771D01*
X143613143Y-83291771D02*
X143851238Y-83291771D01*
X143851238Y-83291771D02*
X143946476Y-83339390D01*
X143946476Y-83339390D02*
X143994095Y-83387009D01*
X143994095Y-83387009D02*
X144041714Y-83482247D01*
X144041714Y-83482247D02*
X144041714Y-83720342D01*
X144041714Y-83720342D02*
X143994095Y-83815580D01*
X143994095Y-83815580D02*
X143946476Y-83863200D01*
X143946476Y-83863200D02*
X143851238Y-83910819D01*
X143851238Y-83910819D02*
X143613143Y-83910819D01*
X143613143Y-83910819D02*
X143517905Y-83863200D01*
X143517905Y-83863200D02*
X143470286Y-83815580D01*
X140041333Y-65747580D02*
X139993714Y-65795200D01*
X139993714Y-65795200D02*
X139850857Y-65842819D01*
X139850857Y-65842819D02*
X139755619Y-65842819D01*
X139755619Y-65842819D02*
X139612762Y-65795200D01*
X139612762Y-65795200D02*
X139517524Y-65699961D01*
X139517524Y-65699961D02*
X139469905Y-65604723D01*
X139469905Y-65604723D02*
X139422286Y-65414247D01*
X139422286Y-65414247D02*
X139422286Y-65271390D01*
X139422286Y-65271390D02*
X139469905Y-65080914D01*
X139469905Y-65080914D02*
X139517524Y-64985676D01*
X139517524Y-64985676D02*
X139612762Y-64890438D01*
X139612762Y-64890438D02*
X139755619Y-64842819D01*
X139755619Y-64842819D02*
X139850857Y-64842819D01*
X139850857Y-64842819D02*
X139993714Y-64890438D01*
X139993714Y-64890438D02*
X140041333Y-64938057D01*
X140374667Y-64842819D02*
X140993714Y-64842819D01*
X140993714Y-64842819D02*
X140660381Y-65223771D01*
X140660381Y-65223771D02*
X140803238Y-65223771D01*
X140803238Y-65223771D02*
X140898476Y-65271390D01*
X140898476Y-65271390D02*
X140946095Y-65319009D01*
X140946095Y-65319009D02*
X140993714Y-65414247D01*
X140993714Y-65414247D02*
X140993714Y-65652342D01*
X140993714Y-65652342D02*
X140946095Y-65747580D01*
X140946095Y-65747580D02*
X140898476Y-65795200D01*
X140898476Y-65795200D02*
X140803238Y-65842819D01*
X140803238Y-65842819D02*
X140517524Y-65842819D01*
X140517524Y-65842819D02*
X140422286Y-65795200D01*
X140422286Y-65795200D02*
X140374667Y-65747580D01*
X135198142Y-62875580D02*
X135150523Y-62923200D01*
X135150523Y-62923200D02*
X135007666Y-62970819D01*
X135007666Y-62970819D02*
X134912428Y-62970819D01*
X134912428Y-62970819D02*
X134769571Y-62923200D01*
X134769571Y-62923200D02*
X134674333Y-62827961D01*
X134674333Y-62827961D02*
X134626714Y-62732723D01*
X134626714Y-62732723D02*
X134579095Y-62542247D01*
X134579095Y-62542247D02*
X134579095Y-62399390D01*
X134579095Y-62399390D02*
X134626714Y-62208914D01*
X134626714Y-62208914D02*
X134674333Y-62113676D01*
X134674333Y-62113676D02*
X134769571Y-62018438D01*
X134769571Y-62018438D02*
X134912428Y-61970819D01*
X134912428Y-61970819D02*
X135007666Y-61970819D01*
X135007666Y-61970819D02*
X135150523Y-62018438D01*
X135150523Y-62018438D02*
X135198142Y-62066057D01*
X136150523Y-62970819D02*
X135579095Y-62970819D01*
X135864809Y-62970819D02*
X135864809Y-61970819D01*
X135864809Y-61970819D02*
X135769571Y-62113676D01*
X135769571Y-62113676D02*
X135674333Y-62208914D01*
X135674333Y-62208914D02*
X135579095Y-62256533D01*
X137007666Y-62304152D02*
X137007666Y-62970819D01*
X136769571Y-61923200D02*
X136531476Y-62637485D01*
X136531476Y-62637485D02*
X137150523Y-62637485D01*
X138517333Y-82799580D02*
X138469714Y-82847200D01*
X138469714Y-82847200D02*
X138326857Y-82894819D01*
X138326857Y-82894819D02*
X138231619Y-82894819D01*
X138231619Y-82894819D02*
X138088762Y-82847200D01*
X138088762Y-82847200D02*
X137993524Y-82751961D01*
X137993524Y-82751961D02*
X137945905Y-82656723D01*
X137945905Y-82656723D02*
X137898286Y-82466247D01*
X137898286Y-82466247D02*
X137898286Y-82323390D01*
X137898286Y-82323390D02*
X137945905Y-82132914D01*
X137945905Y-82132914D02*
X137993524Y-82037676D01*
X137993524Y-82037676D02*
X138088762Y-81942438D01*
X138088762Y-81942438D02*
X138231619Y-81894819D01*
X138231619Y-81894819D02*
X138326857Y-81894819D01*
X138326857Y-81894819D02*
X138469714Y-81942438D01*
X138469714Y-81942438D02*
X138517333Y-81990057D01*
X138993524Y-82894819D02*
X139184000Y-82894819D01*
X139184000Y-82894819D02*
X139279238Y-82847200D01*
X139279238Y-82847200D02*
X139326857Y-82799580D01*
X139326857Y-82799580D02*
X139422095Y-82656723D01*
X139422095Y-82656723D02*
X139469714Y-82466247D01*
X139469714Y-82466247D02*
X139469714Y-82085295D01*
X139469714Y-82085295D02*
X139422095Y-81990057D01*
X139422095Y-81990057D02*
X139374476Y-81942438D01*
X139374476Y-81942438D02*
X139279238Y-81894819D01*
X139279238Y-81894819D02*
X139088762Y-81894819D01*
X139088762Y-81894819D02*
X138993524Y-81942438D01*
X138993524Y-81942438D02*
X138945905Y-81990057D01*
X138945905Y-81990057D02*
X138898286Y-82085295D01*
X138898286Y-82085295D02*
X138898286Y-82323390D01*
X138898286Y-82323390D02*
X138945905Y-82418628D01*
X138945905Y-82418628D02*
X138993524Y-82466247D01*
X138993524Y-82466247D02*
X139088762Y-82513866D01*
X139088762Y-82513866D02*
X139279238Y-82513866D01*
X139279238Y-82513866D02*
X139374476Y-82466247D01*
X139374476Y-82466247D02*
X139422095Y-82418628D01*
X139422095Y-82418628D02*
X139469714Y-82323390D01*
X148637666Y-67018819D02*
X148637666Y-67733104D01*
X148637666Y-67733104D02*
X148590047Y-67875961D01*
X148590047Y-67875961D02*
X148494809Y-67971200D01*
X148494809Y-67971200D02*
X148351952Y-68018819D01*
X148351952Y-68018819D02*
X148256714Y-68018819D01*
X149066238Y-67114057D02*
X149113857Y-67066438D01*
X149113857Y-67066438D02*
X149209095Y-67018819D01*
X149209095Y-67018819D02*
X149447190Y-67018819D01*
X149447190Y-67018819D02*
X149542428Y-67066438D01*
X149542428Y-67066438D02*
X149590047Y-67114057D01*
X149590047Y-67114057D02*
X149637666Y-67209295D01*
X149637666Y-67209295D02*
X149637666Y-67304533D01*
X149637666Y-67304533D02*
X149590047Y-67447390D01*
X149590047Y-67447390D02*
X149018619Y-68018819D01*
X149018619Y-68018819D02*
X149637666Y-68018819D01*
X127981642Y-76719580D02*
X127934023Y-76767200D01*
X127934023Y-76767200D02*
X127791166Y-76814819D01*
X127791166Y-76814819D02*
X127695928Y-76814819D01*
X127695928Y-76814819D02*
X127553071Y-76767200D01*
X127553071Y-76767200D02*
X127457833Y-76671961D01*
X127457833Y-76671961D02*
X127410214Y-76576723D01*
X127410214Y-76576723D02*
X127362595Y-76386247D01*
X127362595Y-76386247D02*
X127362595Y-76243390D01*
X127362595Y-76243390D02*
X127410214Y-76052914D01*
X127410214Y-76052914D02*
X127457833Y-75957676D01*
X127457833Y-75957676D02*
X127553071Y-75862438D01*
X127553071Y-75862438D02*
X127695928Y-75814819D01*
X127695928Y-75814819D02*
X127791166Y-75814819D01*
X127791166Y-75814819D02*
X127934023Y-75862438D01*
X127934023Y-75862438D02*
X127981642Y-75910057D01*
X128362595Y-75910057D02*
X128410214Y-75862438D01*
X128410214Y-75862438D02*
X128505452Y-75814819D01*
X128505452Y-75814819D02*
X128743547Y-75814819D01*
X128743547Y-75814819D02*
X128838785Y-75862438D01*
X128838785Y-75862438D02*
X128886404Y-75910057D01*
X128886404Y-75910057D02*
X128934023Y-76005295D01*
X128934023Y-76005295D02*
X128934023Y-76100533D01*
X128934023Y-76100533D02*
X128886404Y-76243390D01*
X128886404Y-76243390D02*
X128314976Y-76814819D01*
X128314976Y-76814819D02*
X128934023Y-76814819D01*
X129886404Y-76814819D02*
X129314976Y-76814819D01*
X129600690Y-76814819D02*
X129600690Y-75814819D01*
X129600690Y-75814819D02*
X129505452Y-75957676D01*
X129505452Y-75957676D02*
X129410214Y-76052914D01*
X129410214Y-76052914D02*
X129314976Y-76100533D01*
X130026580Y-82811857D02*
X130074200Y-82859476D01*
X130074200Y-82859476D02*
X130121819Y-83002333D01*
X130121819Y-83002333D02*
X130121819Y-83097571D01*
X130121819Y-83097571D02*
X130074200Y-83240428D01*
X130074200Y-83240428D02*
X129978961Y-83335666D01*
X129978961Y-83335666D02*
X129883723Y-83383285D01*
X129883723Y-83383285D02*
X129693247Y-83430904D01*
X129693247Y-83430904D02*
X129550390Y-83430904D01*
X129550390Y-83430904D02*
X129359914Y-83383285D01*
X129359914Y-83383285D02*
X129264676Y-83335666D01*
X129264676Y-83335666D02*
X129169438Y-83240428D01*
X129169438Y-83240428D02*
X129121819Y-83097571D01*
X129121819Y-83097571D02*
X129121819Y-83002333D01*
X129121819Y-83002333D02*
X129169438Y-82859476D01*
X129169438Y-82859476D02*
X129217057Y-82811857D01*
X130121819Y-81859476D02*
X130121819Y-82430904D01*
X130121819Y-82145190D02*
X129121819Y-82145190D01*
X129121819Y-82145190D02*
X129264676Y-82240428D01*
X129264676Y-82240428D02*
X129359914Y-82335666D01*
X129359914Y-82335666D02*
X129407533Y-82430904D01*
X130121819Y-81383285D02*
X130121819Y-81192809D01*
X130121819Y-81192809D02*
X130074200Y-81097571D01*
X130074200Y-81097571D02*
X130026580Y-81049952D01*
X130026580Y-81049952D02*
X129883723Y-80954714D01*
X129883723Y-80954714D02*
X129693247Y-80907095D01*
X129693247Y-80907095D02*
X129312295Y-80907095D01*
X129312295Y-80907095D02*
X129217057Y-80954714D01*
X129217057Y-80954714D02*
X129169438Y-81002333D01*
X129169438Y-81002333D02*
X129121819Y-81097571D01*
X129121819Y-81097571D02*
X129121819Y-81288047D01*
X129121819Y-81288047D02*
X129169438Y-81383285D01*
X129169438Y-81383285D02*
X129217057Y-81430904D01*
X129217057Y-81430904D02*
X129312295Y-81478523D01*
X129312295Y-81478523D02*
X129550390Y-81478523D01*
X129550390Y-81478523D02*
X129645628Y-81430904D01*
X129645628Y-81430904D02*
X129693247Y-81383285D01*
X129693247Y-81383285D02*
X129740866Y-81288047D01*
X129740866Y-81288047D02*
X129740866Y-81097571D01*
X129740866Y-81097571D02*
X129693247Y-81002333D01*
X129693247Y-81002333D02*
X129645628Y-80954714D01*
X129645628Y-80954714D02*
X129550390Y-80907095D01*
X147026333Y-81639580D02*
X146978714Y-81687200D01*
X146978714Y-81687200D02*
X146835857Y-81734819D01*
X146835857Y-81734819D02*
X146740619Y-81734819D01*
X146740619Y-81734819D02*
X146597762Y-81687200D01*
X146597762Y-81687200D02*
X146502524Y-81591961D01*
X146502524Y-81591961D02*
X146454905Y-81496723D01*
X146454905Y-81496723D02*
X146407286Y-81306247D01*
X146407286Y-81306247D02*
X146407286Y-81163390D01*
X146407286Y-81163390D02*
X146454905Y-80972914D01*
X146454905Y-80972914D02*
X146502524Y-80877676D01*
X146502524Y-80877676D02*
X146597762Y-80782438D01*
X146597762Y-80782438D02*
X146740619Y-80734819D01*
X146740619Y-80734819D02*
X146835857Y-80734819D01*
X146835857Y-80734819D02*
X146978714Y-80782438D01*
X146978714Y-80782438D02*
X147026333Y-80830057D01*
X147359667Y-80734819D02*
X148026333Y-80734819D01*
X148026333Y-80734819D02*
X147597762Y-81734819D01*
X154328905Y-67891819D02*
X154328905Y-66891819D01*
X154328905Y-66891819D02*
X154567000Y-66891819D01*
X154567000Y-66891819D02*
X154709857Y-66939438D01*
X154709857Y-66939438D02*
X154805095Y-67034676D01*
X154805095Y-67034676D02*
X154852714Y-67129914D01*
X154852714Y-67129914D02*
X154900333Y-67320390D01*
X154900333Y-67320390D02*
X154900333Y-67463247D01*
X154900333Y-67463247D02*
X154852714Y-67653723D01*
X154852714Y-67653723D02*
X154805095Y-67748961D01*
X154805095Y-67748961D02*
X154709857Y-67844200D01*
X154709857Y-67844200D02*
X154567000Y-67891819D01*
X154567000Y-67891819D02*
X154328905Y-67891819D01*
X155852714Y-67891819D02*
X155281286Y-67891819D01*
X155567000Y-67891819D02*
X155567000Y-66891819D01*
X155567000Y-66891819D02*
X155471762Y-67034676D01*
X155471762Y-67034676D02*
X155376524Y-67129914D01*
X155376524Y-67129914D02*
X155281286Y-67177533D01*
X127768580Y-71635857D02*
X127816200Y-71683476D01*
X127816200Y-71683476D02*
X127863819Y-71826333D01*
X127863819Y-71826333D02*
X127863819Y-71921571D01*
X127863819Y-71921571D02*
X127816200Y-72064428D01*
X127816200Y-72064428D02*
X127720961Y-72159666D01*
X127720961Y-72159666D02*
X127625723Y-72207285D01*
X127625723Y-72207285D02*
X127435247Y-72254904D01*
X127435247Y-72254904D02*
X127292390Y-72254904D01*
X127292390Y-72254904D02*
X127101914Y-72207285D01*
X127101914Y-72207285D02*
X127006676Y-72159666D01*
X127006676Y-72159666D02*
X126911438Y-72064428D01*
X126911438Y-72064428D02*
X126863819Y-71921571D01*
X126863819Y-71921571D02*
X126863819Y-71826333D01*
X126863819Y-71826333D02*
X126911438Y-71683476D01*
X126911438Y-71683476D02*
X126959057Y-71635857D01*
X126959057Y-71254904D02*
X126911438Y-71207285D01*
X126911438Y-71207285D02*
X126863819Y-71112047D01*
X126863819Y-71112047D02*
X126863819Y-70873952D01*
X126863819Y-70873952D02*
X126911438Y-70778714D01*
X126911438Y-70778714D02*
X126959057Y-70731095D01*
X126959057Y-70731095D02*
X127054295Y-70683476D01*
X127054295Y-70683476D02*
X127149533Y-70683476D01*
X127149533Y-70683476D02*
X127292390Y-70731095D01*
X127292390Y-70731095D02*
X127863819Y-71302523D01*
X127863819Y-71302523D02*
X127863819Y-70683476D01*
X126863819Y-70064428D02*
X126863819Y-69969190D01*
X126863819Y-69969190D02*
X126911438Y-69873952D01*
X126911438Y-69873952D02*
X126959057Y-69826333D01*
X126959057Y-69826333D02*
X127054295Y-69778714D01*
X127054295Y-69778714D02*
X127244771Y-69731095D01*
X127244771Y-69731095D02*
X127482866Y-69731095D01*
X127482866Y-69731095D02*
X127673342Y-69778714D01*
X127673342Y-69778714D02*
X127768580Y-69826333D01*
X127768580Y-69826333D02*
X127816200Y-69873952D01*
X127816200Y-69873952D02*
X127863819Y-69969190D01*
X127863819Y-69969190D02*
X127863819Y-70064428D01*
X127863819Y-70064428D02*
X127816200Y-70159666D01*
X127816200Y-70159666D02*
X127768580Y-70207285D01*
X127768580Y-70207285D02*
X127673342Y-70254904D01*
X127673342Y-70254904D02*
X127482866Y-70302523D01*
X127482866Y-70302523D02*
X127244771Y-70302523D01*
X127244771Y-70302523D02*
X127054295Y-70254904D01*
X127054295Y-70254904D02*
X126959057Y-70207285D01*
X126959057Y-70207285D02*
X126911438Y-70159666D01*
X126911438Y-70159666D02*
X126863819Y-70064428D01*
X138009333Y-65747580D02*
X137961714Y-65795200D01*
X137961714Y-65795200D02*
X137818857Y-65842819D01*
X137818857Y-65842819D02*
X137723619Y-65842819D01*
X137723619Y-65842819D02*
X137580762Y-65795200D01*
X137580762Y-65795200D02*
X137485524Y-65699961D01*
X137485524Y-65699961D02*
X137437905Y-65604723D01*
X137437905Y-65604723D02*
X137390286Y-65414247D01*
X137390286Y-65414247D02*
X137390286Y-65271390D01*
X137390286Y-65271390D02*
X137437905Y-65080914D01*
X137437905Y-65080914D02*
X137485524Y-64985676D01*
X137485524Y-64985676D02*
X137580762Y-64890438D01*
X137580762Y-64890438D02*
X137723619Y-64842819D01*
X137723619Y-64842819D02*
X137818857Y-64842819D01*
X137818857Y-64842819D02*
X137961714Y-64890438D01*
X137961714Y-64890438D02*
X138009333Y-64938057D01*
X138390286Y-64938057D02*
X138437905Y-64890438D01*
X138437905Y-64890438D02*
X138533143Y-64842819D01*
X138533143Y-64842819D02*
X138771238Y-64842819D01*
X138771238Y-64842819D02*
X138866476Y-64890438D01*
X138866476Y-64890438D02*
X138914095Y-64938057D01*
X138914095Y-64938057D02*
X138961714Y-65033295D01*
X138961714Y-65033295D02*
X138961714Y-65128533D01*
X138961714Y-65128533D02*
X138914095Y-65271390D01*
X138914095Y-65271390D02*
X138342667Y-65842819D01*
X138342667Y-65842819D02*
X138961714Y-65842819D01*
X129730667Y-56624200D02*
X129873524Y-56671819D01*
X129873524Y-56671819D02*
X130111619Y-56671819D01*
X130111619Y-56671819D02*
X130206857Y-56624200D01*
X130206857Y-56624200D02*
X130254476Y-56576580D01*
X130254476Y-56576580D02*
X130302095Y-56481342D01*
X130302095Y-56481342D02*
X130302095Y-56386104D01*
X130302095Y-56386104D02*
X130254476Y-56290866D01*
X130254476Y-56290866D02*
X130206857Y-56243247D01*
X130206857Y-56243247D02*
X130111619Y-56195628D01*
X130111619Y-56195628D02*
X129921143Y-56148009D01*
X129921143Y-56148009D02*
X129825905Y-56100390D01*
X129825905Y-56100390D02*
X129778286Y-56052771D01*
X129778286Y-56052771D02*
X129730667Y-55957533D01*
X129730667Y-55957533D02*
X129730667Y-55862295D01*
X129730667Y-55862295D02*
X129778286Y-55767057D01*
X129778286Y-55767057D02*
X129825905Y-55719438D01*
X129825905Y-55719438D02*
X129921143Y-55671819D01*
X129921143Y-55671819D02*
X130159238Y-55671819D01*
X130159238Y-55671819D02*
X130302095Y-55719438D01*
X130635429Y-55671819D02*
X130873524Y-56671819D01*
X130873524Y-56671819D02*
X131064000Y-55957533D01*
X131064000Y-55957533D02*
X131254476Y-56671819D01*
X131254476Y-56671819D02*
X131492572Y-55671819D01*
X132397333Y-56671819D02*
X131825905Y-56671819D01*
X132111619Y-56671819D02*
X132111619Y-55671819D01*
X132111619Y-55671819D02*
X132016381Y-55814676D01*
X132016381Y-55814676D02*
X131921143Y-55909914D01*
X131921143Y-55909914D02*
X131825905Y-55957533D01*
X120628580Y-77236857D02*
X120676200Y-77284476D01*
X120676200Y-77284476D02*
X120723819Y-77427333D01*
X120723819Y-77427333D02*
X120723819Y-77522571D01*
X120723819Y-77522571D02*
X120676200Y-77665428D01*
X120676200Y-77665428D02*
X120580961Y-77760666D01*
X120580961Y-77760666D02*
X120485723Y-77808285D01*
X120485723Y-77808285D02*
X120295247Y-77855904D01*
X120295247Y-77855904D02*
X120152390Y-77855904D01*
X120152390Y-77855904D02*
X119961914Y-77808285D01*
X119961914Y-77808285D02*
X119866676Y-77760666D01*
X119866676Y-77760666D02*
X119771438Y-77665428D01*
X119771438Y-77665428D02*
X119723819Y-77522571D01*
X119723819Y-77522571D02*
X119723819Y-77427333D01*
X119723819Y-77427333D02*
X119771438Y-77284476D01*
X119771438Y-77284476D02*
X119819057Y-77236857D01*
X120723819Y-76284476D02*
X120723819Y-76855904D01*
X120723819Y-76570190D02*
X119723819Y-76570190D01*
X119723819Y-76570190D02*
X119866676Y-76665428D01*
X119866676Y-76665428D02*
X119961914Y-76760666D01*
X119961914Y-76760666D02*
X120009533Y-76855904D01*
X119723819Y-75427333D02*
X119723819Y-75617809D01*
X119723819Y-75617809D02*
X119771438Y-75713047D01*
X119771438Y-75713047D02*
X119819057Y-75760666D01*
X119819057Y-75760666D02*
X119961914Y-75855904D01*
X119961914Y-75855904D02*
X120152390Y-75903523D01*
X120152390Y-75903523D02*
X120533342Y-75903523D01*
X120533342Y-75903523D02*
X120628580Y-75855904D01*
X120628580Y-75855904D02*
X120676200Y-75808285D01*
X120676200Y-75808285D02*
X120723819Y-75713047D01*
X120723819Y-75713047D02*
X120723819Y-75522571D01*
X120723819Y-75522571D02*
X120676200Y-75427333D01*
X120676200Y-75427333D02*
X120628580Y-75379714D01*
X120628580Y-75379714D02*
X120533342Y-75332095D01*
X120533342Y-75332095D02*
X120295247Y-75332095D01*
X120295247Y-75332095D02*
X120200009Y-75379714D01*
X120200009Y-75379714D02*
X120152390Y-75427333D01*
X120152390Y-75427333D02*
X120104771Y-75522571D01*
X120104771Y-75522571D02*
X120104771Y-75713047D01*
X120104771Y-75713047D02*
X120152390Y-75808285D01*
X120152390Y-75808285D02*
X120200009Y-75855904D01*
X120200009Y-75855904D02*
X120295247Y-75903523D01*
X123190095Y-78615319D02*
X123190095Y-79424842D01*
X123190095Y-79424842D02*
X123237714Y-79520080D01*
X123237714Y-79520080D02*
X123285333Y-79567700D01*
X123285333Y-79567700D02*
X123380571Y-79615319D01*
X123380571Y-79615319D02*
X123571047Y-79615319D01*
X123571047Y-79615319D02*
X123666285Y-79567700D01*
X123666285Y-79567700D02*
X123713904Y-79520080D01*
X123713904Y-79520080D02*
X123761523Y-79424842D01*
X123761523Y-79424842D02*
X123761523Y-78615319D01*
X124142476Y-78615319D02*
X124761523Y-78615319D01*
X124761523Y-78615319D02*
X124428190Y-78996271D01*
X124428190Y-78996271D02*
X124571047Y-78996271D01*
X124571047Y-78996271D02*
X124666285Y-79043890D01*
X124666285Y-79043890D02*
X124713904Y-79091509D01*
X124713904Y-79091509D02*
X124761523Y-79186747D01*
X124761523Y-79186747D02*
X124761523Y-79424842D01*
X124761523Y-79424842D02*
X124713904Y-79520080D01*
X124713904Y-79520080D02*
X124666285Y-79567700D01*
X124666285Y-79567700D02*
X124571047Y-79615319D01*
X124571047Y-79615319D02*
X124285333Y-79615319D01*
X124285333Y-79615319D02*
X124190095Y-79567700D01*
X124190095Y-79567700D02*
X124142476Y-79520080D01*
X126679333Y-62875580D02*
X126631714Y-62923200D01*
X126631714Y-62923200D02*
X126488857Y-62970819D01*
X126488857Y-62970819D02*
X126393619Y-62970819D01*
X126393619Y-62970819D02*
X126250762Y-62923200D01*
X126250762Y-62923200D02*
X126155524Y-62827961D01*
X126155524Y-62827961D02*
X126107905Y-62732723D01*
X126107905Y-62732723D02*
X126060286Y-62542247D01*
X126060286Y-62542247D02*
X126060286Y-62399390D01*
X126060286Y-62399390D02*
X126107905Y-62208914D01*
X126107905Y-62208914D02*
X126155524Y-62113676D01*
X126155524Y-62113676D02*
X126250762Y-62018438D01*
X126250762Y-62018438D02*
X126393619Y-61970819D01*
X126393619Y-61970819D02*
X126488857Y-61970819D01*
X126488857Y-61970819D02*
X126631714Y-62018438D01*
X126631714Y-62018438D02*
X126679333Y-62066057D01*
X127536476Y-62304152D02*
X127536476Y-62970819D01*
X127298381Y-61923200D02*
X127060286Y-62637485D01*
X127060286Y-62637485D02*
X127679333Y-62637485D01*
X149987095Y-71463819D02*
X149987095Y-72273342D01*
X149987095Y-72273342D02*
X150034714Y-72368580D01*
X150034714Y-72368580D02*
X150082333Y-72416200D01*
X150082333Y-72416200D02*
X150177571Y-72463819D01*
X150177571Y-72463819D02*
X150368047Y-72463819D01*
X150368047Y-72463819D02*
X150463285Y-72416200D01*
X150463285Y-72416200D02*
X150510904Y-72368580D01*
X150510904Y-72368580D02*
X150558523Y-72273342D01*
X150558523Y-72273342D02*
X150558523Y-71463819D01*
X151558523Y-72463819D02*
X150987095Y-72463819D01*
X151272809Y-72463819D02*
X151272809Y-71463819D01*
X151272809Y-71463819D02*
X151177571Y-71606676D01*
X151177571Y-71606676D02*
X151082333Y-71701914D01*
X151082333Y-71701914D02*
X150987095Y-71749533D01*
X128818666Y-79337819D02*
X128818666Y-80052104D01*
X128818666Y-80052104D02*
X128771047Y-80194961D01*
X128771047Y-80194961D02*
X128675809Y-80290200D01*
X128675809Y-80290200D02*
X128532952Y-80337819D01*
X128532952Y-80337819D02*
X128437714Y-80337819D01*
X129294857Y-80337819D02*
X129294857Y-79337819D01*
X129294857Y-79337819D02*
X129675809Y-79337819D01*
X129675809Y-79337819D02*
X129771047Y-79385438D01*
X129771047Y-79385438D02*
X129818666Y-79433057D01*
X129818666Y-79433057D02*
X129866285Y-79528295D01*
X129866285Y-79528295D02*
X129866285Y-79671152D01*
X129866285Y-79671152D02*
X129818666Y-79766390D01*
X129818666Y-79766390D02*
X129771047Y-79814009D01*
X129771047Y-79814009D02*
X129675809Y-79861628D01*
X129675809Y-79861628D02*
X129294857Y-79861628D01*
X130818666Y-80337819D02*
X130247238Y-80337819D01*
X130532952Y-80337819D02*
X130532952Y-79337819D01*
X130532952Y-79337819D02*
X130437714Y-79480676D01*
X130437714Y-79480676D02*
X130342476Y-79575914D01*
X130342476Y-79575914D02*
X130247238Y-79623533D01*
X145144333Y-83893819D02*
X144668143Y-83893819D01*
X144668143Y-83893819D02*
X144668143Y-82893819D01*
X146001476Y-83893819D02*
X145430048Y-83893819D01*
X145715762Y-83893819D02*
X145715762Y-82893819D01*
X145715762Y-82893819D02*
X145620524Y-83036676D01*
X145620524Y-83036676D02*
X145525286Y-83131914D01*
X145525286Y-83131914D02*
X145430048Y-83179533D01*
X135509095Y-67526819D02*
X135509095Y-68336342D01*
X135509095Y-68336342D02*
X135556714Y-68431580D01*
X135556714Y-68431580D02*
X135604333Y-68479200D01*
X135604333Y-68479200D02*
X135699571Y-68526819D01*
X135699571Y-68526819D02*
X135890047Y-68526819D01*
X135890047Y-68526819D02*
X135985285Y-68479200D01*
X135985285Y-68479200D02*
X136032904Y-68431580D01*
X136032904Y-68431580D02*
X136080523Y-68336342D01*
X136080523Y-68336342D02*
X136080523Y-67526819D01*
X136509095Y-67622057D02*
X136556714Y-67574438D01*
X136556714Y-67574438D02*
X136651952Y-67526819D01*
X136651952Y-67526819D02*
X136890047Y-67526819D01*
X136890047Y-67526819D02*
X136985285Y-67574438D01*
X136985285Y-67574438D02*
X137032904Y-67622057D01*
X137032904Y-67622057D02*
X137080523Y-67717295D01*
X137080523Y-67717295D02*
X137080523Y-67812533D01*
X137080523Y-67812533D02*
X137032904Y-67955390D01*
X137032904Y-67955390D02*
X136461476Y-68526819D01*
X136461476Y-68526819D02*
X137080523Y-68526819D01*
X150106142Y-70463580D02*
X150058523Y-70511200D01*
X150058523Y-70511200D02*
X149915666Y-70558819D01*
X149915666Y-70558819D02*
X149820428Y-70558819D01*
X149820428Y-70558819D02*
X149677571Y-70511200D01*
X149677571Y-70511200D02*
X149582333Y-70415961D01*
X149582333Y-70415961D02*
X149534714Y-70320723D01*
X149534714Y-70320723D02*
X149487095Y-70130247D01*
X149487095Y-70130247D02*
X149487095Y-69987390D01*
X149487095Y-69987390D02*
X149534714Y-69796914D01*
X149534714Y-69796914D02*
X149582333Y-69701676D01*
X149582333Y-69701676D02*
X149677571Y-69606438D01*
X149677571Y-69606438D02*
X149820428Y-69558819D01*
X149820428Y-69558819D02*
X149915666Y-69558819D01*
X149915666Y-69558819D02*
X150058523Y-69606438D01*
X150058523Y-69606438D02*
X150106142Y-69654057D01*
X151058523Y-70558819D02*
X150487095Y-70558819D01*
X150772809Y-70558819D02*
X150772809Y-69558819D01*
X150772809Y-69558819D02*
X150677571Y-69701676D01*
X150677571Y-69701676D02*
X150582333Y-69796914D01*
X150582333Y-69796914D02*
X150487095Y-69844533D01*
X151391857Y-69558819D02*
X152010904Y-69558819D01*
X152010904Y-69558819D02*
X151677571Y-69939771D01*
X151677571Y-69939771D02*
X151820428Y-69939771D01*
X151820428Y-69939771D02*
X151915666Y-69987390D01*
X151915666Y-69987390D02*
X151963285Y-70035009D01*
X151963285Y-70035009D02*
X152010904Y-70130247D01*
X152010904Y-70130247D02*
X152010904Y-70368342D01*
X152010904Y-70368342D02*
X151963285Y-70463580D01*
X151963285Y-70463580D02*
X151915666Y-70511200D01*
X151915666Y-70511200D02*
X151820428Y-70558819D01*
X151820428Y-70558819D02*
X151534714Y-70558819D01*
X151534714Y-70558819D02*
X151439476Y-70511200D01*
X151439476Y-70511200D02*
X151391857Y-70463580D01*
D12*
%TO.C,C8*%
X133752000Y-77743164D02*
X133752000Y-77958836D01*
X134472000Y-77743164D02*
X134472000Y-77958836D01*
%TO.C,R1*%
X151400742Y-68311500D02*
X151875258Y-68311500D01*
X151400742Y-69356500D02*
X151875258Y-69356500D01*
%TO.C,R4*%
X129178742Y-63612500D02*
X129653258Y-63612500D01*
X129178742Y-64657500D02*
X129653258Y-64657500D01*
%TO.C,D3*%
X124995000Y-65317000D02*
X124995000Y-67602000D01*
X126465000Y-65317000D02*
X124995000Y-65317000D01*
X126465000Y-67602000D02*
X126465000Y-65317000D01*
%TO.C,C18*%
X125220000Y-73673580D02*
X125220000Y-73392420D01*
X126240000Y-73673580D02*
X126240000Y-73392420D01*
%TO.C,R2*%
X159876258Y-77582500D02*
X159401742Y-77582500D01*
X159876258Y-78627500D02*
X159401742Y-78627500D01*
%TO.C,U4*%
X132022000Y-85785000D02*
X132022000Y-85285000D01*
X132322000Y-80585000D02*
X133072000Y-80585000D01*
X132522000Y-85785000D02*
X132022000Y-85785000D01*
X134822000Y-80585000D02*
X135322000Y-80585000D01*
X135322000Y-80585000D02*
X135322000Y-81085000D01*
X135322000Y-85285000D02*
X135322000Y-85785000D01*
X135322000Y-85785000D02*
X134822000Y-85785000D01*
X132122000Y-80585000D02*
X131762000Y-80585000D01*
X132122000Y-80225000D01*
X132122000Y-80585000D01*
G36*
X132122000Y-80585000D02*
G01*
X131762000Y-80585000D01*
X132122000Y-80225000D01*
X132122000Y-80585000D01*
G37*
%TO.C,C10*%
X133752000Y-70476164D02*
X133752000Y-70691836D01*
X134472000Y-70476164D02*
X134472000Y-70691836D01*
%TO.C,D2*%
X156830000Y-73951000D02*
X151770000Y-73951000D01*
X156830000Y-76671000D02*
X151770000Y-76671000D01*
X156830000Y-76671000D02*
X156830000Y-73951000D01*
%TO.C,U5*%
X130454000Y-71649500D02*
X130629000Y-71649500D01*
X130454000Y-72324500D02*
X130454000Y-71649500D01*
X130454000Y-74194500D02*
X130454000Y-74869500D01*
X130454000Y-74869500D02*
X130629000Y-74869500D01*
X133174000Y-72324500D02*
X133174000Y-71949500D01*
X133174000Y-74194500D02*
X133174000Y-74869500D01*
X133174000Y-74869500D02*
X132999000Y-74869500D01*
X133364000Y-71789500D02*
X133174000Y-71649500D01*
X133364000Y-71509500D01*
X133364000Y-71789500D01*
G36*
X133364000Y-71789500D02*
G01*
X133174000Y-71649500D01*
X133364000Y-71509500D01*
X133364000Y-71789500D01*
G37*
%TO.C,TP3*%
X151306000Y-84328000D02*
G75*
G02*
X147906000Y-84328000I-1700000J0D01*
G01*
X147906000Y-84328000D02*
G75*
G02*
X151306000Y-84328000I1700000J0D01*
G01*
%TO.C,C1*%
X143388836Y-80917000D02*
X143173164Y-80917000D01*
X143388836Y-81637000D02*
X143173164Y-81637000D01*
%TO.C,TP4*%
X122731000Y-64389000D02*
G75*
G02*
X119331000Y-64389000I-1700000J0D01*
G01*
X119331000Y-64389000D02*
G75*
G02*
X122731000Y-64389000I1700000J0D01*
G01*
%TO.C,R5*%
X133103258Y-63593500D02*
X132628742Y-63593500D01*
X133103258Y-64638500D02*
X132628742Y-64638500D01*
%TO.C,C15*%
X139698000Y-57771420D02*
X139698000Y-58052580D01*
X140718000Y-57771420D02*
X140718000Y-58052580D01*
%TO.C,TP1*%
X155497000Y-80137000D02*
G75*
G02*
X152097000Y-80137000I-1700000J0D01*
G01*
X152097000Y-80137000D02*
G75*
G02*
X155497000Y-80137000I1700000J0D01*
G01*
%TO.C,C6*%
X136279836Y-66188000D02*
X136064164Y-66188000D01*
X136279836Y-66908000D02*
X136064164Y-66908000D01*
%TO.C,C12*%
X148484000Y-77323836D02*
X148484000Y-77108164D01*
X149204000Y-77323836D02*
X149204000Y-77108164D01*
%TO.C,TP2*%
X155497000Y-84328000D02*
G75*
G02*
X152097000Y-84328000I-1700000J0D01*
G01*
X152097000Y-84328000D02*
G75*
G02*
X155497000Y-84328000I1700000J0D01*
G01*
%TO.C,R6*%
X125207500Y-70491758D02*
X125207500Y-70017242D01*
X126252500Y-70491758D02*
X126252500Y-70017242D01*
%TO.C,BT1*%
X118121000Y-68060000D02*
X118121000Y-74180000D01*
X118121000Y-74180000D02*
X122841000Y-74180000D01*
X118731000Y-68670000D02*
X118731000Y-73570000D01*
X118731000Y-71020000D02*
X119231000Y-71020000D01*
X118731000Y-71120000D02*
X119231000Y-71120000D01*
X118731000Y-73570000D02*
X122231000Y-73570000D01*
X119231000Y-71020000D02*
X119231000Y-71220000D01*
X119231000Y-71220000D02*
X118731000Y-71220000D01*
X120231000Y-68060000D02*
X120231000Y-68670000D01*
X120231000Y-74180000D02*
X120231000Y-73570000D01*
X121531000Y-68060000D02*
X121531000Y-68670000D01*
X121531000Y-74180000D02*
X121531000Y-73570000D01*
X122231000Y-68670000D02*
X118731000Y-68670000D01*
X122231000Y-70620000D02*
X122231000Y-68670000D01*
X122231000Y-71620000D02*
X122841000Y-71620000D01*
X122231000Y-73570000D02*
X122231000Y-71620000D01*
X122841000Y-68060000D02*
X118121000Y-68060000D01*
X122841000Y-69820000D02*
X123041000Y-69820000D01*
X122841000Y-70620000D02*
X122231000Y-70620000D01*
X122841000Y-74180000D02*
X122841000Y-68060000D01*
X122941000Y-69820000D02*
X122941000Y-69520000D01*
X123041000Y-69520000D02*
X122841000Y-69520000D01*
X123041000Y-69820000D02*
X123041000Y-69520000D01*
X123141000Y-67760000D02*
X121891000Y-67760000D01*
X123141000Y-69010000D02*
X123141000Y-67760000D01*
%TO.C,C17*%
X125220000Y-79869420D02*
X125220000Y-80150580D01*
X126240000Y-79869420D02*
X126240000Y-80150580D01*
%TO.C,J1*%
X161835600Y-67262800D02*
X160135600Y-67262800D01*
X161835600Y-76602800D02*
X160135600Y-76602800D01*
%TO.C,R3*%
X159876258Y-65263500D02*
X159401742Y-65263500D01*
X159876258Y-66308500D02*
X159401742Y-66308500D01*
%TO.C,C11*%
X133777000Y-75824836D02*
X133777000Y-75609164D01*
X134497000Y-75824836D02*
X134497000Y-75609164D01*
%TO.C,C5*%
X143363836Y-81936000D02*
X143148164Y-81936000D01*
X143363836Y-82656000D02*
X143148164Y-82656000D01*
%TO.C,C3*%
X140100164Y-66188000D02*
X140315836Y-66188000D01*
X140100164Y-66908000D02*
X140315836Y-66908000D01*
%TO.C,C14*%
X132725420Y-62006000D02*
X133006580Y-62006000D01*
X132725420Y-63026000D02*
X133006580Y-63026000D01*
%TO.C,C9*%
X138791836Y-80920000D02*
X138576164Y-80920000D01*
X138791836Y-81640000D02*
X138576164Y-81640000D01*
%TO.C,J2*%
X142052000Y-51980500D02*
X142052000Y-53380500D01*
X142052000Y-51980500D02*
X155872000Y-51980500D01*
X142052000Y-61680500D02*
X142052000Y-55900500D01*
X142052000Y-64200500D02*
X142052000Y-66700500D01*
X142052000Y-66700500D02*
X155872000Y-66700500D01*
X155872000Y-51980500D02*
X155872000Y-53380500D01*
X155872000Y-55900500D02*
X155872000Y-61680500D01*
X155872000Y-64200500D02*
X155872000Y-66700500D01*
%TO.C,C21*%
X128765080Y-74420000D02*
X128483920Y-74420000D01*
X128765080Y-75440000D02*
X128483920Y-75440000D01*
%TO.C,C19*%
X130554000Y-82028420D02*
X130554000Y-82309580D01*
X131574000Y-82028420D02*
X131574000Y-82309580D01*
%TO.C,C7*%
X145180164Y-80920000D02*
X145395836Y-80920000D01*
X145180164Y-81640000D02*
X145395836Y-81640000D01*
%TO.C,D1*%
X154267000Y-69569000D02*
X156552000Y-69569000D01*
X156552000Y-68099000D02*
X154267000Y-68099000D01*
X156552000Y-69569000D02*
X156552000Y-68099000D01*
%TO.C,C20*%
X128204000Y-69393000D02*
X128204000Y-73313000D01*
X128204000Y-73313000D02*
X130114000Y-73313000D01*
X130114000Y-73313000D02*
X130114000Y-69393000D01*
%TO.C,C2*%
X138068164Y-66188000D02*
X138283836Y-66188000D01*
X138068164Y-66908000D02*
X138283836Y-66908000D01*
%TO.C,SW1*%
X127724000Y-57867000D02*
X128304000Y-57867000D01*
X128304000Y-57217000D02*
X128304000Y-57867000D01*
X128304000Y-57217000D02*
X133824000Y-57217000D01*
X128304000Y-61147000D02*
X128304000Y-60437000D01*
X128304000Y-61147000D02*
X133824000Y-61147000D01*
X133824000Y-57217000D02*
X133824000Y-57927000D01*
X133824000Y-61147000D02*
X133824000Y-60437000D01*
%TO.C,C16*%
X121283000Y-76453420D02*
X121283000Y-76734580D01*
X122303000Y-76453420D02*
X122303000Y-76734580D01*
%TO.C,U3*%
X124587000Y-75214000D02*
X123787000Y-75214000D01*
X124587000Y-75214000D02*
X125387000Y-75214000D01*
X124587000Y-78334000D02*
X123787000Y-78334000D01*
X124587000Y-78334000D02*
X125387000Y-78334000D01*
X123287000Y-75264000D02*
X123047000Y-74934000D01*
X123527000Y-74934000D01*
X123287000Y-75264000D01*
G36*
X123287000Y-75264000D02*
G01*
X123047000Y-74934000D01*
X123527000Y-74934000D01*
X123287000Y-75264000D01*
G37*
%TO.C,C4*%
X129275420Y-62006000D02*
X129556580Y-62006000D01*
X129275420Y-63026000D02*
X129556580Y-63026000D01*
%TO.C,U1*%
X153588300Y-70388000D02*
X152788300Y-70388000D01*
X153588300Y-70388000D02*
X154388300Y-70388000D01*
X153588300Y-73508000D02*
X152788300Y-73508000D01*
X153588300Y-73508000D02*
X154388300Y-73508000D01*
X155128300Y-73788000D02*
X154648300Y-73788000D01*
X154888300Y-73458000D01*
X155128300Y-73788000D01*
G36*
X155128300Y-73788000D02*
G01*
X154648300Y-73788000D01*
X154888300Y-73458000D01*
X155128300Y-73788000D01*
G37*
%TO.C,JP1*%
X128125000Y-78278000D02*
X128125000Y-77678000D01*
X128825000Y-76978000D02*
X130225000Y-76978000D01*
X130225000Y-78978000D02*
X128825000Y-78978000D01*
X130925000Y-77678000D02*
X130925000Y-78278000D01*
X128125000Y-77678000D02*
G75*
G02*
X128825000Y-76978000I699999J1D01*
G01*
X128825000Y-78978000D02*
G75*
G02*
X128125000Y-78278000I-1J699999D01*
G01*
X130225000Y-76978000D02*
G75*
G02*
X130925000Y-77678000I0J-700000D01*
G01*
X130925000Y-78278000D02*
G75*
G02*
X130225000Y-78978000I-700000J0D01*
G01*
%TO.C,U2*%
X136389000Y-68841000D02*
X136389000Y-69791000D01*
X136389000Y-79061000D02*
X136389000Y-78111000D01*
X137339000Y-68841000D02*
X136389000Y-68841000D01*
X137339000Y-79061000D02*
X136389000Y-79061000D01*
X145659000Y-68841000D02*
X146609000Y-68841000D01*
X145659000Y-79061000D02*
X146609000Y-79061000D01*
X146609000Y-68841000D02*
X146609000Y-69791000D01*
X146609000Y-79061000D02*
X146609000Y-78111000D01*
X135774000Y-69791000D02*
X135434000Y-69321000D01*
X136114000Y-69321000D01*
X135774000Y-69791000D01*
G36*
X135774000Y-69791000D02*
G01*
X135434000Y-69321000D01*
X136114000Y-69321000D01*
X135774000Y-69791000D01*
G37*
%TO.C,C13*%
X148484000Y-69830836D02*
X148484000Y-69615164D01*
X149204000Y-69830836D02*
X149204000Y-69615164D01*
%TD*%
M02*
