%TF.GenerationSoftware,KiCad,Pcbnew,9.0.1*%
%TF.CreationDate,2025-04-10T15:19:34-04:00*%
%TF.ProjectId,ride-along-module,72696465-2d61-46c6-9f6e-672d6d6f6475,rev?*%
%TF.SameCoordinates,Original*%
%TF.FileFunction,Copper,L2,Bot*%
%TF.FilePolarity,Positive*%
%FSLAX46Y46*%
G04 Gerber Fmt 4.6, Leading zero omitted, Abs format (unit mm)*
G04 Created by KiCad (PCBNEW 9.0.1) date 2025-04-10 15:19:34*
%MOMM*%
%LPD*%
G01*
G04 APERTURE LIST*
G04 Aperture macros list*
%AMRoundRect*
0 Rectangle with rounded corners*
0 $1 Rounding radius*
0 $2 $3 $4 $5 $6 $7 $8 $9 X,Y pos of 4 corners*
0 Add a 4 corners polygon primitive as box body*
4,1,4,$2,$3,$4,$5,$6,$7,$8,$9,$2,$3,0*
0 Add four circle primitives for the rounded corners*
1,1,$1+$1,$2,$3*
1,1,$1+$1,$4,$5*
1,1,$1+$1,$6,$7*
1,1,$1+$1,$8,$9*
0 Add four rect primitives between the rounded corners*
20,1,$1+$1,$2,$3,$4,$5,0*
20,1,$1+$1,$4,$5,$6,$7,0*
20,1,$1+$1,$6,$7,$8,$9,0*
20,1,$1+$1,$8,$9,$2,$3,0*%
G04 Aperture macros list end*
%TA.AperFunction,ComponentPad*%
%ADD10C,0.800000*%
%TD*%
%TA.AperFunction,ComponentPad*%
%ADD11C,6.400000*%
%TD*%
%TA.AperFunction,ComponentPad*%
%ADD12C,3.000000*%
%TD*%
%TA.AperFunction,ComponentPad*%
%ADD13RoundRect,0.250000X-0.625000X0.350000X-0.625000X-0.350000X0.625000X-0.350000X0.625000X0.350000X0*%
%TD*%
%TA.AperFunction,ComponentPad*%
%ADD14O,1.750000X1.200000*%
%TD*%
%TA.AperFunction,HeatsinkPad*%
%ADD15O,2.100000X1.000000*%
%TD*%
%TA.AperFunction,HeatsinkPad*%
%ADD16O,2.794000X2.032000*%
%TD*%
%TA.AperFunction,ViaPad*%
%ADD17C,0.600000*%
%TD*%
%TA.AperFunction,Conductor*%
%ADD18C,0.200000*%
%TD*%
G04 APERTURE END LIST*
D10*
%TO.P,H1,1,1*%
%TO.N,GNDD*%
X158128000Y-84836000D03*
X158830944Y-83138944D03*
X158830944Y-86533056D03*
X160528000Y-82436000D03*
D11*
X160528000Y-84836000D03*
D10*
X160528000Y-87236000D03*
X162225056Y-83138944D03*
X162225056Y-86533056D03*
X162928000Y-84836000D03*
%TD*%
%TO.P,H4,1,1*%
%TO.N,GNDD*%
X117996000Y-57150000D03*
X118698944Y-55452944D03*
X118698944Y-58847056D03*
X120396000Y-54750000D03*
D11*
X120396000Y-57150000D03*
D10*
X120396000Y-59550000D03*
X122093056Y-55452944D03*
X122093056Y-58847056D03*
X122796000Y-57150000D03*
%TD*%
%TO.P,H3,1,1*%
%TO.N,GNDD*%
X117996000Y-84836000D03*
X118698944Y-83138944D03*
X118698944Y-86533056D03*
X120396000Y-82436000D03*
D11*
X120396000Y-84836000D03*
D10*
X120396000Y-87236000D03*
X122093056Y-83138944D03*
X122093056Y-86533056D03*
X122796000Y-84836000D03*
%TD*%
D12*
%TO.P,TP3,1,1*%
%TO.N,+3.3V*%
X149606000Y-84328000D03*
%TD*%
%TO.P,TP4,1,1*%
%TO.N,/3v7 LiPo to 3v3 Supply/V_BAT*%
X121031000Y-64389000D03*
%TD*%
D10*
%TO.P,H2,1,1*%
%TO.N,GNDD*%
X158128000Y-57150000D03*
X158830944Y-55452944D03*
X158830944Y-58847056D03*
X160528000Y-54750000D03*
D11*
X160528000Y-57150000D03*
D10*
X160528000Y-59550000D03*
X162225056Y-55452944D03*
X162225056Y-58847056D03*
X162928000Y-57150000D03*
%TD*%
D12*
%TO.P,TP1,1,1*%
%TO.N,/MCU/VDDUSB*%
X153797000Y-80137000D03*
%TD*%
%TO.P,TP2,1,1*%
%TO.N,GNDD*%
X153797000Y-84328000D03*
%TD*%
D13*
%TO.P,BT1,1,+*%
%TO.N,/3v7 LiPo to 3v3 Supply/V_BAT*%
X121031000Y-70120000D03*
D14*
%TO.P,BT1,2,-*%
%TO.N,GNDD*%
X121031000Y-72120000D03*
%TD*%
D15*
%TO.P,J1,S1,SHIELD*%
%TO.N,GNDD*%
X158830600Y-76252800D03*
D16*
X163010600Y-76252800D03*
D15*
X158830600Y-67612800D03*
D16*
X163010600Y-67612800D03*
%TD*%
D17*
%TO.N,GNDD*%
X148844000Y-75819000D03*
X151271000Y-58914000D03*
X143606500Y-54640500D03*
X141605000Y-65278000D03*
X143383000Y-62738000D03*
X138249000Y-69596000D03*
X153670000Y-71948000D03*
X127762000Y-76327000D03*
X141859000Y-82296000D03*
X125730000Y-64770000D03*
X146050000Y-80391000D03*
X154559000Y-62865000D03*
X150241000Y-75311000D03*
X148844000Y-70993000D03*
X132116000Y-65316000D03*
X121031000Y-76581000D03*
X140208000Y-60071000D03*
X121793000Y-78359000D03*
X125730000Y-81915000D03*
X126746000Y-59817000D03*
X147955000Y-69215000D03*
X131445000Y-70739000D03*
X134112000Y-71755000D03*
X134874000Y-66548000D03*
X126746000Y-72771000D03*
X154655500Y-54640500D03*
X138303000Y-82423000D03*
X145288000Y-78232000D03*
X129159000Y-68326000D03*
X127508000Y-77978000D03*
X127762000Y-73749180D03*
X128666000Y-61616000D03*
X131064000Y-84074000D03*
X132116000Y-61616000D03*
X144249000Y-78255000D03*
%TO.N,/MCU/VDD11*%
X140208000Y-65468500D03*
X144749000Y-77343000D03*
%TO.N,Net-(J1-CC1)*%
X159516800Y-73215500D03*
X160464000Y-74544700D03*
%TO.N,Net-(J1-CC2)*%
X159516800Y-70612000D03*
X160464000Y-69215000D03*
%TO.N,/MCU/SD_DAT3*%
X144907000Y-63500000D03*
X143383000Y-63500000D03*
%TO.N,/MCU/SD_CLK*%
X145415000Y-65405000D03*
X143094000Y-65405000D03*
%TO.N,/MCU/SD_CMD*%
X142494000Y-64643000D03*
X144849000Y-64643000D03*
%TO.N,Net-(U2-VLXSMPS)*%
X146685000Y-82296000D03*
X143637000Y-77343000D03*
%TO.N,/IMU Sensors/imu_int2*%
X131572000Y-75565000D03*
X137270000Y-75201000D03*
%TO.N,/IMU Sensors/imu_sclk*%
X131712665Y-72906730D03*
X142748000Y-73279000D03*
%TO.N,/IMU Sensors/imu_int1*%
X130683000Y-71247000D03*
X137287000Y-74041000D03*
%TO.N,/IMU Sensors/pres_cs*%
X136017000Y-85060000D03*
X136017000Y-82931000D03*
%TO.N,/IMU Sensors/imu_cs*%
X137922000Y-74549000D03*
X133477000Y-74422000D03*
%TD*%
D18*
%TO.N,/MCU/VDD11*%
X144749000Y-77343000D02*
X144749000Y-70009500D01*
X144749000Y-70009500D02*
X140208000Y-65468500D01*
%TO.N,Net-(J1-CC1)*%
X160464000Y-74544700D02*
X160464000Y-74162700D01*
X160464000Y-74162700D02*
X159516800Y-73215500D01*
X159575500Y-73215500D02*
X159516800Y-73215500D01*
%TO.N,Net-(J1-CC2)*%
X159766000Y-70362800D02*
X159516800Y-70612000D01*
X159766000Y-70358000D02*
X159766000Y-70362800D01*
X160464000Y-69660000D02*
X159766000Y-70358000D01*
X160464000Y-69215000D02*
X160464000Y-69660000D01*
%TO.N,/MCU/SD_DAT3*%
X143383000Y-63500000D02*
X144907000Y-63500000D01*
%TO.N,/MCU/SD_CLK*%
X145415000Y-65405000D02*
X143094000Y-65405000D01*
%TO.N,/MCU/SD_CMD*%
X142494000Y-64643000D02*
X144849000Y-64643000D01*
%TO.N,Net-(U2-VLXSMPS)*%
X143256000Y-77724000D02*
X143256000Y-80772000D01*
X143256000Y-80772000D02*
X144780000Y-82296000D01*
X144780000Y-82296000D02*
X146685000Y-82296000D01*
X143637000Y-77343000D02*
X143256000Y-77724000D01*
%TO.N,/IMU Sensors/imu_int2*%
X137270000Y-75201000D02*
X137253000Y-75184000D01*
X137253000Y-75184000D02*
X133350000Y-75184000D01*
X131953000Y-75184000D02*
X131572000Y-75565000D01*
X133350000Y-75184000D02*
X131953000Y-75184000D01*
%TO.N,/IMU Sensors/imu_sclk*%
X131712665Y-72906730D02*
X132084935Y-73279000D01*
X132084935Y-73279000D02*
X142748000Y-73279000D01*
%TO.N,/IMU Sensors/imu_int1*%
X130683000Y-72771000D02*
X130683000Y-71247000D01*
X131592000Y-73680000D02*
X130683000Y-72771000D01*
X136926000Y-73680000D02*
X131592000Y-73680000D01*
X137287000Y-74041000D02*
X136926000Y-73680000D01*
%TO.N,/IMU Sensors/pres_cs*%
X136017000Y-82931000D02*
X136017000Y-85060000D01*
%TO.N,/IMU Sensors/imu_cs*%
X133604000Y-74549000D02*
X137922000Y-74549000D01*
X133477000Y-74422000D02*
X133604000Y-74549000D01*
%TD*%
%TA.AperFunction,Conductor*%
%TO.N,GNDD*%
G36*
X160530702Y-52570616D02*
G01*
X160543819Y-52571188D01*
X160921742Y-52587688D01*
X160932477Y-52588628D01*
X161317859Y-52639364D01*
X161328493Y-52641239D01*
X161707985Y-52725371D01*
X161718425Y-52728169D01*
X162089119Y-52845048D01*
X162099280Y-52848746D01*
X162458384Y-52997492D01*
X162468180Y-53002060D01*
X162812966Y-53181544D01*
X162822306Y-53186937D01*
X163092434Y-53359028D01*
X163150123Y-53395780D01*
X163158984Y-53401984D01*
X163467354Y-53638604D01*
X163475641Y-53645558D01*
X163762205Y-53908145D01*
X163769854Y-53915794D01*
X164032441Y-54202358D01*
X164039395Y-54210645D01*
X164276015Y-54519015D01*
X164282219Y-54527876D01*
X164491054Y-54855679D01*
X164496463Y-54865047D01*
X164675936Y-55209813D01*
X164680508Y-55219617D01*
X164829252Y-55578717D01*
X164832952Y-55588883D01*
X164949829Y-55959570D01*
X164952629Y-55970018D01*
X165036758Y-56349498D01*
X165038636Y-56360151D01*
X165089369Y-56745499D01*
X165090312Y-56756276D01*
X165107384Y-57147297D01*
X165107502Y-57152706D01*
X165107502Y-67205017D01*
X165087817Y-67272056D01*
X165035013Y-67317811D01*
X164965855Y-67327755D01*
X164902299Y-67298730D01*
X164865571Y-67243335D01*
X164796534Y-67030860D01*
X164796533Y-67030857D01*
X164688199Y-66818242D01*
X164547937Y-66625190D01*
X164547937Y-66625189D01*
X164379210Y-66456462D01*
X164186157Y-66316200D01*
X163973542Y-66207866D01*
X163973539Y-66207865D01*
X163746599Y-66134129D01*
X163510911Y-66096800D01*
X163260600Y-66096800D01*
X163260600Y-67312800D01*
X162760600Y-67312800D01*
X162760600Y-66096800D01*
X162510289Y-66096800D01*
X162274600Y-66134129D01*
X162047660Y-66207865D01*
X162047657Y-66207866D01*
X161835042Y-66316200D01*
X161641990Y-66456462D01*
X161641989Y-66456462D01*
X161473262Y-66625189D01*
X161473262Y-66625190D01*
X161333000Y-66818242D01*
X161224666Y-67030857D01*
X161224665Y-67030860D01*
X161150929Y-67257800D01*
X161134299Y-67362800D01*
X162443612Y-67362800D01*
X162426395Y-67372740D01*
X162370540Y-67428595D01*
X162331044Y-67497004D01*
X162310600Y-67573304D01*
X162310600Y-67652296D01*
X162331044Y-67728596D01*
X162370540Y-67797005D01*
X162426395Y-67852860D01*
X162443612Y-67862800D01*
X161134299Y-67862800D01*
X161150929Y-67967799D01*
X161224665Y-68194739D01*
X161224666Y-68194742D01*
X161333000Y-68407357D01*
X161473262Y-68600409D01*
X161473262Y-68600410D01*
X161641989Y-68769137D01*
X161835042Y-68909399D01*
X162047657Y-69017733D01*
X162047660Y-69017734D01*
X162274600Y-69091470D01*
X162510289Y-69128800D01*
X162760600Y-69128800D01*
X162760600Y-67912800D01*
X163260600Y-67912800D01*
X163260600Y-69128800D01*
X163510911Y-69128800D01*
X163746599Y-69091470D01*
X163973539Y-69017734D01*
X163973542Y-69017733D01*
X164186157Y-68909399D01*
X164379209Y-68769137D01*
X164379210Y-68769137D01*
X164547937Y-68600410D01*
X164547937Y-68600409D01*
X164688199Y-68407357D01*
X164796533Y-68194742D01*
X164796534Y-68194739D01*
X164865571Y-67982264D01*
X164905008Y-67924589D01*
X164969367Y-67897390D01*
X165038213Y-67909304D01*
X165089689Y-67956548D01*
X165107502Y-68020582D01*
X165107502Y-75845017D01*
X165087817Y-75912056D01*
X165035013Y-75957811D01*
X164965855Y-75967755D01*
X164902299Y-75938730D01*
X164865571Y-75883335D01*
X164796534Y-75670860D01*
X164796533Y-75670857D01*
X164688199Y-75458242D01*
X164547937Y-75265190D01*
X164547937Y-75265189D01*
X164379210Y-75096462D01*
X164186157Y-74956200D01*
X163973542Y-74847866D01*
X163973539Y-74847865D01*
X163746599Y-74774129D01*
X163510911Y-74736800D01*
X163260600Y-74736800D01*
X163260600Y-75952800D01*
X162760600Y-75952800D01*
X162760600Y-74736800D01*
X162510289Y-74736800D01*
X162274600Y-74774129D01*
X162047660Y-74847865D01*
X162047657Y-74847866D01*
X161835042Y-74956200D01*
X161641990Y-75096462D01*
X161641989Y-75096462D01*
X161473262Y-75265189D01*
X161473262Y-75265190D01*
X161333000Y-75458242D01*
X161224666Y-75670857D01*
X161224665Y-75670860D01*
X161150929Y-75897800D01*
X161134299Y-76002800D01*
X162443612Y-76002800D01*
X162426395Y-76012740D01*
X162370540Y-76068595D01*
X162331044Y-76137004D01*
X162310600Y-76213304D01*
X162310600Y-76292296D01*
X162331044Y-76368596D01*
X162370540Y-76437005D01*
X162426395Y-76492860D01*
X162443612Y-76502800D01*
X161134299Y-76502800D01*
X161150929Y-76607799D01*
X161224665Y-76834739D01*
X161224666Y-76834742D01*
X161333000Y-77047357D01*
X161473262Y-77240409D01*
X161473262Y-77240410D01*
X161641989Y-77409137D01*
X161835042Y-77549399D01*
X162047657Y-77657733D01*
X162047660Y-77657734D01*
X162274600Y-77731470D01*
X162510289Y-77768800D01*
X162760600Y-77768800D01*
X162760600Y-76552800D01*
X163260600Y-76552800D01*
X163260600Y-77768800D01*
X163510911Y-77768800D01*
X163746599Y-77731470D01*
X163973539Y-77657734D01*
X163973542Y-77657733D01*
X164186157Y-77549399D01*
X164379209Y-77409137D01*
X164379210Y-77409137D01*
X164547937Y-77240410D01*
X164547937Y-77240409D01*
X164688199Y-77047357D01*
X164796533Y-76834742D01*
X164796534Y-76834739D01*
X164865571Y-76622264D01*
X164905008Y-76564589D01*
X164969367Y-76537390D01*
X165038213Y-76549304D01*
X165089689Y-76596548D01*
X165107502Y-76660582D01*
X165107502Y-84833293D01*
X165107384Y-84838702D01*
X165090312Y-85229723D01*
X165089369Y-85240500D01*
X165038636Y-85625848D01*
X165036758Y-85636501D01*
X164952629Y-86015981D01*
X164949829Y-86026429D01*
X164832952Y-86397116D01*
X164829252Y-86407282D01*
X164680508Y-86766382D01*
X164675936Y-86776186D01*
X164496463Y-87120952D01*
X164491054Y-87130320D01*
X164282219Y-87458123D01*
X164276015Y-87466984D01*
X164039395Y-87775354D01*
X164032441Y-87783641D01*
X163769854Y-88070205D01*
X163762205Y-88077854D01*
X163475641Y-88340441D01*
X163467354Y-88347395D01*
X163158984Y-88584015D01*
X163150123Y-88590219D01*
X162822320Y-88799054D01*
X162812952Y-88804463D01*
X162468186Y-88983936D01*
X162458382Y-88988508D01*
X162099282Y-89137252D01*
X162089116Y-89140952D01*
X161718429Y-89257829D01*
X161707981Y-89260629D01*
X161328501Y-89344758D01*
X161317848Y-89346636D01*
X160932500Y-89397369D01*
X160921723Y-89398312D01*
X160530703Y-89415384D01*
X160525294Y-89415502D01*
X120398708Y-89415502D01*
X120393299Y-89415384D01*
X120002278Y-89398312D01*
X119991502Y-89397369D01*
X119606151Y-89346636D01*
X119595498Y-89344758D01*
X119216022Y-89260631D01*
X119205572Y-89257831D01*
X118834883Y-89140953D01*
X118824718Y-89137253D01*
X118465618Y-88988509D01*
X118455814Y-88983937D01*
X118111057Y-88804468D01*
X118101689Y-88799060D01*
X117773868Y-88590215D01*
X117765007Y-88584010D01*
X117456646Y-88347396D01*
X117448359Y-88340442D01*
X117161795Y-88077855D01*
X117154146Y-88070206D01*
X116891558Y-87783642D01*
X116884604Y-87775355D01*
X116789176Y-87650991D01*
X116647984Y-87466985D01*
X116641780Y-87458124D01*
X116522419Y-87270766D01*
X116432937Y-87130307D01*
X116427544Y-87120967D01*
X116248060Y-86776181D01*
X116243491Y-86766383D01*
X116232762Y-86740480D01*
X116094742Y-86407271D01*
X116091053Y-86397136D01*
X115974166Y-86026417D01*
X115971369Y-86015978D01*
X115966607Y-85994499D01*
X115887240Y-85636497D01*
X115885363Y-85625848D01*
X115875952Y-85554365D01*
X115834628Y-85240477D01*
X115833688Y-85229742D01*
X115816618Y-84838746D01*
X115816500Y-84833338D01*
X115816500Y-84654234D01*
X116696000Y-84654234D01*
X116696000Y-85017765D01*
X116731632Y-85379556D01*
X116802550Y-85736090D01*
X116802553Y-85736101D01*
X116908086Y-86083997D01*
X117047207Y-86419864D01*
X117047209Y-86419869D01*
X117218570Y-86740462D01*
X117218581Y-86740480D01*
X117420551Y-87042750D01*
X117607678Y-87270765D01*
X117607679Y-87270766D01*
X119101747Y-85776697D01*
X119175588Y-85878330D01*
X119353670Y-86056412D01*
X119455301Y-86130251D01*
X117961232Y-87624319D01*
X117961233Y-87624320D01*
X118189249Y-87811448D01*
X118491519Y-88013418D01*
X118491537Y-88013429D01*
X118812130Y-88184790D01*
X118812135Y-88184792D01*
X119148002Y-88323913D01*
X119495898Y-88429446D01*
X119495909Y-88429449D01*
X119852443Y-88500367D01*
X120214234Y-88536000D01*
X120577766Y-88536000D01*
X120939556Y-88500367D01*
X121296090Y-88429449D01*
X121296101Y-88429446D01*
X121643997Y-88323913D01*
X121979864Y-88184792D01*
X121979869Y-88184790D01*
X122300462Y-88013429D01*
X122300480Y-88013418D01*
X122602736Y-87811457D01*
X122602750Y-87811447D01*
X122830765Y-87624320D01*
X122830766Y-87624319D01*
X121336698Y-86130251D01*
X121438330Y-86056412D01*
X121616412Y-85878330D01*
X121690251Y-85776698D01*
X123184319Y-87270766D01*
X123184320Y-87270765D01*
X123371447Y-87042750D01*
X123371457Y-87042736D01*
X123573418Y-86740480D01*
X123573429Y-86740462D01*
X123744790Y-86419869D01*
X123744792Y-86419864D01*
X123883913Y-86083997D01*
X123989446Y-85736101D01*
X123989449Y-85736090D01*
X124060367Y-85379556D01*
X124096000Y-85017765D01*
X124096000Y-84654234D01*
X124060367Y-84292443D01*
X123989449Y-83935909D01*
X123989446Y-83935898D01*
X123883913Y-83588002D01*
X123744792Y-83252135D01*
X123744790Y-83252130D01*
X123573533Y-82931732D01*
X123573532Y-82931728D01*
X123573528Y-82931724D01*
X123573420Y-82931522D01*
X123573418Y-82931519D01*
X123539934Y-82881406D01*
X135640300Y-82881406D01*
X135640300Y-82980593D01*
X135665971Y-83076402D01*
X135680539Y-83101633D01*
X135715565Y-83162300D01*
X135785700Y-83232435D01*
X135785703Y-83232437D01*
X135791788Y-83237106D01*
X135832990Y-83293535D01*
X135840300Y-83335481D01*
X135840300Y-84655518D01*
X135820615Y-84722557D01*
X135791789Y-84753892D01*
X135785702Y-84758562D01*
X135715565Y-84828700D01*
X135665971Y-84914597D01*
X135640300Y-85010406D01*
X135640300Y-85109593D01*
X135665971Y-85205402D01*
X135680013Y-85229722D01*
X135715565Y-85291300D01*
X135785700Y-85361435D01*
X135871599Y-85411029D01*
X135967406Y-85436700D01*
X135967408Y-85436700D01*
X136066592Y-85436700D01*
X136066594Y-85436700D01*
X136162401Y-85411029D01*
X136248300Y-85361435D01*
X136318435Y-85291300D01*
X136368029Y-85205401D01*
X136393700Y-85109594D01*
X136393700Y-85010406D01*
X136368029Y-84914599D01*
X136318435Y-84828700D01*
X136248300Y-84758565D01*
X136248299Y-84758564D01*
X136248297Y-84758562D01*
X136242211Y-84753892D01*
X136201010Y-84697463D01*
X136193700Y-84655518D01*
X136193700Y-84203911D01*
X148029300Y-84203911D01*
X148029300Y-84452089D01*
X148030764Y-84461332D01*
X148068124Y-84697212D01*
X148144813Y-84933240D01*
X148228385Y-85097257D01*
X148257486Y-85154371D01*
X148403361Y-85355151D01*
X148578849Y-85530639D01*
X148779629Y-85676514D01*
X148922832Y-85749480D01*
X149000759Y-85789186D01*
X149118773Y-85827530D01*
X149236789Y-85865876D01*
X149481911Y-85904700D01*
X149481912Y-85904700D01*
X149730088Y-85904700D01*
X149730089Y-85904700D01*
X149975211Y-85865876D01*
X150211243Y-85789185D01*
X150432371Y-85676514D01*
X150633151Y-85530639D01*
X150808639Y-85355151D01*
X150954514Y-85154371D01*
X151067185Y-84933243D01*
X151143876Y-84697211D01*
X151182700Y-84452089D01*
X151182700Y-84203911D01*
X151181590Y-84196905D01*
X151797000Y-84196905D01*
X151797000Y-84459094D01*
X151831220Y-84719009D01*
X151831222Y-84719020D01*
X151899075Y-84972255D01*
X151999404Y-85214471D01*
X151999409Y-85214482D01*
X152130488Y-85441516D01*
X152130494Y-85441524D01*
X152217080Y-85554365D01*
X153081152Y-84690292D01*
X153088049Y-84706942D01*
X153175599Y-84837970D01*
X153287030Y-84949401D01*
X153418058Y-85036951D01*
X153434705Y-85043846D01*
X152570633Y-85907917D01*
X152570633Y-85907918D01*
X152683475Y-85994505D01*
X152683483Y-85994511D01*
X152910517Y-86125590D01*
X152910528Y-86125595D01*
X153152744Y-86225924D01*
X153405979Y-86293777D01*
X153405990Y-86293779D01*
X153665905Y-86327999D01*
X153665920Y-86328000D01*
X153928080Y-86328000D01*
X153928094Y-86327999D01*
X154188009Y-86293779D01*
X154188020Y-86293777D01*
X154441255Y-86225924D01*
X154683471Y-86125595D01*
X154683482Y-86125590D01*
X154910516Y-85994511D01*
X154910534Y-85994499D01*
X155023365Y-85907919D01*
X155023365Y-85907917D01*
X154159294Y-85043846D01*
X154175942Y-85036951D01*
X154306970Y-84949401D01*
X154418401Y-84837970D01*
X154505951Y-84706942D01*
X154512846Y-84690294D01*
X155376917Y-85554365D01*
X155376919Y-85554365D01*
X155463499Y-85441534D01*
X155463511Y-85441516D01*
X155594590Y-85214482D01*
X155594595Y-85214471D01*
X155694924Y-84972255D01*
X155762777Y-84719020D01*
X155762780Y-84719007D01*
X155771308Y-84654234D01*
X156828000Y-84654234D01*
X156828000Y-85017765D01*
X156863632Y-85379556D01*
X156934550Y-85736090D01*
X156934553Y-85736101D01*
X157040086Y-86083997D01*
X157179207Y-86419864D01*
X157179209Y-86419869D01*
X157350570Y-86740462D01*
X157350581Y-86740480D01*
X157552551Y-87042750D01*
X157739678Y-87270765D01*
X157739679Y-87270766D01*
X159233747Y-85776697D01*
X159307588Y-85878330D01*
X159485670Y-86056412D01*
X159587301Y-86130251D01*
X158093232Y-87624319D01*
X158093233Y-87624320D01*
X158321249Y-87811448D01*
X158623519Y-88013418D01*
X158623537Y-88013429D01*
X158944130Y-88184790D01*
X158944135Y-88184792D01*
X159280002Y-88323913D01*
X159627898Y-88429446D01*
X159627909Y-88429449D01*
X159984443Y-88500367D01*
X160346234Y-88536000D01*
X160709766Y-88536000D01*
X161071556Y-88500367D01*
X161428090Y-88429449D01*
X161428101Y-88429446D01*
X161775997Y-88323913D01*
X162111864Y-88184792D01*
X162111869Y-88184790D01*
X162432462Y-88013429D01*
X162432480Y-88013418D01*
X162734736Y-87811457D01*
X162734750Y-87811447D01*
X162962765Y-87624320D01*
X162962766Y-87624319D01*
X161468698Y-86130251D01*
X161570330Y-86056412D01*
X161748412Y-85878330D01*
X161822251Y-85776698D01*
X163316319Y-87270766D01*
X163316320Y-87270765D01*
X163503447Y-87042750D01*
X163503457Y-87042736D01*
X163705418Y-86740480D01*
X163705429Y-86740462D01*
X163876790Y-86419869D01*
X163876792Y-86419864D01*
X164015913Y-86083997D01*
X164121446Y-85736101D01*
X164121449Y-85736090D01*
X164192367Y-85379556D01*
X164228000Y-85017765D01*
X164228000Y-84654234D01*
X164192367Y-84292443D01*
X164121449Y-83935909D01*
X164121446Y-83935898D01*
X164015913Y-83588002D01*
X163876792Y-83252135D01*
X163876790Y-83252130D01*
X163705429Y-82931537D01*
X163705418Y-82931519D01*
X163503448Y-82629249D01*
X163316320Y-82401233D01*
X163316319Y-82401232D01*
X161822251Y-83895300D01*
X161748412Y-83793670D01*
X161570330Y-83615588D01*
X161468698Y-83541748D01*
X162962766Y-82047679D01*
X162962765Y-82047678D01*
X162734750Y-81860551D01*
X162432480Y-81658581D01*
X162432462Y-81658570D01*
X162111869Y-81487209D01*
X162111864Y-81487207D01*
X161775997Y-81348086D01*
X161428101Y-81242553D01*
X161428090Y-81242550D01*
X161071556Y-81171632D01*
X160709766Y-81136000D01*
X160346234Y-81136000D01*
X159984443Y-81171632D01*
X159627909Y-81242550D01*
X159627898Y-81242553D01*
X159280002Y-81348086D01*
X158944135Y-81487207D01*
X158944130Y-81487209D01*
X158623537Y-81658570D01*
X158623519Y-81658581D01*
X158321258Y-81860545D01*
X158321254Y-81860548D01*
X158093233Y-82047679D01*
X158093233Y-82047680D01*
X159587301Y-83541748D01*
X159485670Y-83615588D01*
X159307588Y-83793670D01*
X159233748Y-83895301D01*
X157739680Y-82401233D01*
X157739679Y-82401233D01*
X157552548Y-82629254D01*
X157552545Y-82629258D01*
X157350581Y-82931519D01*
X157350570Y-82931537D01*
X157179209Y-83252130D01*
X157179207Y-83252135D01*
X157040086Y-83588002D01*
X156934553Y-83935898D01*
X156934550Y-83935909D01*
X156863632Y-84292443D01*
X156828000Y-84654234D01*
X155771308Y-84654234D01*
X155773840Y-84635002D01*
X155773840Y-84635001D01*
X155796999Y-84459094D01*
X155797000Y-84459080D01*
X155797000Y-84196919D01*
X155796999Y-84196905D01*
X155762779Y-83936990D01*
X155762777Y-83936979D01*
X155694924Y-83683744D01*
X155594595Y-83441528D01*
X155594590Y-83441517D01*
X155463511Y-83214483D01*
X155463505Y-83214475D01*
X155376918Y-83101633D01*
X155376917Y-83101633D01*
X154512846Y-83965704D01*
X154505951Y-83949058D01*
X154418401Y-83818030D01*
X154306970Y-83706599D01*
X154175942Y-83619049D01*
X154159292Y-83612152D01*
X155023365Y-82748080D01*
X154910524Y-82661494D01*
X154910516Y-82661488D01*
X154683482Y-82530409D01*
X154683471Y-82530404D01*
X154441255Y-82430075D01*
X154188020Y-82362222D01*
X154188009Y-82362220D01*
X153928094Y-82328000D01*
X153665905Y-82328000D01*
X153405990Y-82362220D01*
X153405979Y-82362222D01*
X153152744Y-82430075D01*
X152910528Y-82530404D01*
X152910517Y-82530409D01*
X152683471Y-82661496D01*
X152570633Y-82748079D01*
X152570633Y-82748080D01*
X153434706Y-83612153D01*
X153418058Y-83619049D01*
X153287030Y-83706599D01*
X153175599Y-83818030D01*
X153088049Y-83949058D01*
X153081153Y-83965706D01*
X152217080Y-83101633D01*
X152217079Y-83101633D01*
X152130496Y-83214471D01*
X151999409Y-83441517D01*
X151999404Y-83441528D01*
X151899075Y-83683744D01*
X151831222Y-83936979D01*
X151831220Y-83936990D01*
X151797000Y-84196905D01*
X151181590Y-84196905D01*
X151143876Y-83958789D01*
X151067185Y-83722757D01*
X150954514Y-83501629D01*
X150808639Y-83300849D01*
X150633151Y-83125361D01*
X150432371Y-82979486D01*
X150283614Y-82903690D01*
X150211240Y-82866813D01*
X149975212Y-82790124D01*
X149852650Y-82770712D01*
X149730089Y-82751300D01*
X149481911Y-82751300D01*
X149400203Y-82764241D01*
X149236787Y-82790124D01*
X149000759Y-82866813D01*
X148779628Y-82979486D01*
X148578846Y-83125363D01*
X148403363Y-83300846D01*
X148257486Y-83501628D01*
X148144813Y-83722759D01*
X148068124Y-83958787D01*
X148030410Y-84196905D01*
X148029300Y-84203911D01*
X136193700Y-84203911D01*
X136193700Y-83335481D01*
X136213385Y-83268442D01*
X136242212Y-83237106D01*
X136248292Y-83232439D01*
X136248300Y-83232435D01*
X136318435Y-83162300D01*
X136368029Y-83076401D01*
X136393700Y-82980594D01*
X136393700Y-82881406D01*
X136368029Y-82785599D01*
X136318435Y-82699700D01*
X136248300Y-82629565D01*
X136205350Y-82604768D01*
X136162402Y-82579971D01*
X136114497Y-82567135D01*
X136066594Y-82554300D01*
X135967406Y-82554300D01*
X135871597Y-82579971D01*
X135785700Y-82629565D01*
X135785697Y-82629567D01*
X135715567Y-82699697D01*
X135715565Y-82699700D01*
X135665971Y-82785597D01*
X135640300Y-82881406D01*
X123539934Y-82881406D01*
X123371448Y-82629249D01*
X123184320Y-82401233D01*
X123184319Y-82401232D01*
X121690251Y-83895300D01*
X121616412Y-83793670D01*
X121438330Y-83615588D01*
X121336698Y-83541748D01*
X122830766Y-82047679D01*
X122830765Y-82047678D01*
X122602750Y-81860551D01*
X122300480Y-81658581D01*
X122300462Y-81658570D01*
X121979869Y-81487209D01*
X121979864Y-81487207D01*
X121643997Y-81348086D01*
X121296101Y-81242553D01*
X121296090Y-81242550D01*
X120939556Y-81171632D01*
X120577766Y-81136000D01*
X120214234Y-81136000D01*
X119852443Y-81171632D01*
X119495909Y-81242550D01*
X119495898Y-81242553D01*
X119148002Y-81348086D01*
X118812135Y-81487207D01*
X118812130Y-81487209D01*
X118491537Y-81658570D01*
X118491519Y-81658581D01*
X118189258Y-81860545D01*
X118189254Y-81860548D01*
X117961233Y-82047679D01*
X117961233Y-82047680D01*
X119455301Y-83541748D01*
X119353670Y-83615588D01*
X119175588Y-83793670D01*
X119101748Y-83895301D01*
X117607680Y-82401233D01*
X117607679Y-82401233D01*
X117420548Y-82629254D01*
X117420545Y-82629258D01*
X117218581Y-82931519D01*
X117218570Y-82931537D01*
X117047209Y-83252130D01*
X117047207Y-83252135D01*
X116908086Y-83588002D01*
X116802553Y-83935898D01*
X116802550Y-83935909D01*
X116731632Y-84292443D01*
X116696000Y-84654234D01*
X115816500Y-84654234D01*
X115816500Y-77688852D01*
X143079300Y-77688852D01*
X143079300Y-77710688D01*
X143079300Y-80807149D01*
X143106201Y-80872093D01*
X143173343Y-80939235D01*
X143173348Y-80939239D01*
X144630200Y-82396092D01*
X144630201Y-82396093D01*
X144679907Y-82445799D01*
X144744852Y-82472700D01*
X146280519Y-82472700D01*
X146347558Y-82492385D01*
X146378894Y-82521212D01*
X146383563Y-82527297D01*
X146383565Y-82527300D01*
X146453700Y-82597435D01*
X146539599Y-82647029D01*
X146635406Y-82672700D01*
X146635408Y-82672700D01*
X146734592Y-82672700D01*
X146734594Y-82672700D01*
X146830401Y-82647029D01*
X146916300Y-82597435D01*
X146986435Y-82527300D01*
X147036029Y-82441401D01*
X147061700Y-82345594D01*
X147061700Y-82246406D01*
X147036029Y-82150599D01*
X146986435Y-82064700D01*
X146916300Y-81994565D01*
X146873350Y-81969768D01*
X146830402Y-81944971D01*
X146782497Y-81932135D01*
X146734594Y-81919300D01*
X146635406Y-81919300D01*
X146539597Y-81944971D01*
X146453700Y-81994565D01*
X146453697Y-81994567D01*
X146383567Y-82064697D01*
X146378894Y-82070788D01*
X146322465Y-82111990D01*
X146280519Y-82119300D01*
X144904554Y-82119300D01*
X144837515Y-82099615D01*
X144816873Y-82082981D01*
X143469019Y-80735127D01*
X143435534Y-80673804D01*
X143432700Y-80647446D01*
X143432700Y-80012911D01*
X152220300Y-80012911D01*
X152220300Y-80261088D01*
X152259124Y-80506212D01*
X152335813Y-80742240D01*
X152335815Y-80742243D01*
X152448486Y-80963371D01*
X152594361Y-81164151D01*
X152769849Y-81339639D01*
X152970629Y-81485514D01*
X153191757Y-81598185D01*
X153191759Y-81598186D01*
X153309773Y-81636530D01*
X153427789Y-81674876D01*
X153672911Y-81713700D01*
X153672912Y-81713700D01*
X153921088Y-81713700D01*
X153921089Y-81713700D01*
X154166211Y-81674876D01*
X154402243Y-81598185D01*
X154623371Y-81485514D01*
X154824151Y-81339639D01*
X154999639Y-81164151D01*
X155145514Y-80963371D01*
X155258185Y-80742243D01*
X155334876Y-80506211D01*
X155373700Y-80261089D01*
X155373700Y-80012911D01*
X155334876Y-79767789D01*
X155258185Y-79531757D01*
X155145514Y-79310629D01*
X154999639Y-79109849D01*
X154824151Y-78934361D01*
X154623371Y-78788486D01*
X154402240Y-78675813D01*
X154166212Y-78599124D01*
X154043650Y-78579712D01*
X153921089Y-78560300D01*
X153672911Y-78560300D01*
X153591203Y-78573241D01*
X153427787Y-78599124D01*
X153191759Y-78675813D01*
X152970628Y-78788486D01*
X152769846Y-78934363D01*
X152594363Y-79109846D01*
X152448486Y-79310628D01*
X152335813Y-79531759D01*
X152259124Y-79767787D01*
X152220300Y-80012911D01*
X143432700Y-80012911D01*
X143432700Y-77848553D01*
X143441344Y-77819111D01*
X143447864Y-77789134D01*
X143451621Y-77784113D01*
X143452385Y-77781514D01*
X143469009Y-77760881D01*
X143475930Y-77753960D01*
X143537248Y-77720473D01*
X143579807Y-77718699D01*
X143587405Y-77719699D01*
X143587406Y-77719700D01*
X143587407Y-77719700D01*
X143686592Y-77719700D01*
X143686594Y-77719700D01*
X143782401Y-77694029D01*
X143868300Y-77644435D01*
X143938435Y-77574300D01*
X143988029Y-77488401D01*
X144013700Y-77392594D01*
X144013700Y-77293406D01*
X143988029Y-77197599D01*
X143938435Y-77111700D01*
X143868300Y-77041565D01*
X143805933Y-77005557D01*
X143782402Y-76991971D01*
X143734497Y-76979135D01*
X143686594Y-76966300D01*
X143587406Y-76966300D01*
X143491597Y-76991971D01*
X143405700Y-77041565D01*
X143405697Y-77041567D01*
X143335567Y-77111697D01*
X143335565Y-77111700D01*
X143285971Y-77197597D01*
X143260300Y-77293406D01*
X143260300Y-77392593D01*
X143261301Y-77400197D01*
X143250536Y-77469233D01*
X143226044Y-77504064D01*
X143166898Y-77563209D01*
X143166896Y-77563211D01*
X143155908Y-77574200D01*
X143155907Y-77574201D01*
X143106201Y-77623907D01*
X143079300Y-77688852D01*
X115816500Y-77688852D01*
X115816500Y-71869999D01*
X119681884Y-71869999D01*
X119681885Y-71870000D01*
X120750670Y-71870000D01*
X120730925Y-71889745D01*
X120681556Y-71975255D01*
X120656000Y-72070630D01*
X120656000Y-72169370D01*
X120681556Y-72264745D01*
X120730925Y-72350255D01*
X120750670Y-72370000D01*
X119681885Y-72370000D01*
X119683085Y-72377584D01*
X119736591Y-72542255D01*
X119815195Y-72696524D01*
X119916967Y-72836602D01*
X120039397Y-72959032D01*
X120179475Y-73060804D01*
X120333742Y-73139408D01*
X120498415Y-73192914D01*
X120669429Y-73220000D01*
X120781000Y-73220000D01*
X120781000Y-72400330D01*
X120800745Y-72420075D01*
X120886255Y-72469444D01*
X120981630Y-72495000D01*
X121080370Y-72495000D01*
X121175745Y-72469444D01*
X121261255Y-72420075D01*
X121281000Y-72400330D01*
X121281000Y-73220000D01*
X121392571Y-73220000D01*
X121563584Y-73192914D01*
X121728257Y-73139408D01*
X121882524Y-73060804D01*
X122022602Y-72959032D01*
X122145032Y-72836602D01*
X122246804Y-72696524D01*
X122325408Y-72542255D01*
X122378914Y-72377584D01*
X122380115Y-72370000D01*
X121311330Y-72370000D01*
X121331075Y-72350255D01*
X121380444Y-72264745D01*
X121406000Y-72169370D01*
X121406000Y-72070630D01*
X121380444Y-71975255D01*
X121331075Y-71889745D01*
X121311330Y-71870000D01*
X122380115Y-71870000D01*
X122380115Y-71869999D01*
X122378914Y-71862415D01*
X122325408Y-71697744D01*
X122246804Y-71543475D01*
X122145032Y-71403397D01*
X122022602Y-71280967D01*
X121907589Y-71197406D01*
X130306300Y-71197406D01*
X130306300Y-71296593D01*
X130331971Y-71392402D01*
X130356768Y-71435350D01*
X130381565Y-71478300D01*
X130451700Y-71548435D01*
X130451703Y-71548437D01*
X130457788Y-71553106D01*
X130498990Y-71609535D01*
X130506300Y-71651481D01*
X130506300Y-72806149D01*
X130533201Y-72871093D01*
X130600343Y-72938235D01*
X130600349Y-72938240D01*
X131435130Y-73773021D01*
X131435133Y-73773025D01*
X131442201Y-73780093D01*
X131491907Y-73829799D01*
X131556852Y-73856700D01*
X133239953Y-73856700D01*
X133306992Y-73876385D01*
X133352747Y-73929189D01*
X133362691Y-73998347D01*
X133333666Y-74061903D01*
X133301953Y-74088087D01*
X133245703Y-74120562D01*
X133245697Y-74120567D01*
X133175567Y-74190697D01*
X133175565Y-74190700D01*
X133125971Y-74276597D01*
X133105603Y-74352615D01*
X133100300Y-74372406D01*
X133100300Y-74471594D01*
X133107752Y-74499406D01*
X133125971Y-74567402D01*
X133141497Y-74594293D01*
X133175565Y-74653300D01*
X133245700Y-74723435D01*
X133326205Y-74769915D01*
X133336594Y-74775913D01*
X133384809Y-74826481D01*
X133398031Y-74895088D01*
X133372063Y-74959952D01*
X133315149Y-75000480D01*
X133274593Y-75007300D01*
X131917850Y-75007300D01*
X131852907Y-75034200D01*
X131733064Y-75154044D01*
X131671741Y-75187528D01*
X131629197Y-75189301D01*
X131621594Y-75188300D01*
X131522406Y-75188300D01*
X131426597Y-75213971D01*
X131340700Y-75263565D01*
X131340697Y-75263567D01*
X131270567Y-75333697D01*
X131270565Y-75333700D01*
X131220971Y-75419597D01*
X131195300Y-75515406D01*
X131195300Y-75614593D01*
X131220971Y-75710402D01*
X131245768Y-75753350D01*
X131270565Y-75796300D01*
X131340700Y-75866435D01*
X131395026Y-75897800D01*
X131419717Y-75912056D01*
X131426599Y-75916029D01*
X131522406Y-75941700D01*
X131522408Y-75941700D01*
X131621592Y-75941700D01*
X131621594Y-75941700D01*
X131717401Y-75916029D01*
X131803300Y-75866435D01*
X131873435Y-75796300D01*
X131923029Y-75710401D01*
X131948700Y-75614594D01*
X131948700Y-75515406D01*
X131947699Y-75507807D01*
X131948287Y-75504032D01*
X131946952Y-75500452D01*
X131953627Y-75469774D01*
X131958461Y-75438771D01*
X131961232Y-75434829D01*
X131961809Y-75432180D01*
X131982955Y-75403935D01*
X131989880Y-75397010D01*
X132051204Y-75363532D01*
X132077553Y-75360700D01*
X133314852Y-75360700D01*
X136855635Y-75360700D01*
X136922674Y-75380385D01*
X136963022Y-75422700D01*
X136968562Y-75432296D01*
X136968564Y-75432299D01*
X136968565Y-75432300D01*
X137038700Y-75502435D01*
X137124599Y-75552029D01*
X137220406Y-75577700D01*
X137220408Y-75577700D01*
X137319592Y-75577700D01*
X137319594Y-75577700D01*
X137415401Y-75552029D01*
X137501300Y-75502435D01*
X137571435Y-75432300D01*
X137621029Y-75346401D01*
X137646700Y-75250594D01*
X137646700Y-75151406D01*
X137621029Y-75055599D01*
X137621027Y-75055596D01*
X137619673Y-75050541D01*
X137621336Y-74980692D01*
X137660498Y-74922829D01*
X137724727Y-74895325D01*
X137771541Y-74898673D01*
X137776596Y-74900027D01*
X137776599Y-74900029D01*
X137872406Y-74925700D01*
X137872408Y-74925700D01*
X137971592Y-74925700D01*
X137971594Y-74925700D01*
X138067401Y-74900029D01*
X138153300Y-74850435D01*
X138223435Y-74780300D01*
X138273029Y-74694401D01*
X138298700Y-74598594D01*
X138298700Y-74499406D01*
X138273029Y-74403599D01*
X138223435Y-74317700D01*
X138153300Y-74247565D01*
X138106561Y-74220580D01*
X138067402Y-74197971D01*
X138008404Y-74182163D01*
X137971594Y-74172300D01*
X137872406Y-74172300D01*
X137872404Y-74172300D01*
X137819792Y-74186397D01*
X137749942Y-74184733D01*
X137692080Y-74145570D01*
X137664577Y-74081341D01*
X137663700Y-74066622D01*
X137663700Y-73991408D01*
X137663700Y-73991406D01*
X137638029Y-73895599D01*
X137588435Y-73809700D01*
X137518300Y-73739565D01*
X137432401Y-73689971D01*
X137427406Y-73687087D01*
X137379191Y-73636519D01*
X137365969Y-73567912D01*
X137391937Y-73503048D01*
X137448851Y-73462520D01*
X137489407Y-73455700D01*
X142343519Y-73455700D01*
X142410558Y-73475385D01*
X142441894Y-73504212D01*
X142446563Y-73510297D01*
X142446565Y-73510300D01*
X142516700Y-73580435D01*
X142602599Y-73630029D01*
X142698406Y-73655700D01*
X142698408Y-73655700D01*
X142797592Y-73655700D01*
X142797594Y-73655700D01*
X142893401Y-73630029D01*
X142979300Y-73580435D01*
X143049435Y-73510300D01*
X143099029Y-73424401D01*
X143124700Y-73328594D01*
X143124700Y-73229406D01*
X143099029Y-73133599D01*
X143049435Y-73047700D01*
X142979300Y-72977565D01*
X142917269Y-72941751D01*
X142893402Y-72927971D01*
X142841502Y-72914065D01*
X142797594Y-72902300D01*
X142698406Y-72902300D01*
X142602597Y-72927971D01*
X142516700Y-72977565D01*
X142516697Y-72977567D01*
X142446567Y-73047697D01*
X142441894Y-73053788D01*
X142385465Y-73094990D01*
X142343519Y-73102300D01*
X132211542Y-73102300D01*
X132144503Y-73082615D01*
X132098748Y-73029811D01*
X132088603Y-72962116D01*
X132089365Y-72956327D01*
X132089365Y-72857138D01*
X132089365Y-72857136D01*
X132063694Y-72761329D01*
X132014100Y-72675430D01*
X131943965Y-72605295D01*
X131901015Y-72580498D01*
X131858067Y-72555701D01*
X131807884Y-72542255D01*
X131762259Y-72530030D01*
X131663071Y-72530030D01*
X131567262Y-72555701D01*
X131481365Y-72605295D01*
X131481362Y-72605297D01*
X131411232Y-72675427D01*
X131411230Y-72675430D01*
X131361636Y-72761327D01*
X131335965Y-72857136D01*
X131335965Y-72874712D01*
X131316280Y-72941751D01*
X131263476Y-72987506D01*
X131194318Y-72997450D01*
X131130762Y-72968425D01*
X131124284Y-72962393D01*
X130896019Y-72734128D01*
X130862534Y-72672805D01*
X130859700Y-72646447D01*
X130859700Y-71651481D01*
X130879385Y-71584442D01*
X130908212Y-71553106D01*
X130914292Y-71548439D01*
X130914300Y-71548435D01*
X130984435Y-71478300D01*
X131034029Y-71392401D01*
X131059700Y-71296594D01*
X131059700Y-71197406D01*
X131034029Y-71101599D01*
X130984435Y-71015700D01*
X130914300Y-70945565D01*
X130871350Y-70920768D01*
X130828402Y-70895971D01*
X130780497Y-70883135D01*
X130732594Y-70870300D01*
X130633406Y-70870300D01*
X130537597Y-70895971D01*
X130451700Y-70945565D01*
X130451697Y-70945567D01*
X130381567Y-71015697D01*
X130381565Y-71015700D01*
X130331971Y-71101597D01*
X130306300Y-71197406D01*
X121907589Y-71197406D01*
X121882524Y-71179195D01*
X121728257Y-71100591D01*
X121563584Y-71047086D01*
X121538879Y-71043173D01*
X121475744Y-71013244D01*
X121438813Y-70953932D01*
X121439811Y-70884070D01*
X121478421Y-70825837D01*
X121542384Y-70797723D01*
X121558277Y-70796700D01*
X121694275Y-70796700D01*
X121694282Y-70796700D01*
X121741861Y-70790436D01*
X121846278Y-70741745D01*
X121927745Y-70660278D01*
X121976436Y-70555861D01*
X121982700Y-70508282D01*
X121982700Y-69731718D01*
X121976436Y-69684139D01*
X121927745Y-69579722D01*
X121846278Y-69498255D01*
X121741861Y-69449564D01*
X121741859Y-69449563D01*
X121694292Y-69443301D01*
X121694287Y-69443300D01*
X121694282Y-69443300D01*
X120367718Y-69443300D01*
X120367712Y-69443300D01*
X120367707Y-69443301D01*
X120320141Y-69449563D01*
X120215721Y-69498255D01*
X120134255Y-69579721D01*
X120085563Y-69684141D01*
X120079301Y-69731707D01*
X120079300Y-69731724D01*
X120079300Y-70508275D01*
X120079301Y-70508292D01*
X120085563Y-70555858D01*
X120085563Y-70555859D01*
X120085564Y-70555861D01*
X120134255Y-70660278D01*
X120215722Y-70741745D01*
X120320139Y-70790436D01*
X120367718Y-70796700D01*
X120367725Y-70796700D01*
X120503723Y-70796700D01*
X120570762Y-70816385D01*
X120616517Y-70869189D01*
X120626461Y-70938347D01*
X120597436Y-71001903D01*
X120538658Y-71039677D01*
X120523121Y-71043173D01*
X120498415Y-71047086D01*
X120333742Y-71100591D01*
X120179475Y-71179195D01*
X120039397Y-71280967D01*
X119916967Y-71403397D01*
X119815195Y-71543475D01*
X119736591Y-71697744D01*
X119683085Y-71862415D01*
X119681884Y-71869999D01*
X115816500Y-71869999D01*
X115816500Y-64264911D01*
X119454300Y-64264911D01*
X119454300Y-64513088D01*
X119493124Y-64758212D01*
X119569813Y-64994240D01*
X119679044Y-65208615D01*
X119682486Y-65215371D01*
X119828361Y-65416151D01*
X120003849Y-65591639D01*
X120204629Y-65737514D01*
X120425757Y-65850185D01*
X120425759Y-65850186D01*
X120515844Y-65879456D01*
X120661789Y-65926876D01*
X120906911Y-65965700D01*
X120906912Y-65965700D01*
X121155088Y-65965700D01*
X121155089Y-65965700D01*
X121400211Y-65926876D01*
X121636243Y-65850185D01*
X121857371Y-65737514D01*
X122058151Y-65591639D01*
X122230884Y-65418906D01*
X139831300Y-65418906D01*
X139831300Y-65518094D01*
X139839957Y-65550402D01*
X139856971Y-65613902D01*
X139869903Y-65636300D01*
X139906565Y-65699800D01*
X139976700Y-65769935D01*
X140062599Y-65819529D01*
X140158406Y-65845200D01*
X140158408Y-65845200D01*
X140257592Y-65845200D01*
X140257594Y-65845200D01*
X140257595Y-65845199D01*
X140265191Y-65844199D01*
X140334227Y-65854960D01*
X140369065Y-65879456D01*
X144535981Y-70046372D01*
X144569466Y-70107695D01*
X144572300Y-70134053D01*
X144572300Y-76938518D01*
X144552615Y-77005557D01*
X144523789Y-77036892D01*
X144517702Y-77041562D01*
X144447565Y-77111700D01*
X144397971Y-77197597D01*
X144372300Y-77293406D01*
X144372300Y-77392593D01*
X144397971Y-77488402D01*
X144407014Y-77504064D01*
X144447565Y-77574300D01*
X144517700Y-77644435D01*
X144603599Y-77694029D01*
X144699406Y-77719700D01*
X144699408Y-77719700D01*
X144798592Y-77719700D01*
X144798594Y-77719700D01*
X144894401Y-77694029D01*
X144980300Y-77644435D01*
X145050435Y-77574300D01*
X145100029Y-77488401D01*
X145125700Y-77392594D01*
X145125700Y-77293406D01*
X145100029Y-77197599D01*
X145050435Y-77111700D01*
X144980300Y-77041565D01*
X144980299Y-77041564D01*
X144980297Y-77041562D01*
X144974211Y-77036892D01*
X144933010Y-76980463D01*
X144925700Y-76938518D01*
X144925700Y-76002800D01*
X157310738Y-76002800D01*
X158113612Y-76002800D01*
X158096395Y-76012740D01*
X158040540Y-76068595D01*
X158001044Y-76137004D01*
X157980600Y-76213304D01*
X157980600Y-76292296D01*
X158001044Y-76368596D01*
X158040540Y-76437005D01*
X158096395Y-76492860D01*
X158113612Y-76502800D01*
X157310738Y-76502800D01*
X157319030Y-76544490D01*
X157319030Y-76544492D01*
X157394407Y-76726471D01*
X157394414Y-76726484D01*
X157503848Y-76890262D01*
X157503851Y-76890266D01*
X157643133Y-77029548D01*
X157643137Y-77029551D01*
X157806915Y-77138985D01*
X157806928Y-77138992D01*
X157988906Y-77214369D01*
X157988918Y-77214372D01*
X158182104Y-77252799D01*
X158182108Y-77252800D01*
X158580600Y-77252800D01*
X158580600Y-76552800D01*
X159080600Y-76552800D01*
X159080600Y-77252800D01*
X159479092Y-77252800D01*
X159479095Y-77252799D01*
X159672281Y-77214372D01*
X159672293Y-77214369D01*
X159854271Y-77138992D01*
X159854284Y-77138985D01*
X160018062Y-77029551D01*
X160018066Y-77029548D01*
X160157348Y-76890266D01*
X160157351Y-76890262D01*
X160266785Y-76726484D01*
X160266792Y-76726471D01*
X160342169Y-76544492D01*
X160342169Y-76544490D01*
X160350462Y-76502800D01*
X159547588Y-76502800D01*
X159564805Y-76492860D01*
X159620660Y-76437005D01*
X159660156Y-76368596D01*
X159680600Y-76292296D01*
X159680600Y-76213304D01*
X159660156Y-76137004D01*
X159620660Y-76068595D01*
X159564805Y-76012740D01*
X159547588Y-76002800D01*
X160350462Y-76002800D01*
X160342169Y-75961109D01*
X160342169Y-75961107D01*
X160266792Y-75779128D01*
X160266785Y-75779115D01*
X160157351Y-75615337D01*
X160157348Y-75615333D01*
X160018066Y-75476051D01*
X160018062Y-75476048D01*
X159854284Y-75366614D01*
X159854271Y-75366607D01*
X159672601Y-75291358D01*
X159618197Y-75247517D01*
X159596132Y-75181223D01*
X159613411Y-75113524D01*
X159632366Y-75089122D01*
X159652040Y-75069449D01*
X159704925Y-74977850D01*
X159732300Y-74875685D01*
X159732300Y-74769915D01*
X159704925Y-74667750D01*
X159652040Y-74576151D01*
X159577249Y-74501360D01*
X159485650Y-74448475D01*
X159383485Y-74421100D01*
X159277715Y-74421100D01*
X159175549Y-74448475D01*
X159083951Y-74501360D01*
X159083948Y-74501362D01*
X159009162Y-74576148D01*
X159009160Y-74576151D01*
X158956275Y-74667749D01*
X158941354Y-74723435D01*
X158928900Y-74769915D01*
X158928900Y-74875685D01*
X158956275Y-74977850D01*
X159009160Y-75069449D01*
X159009162Y-75069451D01*
X159048874Y-75109163D01*
X159082359Y-75170486D01*
X159080145Y-75201438D01*
X159080600Y-75201438D01*
X159080600Y-75952800D01*
X158580600Y-75952800D01*
X158580600Y-75252800D01*
X158182104Y-75252800D01*
X157988918Y-75291227D01*
X157988906Y-75291230D01*
X157806928Y-75366607D01*
X157806915Y-75366614D01*
X157643137Y-75476048D01*
X157643133Y-75476051D01*
X157503851Y-75615333D01*
X157503848Y-75615337D01*
X157394414Y-75779115D01*
X157394407Y-75779128D01*
X157319030Y-75961107D01*
X157319030Y-75961109D01*
X157310738Y-76002800D01*
X144925700Y-76002800D01*
X144925700Y-73165906D01*
X159140100Y-73165906D01*
X159140100Y-73265093D01*
X159165771Y-73360902D01*
X159176274Y-73379093D01*
X159215365Y-73446800D01*
X159285500Y-73516935D01*
X159371399Y-73566529D01*
X159467206Y-73592200D01*
X159467208Y-73592200D01*
X159566392Y-73592200D01*
X159566394Y-73592200D01*
X159566395Y-73592199D01*
X159573991Y-73591199D01*
X159643027Y-73601960D01*
X159677865Y-73626456D01*
X160176005Y-74124596D01*
X160209490Y-74185919D01*
X160204506Y-74255611D01*
X160176010Y-74299954D01*
X160162566Y-74313398D01*
X160162565Y-74313400D01*
X160112971Y-74399297D01*
X160087300Y-74495106D01*
X160087300Y-74594293D01*
X160112971Y-74690102D01*
X160115454Y-74694402D01*
X160162565Y-74776000D01*
X160232700Y-74846135D01*
X160318599Y-74895729D01*
X160414406Y-74921400D01*
X160414408Y-74921400D01*
X160513592Y-74921400D01*
X160513594Y-74921400D01*
X160609401Y-74895729D01*
X160695300Y-74846135D01*
X160765435Y-74776000D01*
X160815029Y-74690101D01*
X160840700Y-74594294D01*
X160840700Y-74495106D01*
X160815029Y-74399299D01*
X160765435Y-74313400D01*
X160695300Y-74243265D01*
X160695299Y-74243264D01*
X160695297Y-74243262D01*
X160689211Y-74238592D01*
X160648010Y-74182163D01*
X160640700Y-74140218D01*
X160640700Y-74127553D01*
X160640699Y-74127550D01*
X160613799Y-74062607D01*
X160564093Y-74012901D01*
X160557028Y-74005836D01*
X160557021Y-74005830D01*
X159927756Y-73376565D01*
X159894271Y-73315242D01*
X159892499Y-73272691D01*
X159893500Y-73265091D01*
X159893500Y-73165908D01*
X159893500Y-73165906D01*
X159867829Y-73070099D01*
X159818235Y-72984200D01*
X159748100Y-72914065D01*
X159673671Y-72871093D01*
X159662202Y-72864471D01*
X159614297Y-72851635D01*
X159566394Y-72838800D01*
X159467206Y-72838800D01*
X159371397Y-72864471D01*
X159285500Y-72914065D01*
X159285497Y-72914067D01*
X159215367Y-72984197D01*
X159215365Y-72984200D01*
X159165771Y-73070097D01*
X159140100Y-73165906D01*
X144925700Y-73165906D01*
X144925700Y-70562406D01*
X159140100Y-70562406D01*
X159140100Y-70661593D01*
X159165771Y-70757402D01*
X159184844Y-70790436D01*
X159215365Y-70843300D01*
X159285500Y-70913435D01*
X159371399Y-70963029D01*
X159467206Y-70988700D01*
X159467208Y-70988700D01*
X159566392Y-70988700D01*
X159566394Y-70988700D01*
X159662201Y-70963029D01*
X159748100Y-70913435D01*
X159818235Y-70843300D01*
X159867829Y-70757401D01*
X159893500Y-70661594D01*
X159893500Y-70562406D01*
X159893499Y-70562405D01*
X159892439Y-70554349D01*
X159895768Y-70553910D01*
X159896212Y-70534981D01*
X159896832Y-70500316D01*
X159897034Y-70499892D01*
X159897040Y-70499660D01*
X159912065Y-70468479D01*
X159915794Y-70462897D01*
X159915799Y-70462893D01*
X159915801Y-70462887D01*
X159918685Y-70458572D01*
X159934100Y-70439789D01*
X160546651Y-69827239D01*
X160546654Y-69827237D01*
X160564092Y-69809799D01*
X160564093Y-69809799D01*
X160613799Y-69760093D01*
X160640700Y-69695148D01*
X160640700Y-69619481D01*
X160660385Y-69552442D01*
X160689212Y-69521106D01*
X160695292Y-69516439D01*
X160695300Y-69516435D01*
X160765435Y-69446300D01*
X160815029Y-69360401D01*
X160840700Y-69264594D01*
X160840700Y-69165406D01*
X160815029Y-69069599D01*
X160765435Y-68983700D01*
X160695300Y-68913565D01*
X160650586Y-68887749D01*
X160609402Y-68863971D01*
X160561497Y-68851135D01*
X160513594Y-68838300D01*
X160414406Y-68838300D01*
X160318597Y-68863971D01*
X160232700Y-68913565D01*
X160232697Y-68913567D01*
X160162567Y-68983697D01*
X160162565Y-68983700D01*
X160112971Y-69069597D01*
X160087300Y-69165406D01*
X160087300Y-69264593D01*
X160112971Y-69360402D01*
X160115187Y-69364240D01*
X160162565Y-69446300D01*
X160162567Y-69446302D01*
X160207505Y-69491240D01*
X160240990Y-69552563D01*
X160236006Y-69622255D01*
X160207505Y-69666602D01*
X159673623Y-70200484D01*
X159612300Y-70233969D01*
X159569763Y-70235743D01*
X159566397Y-70235300D01*
X159566394Y-70235300D01*
X159467206Y-70235300D01*
X159371397Y-70260971D01*
X159285500Y-70310565D01*
X159285497Y-70310567D01*
X159215367Y-70380697D01*
X159215365Y-70380700D01*
X159165771Y-70466597D01*
X159140100Y-70562406D01*
X144925700Y-70562406D01*
X144925700Y-69974353D01*
X144925699Y-69974350D01*
X144898799Y-69909407D01*
X144849093Y-69859701D01*
X144842028Y-69852636D01*
X144842021Y-69852630D01*
X142352191Y-67362800D01*
X157310738Y-67362800D01*
X158113612Y-67362800D01*
X158096395Y-67372740D01*
X158040540Y-67428595D01*
X158001044Y-67497004D01*
X157980600Y-67573304D01*
X157980600Y-67652296D01*
X158001044Y-67728596D01*
X158040540Y-67797005D01*
X158096395Y-67852860D01*
X158113612Y-67862800D01*
X157310738Y-67862800D01*
X157319030Y-67904490D01*
X157319030Y-67904492D01*
X157394407Y-68086471D01*
X157394414Y-68086484D01*
X157503848Y-68250262D01*
X157503851Y-68250266D01*
X157643133Y-68389548D01*
X157643137Y-68389551D01*
X157806915Y-68498985D01*
X157806928Y-68498992D01*
X157988906Y-68574369D01*
X157988918Y-68574372D01*
X158182104Y-68612799D01*
X158182108Y-68612800D01*
X158580600Y-68612800D01*
X158580600Y-67912800D01*
X159080600Y-67912800D01*
X159080600Y-68639175D01*
X159082359Y-68642397D01*
X159077375Y-68712089D01*
X159048875Y-68756435D01*
X159009163Y-68796147D01*
X159009160Y-68796151D01*
X158956275Y-68887749D01*
X158956275Y-68887750D01*
X158928900Y-68989915D01*
X158928900Y-69095685D01*
X158956275Y-69197850D01*
X159009160Y-69289449D01*
X159083951Y-69364240D01*
X159175550Y-69417125D01*
X159277715Y-69444500D01*
X159277717Y-69444500D01*
X159383483Y-69444500D01*
X159383485Y-69444500D01*
X159485650Y-69417125D01*
X159577249Y-69364240D01*
X159652040Y-69289449D01*
X159704925Y-69197850D01*
X159732300Y-69095685D01*
X159732300Y-68989915D01*
X159704925Y-68887750D01*
X159652040Y-68796151D01*
X159632372Y-68776483D01*
X159598887Y-68715160D01*
X159603871Y-68645468D01*
X159645743Y-68589535D01*
X159672601Y-68574241D01*
X159854272Y-68498992D01*
X159854284Y-68498985D01*
X160018062Y-68389551D01*
X160018066Y-68389548D01*
X160157348Y-68250266D01*
X160157351Y-68250262D01*
X160266785Y-68086484D01*
X160266792Y-68086471D01*
X160342169Y-67904492D01*
X160342169Y-67904490D01*
X160350462Y-67862800D01*
X159547588Y-67862800D01*
X159564805Y-67852860D01*
X159620660Y-67797005D01*
X159660156Y-67728596D01*
X159680600Y-67652296D01*
X159680600Y-67573304D01*
X159660156Y-67497004D01*
X159620660Y-67428595D01*
X159564805Y-67372740D01*
X159547588Y-67362800D01*
X160350462Y-67362800D01*
X160342169Y-67321109D01*
X160342169Y-67321107D01*
X160266792Y-67139128D01*
X160266785Y-67139115D01*
X160157351Y-66975337D01*
X160157348Y-66975333D01*
X160018066Y-66836051D01*
X160018062Y-66836048D01*
X159854284Y-66726614D01*
X159854271Y-66726607D01*
X159672293Y-66651230D01*
X159672281Y-66651227D01*
X159479095Y-66612800D01*
X159080600Y-66612800D01*
X159080600Y-67312800D01*
X158580600Y-67312800D01*
X158580600Y-66612800D01*
X158182104Y-66612800D01*
X157988918Y-66651227D01*
X157988906Y-66651230D01*
X157806928Y-66726607D01*
X157806915Y-66726614D01*
X157643137Y-66836048D01*
X157643133Y-66836051D01*
X157503851Y-66975333D01*
X157503848Y-66975337D01*
X157394414Y-67139115D01*
X157394407Y-67139128D01*
X157319030Y-67321107D01*
X157319030Y-67321109D01*
X157310738Y-67362800D01*
X142352191Y-67362800D01*
X140618956Y-65629565D01*
X140585471Y-65568242D01*
X140583699Y-65525691D01*
X140584700Y-65518091D01*
X140584700Y-65418908D01*
X140584700Y-65418906D01*
X140559029Y-65323099D01*
X140509435Y-65237200D01*
X140439300Y-65167065D01*
X140396350Y-65142268D01*
X140353402Y-65117471D01*
X140301502Y-65103565D01*
X140257594Y-65091800D01*
X140158406Y-65091800D01*
X140062597Y-65117471D01*
X139976700Y-65167065D01*
X139976697Y-65167067D01*
X139906567Y-65237197D01*
X139906565Y-65237200D01*
X139856971Y-65323097D01*
X139848314Y-65355408D01*
X139831300Y-65418906D01*
X122230884Y-65418906D01*
X122233639Y-65416151D01*
X122379514Y-65215371D01*
X122492185Y-64994243D01*
X122568876Y-64758211D01*
X122594979Y-64593406D01*
X142117300Y-64593406D01*
X142117300Y-64692593D01*
X142142971Y-64788402D01*
X142161168Y-64819919D01*
X142192565Y-64874300D01*
X142262700Y-64944435D01*
X142348599Y-64994029D01*
X142444406Y-65019700D01*
X142444408Y-65019700D01*
X142543592Y-65019700D01*
X142543594Y-65019700D01*
X142639401Y-64994029D01*
X142639412Y-64994022D01*
X142639550Y-64993966D01*
X142639691Y-64993950D01*
X142647252Y-64991925D01*
X142647567Y-64993103D01*
X142709019Y-64986493D01*
X142771500Y-65017763D01*
X142807157Y-65077849D01*
X142804668Y-65147675D01*
X142794398Y-65170524D01*
X142742972Y-65259595D01*
X142742972Y-65259596D01*
X142742972Y-65259597D01*
X142742971Y-65259599D01*
X142721993Y-65337893D01*
X142717300Y-65355406D01*
X142717300Y-65454593D01*
X142742971Y-65550402D01*
X142765262Y-65589010D01*
X142792565Y-65636300D01*
X142862700Y-65706435D01*
X142948599Y-65756029D01*
X143044406Y-65781700D01*
X143044408Y-65781700D01*
X143143592Y-65781700D01*
X143143594Y-65781700D01*
X143239401Y-65756029D01*
X143325300Y-65706435D01*
X143395435Y-65636300D01*
X143395439Y-65636292D01*
X143400106Y-65630212D01*
X143456535Y-65589010D01*
X143498481Y-65581700D01*
X145010519Y-65581700D01*
X145077558Y-65601385D01*
X145108894Y-65630212D01*
X145113563Y-65636297D01*
X145113565Y-65636300D01*
X145183700Y-65706435D01*
X145269599Y-65756029D01*
X145365406Y-65781700D01*
X145365408Y-65781700D01*
X145464592Y-65781700D01*
X145464594Y-65781700D01*
X145560401Y-65756029D01*
X145646300Y-65706435D01*
X145716435Y-65636300D01*
X145766029Y-65550401D01*
X145791700Y-65454594D01*
X145791700Y-65355406D01*
X145766029Y-65259599D01*
X145716435Y-65173700D01*
X145646300Y-65103565D01*
X145601759Y-65077849D01*
X145560402Y-65053971D01*
X145512497Y-65041135D01*
X145464594Y-65028300D01*
X145365406Y-65028300D01*
X145365404Y-65028300D01*
X145295068Y-65047146D01*
X145225218Y-65045483D01*
X145167356Y-65006319D01*
X145139853Y-64942090D01*
X145151440Y-64873188D01*
X145155574Y-64865397D01*
X145200029Y-64788401D01*
X145225700Y-64692594D01*
X145225700Y-64593406D01*
X145200029Y-64497599D01*
X145150435Y-64411700D01*
X145080300Y-64341565D01*
X145037350Y-64316768D01*
X144994402Y-64291971D01*
X144946497Y-64279135D01*
X144898594Y-64266300D01*
X144799406Y-64266300D01*
X144703597Y-64291971D01*
X144617700Y-64341565D01*
X144617697Y-64341567D01*
X144547567Y-64411697D01*
X144542894Y-64417788D01*
X144486465Y-64458990D01*
X144444519Y-64466300D01*
X142898481Y-64466300D01*
X142831442Y-64446615D01*
X142800106Y-64417788D01*
X142795437Y-64411703D01*
X142795435Y-64411700D01*
X142725300Y-64341565D01*
X142682350Y-64316768D01*
X142639402Y-64291971D01*
X142591497Y-64279135D01*
X142543594Y-64266300D01*
X142444406Y-64266300D01*
X142348597Y-64291971D01*
X142262700Y-64341565D01*
X142262697Y-64341567D01*
X142192567Y-64411697D01*
X142192565Y-64411700D01*
X142142971Y-64497597D01*
X142117300Y-64593406D01*
X122594979Y-64593406D01*
X122607700Y-64513089D01*
X122607700Y-64264911D01*
X122568876Y-64019789D01*
X122492185Y-63783757D01*
X122379514Y-63562629D01*
X122297979Y-63450406D01*
X143006300Y-63450406D01*
X143006300Y-63549594D01*
X143009793Y-63562629D01*
X143031971Y-63645402D01*
X143054262Y-63684010D01*
X143081565Y-63731300D01*
X143151700Y-63801435D01*
X143237599Y-63851029D01*
X143333406Y-63876700D01*
X143333408Y-63876700D01*
X143432592Y-63876700D01*
X143432594Y-63876700D01*
X143528401Y-63851029D01*
X143614300Y-63801435D01*
X143684435Y-63731300D01*
X143684439Y-63731292D01*
X143689106Y-63725212D01*
X143745535Y-63684010D01*
X143787481Y-63676700D01*
X144502519Y-63676700D01*
X144569558Y-63696385D01*
X144600894Y-63725212D01*
X144605563Y-63731297D01*
X144605565Y-63731300D01*
X144675700Y-63801435D01*
X144761599Y-63851029D01*
X144857406Y-63876700D01*
X144857408Y-63876700D01*
X144956592Y-63876700D01*
X144956594Y-63876700D01*
X145052401Y-63851029D01*
X145138300Y-63801435D01*
X145208435Y-63731300D01*
X145258029Y-63645401D01*
X145283700Y-63549594D01*
X145283700Y-63450406D01*
X145258029Y-63354599D01*
X145208435Y-63268700D01*
X145138300Y-63198565D01*
X145095350Y-63173768D01*
X145052402Y-63148971D01*
X145004497Y-63136135D01*
X144956594Y-63123300D01*
X144857406Y-63123300D01*
X144761597Y-63148971D01*
X144675700Y-63198565D01*
X144675697Y-63198567D01*
X144605567Y-63268697D01*
X144600894Y-63274788D01*
X144544465Y-63315990D01*
X144502519Y-63323300D01*
X143787481Y-63323300D01*
X143720442Y-63303615D01*
X143689106Y-63274788D01*
X143684437Y-63268703D01*
X143684435Y-63268700D01*
X143614300Y-63198565D01*
X143571350Y-63173768D01*
X143528402Y-63148971D01*
X143480497Y-63136135D01*
X143432594Y-63123300D01*
X143333406Y-63123300D01*
X143237597Y-63148971D01*
X143151700Y-63198565D01*
X143151697Y-63198567D01*
X143081567Y-63268697D01*
X143081565Y-63268700D01*
X143031971Y-63354597D01*
X143006300Y-63450406D01*
X122297979Y-63450406D01*
X122233639Y-63361849D01*
X122058151Y-63186361D01*
X121857371Y-63040486D01*
X121636240Y-62927813D01*
X121400212Y-62851124D01*
X121277650Y-62831712D01*
X121155089Y-62812300D01*
X120906911Y-62812300D01*
X120825203Y-62825241D01*
X120661787Y-62851124D01*
X120425759Y-62927813D01*
X120204628Y-63040486D01*
X120003846Y-63186363D01*
X119828363Y-63361846D01*
X119682486Y-63562628D01*
X119569813Y-63783759D01*
X119493124Y-64019787D01*
X119454300Y-64264911D01*
X115816500Y-64264911D01*
X115816500Y-57152706D01*
X115816618Y-57147297D01*
X115824436Y-56968234D01*
X116696000Y-56968234D01*
X116696000Y-57331765D01*
X116731632Y-57693556D01*
X116802550Y-58050090D01*
X116802553Y-58050101D01*
X116908086Y-58397997D01*
X117047207Y-58733864D01*
X117047209Y-58733869D01*
X117218570Y-59054462D01*
X117218581Y-59054480D01*
X117420551Y-59356750D01*
X117607678Y-59584765D01*
X117607679Y-59584766D01*
X119101747Y-58090697D01*
X119175588Y-58192330D01*
X119353670Y-58370412D01*
X119455301Y-58444251D01*
X117961232Y-59938319D01*
X117961233Y-59938320D01*
X118189249Y-60125448D01*
X118491519Y-60327418D01*
X118491537Y-60327429D01*
X118812130Y-60498790D01*
X118812135Y-60498792D01*
X119148002Y-60637913D01*
X119495898Y-60743446D01*
X119495909Y-60743449D01*
X119852443Y-60814367D01*
X120214234Y-60850000D01*
X120577766Y-60850000D01*
X120939556Y-60814367D01*
X121296090Y-60743449D01*
X121296101Y-60743446D01*
X121643997Y-60637913D01*
X121979864Y-60498792D01*
X121979869Y-60498790D01*
X122300462Y-60327429D01*
X122300480Y-60327418D01*
X122602736Y-60125457D01*
X122602750Y-60125447D01*
X122830765Y-59938320D01*
X122830766Y-59938319D01*
X121336698Y-58444251D01*
X121438330Y-58370412D01*
X121616412Y-58192330D01*
X121690251Y-58090698D01*
X123184319Y-59584766D01*
X123184320Y-59584765D01*
X123371447Y-59356750D01*
X123371457Y-59356736D01*
X123573418Y-59054480D01*
X123573429Y-59054462D01*
X123744790Y-58733869D01*
X123744792Y-58733864D01*
X123883913Y-58397997D01*
X123989446Y-58050101D01*
X123989449Y-58050090D01*
X124060367Y-57693556D01*
X124096000Y-57331765D01*
X124096000Y-56968234D01*
X156828000Y-56968234D01*
X156828000Y-57331765D01*
X156863632Y-57693556D01*
X156934550Y-58050090D01*
X156934553Y-58050101D01*
X157040086Y-58397997D01*
X157179207Y-58733864D01*
X157179209Y-58733869D01*
X157350570Y-59054462D01*
X157350581Y-59054480D01*
X157552551Y-59356750D01*
X157739678Y-59584765D01*
X157739679Y-59584766D01*
X159233747Y-58090697D01*
X159307588Y-58192330D01*
X159485670Y-58370412D01*
X159587301Y-58444251D01*
X158093232Y-59938319D01*
X158093233Y-59938320D01*
X158321249Y-60125448D01*
X158623519Y-60327418D01*
X158623537Y-60327429D01*
X158944130Y-60498790D01*
X158944135Y-60498792D01*
X159280002Y-60637913D01*
X159627898Y-60743446D01*
X159627909Y-60743449D01*
X159984443Y-60814367D01*
X160346234Y-60850000D01*
X160709766Y-60850000D01*
X161071556Y-60814367D01*
X161428090Y-60743449D01*
X161428101Y-60743446D01*
X161775997Y-60637913D01*
X162111864Y-60498792D01*
X162111869Y-60498790D01*
X162432462Y-60327429D01*
X162432480Y-60327418D01*
X162734736Y-60125457D01*
X162734750Y-60125447D01*
X162962765Y-59938320D01*
X162962766Y-59938319D01*
X161468698Y-58444251D01*
X161570330Y-58370412D01*
X161748412Y-58192330D01*
X161822251Y-58090698D01*
X163316319Y-59584766D01*
X163316320Y-59584765D01*
X163503447Y-59356750D01*
X163503457Y-59356736D01*
X163705418Y-59054480D01*
X163705429Y-59054462D01*
X163876790Y-58733869D01*
X163876792Y-58733864D01*
X164015913Y-58397997D01*
X164121446Y-58050101D01*
X164121449Y-58050090D01*
X164192367Y-57693556D01*
X164228000Y-57331765D01*
X164228000Y-56968234D01*
X164192367Y-56606443D01*
X164121449Y-56249909D01*
X164121446Y-56249898D01*
X164015913Y-55902002D01*
X163876792Y-55566135D01*
X163876790Y-55566130D01*
X163705429Y-55245537D01*
X163705418Y-55245519D01*
X163503448Y-54943249D01*
X163316320Y-54715233D01*
X163316319Y-54715232D01*
X161822251Y-56209300D01*
X161748412Y-56107670D01*
X161570330Y-55929588D01*
X161468698Y-55855748D01*
X162962766Y-54361679D01*
X162962765Y-54361678D01*
X162734750Y-54174551D01*
X162432480Y-53972581D01*
X162432462Y-53972570D01*
X162111869Y-53801209D01*
X162111864Y-53801207D01*
X161775997Y-53662086D01*
X161428101Y-53556553D01*
X161428090Y-53556550D01*
X161071556Y-53485632D01*
X160709766Y-53450000D01*
X160346234Y-53450000D01*
X159984443Y-53485632D01*
X159627909Y-53556550D01*
X159627898Y-53556553D01*
X159280002Y-53662086D01*
X158944135Y-53801207D01*
X158944130Y-53801209D01*
X158623537Y-53972570D01*
X158623519Y-53972581D01*
X158321258Y-54174545D01*
X158321254Y-54174548D01*
X158093233Y-54361679D01*
X158093233Y-54361680D01*
X159587301Y-55855748D01*
X159485670Y-55929588D01*
X159307588Y-56107670D01*
X159233748Y-56209301D01*
X157739680Y-54715233D01*
X157739679Y-54715233D01*
X157552548Y-54943254D01*
X157552545Y-54943258D01*
X157350581Y-55245519D01*
X157350570Y-55245537D01*
X157179209Y-55566130D01*
X157179207Y-55566135D01*
X157040086Y-55902002D01*
X156934553Y-56249898D01*
X156934550Y-56249909D01*
X156863632Y-56606443D01*
X156828000Y-56968234D01*
X124096000Y-56968234D01*
X124060367Y-56606443D01*
X123989449Y-56249909D01*
X123989446Y-56249898D01*
X123883913Y-55902002D01*
X123744792Y-55566135D01*
X123744790Y-55566130D01*
X123573429Y-55245537D01*
X123573418Y-55245519D01*
X123371448Y-54943249D01*
X123184320Y-54715233D01*
X123184319Y-54715232D01*
X121690251Y-56209300D01*
X121616412Y-56107670D01*
X121438330Y-55929588D01*
X121336698Y-55855748D01*
X122830766Y-54361679D01*
X122830765Y-54361678D01*
X122602750Y-54174551D01*
X122300480Y-53972581D01*
X122300462Y-53972570D01*
X121979869Y-53801209D01*
X121979864Y-53801207D01*
X121643997Y-53662086D01*
X121296101Y-53556553D01*
X121296090Y-53556550D01*
X120939556Y-53485632D01*
X120577766Y-53450000D01*
X120214234Y-53450000D01*
X119852443Y-53485632D01*
X119495909Y-53556550D01*
X119495898Y-53556553D01*
X119148002Y-53662086D01*
X118812135Y-53801207D01*
X118812130Y-53801209D01*
X118491537Y-53972570D01*
X118491519Y-53972581D01*
X118189258Y-54174545D01*
X118189254Y-54174548D01*
X117961233Y-54361679D01*
X117961233Y-54361680D01*
X119455301Y-55855748D01*
X119353670Y-55929588D01*
X119175588Y-56107670D01*
X119101748Y-56209301D01*
X117607680Y-54715233D01*
X117607679Y-54715233D01*
X117420548Y-54943254D01*
X117420545Y-54943258D01*
X117218581Y-55245519D01*
X117218570Y-55245537D01*
X117047209Y-55566130D01*
X117047207Y-55566135D01*
X116908086Y-55902002D01*
X116802553Y-56249898D01*
X116802550Y-56249909D01*
X116731632Y-56606443D01*
X116696000Y-56968234D01*
X115824436Y-56968234D01*
X115824805Y-56959778D01*
X115824805Y-56959777D01*
X115826073Y-56930741D01*
X115833690Y-56756255D01*
X115834629Y-56745524D01*
X115885367Y-56360137D01*
X115887240Y-56349510D01*
X115971374Y-55970008D01*
X115974172Y-55959570D01*
X116091052Y-55588873D01*
X116094749Y-55578717D01*
X116232757Y-55245537D01*
X116243499Y-55219602D01*
X116248057Y-55209828D01*
X116427551Y-54865023D01*
X116432933Y-54855702D01*
X116641788Y-54527866D01*
X116647971Y-54519034D01*
X116884613Y-54210637D01*
X116891551Y-54202368D01*
X117154158Y-53915783D01*
X117161784Y-53908157D01*
X117448369Y-53645550D01*
X117456638Y-53638612D01*
X117765025Y-53401978D01*
X117773868Y-53395787D01*
X118101704Y-53186932D01*
X118111025Y-53181550D01*
X118455830Y-53002056D01*
X118465604Y-52997498D01*
X118824728Y-52848744D01*
X118834867Y-52845053D01*
X119205597Y-52728163D01*
X119216005Y-52725374D01*
X119595515Y-52641240D01*
X119606135Y-52639367D01*
X119991524Y-52588630D01*
X120002255Y-52587690D01*
X120393355Y-52570615D01*
X120398744Y-52570498D01*
X120461894Y-52570498D01*
X160462108Y-52570498D01*
X160525294Y-52570498D01*
X160530702Y-52570616D01*
G37*
%TD.AperFunction*%
%TD*%
M02*
