%TF.GenerationSoftware,KiCad,Pcbnew,9.0.1*%
%TF.CreationDate,2025-04-10T15:19:34-04:00*%
%TF.ProjectId,ride-along-module,72696465-2d61-46c6-9f6e-672d6d6f6475,rev?*%
%TF.SameCoordinates,Original*%
%TF.FileFunction,Legend,Bot*%
%TF.FilePolarity,Positive*%
%FSLAX46Y46*%
G04 Gerber Fmt 4.6, Leading zero omitted, Abs format (unit mm)*
G04 Created by KiCad (PCBNEW 9.0.1) date 2025-04-10 15:19:34*
%MOMM*%
%LPD*%
G01*
G04 APERTURE LIST*
%ADD10C,0.145143*%
%ADD11C,0.000000*%
G04 APERTURE END LIST*
D10*
X150397093Y-57780112D02*
X150735760Y-57296303D01*
X150977665Y-57780112D02*
X150977665Y-56764112D01*
X150977665Y-56764112D02*
X150590617Y-56764112D01*
X150590617Y-56764112D02*
X150493855Y-56812493D01*
X150493855Y-56812493D02*
X150445474Y-56860874D01*
X150445474Y-56860874D02*
X150397093Y-56957636D01*
X150397093Y-56957636D02*
X150397093Y-57102779D01*
X150397093Y-57102779D02*
X150445474Y-57199541D01*
X150445474Y-57199541D02*
X150493855Y-57247922D01*
X150493855Y-57247922D02*
X150590617Y-57296303D01*
X150590617Y-57296303D02*
X150977665Y-57296303D01*
X149961665Y-57780112D02*
X149961665Y-57102779D01*
X149961665Y-56764112D02*
X150010046Y-56812493D01*
X150010046Y-56812493D02*
X149961665Y-56860874D01*
X149961665Y-56860874D02*
X149913284Y-56812493D01*
X149913284Y-56812493D02*
X149961665Y-56764112D01*
X149961665Y-56764112D02*
X149961665Y-56860874D01*
X149042426Y-57780112D02*
X149042426Y-56764112D01*
X149042426Y-57731732D02*
X149139188Y-57780112D01*
X149139188Y-57780112D02*
X149332712Y-57780112D01*
X149332712Y-57780112D02*
X149429474Y-57731732D01*
X149429474Y-57731732D02*
X149477855Y-57683351D01*
X149477855Y-57683351D02*
X149526236Y-57586589D01*
X149526236Y-57586589D02*
X149526236Y-57296303D01*
X149526236Y-57296303D02*
X149477855Y-57199541D01*
X149477855Y-57199541D02*
X149429474Y-57151160D01*
X149429474Y-57151160D02*
X149332712Y-57102779D01*
X149332712Y-57102779D02*
X149139188Y-57102779D01*
X149139188Y-57102779D02*
X149042426Y-57151160D01*
X148171569Y-57731732D02*
X148268331Y-57780112D01*
X148268331Y-57780112D02*
X148461855Y-57780112D01*
X148461855Y-57780112D02*
X148558617Y-57731732D01*
X148558617Y-57731732D02*
X148606998Y-57634970D01*
X148606998Y-57634970D02*
X148606998Y-57247922D01*
X148606998Y-57247922D02*
X148558617Y-57151160D01*
X148558617Y-57151160D02*
X148461855Y-57102779D01*
X148461855Y-57102779D02*
X148268331Y-57102779D01*
X148268331Y-57102779D02*
X148171569Y-57151160D01*
X148171569Y-57151160D02*
X148123188Y-57247922D01*
X148123188Y-57247922D02*
X148123188Y-57344684D01*
X148123188Y-57344684D02*
X148606998Y-57441446D01*
X147687760Y-57393065D02*
X146913665Y-57393065D01*
X146478236Y-57489827D02*
X145994426Y-57489827D01*
X146574998Y-57780112D02*
X146236331Y-56764112D01*
X146236331Y-56764112D02*
X145897664Y-57780112D01*
X145413855Y-57780112D02*
X145510617Y-57731732D01*
X145510617Y-57731732D02*
X145558998Y-57634970D01*
X145558998Y-57634970D02*
X145558998Y-56764112D01*
X144881665Y-57780112D02*
X144978427Y-57731732D01*
X144978427Y-57731732D02*
X145026808Y-57683351D01*
X145026808Y-57683351D02*
X145075189Y-57586589D01*
X145075189Y-57586589D02*
X145075189Y-57296303D01*
X145075189Y-57296303D02*
X145026808Y-57199541D01*
X145026808Y-57199541D02*
X144978427Y-57151160D01*
X144978427Y-57151160D02*
X144881665Y-57102779D01*
X144881665Y-57102779D02*
X144736522Y-57102779D01*
X144736522Y-57102779D02*
X144639760Y-57151160D01*
X144639760Y-57151160D02*
X144591379Y-57199541D01*
X144591379Y-57199541D02*
X144542998Y-57296303D01*
X144542998Y-57296303D02*
X144542998Y-57586589D01*
X144542998Y-57586589D02*
X144591379Y-57683351D01*
X144591379Y-57683351D02*
X144639760Y-57731732D01*
X144639760Y-57731732D02*
X144736522Y-57780112D01*
X144736522Y-57780112D02*
X144881665Y-57780112D01*
X144107570Y-57102779D02*
X144107570Y-57780112D01*
X144107570Y-57199541D02*
X144059189Y-57151160D01*
X144059189Y-57151160D02*
X143962427Y-57102779D01*
X143962427Y-57102779D02*
X143817284Y-57102779D01*
X143817284Y-57102779D02*
X143720522Y-57151160D01*
X143720522Y-57151160D02*
X143672141Y-57247922D01*
X143672141Y-57247922D02*
X143672141Y-57780112D01*
X142752903Y-57102779D02*
X142752903Y-57925255D01*
X142752903Y-57925255D02*
X142801284Y-58022017D01*
X142801284Y-58022017D02*
X142849665Y-58070398D01*
X142849665Y-58070398D02*
X142946427Y-58118779D01*
X142946427Y-58118779D02*
X143091570Y-58118779D01*
X143091570Y-58118779D02*
X143188332Y-58070398D01*
X142752903Y-57731732D02*
X142849665Y-57780112D01*
X142849665Y-57780112D02*
X143043189Y-57780112D01*
X143043189Y-57780112D02*
X143139951Y-57731732D01*
X143139951Y-57731732D02*
X143188332Y-57683351D01*
X143188332Y-57683351D02*
X143236713Y-57586589D01*
X143236713Y-57586589D02*
X143236713Y-57296303D01*
X143236713Y-57296303D02*
X143188332Y-57199541D01*
X143188332Y-57199541D02*
X143139951Y-57151160D01*
X143139951Y-57151160D02*
X143043189Y-57102779D01*
X143043189Y-57102779D02*
X142849665Y-57102779D01*
X142849665Y-57102779D02*
X142752903Y-57151160D01*
X141494999Y-57780112D02*
X141494999Y-56764112D01*
X141494999Y-56764112D02*
X141156332Y-57489827D01*
X141156332Y-57489827D02*
X140817665Y-56764112D01*
X140817665Y-56764112D02*
X140817665Y-57780112D01*
X140188713Y-57780112D02*
X140285475Y-57731732D01*
X140285475Y-57731732D02*
X140333856Y-57683351D01*
X140333856Y-57683351D02*
X140382237Y-57586589D01*
X140382237Y-57586589D02*
X140382237Y-57296303D01*
X140382237Y-57296303D02*
X140333856Y-57199541D01*
X140333856Y-57199541D02*
X140285475Y-57151160D01*
X140285475Y-57151160D02*
X140188713Y-57102779D01*
X140188713Y-57102779D02*
X140043570Y-57102779D01*
X140043570Y-57102779D02*
X139946808Y-57151160D01*
X139946808Y-57151160D02*
X139898427Y-57199541D01*
X139898427Y-57199541D02*
X139850046Y-57296303D01*
X139850046Y-57296303D02*
X139850046Y-57586589D01*
X139850046Y-57586589D02*
X139898427Y-57683351D01*
X139898427Y-57683351D02*
X139946808Y-57731732D01*
X139946808Y-57731732D02*
X140043570Y-57780112D01*
X140043570Y-57780112D02*
X140188713Y-57780112D01*
X138979189Y-57780112D02*
X138979189Y-56764112D01*
X138979189Y-57731732D02*
X139075951Y-57780112D01*
X139075951Y-57780112D02*
X139269475Y-57780112D01*
X139269475Y-57780112D02*
X139366237Y-57731732D01*
X139366237Y-57731732D02*
X139414618Y-57683351D01*
X139414618Y-57683351D02*
X139462999Y-57586589D01*
X139462999Y-57586589D02*
X139462999Y-57296303D01*
X139462999Y-57296303D02*
X139414618Y-57199541D01*
X139414618Y-57199541D02*
X139366237Y-57151160D01*
X139366237Y-57151160D02*
X139269475Y-57102779D01*
X139269475Y-57102779D02*
X139075951Y-57102779D01*
X139075951Y-57102779D02*
X138979189Y-57151160D01*
X138059951Y-57102779D02*
X138059951Y-57780112D01*
X138495380Y-57102779D02*
X138495380Y-57634970D01*
X138495380Y-57634970D02*
X138446999Y-57731732D01*
X138446999Y-57731732D02*
X138350237Y-57780112D01*
X138350237Y-57780112D02*
X138205094Y-57780112D01*
X138205094Y-57780112D02*
X138108332Y-57731732D01*
X138108332Y-57731732D02*
X138059951Y-57683351D01*
X137430999Y-57780112D02*
X137527761Y-57731732D01*
X137527761Y-57731732D02*
X137576142Y-57634970D01*
X137576142Y-57634970D02*
X137576142Y-56764112D01*
X136656904Y-57731732D02*
X136753666Y-57780112D01*
X136753666Y-57780112D02*
X136947190Y-57780112D01*
X136947190Y-57780112D02*
X137043952Y-57731732D01*
X137043952Y-57731732D02*
X137092333Y-57634970D01*
X137092333Y-57634970D02*
X137092333Y-57247922D01*
X137092333Y-57247922D02*
X137043952Y-57151160D01*
X137043952Y-57151160D02*
X136947190Y-57102779D01*
X136947190Y-57102779D02*
X136753666Y-57102779D01*
X136753666Y-57102779D02*
X136656904Y-57151160D01*
X136656904Y-57151160D02*
X136608523Y-57247922D01*
X136608523Y-57247922D02*
X136608523Y-57344684D01*
X136608523Y-57344684D02*
X137092333Y-57441446D01*
X134818428Y-57780112D02*
X135157095Y-57296303D01*
X135399000Y-57780112D02*
X135399000Y-56764112D01*
X135399000Y-56764112D02*
X135011952Y-56764112D01*
X135011952Y-56764112D02*
X134915190Y-56812493D01*
X134915190Y-56812493D02*
X134866809Y-56860874D01*
X134866809Y-56860874D02*
X134818428Y-56957636D01*
X134818428Y-56957636D02*
X134818428Y-57102779D01*
X134818428Y-57102779D02*
X134866809Y-57199541D01*
X134866809Y-57199541D02*
X134915190Y-57247922D01*
X134915190Y-57247922D02*
X135011952Y-57296303D01*
X135011952Y-57296303D02*
X135399000Y-57296303D01*
X133995952Y-57731732D02*
X134092714Y-57780112D01*
X134092714Y-57780112D02*
X134286238Y-57780112D01*
X134286238Y-57780112D02*
X134383000Y-57731732D01*
X134383000Y-57731732D02*
X134431381Y-57634970D01*
X134431381Y-57634970D02*
X134431381Y-57247922D01*
X134431381Y-57247922D02*
X134383000Y-57151160D01*
X134383000Y-57151160D02*
X134286238Y-57102779D01*
X134286238Y-57102779D02*
X134092714Y-57102779D01*
X134092714Y-57102779D02*
X133995952Y-57151160D01*
X133995952Y-57151160D02*
X133947571Y-57247922D01*
X133947571Y-57247922D02*
X133947571Y-57344684D01*
X133947571Y-57344684D02*
X134431381Y-57441446D01*
X133608905Y-57102779D02*
X133367000Y-57780112D01*
X133367000Y-57780112D02*
X133125095Y-57102779D01*
X132738048Y-57683351D02*
X132689667Y-57731732D01*
X132689667Y-57731732D02*
X132738048Y-57780112D01*
X132738048Y-57780112D02*
X132786429Y-57731732D01*
X132786429Y-57731732D02*
X132738048Y-57683351D01*
X132738048Y-57683351D02*
X132738048Y-57780112D01*
X130947952Y-57780112D02*
X131528524Y-57780112D01*
X131238238Y-57780112D02*
X131238238Y-56764112D01*
X131238238Y-56764112D02*
X131335000Y-56909255D01*
X131335000Y-56909255D02*
X131431762Y-57006017D01*
X131431762Y-57006017D02*
X131528524Y-57054398D01*
D11*
%TO.C,G\u002A\u002A\u002A*%
G36*
X135493998Y-71007751D02*
G01*
X135499173Y-71016819D01*
X135507952Y-71034274D01*
X135519407Y-71058243D01*
X135532611Y-71086849D01*
X135538960Y-71100951D01*
X135550699Y-71127829D01*
X135559630Y-71149406D01*
X135564973Y-71163760D01*
X135565946Y-71168967D01*
X135565526Y-71168726D01*
X135560968Y-71161470D01*
X135553002Y-71145898D01*
X135542715Y-71124425D01*
X135531192Y-71099466D01*
X135519521Y-71073436D01*
X135508787Y-71048752D01*
X135500077Y-71027828D01*
X135494477Y-71013080D01*
X135493072Y-71006923D01*
X135493998Y-71007751D01*
G37*
G36*
X142637993Y-71460000D02*
G01*
X142666969Y-71490036D01*
X142702812Y-71527284D01*
X142732745Y-71558586D01*
X142758299Y-71585613D01*
X142781006Y-71610033D01*
X142802397Y-71633514D01*
X142824003Y-71657725D01*
X142847357Y-71684336D01*
X142873988Y-71715016D01*
X142905430Y-71751432D01*
X142910282Y-71757060D01*
X142935301Y-71786146D01*
X142956486Y-71810992D01*
X142975236Y-71833344D01*
X142992953Y-71854949D01*
X143011036Y-71877554D01*
X143030887Y-71902905D01*
X143053905Y-71932749D01*
X143081492Y-71968834D01*
X143115046Y-72012906D01*
X143202111Y-72127362D01*
X143099302Y-72127362D01*
X142996494Y-72127362D01*
X142927692Y-72035916D01*
X142919385Y-72024911D01*
X142859829Y-71948039D01*
X142796630Y-71870020D01*
X142728641Y-71789520D01*
X142654717Y-71705202D01*
X142573712Y-71615733D01*
X142484478Y-71519777D01*
X142475611Y-71510337D01*
X142453158Y-71486135D01*
X142437909Y-71468896D01*
X142428894Y-71457247D01*
X142425142Y-71449815D01*
X142425681Y-71445226D01*
X142429539Y-71442107D01*
X142433287Y-71439916D01*
X142457256Y-71419277D01*
X142477789Y-71390588D01*
X142492216Y-71357456D01*
X142503512Y-71320660D01*
X142637993Y-71460000D01*
G37*
G36*
X141657101Y-72524142D02*
G01*
X141657101Y-73085737D01*
X141547223Y-73085737D01*
X141437346Y-73085737D01*
X141437052Y-72952969D01*
X141436758Y-72820200D01*
X141389636Y-72769715D01*
X141342514Y-72719230D01*
X141241901Y-72902299D01*
X141141287Y-73085369D01*
X141023565Y-73085553D01*
X141017990Y-73085561D01*
X140978775Y-73085539D01*
X140950077Y-73085260D01*
X140930391Y-73084581D01*
X140918209Y-73083363D01*
X140912025Y-73081463D01*
X140910333Y-73078741D01*
X140911625Y-73075055D01*
X140915031Y-73068995D01*
X140924038Y-73053138D01*
X140937922Y-73028765D01*
X140956055Y-72996976D01*
X140977808Y-72958871D01*
X141002555Y-72915551D01*
X141029667Y-72868116D01*
X141058515Y-72817666D01*
X141084815Y-72771545D01*
X141111588Y-72724286D01*
X141135805Y-72681215D01*
X141156878Y-72643397D01*
X141174217Y-72611897D01*
X141187231Y-72587781D01*
X141195330Y-72572114D01*
X141197925Y-72565960D01*
X141196037Y-72563436D01*
X141186868Y-72552827D01*
X141170993Y-72535068D01*
X141149403Y-72511250D01*
X141123089Y-72482466D01*
X141093041Y-72449805D01*
X141060253Y-72414360D01*
X140924280Y-72267761D01*
X141058523Y-72267761D01*
X141192766Y-72267761D01*
X141313530Y-72406085D01*
X141434294Y-72544409D01*
X141435879Y-72253478D01*
X141437464Y-71962546D01*
X141547282Y-71962546D01*
X141657101Y-71962546D01*
X141657101Y-72524142D01*
G37*
G36*
X139996538Y-70498327D02*
G01*
X140051188Y-70506167D01*
X140100611Y-70523124D01*
X140147217Y-70550174D01*
X140193414Y-70588291D01*
X140234798Y-70627183D01*
X140234798Y-70571504D01*
X140234798Y-70515826D01*
X140335519Y-70515826D01*
X140436240Y-70515826D01*
X140436240Y-70924815D01*
X140436240Y-71333803D01*
X140326766Y-71333803D01*
X140217291Y-71333803D01*
X140215064Y-71066740D01*
X140214537Y-71007855D01*
X140213928Y-70952493D01*
X140213248Y-70907134D01*
X140212448Y-70870613D01*
X140211476Y-70841765D01*
X140210283Y-70819427D01*
X140208817Y-70802432D01*
X140207029Y-70789617D01*
X140204867Y-70779816D01*
X140202282Y-70771865D01*
X140190904Y-70747685D01*
X140164714Y-70713321D01*
X140130879Y-70687610D01*
X140090827Y-70671521D01*
X140045986Y-70666019D01*
X140023266Y-70666901D01*
X139998556Y-70671761D01*
X139977516Y-70682526D01*
X139955359Y-70701047D01*
X139955250Y-70701151D01*
X139946526Y-70709832D01*
X139939181Y-70718689D01*
X139933083Y-70728816D01*
X139928101Y-70741306D01*
X139924106Y-70757254D01*
X139920966Y-70777753D01*
X139918551Y-70803898D01*
X139916730Y-70836781D01*
X139915373Y-70877497D01*
X139914348Y-70927141D01*
X139913526Y-70986805D01*
X139912775Y-71057583D01*
X139910042Y-71333803D01*
X139803831Y-71333803D01*
X139697620Y-71333803D01*
X139697620Y-71032761D01*
X139697762Y-70955952D01*
X139698192Y-70886808D01*
X139698900Y-70827262D01*
X139699875Y-70777837D01*
X139701107Y-70739054D01*
X139702586Y-70711434D01*
X139704301Y-70695498D01*
X139713764Y-70658711D01*
X139735651Y-70611379D01*
X139766639Y-70571618D01*
X139806112Y-70539889D01*
X139853451Y-70516655D01*
X139908040Y-70502376D01*
X139969261Y-70497513D01*
X139996538Y-70498327D01*
G37*
G36*
X139689714Y-71980983D02*
G01*
X139697810Y-71985089D01*
X139714427Y-71994321D01*
X139737928Y-72007744D01*
X139766672Y-72024425D01*
X139799021Y-72043428D01*
X139904931Y-72105997D01*
X139905049Y-72186879D01*
X139905166Y-72267761D01*
X139954000Y-72267761D01*
X140002835Y-72267761D01*
X140002835Y-72350169D01*
X140002835Y-72432577D01*
X139954000Y-72432577D01*
X139905166Y-72432577D01*
X139905166Y-72675916D01*
X139905166Y-72676417D01*
X139905006Y-72734336D01*
X139904553Y-72788397D01*
X139903837Y-72837210D01*
X139902891Y-72879382D01*
X139901744Y-72913522D01*
X139900429Y-72938237D01*
X139898976Y-72952136D01*
X139894371Y-72972702D01*
X139878520Y-73014800D01*
X139855027Y-73048061D01*
X139822926Y-73073637D01*
X139781250Y-73092683D01*
X139754568Y-73099256D01*
X139714967Y-73103454D01*
X139670853Y-73103591D01*
X139626044Y-73099687D01*
X139584362Y-73091758D01*
X139578053Y-73090109D01*
X139555798Y-73083695D01*
X139538930Y-73077918D01*
X139530695Y-73073862D01*
X139529251Y-73068240D01*
X139528845Y-73052932D01*
X139529698Y-73030892D01*
X139531551Y-73004826D01*
X139534141Y-72977435D01*
X139537207Y-72951425D01*
X139540488Y-72929498D01*
X139543723Y-72914360D01*
X139546650Y-72908713D01*
X139553301Y-72909758D01*
X139568846Y-72913199D01*
X139589051Y-72918208D01*
X139606549Y-72922109D01*
X139635180Y-72924179D01*
X139656785Y-72918362D01*
X139673128Y-72904369D01*
X139673668Y-72903675D01*
X139676739Y-72899138D01*
X139679223Y-72893500D01*
X139681181Y-72885527D01*
X139682677Y-72873985D01*
X139683771Y-72857639D01*
X139684528Y-72835256D01*
X139685007Y-72805602D01*
X139685273Y-72767441D01*
X139685387Y-72719540D01*
X139685411Y-72660665D01*
X139685411Y-72432577D01*
X139612160Y-72432577D01*
X139538908Y-72432577D01*
X139538908Y-72350169D01*
X139538908Y-72267761D01*
X139612160Y-72267761D01*
X139685411Y-72267761D01*
X139685411Y-72124310D01*
X139685475Y-72098343D01*
X139685815Y-72060544D01*
X139686409Y-72028210D01*
X139687211Y-72003028D01*
X139688177Y-71986682D01*
X139689261Y-71980859D01*
X139689714Y-71980983D01*
G37*
G36*
X143513655Y-70975998D02*
G01*
X143509092Y-71023765D01*
X143500881Y-71065428D01*
X143488427Y-71103975D01*
X143471132Y-71142393D01*
X143464011Y-71155730D01*
X143427327Y-71208832D01*
X143381383Y-71254942D01*
X143327306Y-71293229D01*
X143266225Y-71322858D01*
X143199267Y-71342999D01*
X143198251Y-71343217D01*
X143163170Y-71348307D01*
X143121032Y-71350879D01*
X143076567Y-71350923D01*
X143034506Y-71348431D01*
X142999578Y-71343393D01*
X142955263Y-71331084D01*
X142894769Y-71304084D01*
X142839636Y-71267186D01*
X142790929Y-71221442D01*
X142749716Y-71167906D01*
X142717063Y-71107632D01*
X142694037Y-71041672D01*
X142686410Y-71000855D01*
X142682230Y-70952658D01*
X142681937Y-70928185D01*
X142904295Y-70928185D01*
X142909021Y-70984154D01*
X142921110Y-71037663D01*
X142936008Y-71071856D01*
X142960397Y-71106727D01*
X142990529Y-71135786D01*
X143023628Y-71155836D01*
X143054438Y-71166356D01*
X143100249Y-71172334D01*
X143144434Y-71167163D01*
X143185549Y-71151463D01*
X143222153Y-71125853D01*
X143252801Y-71090954D01*
X143276052Y-71047385D01*
X143279114Y-71039392D01*
X143283721Y-71024540D01*
X143286777Y-71008381D01*
X143288586Y-70988189D01*
X143289449Y-70961242D01*
X143289669Y-70924815D01*
X143289020Y-70884919D01*
X143286113Y-70845769D01*
X143280227Y-70814154D01*
X143270661Y-70787583D01*
X143256717Y-70763564D01*
X143237694Y-70739604D01*
X143208221Y-70712548D01*
X143169490Y-70690782D01*
X143127603Y-70679266D01*
X143084459Y-70678025D01*
X143041961Y-70687081D01*
X143002008Y-70706459D01*
X142966501Y-70736183D01*
X142953495Y-70751542D01*
X142937560Y-70774108D01*
X142926566Y-70794108D01*
X142916629Y-70822510D01*
X142906857Y-70873167D01*
X142904295Y-70928185D01*
X142681937Y-70928185D01*
X142681624Y-70902003D01*
X142684647Y-70853531D01*
X142691352Y-70811885D01*
X142697696Y-70788216D01*
X142722149Y-70726480D01*
X142756240Y-70669124D01*
X142798581Y-70617929D01*
X142847782Y-70574676D01*
X142902454Y-70541148D01*
X142938655Y-70525057D01*
X142988483Y-70509303D01*
X143041368Y-70500450D01*
X143101318Y-70497619D01*
X143136685Y-70498723D01*
X143208507Y-70508915D01*
X143274193Y-70529579D01*
X143333399Y-70560468D01*
X143385781Y-70601338D01*
X143430993Y-70651941D01*
X143468691Y-70712031D01*
X143498531Y-70781363D01*
X143499152Y-70783145D01*
X143505664Y-70802819D01*
X143510172Y-70819924D01*
X143513025Y-70837417D01*
X143514573Y-70858251D01*
X143515168Y-70885381D01*
X143515157Y-70921762D01*
X143515072Y-70924815D01*
X143513655Y-70975998D01*
G37*
G36*
X143513655Y-72727933D02*
G01*
X143509092Y-72775700D01*
X143500881Y-72817362D01*
X143488427Y-72855909D01*
X143471132Y-72894328D01*
X143464011Y-72907664D01*
X143427327Y-72960766D01*
X143381383Y-73006877D01*
X143327306Y-73045163D01*
X143266225Y-73074793D01*
X143199267Y-73094934D01*
X143198251Y-73095152D01*
X143163170Y-73100241D01*
X143121032Y-73102813D01*
X143076567Y-73102858D01*
X143034506Y-73100366D01*
X142999578Y-73095328D01*
X142955263Y-73083019D01*
X142894769Y-73056019D01*
X142839636Y-73019120D01*
X142790929Y-72973377D01*
X142749716Y-72919841D01*
X142717063Y-72859567D01*
X142694037Y-72793607D01*
X142686410Y-72752790D01*
X142682230Y-72704593D01*
X142681937Y-72680119D01*
X142904295Y-72680119D01*
X142909021Y-72736088D01*
X142921110Y-72789597D01*
X142936008Y-72823790D01*
X142960397Y-72858661D01*
X142990529Y-72887721D01*
X143023628Y-72907771D01*
X143054438Y-72918290D01*
X143100249Y-72924269D01*
X143144434Y-72919098D01*
X143185549Y-72903398D01*
X143222153Y-72877788D01*
X143252801Y-72842888D01*
X143276052Y-72799320D01*
X143279114Y-72791326D01*
X143283721Y-72776475D01*
X143286777Y-72760315D01*
X143288586Y-72740124D01*
X143289449Y-72713176D01*
X143289669Y-72676749D01*
X143289020Y-72636853D01*
X143286113Y-72597704D01*
X143280227Y-72566089D01*
X143270661Y-72539518D01*
X143256717Y-72515498D01*
X143237694Y-72491539D01*
X143208221Y-72464483D01*
X143169490Y-72442717D01*
X143127603Y-72431201D01*
X143084459Y-72429959D01*
X143041961Y-72439015D01*
X143002008Y-72458394D01*
X142966501Y-72488118D01*
X142953495Y-72503476D01*
X142937560Y-72526043D01*
X142926566Y-72546043D01*
X142916629Y-72574445D01*
X142906857Y-72625101D01*
X142904295Y-72680119D01*
X142681937Y-72680119D01*
X142681624Y-72653938D01*
X142684647Y-72605466D01*
X142691352Y-72563820D01*
X142697696Y-72540150D01*
X142722149Y-72478415D01*
X142756240Y-72421059D01*
X142798581Y-72369863D01*
X142847782Y-72326611D01*
X142902454Y-72293083D01*
X142938655Y-72276991D01*
X142988483Y-72261238D01*
X143041368Y-72252385D01*
X143101318Y-72249554D01*
X143136685Y-72250658D01*
X143208507Y-72260849D01*
X143274193Y-72281513D01*
X143333399Y-72312403D01*
X143385781Y-72353272D01*
X143430993Y-72403875D01*
X143468691Y-72463966D01*
X143498531Y-72533298D01*
X143499152Y-72535080D01*
X143505664Y-72554753D01*
X143510172Y-72571859D01*
X143513025Y-72589351D01*
X143514573Y-72610185D01*
X143515168Y-72637315D01*
X143515157Y-72673697D01*
X143515072Y-72676749D01*
X143513655Y-72727933D01*
G37*
G36*
X144599374Y-70771780D02*
G01*
X144599374Y-71333803D01*
X144483392Y-71333803D01*
X144367411Y-71333803D01*
X144367411Y-71097869D01*
X144367411Y-70861936D01*
X144299511Y-70866060D01*
X144284905Y-70867057D01*
X144244818Y-70871622D01*
X144213075Y-70879161D01*
X144186792Y-70890847D01*
X144163086Y-70907855D01*
X144139073Y-70931357D01*
X144130405Y-70941675D01*
X144114537Y-70962391D01*
X144093831Y-70990665D01*
X144069319Y-71025046D01*
X144042033Y-71064085D01*
X144013006Y-71106331D01*
X143983270Y-71150333D01*
X143860339Y-71333803D01*
X143723500Y-71333803D01*
X143586660Y-71333803D01*
X143669630Y-71201034D01*
X143675915Y-71190985D01*
X143715575Y-71128081D01*
X143750026Y-71074569D01*
X143780064Y-71029427D01*
X143806484Y-70991635D01*
X143830083Y-70960169D01*
X143851654Y-70934009D01*
X143871994Y-70912133D01*
X143891898Y-70893518D01*
X143912162Y-70877143D01*
X143933581Y-70861986D01*
X143948986Y-70850832D01*
X143958405Y-70841625D01*
X143957998Y-70837236D01*
X143949292Y-70834829D01*
X143931980Y-70830218D01*
X143910614Y-70824631D01*
X143881808Y-70815984D01*
X143825234Y-70790735D01*
X143777323Y-70757028D01*
X143738435Y-70715297D01*
X143708931Y-70665976D01*
X143689171Y-70609498D01*
X143680614Y-70553488D01*
X143916331Y-70553488D01*
X143921713Y-70589078D01*
X143931597Y-70612705D01*
X143953045Y-70640218D01*
X143981577Y-70661673D01*
X144014345Y-70674443D01*
X144025786Y-70676162D01*
X144049238Y-70678305D01*
X144081160Y-70680386D01*
X144119495Y-70682290D01*
X144162185Y-70683904D01*
X144207173Y-70685113D01*
X144367411Y-70688531D01*
X144367411Y-70544188D01*
X144367411Y-70399845D01*
X144228538Y-70400113D01*
X144209002Y-70400175D01*
X144148684Y-70400821D01*
X144098910Y-70402336D01*
X144058397Y-70404981D01*
X144025861Y-70409016D01*
X144000020Y-70414702D01*
X143979590Y-70422301D01*
X143963289Y-70432072D01*
X143949833Y-70444277D01*
X143937939Y-70459177D01*
X143925921Y-70483065D01*
X143917908Y-70516756D01*
X143916331Y-70553488D01*
X143680614Y-70553488D01*
X143679515Y-70546298D01*
X143678779Y-70527612D01*
X143683220Y-70469133D01*
X143697328Y-70413428D01*
X143720251Y-70362132D01*
X143751138Y-70316879D01*
X143789137Y-70279302D01*
X143833397Y-70251036D01*
X143847310Y-70244367D01*
X143862157Y-70237864D01*
X143877105Y-70232380D01*
X143893256Y-70227817D01*
X143911710Y-70224080D01*
X143933567Y-70221070D01*
X143959929Y-70218691D01*
X143991895Y-70216847D01*
X144030567Y-70215440D01*
X144077045Y-70214373D01*
X144132429Y-70213551D01*
X144197821Y-70212876D01*
X144274320Y-70212250D01*
X144599374Y-70209757D01*
X144599374Y-70544188D01*
X144599374Y-70771780D01*
G37*
G36*
X144599374Y-72523714D02*
G01*
X144599374Y-73085737D01*
X144483392Y-73085737D01*
X144367411Y-73085737D01*
X144367411Y-72849804D01*
X144367411Y-72613871D01*
X144299511Y-72617995D01*
X144284905Y-72618992D01*
X144244818Y-72623557D01*
X144213075Y-72631096D01*
X144186792Y-72642782D01*
X144163086Y-72659790D01*
X144139073Y-72683292D01*
X144130405Y-72693610D01*
X144114537Y-72714325D01*
X144093831Y-72742599D01*
X144069319Y-72776981D01*
X144042033Y-72816020D01*
X144013006Y-72858266D01*
X143983270Y-72902268D01*
X143860339Y-73085737D01*
X143723500Y-73085737D01*
X143586660Y-73085737D01*
X143669630Y-72952969D01*
X143675915Y-72942920D01*
X143715575Y-72880015D01*
X143750026Y-72826503D01*
X143780064Y-72781362D01*
X143806484Y-72743570D01*
X143830083Y-72712104D01*
X143851654Y-72685944D01*
X143871994Y-72664067D01*
X143891898Y-72645452D01*
X143912162Y-72629078D01*
X143933581Y-72613921D01*
X143948986Y-72602767D01*
X143958405Y-72593560D01*
X143957998Y-72589170D01*
X143949292Y-72586763D01*
X143931980Y-72582153D01*
X143910614Y-72576566D01*
X143881808Y-72567918D01*
X143825234Y-72542670D01*
X143777323Y-72508963D01*
X143738435Y-72467232D01*
X143708931Y-72417911D01*
X143689171Y-72361433D01*
X143680614Y-72305423D01*
X143916331Y-72305423D01*
X143921713Y-72341013D01*
X143931597Y-72364640D01*
X143953045Y-72392153D01*
X143981577Y-72413607D01*
X144014345Y-72426378D01*
X144025786Y-72428096D01*
X144049238Y-72430240D01*
X144081160Y-72432321D01*
X144119495Y-72434225D01*
X144162185Y-72435839D01*
X144207173Y-72437048D01*
X144367411Y-72440465D01*
X144367411Y-72296122D01*
X144367411Y-72151779D01*
X144228538Y-72152047D01*
X144209002Y-72152109D01*
X144148684Y-72152755D01*
X144098910Y-72154270D01*
X144058397Y-72156915D01*
X144025861Y-72160950D01*
X144000020Y-72166637D01*
X143979590Y-72174235D01*
X143963289Y-72184007D01*
X143949833Y-72196212D01*
X143937939Y-72211111D01*
X143925921Y-72235000D01*
X143917908Y-72268690D01*
X143916331Y-72305423D01*
X143680614Y-72305423D01*
X143679515Y-72298233D01*
X143678779Y-72279547D01*
X143683220Y-72221068D01*
X143697328Y-72165363D01*
X143720251Y-72114067D01*
X143751138Y-72068813D01*
X143789137Y-72031237D01*
X143833397Y-72002971D01*
X143847310Y-71996301D01*
X143862157Y-71989799D01*
X143877105Y-71984315D01*
X143893256Y-71979752D01*
X143911710Y-71976014D01*
X143933567Y-71973004D01*
X143959929Y-71970626D01*
X143991895Y-71968781D01*
X144030567Y-71967374D01*
X144077045Y-71966308D01*
X144132429Y-71965486D01*
X144197821Y-71964810D01*
X144274320Y-71964185D01*
X144599374Y-71961691D01*
X144599374Y-72296122D01*
X144599374Y-72523714D01*
G37*
G36*
X140842904Y-72630230D02*
G01*
X140843275Y-72707271D01*
X140842804Y-72717832D01*
X140839438Y-72765337D01*
X140833832Y-72805053D01*
X140825138Y-72840623D01*
X140812505Y-72875689D01*
X140795083Y-72913893D01*
X140772986Y-72952753D01*
X140734055Y-73001329D01*
X140686967Y-73040848D01*
X140631848Y-73071212D01*
X140568825Y-73092321D01*
X140563699Y-73093512D01*
X140525073Y-73099557D01*
X140479775Y-73102790D01*
X140432322Y-73103156D01*
X140387234Y-73100598D01*
X140349029Y-73095060D01*
X140302745Y-73081564D01*
X140247148Y-73054588D01*
X140197438Y-73017859D01*
X140155080Y-72972503D01*
X140121534Y-72919648D01*
X140121367Y-72919319D01*
X140109113Y-72893228D01*
X140103097Y-72875567D01*
X140103608Y-72867186D01*
X140107766Y-72865324D01*
X140122420Y-72861423D01*
X140144911Y-72856615D01*
X140172763Y-72851313D01*
X140203501Y-72845927D01*
X140234648Y-72840871D01*
X140263727Y-72836557D01*
X140288263Y-72833397D01*
X140305779Y-72831804D01*
X140313799Y-72832189D01*
X140315724Y-72833726D01*
X140320259Y-72843783D01*
X140321683Y-72848986D01*
X140328217Y-72862631D01*
X140338256Y-72879763D01*
X140353324Y-72899645D01*
X140379071Y-72920115D01*
X140411203Y-72931756D01*
X140451501Y-72935441D01*
X140483552Y-72932726D01*
X140524421Y-72919847D01*
X140559071Y-72897020D01*
X140586758Y-72864954D01*
X140606741Y-72824359D01*
X140618277Y-72775944D01*
X140623453Y-72737792D01*
X140355064Y-72737792D01*
X140086675Y-72737792D01*
X140089927Y-72659962D01*
X140095060Y-72603498D01*
X140300373Y-72603498D01*
X140459871Y-72603498D01*
X140619369Y-72603498D01*
X140619369Y-72586515D01*
X140618898Y-72579049D01*
X140615934Y-72559484D01*
X140611145Y-72537828D01*
X140609651Y-72532395D01*
X140592316Y-72491924D01*
X140567130Y-72459458D01*
X140535707Y-72435674D01*
X140499664Y-72421249D01*
X140460616Y-72416861D01*
X140420178Y-72423188D01*
X140379967Y-72440906D01*
X140370663Y-72446722D01*
X140354054Y-72459869D01*
X140341097Y-72476132D01*
X140328053Y-72499749D01*
X140318328Y-72522048D01*
X140309288Y-72548890D01*
X140304312Y-72571450D01*
X140300373Y-72603498D01*
X140095060Y-72603498D01*
X140096932Y-72582913D01*
X140111582Y-72513625D01*
X140134103Y-72452624D01*
X140164771Y-72399162D01*
X140203864Y-72352490D01*
X140230778Y-72327942D01*
X140281628Y-72293229D01*
X140337874Y-72268819D01*
X140400330Y-72254396D01*
X140469814Y-72249644D01*
X140487824Y-72249993D01*
X140555102Y-72258109D01*
X140616831Y-72276790D01*
X140672503Y-72305786D01*
X140721609Y-72344848D01*
X140763638Y-72393727D01*
X140793656Y-72442082D01*
X140818486Y-72499178D01*
X140834772Y-72561380D01*
X140837741Y-72586515D01*
X140842904Y-72630230D01*
G37*
G36*
X142234837Y-72253749D02*
G01*
X142302416Y-72268285D01*
X142363448Y-72292696D01*
X142417408Y-72326573D01*
X142463771Y-72369507D01*
X142502013Y-72421089D01*
X142531610Y-72480909D01*
X142552036Y-72548559D01*
X142557623Y-72584170D01*
X142561063Y-72628285D01*
X142562249Y-72676425D01*
X142561178Y-72724584D01*
X142557845Y-72768757D01*
X142552249Y-72804940D01*
X142535002Y-72863026D01*
X142506635Y-72922425D01*
X142469612Y-72975200D01*
X142424953Y-73020341D01*
X142373673Y-73056839D01*
X142316790Y-73083682D01*
X142255322Y-73099859D01*
X142246791Y-73100717D01*
X142227355Y-73101777D01*
X142201463Y-73102655D01*
X142172365Y-73103219D01*
X142158189Y-73103239D01*
X142092528Y-73098545D01*
X142032866Y-73085437D01*
X141976314Y-73063328D01*
X141954313Y-73050544D01*
X141922235Y-73025672D01*
X141890770Y-72995168D01*
X141863124Y-72962227D01*
X141842506Y-72930044D01*
X141830624Y-72905213D01*
X141819604Y-72878538D01*
X141810322Y-72852646D01*
X141803629Y-72830111D01*
X141800372Y-72813506D01*
X141801400Y-72805404D01*
X141807113Y-72803443D01*
X141822676Y-72799839D01*
X141845547Y-72795199D01*
X141873316Y-72789947D01*
X141903573Y-72784504D01*
X141933904Y-72779294D01*
X141961900Y-72774738D01*
X141985148Y-72771261D01*
X142001238Y-72769284D01*
X142007758Y-72769230D01*
X142009473Y-72773306D01*
X142013770Y-72786387D01*
X142019314Y-72804940D01*
X142019419Y-72805303D01*
X142036315Y-72849185D01*
X142058902Y-72882459D01*
X142087797Y-72905623D01*
X142123616Y-72919171D01*
X142166978Y-72923602D01*
X142181828Y-72923391D01*
X142203698Y-72921225D01*
X142222257Y-72915557D01*
X142243282Y-72904977D01*
X142249541Y-72901266D01*
X142281547Y-72874836D01*
X142306905Y-72841093D01*
X142322836Y-72803578D01*
X142328932Y-72777969D01*
X142337607Y-72720948D01*
X142340544Y-72662793D01*
X142337819Y-72606519D01*
X142329504Y-72555142D01*
X142315673Y-72511678D01*
X142299981Y-72483519D01*
X142274098Y-72455090D01*
X142243016Y-72434387D01*
X142208548Y-72421432D01*
X142172504Y-72416252D01*
X142136695Y-72418871D01*
X142102932Y-72429313D01*
X142073025Y-72447602D01*
X142048787Y-72473764D01*
X142032027Y-72507824D01*
X142027786Y-72520511D01*
X142022607Y-72535053D01*
X142019804Y-72541625D01*
X142014772Y-72541741D01*
X141999829Y-72540027D01*
X141977404Y-72536734D01*
X141949907Y-72532289D01*
X141919748Y-72527117D01*
X141889339Y-72521643D01*
X141861091Y-72516291D01*
X141837413Y-72511488D01*
X141820717Y-72507657D01*
X141813412Y-72505225D01*
X141811845Y-72497462D01*
X141815494Y-72481312D01*
X141823713Y-72459463D01*
X141835475Y-72434310D01*
X141849752Y-72408253D01*
X141865516Y-72383689D01*
X141890821Y-72351809D01*
X141931941Y-72314043D01*
X141979500Y-72285267D01*
X142034273Y-72265138D01*
X142097036Y-72253313D01*
X142168564Y-72249448D01*
X142234837Y-72253749D01*
G37*
G36*
X141634670Y-70544822D02*
G01*
X141635077Y-70546205D01*
X141639221Y-70560439D01*
X141646237Y-70584670D01*
X141655700Y-70617426D01*
X141667185Y-70657235D01*
X141680268Y-70702624D01*
X141694523Y-70752122D01*
X141709527Y-70804255D01*
X141713696Y-70818726D01*
X141728138Y-70868495D01*
X141741512Y-70914050D01*
X141753439Y-70954135D01*
X141763540Y-70987497D01*
X141771437Y-71012880D01*
X141776750Y-71029030D01*
X141779102Y-71034692D01*
X141780202Y-71032132D01*
X141784088Y-71019193D01*
X141790372Y-70996402D01*
X141798741Y-70964964D01*
X141808878Y-70926080D01*
X141820468Y-70880954D01*
X141833195Y-70830788D01*
X141846745Y-70776785D01*
X141911105Y-70518878D01*
X142017455Y-70518878D01*
X142123804Y-70518878D01*
X142190869Y-70776785D01*
X142200457Y-70813527D01*
X142214010Y-70865009D01*
X142226484Y-70911855D01*
X142237550Y-70952867D01*
X142246882Y-70986845D01*
X142254153Y-71012594D01*
X142259037Y-71028914D01*
X142261207Y-71034608D01*
X142262526Y-71031653D01*
X142266938Y-71018260D01*
X142274029Y-70995142D01*
X142283450Y-70963484D01*
X142294853Y-70924473D01*
X142307888Y-70879293D01*
X142322208Y-70829132D01*
X142337463Y-70775175D01*
X142410447Y-70515826D01*
X142516425Y-70515826D01*
X142543287Y-70515859D01*
X142574327Y-70516105D01*
X142595853Y-70516739D01*
X142609482Y-70517929D01*
X142616827Y-70519842D01*
X142619504Y-70522646D01*
X142619129Y-70526509D01*
X142617515Y-70531738D01*
X142611937Y-70549682D01*
X142603461Y-70576849D01*
X142592452Y-70612080D01*
X142579272Y-70654215D01*
X142564286Y-70702096D01*
X142547857Y-70754561D01*
X142530349Y-70810451D01*
X142512126Y-70868607D01*
X142493550Y-70927869D01*
X142474986Y-70987077D01*
X142456796Y-71045072D01*
X142439346Y-71100693D01*
X142422998Y-71152781D01*
X142408115Y-71200176D01*
X142395063Y-71241719D01*
X142384203Y-71276250D01*
X142375900Y-71302609D01*
X142370517Y-71319636D01*
X142368418Y-71326172D01*
X142368368Y-71326296D01*
X142363663Y-71329229D01*
X142351688Y-71331360D01*
X142331210Y-71332775D01*
X142300998Y-71333560D01*
X142259819Y-71333803D01*
X142154055Y-71333803D01*
X142087345Y-71077562D01*
X142077828Y-71041235D01*
X142064305Y-70990437D01*
X142051829Y-70944528D01*
X142040729Y-70904666D01*
X142031334Y-70872006D01*
X142023973Y-70847706D01*
X142018973Y-70832923D01*
X142016664Y-70828812D01*
X142015807Y-70831208D01*
X142011973Y-70844149D01*
X142005559Y-70866976D01*
X141996910Y-70898422D01*
X141986371Y-70937219D01*
X141974288Y-70982102D01*
X141961005Y-71031802D01*
X141946868Y-71085052D01*
X141881043Y-71333803D01*
X141776196Y-71333803D01*
X141671349Y-71333803D01*
X141544372Y-70935497D01*
X141531681Y-70895682D01*
X141510830Y-70830232D01*
X141491213Y-70768616D01*
X141473139Y-70711808D01*
X141456919Y-70660782D01*
X141442861Y-70616514D01*
X141431275Y-70579978D01*
X141422472Y-70552148D01*
X141416760Y-70534000D01*
X141414449Y-70526509D01*
X141414034Y-70523692D01*
X141415743Y-70520601D01*
X141421605Y-70518442D01*
X141433232Y-70517051D01*
X141452233Y-70516260D01*
X141480221Y-70515907D01*
X141518805Y-70515826D01*
X141626106Y-70515826D01*
X141634670Y-70544822D01*
G37*
G36*
X135853229Y-72357410D02*
G01*
X135893618Y-72363374D01*
X135943474Y-72374841D01*
X135960035Y-72379224D01*
X135987159Y-72386919D01*
X136013739Y-72395292D01*
X136040625Y-72404769D01*
X136068667Y-72415776D01*
X136098714Y-72428741D01*
X136131618Y-72444088D01*
X136168227Y-72462243D01*
X136209393Y-72483634D01*
X136255965Y-72508686D01*
X136308793Y-72537825D01*
X136368727Y-72571477D01*
X136436618Y-72610069D01*
X136513315Y-72654026D01*
X136599668Y-72703775D01*
X136639301Y-72726624D01*
X136712668Y-72768760D01*
X136776220Y-72805013D01*
X136830409Y-72835629D01*
X136875684Y-72860856D01*
X136912497Y-72880942D01*
X136941299Y-72896133D01*
X136962539Y-72906678D01*
X136976670Y-72912823D01*
X136984141Y-72914817D01*
X136996122Y-72914193D01*
X137017859Y-72912289D01*
X137045555Y-72909413D01*
X137076004Y-72905875D01*
X137096264Y-72903404D01*
X137159072Y-72895867D01*
X137210735Y-72889898D01*
X137251992Y-72885423D01*
X137283579Y-72882371D01*
X137306236Y-72880667D01*
X137320699Y-72880240D01*
X137327707Y-72881016D01*
X137335091Y-72884823D01*
X137350921Y-72893951D01*
X137372410Y-72906835D01*
X137397104Y-72922023D01*
X137406858Y-72928117D01*
X137429746Y-72942861D01*
X137444478Y-72953606D01*
X137452825Y-72962004D01*
X137456555Y-72969708D01*
X137457439Y-72978370D01*
X137457447Y-72979499D01*
X137457892Y-72999278D01*
X137458869Y-73027313D01*
X137460222Y-73060195D01*
X137461796Y-73094514D01*
X137463434Y-73126860D01*
X137464982Y-73153825D01*
X137466284Y-73171997D01*
X137466778Y-73180502D01*
X137466171Y-73189746D01*
X137463647Y-73200131D01*
X137458496Y-73213223D01*
X137450010Y-73230586D01*
X137437480Y-73253787D01*
X137420196Y-73284391D01*
X137397450Y-73323964D01*
X137326098Y-73447663D01*
X137222325Y-73501618D01*
X137220622Y-73502503D01*
X137187934Y-73519268D01*
X137158731Y-73533849D01*
X137134841Y-73545364D01*
X137118089Y-73552931D01*
X137110302Y-73555671D01*
X137102412Y-73553148D01*
X137086059Y-73545838D01*
X137063805Y-73534889D01*
X137038087Y-73521458D01*
X136974121Y-73487147D01*
X136954459Y-73443628D01*
X136953422Y-73441325D01*
X136944265Y-73420680D01*
X136931576Y-73391706D01*
X136916444Y-73356913D01*
X136899963Y-73318810D01*
X136883223Y-73279905D01*
X136831650Y-73159700D01*
X136712616Y-73091000D01*
X136698712Y-73082975D01*
X136603821Y-73028205D01*
X136518779Y-72979102D01*
X136442947Y-72935283D01*
X136375688Y-72896366D01*
X136316364Y-72861968D01*
X136264336Y-72831707D01*
X136218968Y-72805200D01*
X136179621Y-72782065D01*
X136145657Y-72761919D01*
X136116439Y-72744379D01*
X136091329Y-72729063D01*
X136069689Y-72715589D01*
X136050881Y-72703574D01*
X136034267Y-72692636D01*
X136019210Y-72682391D01*
X136005071Y-72672457D01*
X135991212Y-72662453D01*
X135976997Y-72651994D01*
X135961787Y-72640700D01*
X135946256Y-72628651D01*
X135917158Y-72604051D01*
X135886504Y-72576058D01*
X135856124Y-72546531D01*
X135827851Y-72517326D01*
X135803516Y-72490301D01*
X135784949Y-72467314D01*
X135773983Y-72450221D01*
X135769108Y-72439390D01*
X135760943Y-72410390D01*
X135763123Y-72387713D01*
X135775707Y-72371140D01*
X135798756Y-72360454D01*
X135820949Y-72356812D01*
X135853229Y-72357410D01*
G37*
G36*
X141354527Y-71083786D02*
G01*
X141354775Y-71114048D01*
X141354529Y-71138158D01*
X141353354Y-71161684D01*
X141350645Y-71179406D01*
X141345785Y-71194950D01*
X141338159Y-71211944D01*
X141312583Y-71254030D01*
X141276025Y-71293020D01*
X141231900Y-71322662D01*
X141180965Y-71342330D01*
X141154748Y-71347390D01*
X141115863Y-71350816D01*
X141074040Y-71351195D01*
X141034170Y-71348517D01*
X141001142Y-71342769D01*
X140990512Y-71339732D01*
X140947792Y-71323059D01*
X140905882Y-71300535D01*
X140870480Y-71275110D01*
X140861268Y-71267557D01*
X140848229Y-71258130D01*
X140840750Y-71254447D01*
X140836479Y-71259398D01*
X140830187Y-71273143D01*
X140823407Y-71292599D01*
X140811655Y-71330751D01*
X140703460Y-71332417D01*
X140595266Y-71334083D01*
X140607169Y-71306315D01*
X140610959Y-71297404D01*
X140617697Y-71280756D01*
X140623288Y-71264894D01*
X140627863Y-71248520D01*
X140631551Y-71230333D01*
X140634483Y-71209034D01*
X140636788Y-71183324D01*
X140638596Y-71151904D01*
X140640036Y-71113473D01*
X140641239Y-71066733D01*
X140642335Y-71010384D01*
X140642781Y-70983545D01*
X140857129Y-70983545D01*
X140857499Y-71007532D01*
X140858515Y-71033102D01*
X140860085Y-71057374D01*
X140862118Y-71077465D01*
X140864521Y-71090495D01*
X140868403Y-71101064D01*
X140886540Y-71130702D01*
X140912901Y-71157244D01*
X140944581Y-71177531D01*
X140952825Y-71181243D01*
X140989064Y-71192484D01*
X141025744Y-71196854D01*
X141058129Y-71193681D01*
X141086867Y-71182008D01*
X141111043Y-71162415D01*
X141127908Y-71137613D01*
X141137095Y-71109743D01*
X141138234Y-71080946D01*
X141130957Y-71053365D01*
X141114895Y-71029142D01*
X141089679Y-71010417D01*
X141084960Y-71008446D01*
X141068550Y-71002972D01*
X141044285Y-70995700D01*
X141014610Y-70987283D01*
X140981974Y-70978373D01*
X140948824Y-70969620D01*
X140917606Y-70961678D01*
X140890767Y-70955198D01*
X140870755Y-70950832D01*
X140860016Y-70949232D01*
X140858695Y-70951845D01*
X140857497Y-70964022D01*
X140857129Y-70983545D01*
X140642781Y-70983545D01*
X140643452Y-70943127D01*
X140643539Y-70937724D01*
X140644613Y-70873712D01*
X140645628Y-70820611D01*
X140646648Y-70777216D01*
X140647736Y-70742322D01*
X140648957Y-70714725D01*
X140650373Y-70693219D01*
X140652049Y-70676600D01*
X140654048Y-70663663D01*
X140656434Y-70653203D01*
X140659271Y-70644017D01*
X140673036Y-70614906D01*
X140700365Y-70580364D01*
X140737087Y-70550457D01*
X140781779Y-70526291D01*
X140833020Y-70508971D01*
X140845642Y-70506477D01*
X140875118Y-70503118D01*
X140911828Y-70500963D01*
X140953002Y-70499984D01*
X140995868Y-70500155D01*
X141037654Y-70501450D01*
X141075589Y-70503841D01*
X141106901Y-70507303D01*
X141128818Y-70511808D01*
X141179189Y-70530763D01*
X141220379Y-70554241D01*
X141254928Y-70583704D01*
X141261972Y-70591452D01*
X141280323Y-70615713D01*
X141298037Y-70644041D01*
X141313295Y-70673096D01*
X141324278Y-70699537D01*
X141329165Y-70720022D01*
X141330520Y-70738037D01*
X141248112Y-70751606D01*
X141222747Y-70755792D01*
X141191279Y-70760823D01*
X141168889Y-70763754D01*
X141153745Y-70764431D01*
X141144016Y-70762697D01*
X141137867Y-70758396D01*
X141133466Y-70751373D01*
X141128982Y-70741471D01*
X141111743Y-70712936D01*
X141083958Y-70687536D01*
X141048485Y-70671358D01*
X141005646Y-70664540D01*
X140955765Y-70667223D01*
X140922246Y-70674423D01*
X140892136Y-70688397D01*
X140871924Y-70708870D01*
X140861018Y-70736482D01*
X140858829Y-70771869D01*
X140860489Y-70805105D01*
X140897115Y-70816004D01*
X140901168Y-70817172D01*
X140923314Y-70822959D01*
X140953146Y-70830147D01*
X140987260Y-70837934D01*
X141022253Y-70845516D01*
X141065777Y-70854867D01*
X141114120Y-70865965D01*
X141153208Y-70875982D01*
X141184644Y-70885368D01*
X141210031Y-70894572D01*
X141230972Y-70904044D01*
X141237036Y-70907235D01*
X141278066Y-70935592D01*
X141312398Y-70971382D01*
X141337360Y-71011897D01*
X141344550Y-71028306D01*
X141350060Y-71044704D01*
X141353171Y-71061934D01*
X141354351Y-71080946D01*
X141354527Y-71083786D01*
G37*
G36*
X139072514Y-72254862D02*
G01*
X139106118Y-72269306D01*
X139140707Y-72296042D01*
X139174629Y-72334774D01*
X139203171Y-72372744D01*
X139203171Y-72320252D01*
X139203171Y-72267761D01*
X139303892Y-72267761D01*
X139404613Y-72267761D01*
X139404613Y-72676749D01*
X139404613Y-73085737D01*
X139297788Y-73085737D01*
X139190963Y-73085737D01*
X139190941Y-72931604D01*
X139190547Y-72852998D01*
X139189108Y-72775874D01*
X139186468Y-72709349D01*
X139182473Y-72652593D01*
X139176969Y-72604774D01*
X139169802Y-72565061D01*
X139160820Y-72532623D01*
X139149868Y-72506627D01*
X139136793Y-72486243D01*
X139121442Y-72470638D01*
X139103661Y-72458983D01*
X139079267Y-72450823D01*
X139046125Y-72448444D01*
X139011190Y-72453197D01*
X138978631Y-72464884D01*
X138946376Y-72481116D01*
X138940043Y-72464477D01*
X138937777Y-72458377D01*
X138931314Y-72440497D01*
X138922765Y-72416502D01*
X138913365Y-72389847D01*
X138908089Y-72374871D01*
X138898816Y-72348851D01*
X138890979Y-72327217D01*
X138885865Y-72313543D01*
X138884994Y-72311597D01*
X138883237Y-72309592D01*
X138880922Y-72310027D01*
X138877740Y-72313652D01*
X138873381Y-72321216D01*
X138867533Y-72333470D01*
X138859888Y-72351161D01*
X138850134Y-72375041D01*
X138837963Y-72405857D01*
X138823062Y-72444361D01*
X138805124Y-72491300D01*
X138783836Y-72547426D01*
X138758890Y-72613486D01*
X138729974Y-72690231D01*
X138705649Y-72754753D01*
X138679654Y-72823647D01*
X138657450Y-72882696D01*
X138638812Y-72932790D01*
X138623516Y-72974819D01*
X138611338Y-73009671D01*
X138602052Y-73038237D01*
X138595435Y-73061405D01*
X138591263Y-73080066D01*
X138589310Y-73095107D01*
X138589353Y-73107419D01*
X138591167Y-73117892D01*
X138594527Y-73127414D01*
X138599209Y-73136874D01*
X138604990Y-73147163D01*
X138611643Y-73159170D01*
X138614909Y-73165127D01*
X138638600Y-73199093D01*
X138666260Y-73222858D01*
X138699272Y-73237052D01*
X138739014Y-73242306D01*
X138786868Y-73239252D01*
X138792026Y-73238575D01*
X138813474Y-73236055D01*
X138828959Y-73234709D01*
X138835420Y-73234817D01*
X138835589Y-73239958D01*
X138834495Y-73254821D01*
X138832343Y-73276671D01*
X138829459Y-73302789D01*
X138826167Y-73330459D01*
X138822792Y-73356960D01*
X138819658Y-73379576D01*
X138817091Y-73395587D01*
X138815415Y-73402277D01*
X138814592Y-73402823D01*
X138805165Y-73405975D01*
X138789672Y-73409513D01*
X138779542Y-73410895D01*
X138757422Y-73412642D01*
X138729446Y-73413970D01*
X138699323Y-73414668D01*
X138673946Y-73414451D01*
X138612747Y-73408909D01*
X138560206Y-73395679D01*
X138515286Y-73374173D01*
X138476948Y-73343804D01*
X138444154Y-73303983D01*
X138415867Y-73254122D01*
X138415490Y-73253314D01*
X138410331Y-73240849D01*
X138401459Y-73218131D01*
X138389271Y-73186243D01*
X138374167Y-73146266D01*
X138356544Y-73099284D01*
X138336801Y-73046379D01*
X138315336Y-72988635D01*
X138292547Y-72927134D01*
X138268833Y-72862959D01*
X138244591Y-72797193D01*
X138220220Y-72730919D01*
X138196119Y-72665220D01*
X138172684Y-72601177D01*
X138150316Y-72539875D01*
X138129411Y-72482396D01*
X138110369Y-72429823D01*
X138093587Y-72383238D01*
X138079463Y-72343725D01*
X138068397Y-72312367D01*
X138060785Y-72290245D01*
X138057028Y-72278443D01*
X138056696Y-72275139D01*
X138058916Y-72272241D01*
X138065446Y-72270218D01*
X138077865Y-72268915D01*
X138097753Y-72268178D01*
X138126689Y-72267852D01*
X138166254Y-72267784D01*
X138278370Y-72267806D01*
X138369077Y-72547055D01*
X138369850Y-72549435D01*
X138388025Y-72605213D01*
X138405129Y-72657391D01*
X138420779Y-72704823D01*
X138434592Y-72746365D01*
X138446186Y-72780869D01*
X138455178Y-72807192D01*
X138461185Y-72824187D01*
X138463825Y-72830709D01*
X138463977Y-72830721D01*
X138467141Y-72824456D01*
X138473679Y-72807832D01*
X138483206Y-72781937D01*
X138495340Y-72747857D01*
X138509697Y-72706680D01*
X138525895Y-72659492D01*
X138543549Y-72607383D01*
X138562277Y-72551437D01*
X138656689Y-72267761D01*
X138771218Y-72267761D01*
X138778255Y-72267764D01*
X138817354Y-72267943D01*
X138845978Y-72268484D01*
X138865629Y-72269502D01*
X138877807Y-72271114D01*
X138884012Y-72273435D01*
X138885748Y-72276580D01*
X138885954Y-72278250D01*
X138890101Y-72280594D01*
X138901049Y-72277771D01*
X138920726Y-72269385D01*
X138926513Y-72266897D01*
X138961335Y-72256541D01*
X139000630Y-72250762D01*
X139039367Y-72250042D01*
X139072514Y-72254862D01*
G37*
G36*
X143582468Y-73205528D02*
G01*
X143607849Y-73205973D01*
X143636382Y-73206632D01*
X143665531Y-73207437D01*
X143692760Y-73208322D01*
X143715532Y-73209220D01*
X143731312Y-73210064D01*
X143737563Y-73210788D01*
X143737802Y-73211170D01*
X143740653Y-73219450D01*
X143745441Y-73235957D01*
X143751271Y-73257634D01*
X143770802Y-73342433D01*
X143789514Y-73453694D01*
X143801332Y-73566709D01*
X143806067Y-73678662D01*
X143803531Y-73786735D01*
X143793534Y-73888110D01*
X143793374Y-73889236D01*
X143770908Y-74006921D01*
X143737711Y-74122920D01*
X143694592Y-74234810D01*
X143642360Y-74340171D01*
X143625912Y-74369052D01*
X143601098Y-74409747D01*
X143576005Y-74446642D01*
X143548812Y-74482059D01*
X143517697Y-74518320D01*
X143480839Y-74557745D01*
X143436416Y-74602656D01*
X143432269Y-74606757D01*
X143354673Y-74678116D01*
X143274110Y-74741747D01*
X143188295Y-74799186D01*
X143094944Y-74851968D01*
X142991772Y-74901630D01*
X142918883Y-74932825D01*
X142839382Y-74963453D01*
X142759406Y-74990413D01*
X142677285Y-75014106D01*
X142591346Y-75034934D01*
X142499916Y-75053299D01*
X142401325Y-75069603D01*
X142293899Y-75084246D01*
X142175966Y-75097632D01*
X142165076Y-75098522D01*
X142140637Y-75099935D01*
X142107756Y-75101433D01*
X142068651Y-75102926D01*
X142025536Y-75104325D01*
X141980629Y-75105539D01*
X141961836Y-75105948D01*
X141904536Y-75106705D01*
X141844543Y-75106859D01*
X141783987Y-75106450D01*
X141724994Y-75105519D01*
X141669693Y-75104105D01*
X141620212Y-75102249D01*
X141578680Y-75099991D01*
X141547223Y-75097371D01*
X141530797Y-75095735D01*
X141503706Y-75093283D01*
X141471790Y-75090569D01*
X141439001Y-75087937D01*
X141387293Y-75083399D01*
X141287075Y-75072130D01*
X141175846Y-75056750D01*
X141053900Y-75037300D01*
X140921532Y-75013823D01*
X140884490Y-75006736D01*
X140816025Y-74992747D01*
X140741317Y-74976557D01*
X140662974Y-74958786D01*
X140583605Y-74940055D01*
X140505819Y-74920985D01*
X140432225Y-74902194D01*
X140365432Y-74884305D01*
X140308050Y-74867938D01*
X140271990Y-74857252D01*
X140231694Y-74845370D01*
X140193236Y-74834082D01*
X140161547Y-74824837D01*
X140156361Y-74823321D01*
X140117522Y-74811476D01*
X140070212Y-74796397D01*
X140017005Y-74778954D01*
X139960474Y-74760015D01*
X139903190Y-74740449D01*
X139847728Y-74721127D01*
X139796660Y-74702916D01*
X139752558Y-74686685D01*
X139747757Y-74684881D01*
X139708228Y-74670133D01*
X139665685Y-74654405D01*
X139624938Y-74639470D01*
X139590794Y-74627097D01*
X139565500Y-74617813D01*
X139525982Y-74602751D01*
X139486755Y-74587263D01*
X139453448Y-74573545D01*
X139426358Y-74562058D01*
X139388597Y-74546102D01*
X139349115Y-74529465D01*
X139313049Y-74514316D01*
X139300062Y-74508854D01*
X139261648Y-74492507D01*
X139222393Y-74475560D01*
X139184022Y-74458779D01*
X139148262Y-74442934D01*
X139116837Y-74428793D01*
X139091472Y-74417122D01*
X139073893Y-74408691D01*
X139065824Y-74404267D01*
X139063858Y-74403058D01*
X139052237Y-74397148D01*
X139032512Y-74387737D01*
X139006823Y-74375835D01*
X138977312Y-74362456D01*
X138969276Y-74358826D01*
X138932320Y-74341687D01*
X138890155Y-74321539D01*
X138844128Y-74299076D01*
X138795590Y-74274995D01*
X138745890Y-74249989D01*
X138696377Y-74224756D01*
X138648400Y-74199991D01*
X138603308Y-74176387D01*
X138562452Y-74154642D01*
X138527179Y-74135451D01*
X138498840Y-74119508D01*
X138478784Y-74107510D01*
X138468359Y-74100151D01*
X138450285Y-74078612D01*
X138434457Y-74044888D01*
X138427850Y-74007550D01*
X138430894Y-73969538D01*
X138444018Y-73933789D01*
X138448383Y-73926359D01*
X138473570Y-73896906D01*
X138505543Y-73875713D01*
X138541783Y-73864088D01*
X138579769Y-73863339D01*
X138581614Y-73863625D01*
X138602027Y-73869331D01*
X138630453Y-73880343D01*
X138664777Y-73895673D01*
X138702883Y-73914334D01*
X138742654Y-73935337D01*
X138781974Y-73957697D01*
X138796209Y-73965835D01*
X138825926Y-73981984D01*
X138864117Y-74002072D01*
X138909238Y-74025333D01*
X138959743Y-74051003D01*
X139014086Y-74078317D01*
X139070723Y-74106511D01*
X139128107Y-74134820D01*
X139184693Y-74162479D01*
X139238936Y-74188724D01*
X139289289Y-74212789D01*
X139334208Y-74233911D01*
X139372147Y-74251324D01*
X139401561Y-74264263D01*
X139402832Y-74264805D01*
X139414862Y-74269993D01*
X139435069Y-74278750D01*
X139460968Y-74289998D01*
X139490073Y-74302660D01*
X139595670Y-74347517D01*
X139738523Y-74405151D01*
X139886592Y-74461740D01*
X140036011Y-74515814D01*
X140182912Y-74565905D01*
X140222573Y-74578854D01*
X140303643Y-74604587D01*
X140386491Y-74629991D01*
X140469221Y-74654527D01*
X140549936Y-74677657D01*
X140626739Y-74698841D01*
X140697733Y-74717542D01*
X140761021Y-74733220D01*
X140814707Y-74745336D01*
X140827549Y-74748040D01*
X140858897Y-74754646D01*
X140896598Y-74762595D01*
X140937006Y-74771118D01*
X140976471Y-74779446D01*
X141017355Y-74787804D01*
X141091539Y-74801902D01*
X141169347Y-74815552D01*
X141245634Y-74827865D01*
X141315260Y-74837954D01*
X141341026Y-74841439D01*
X141373135Y-74845824D01*
X141400720Y-74849631D01*
X141401386Y-74849724D01*
X141423438Y-74852424D01*
X141453616Y-74855668D01*
X141488034Y-74859057D01*
X141522806Y-74862191D01*
X141557938Y-74865224D01*
X141595624Y-74868538D01*
X141630185Y-74871633D01*
X141657101Y-74874108D01*
X141682809Y-74875856D01*
X141719405Y-74877318D01*
X141764082Y-74878425D01*
X141814742Y-74879175D01*
X141869287Y-74879569D01*
X141925620Y-74879604D01*
X141981645Y-74879279D01*
X142035263Y-74878594D01*
X142084377Y-74877548D01*
X142126891Y-74876139D01*
X142160706Y-74874366D01*
X142292028Y-74862713D01*
X142446663Y-74841206D01*
X142592366Y-74811831D01*
X142729417Y-74774520D01*
X142858096Y-74729204D01*
X142978682Y-74675816D01*
X142988843Y-74670778D01*
X143064926Y-74630472D01*
X143132957Y-74589070D01*
X143195563Y-74544573D01*
X143255373Y-74494978D01*
X143315014Y-74438287D01*
X143377114Y-74372497D01*
X143403385Y-74340422D01*
X143435178Y-74294911D01*
X143467163Y-74242802D01*
X143497745Y-74186870D01*
X143525328Y-74129889D01*
X143548319Y-74074634D01*
X143552354Y-74063369D01*
X143561605Y-74034611D01*
X143571591Y-74000586D01*
X143581408Y-73964668D01*
X143590148Y-73930231D01*
X143596905Y-73900649D01*
X143600774Y-73879297D01*
X143601648Y-73872926D01*
X143604859Y-73852298D01*
X143607825Y-73836567D01*
X143608840Y-73828883D01*
X143610319Y-73809980D01*
X143611882Y-73783051D01*
X143613395Y-73750437D01*
X143614726Y-73714480D01*
X143614914Y-73708426D01*
X143615402Y-73622221D01*
X143611313Y-73540158D01*
X143602249Y-73458568D01*
X143587808Y-73373782D01*
X143567591Y-73282133D01*
X143566644Y-73278209D01*
X143559925Y-73250269D01*
X143554455Y-73227377D01*
X143550775Y-73211807D01*
X143549426Y-73205830D01*
X143551309Y-73205546D01*
X143562776Y-73205364D01*
X143582468Y-73205528D01*
G37*
G36*
X137835377Y-73047546D02*
G01*
X137841187Y-73051334D01*
X137835313Y-73057860D01*
X137817866Y-73067251D01*
X137811622Y-73070304D01*
X137782747Y-73088676D01*
X137762660Y-73109314D01*
X137753048Y-73130570D01*
X137752033Y-73138515D01*
X137755129Y-73145333D01*
X137767101Y-73146780D01*
X137769111Y-73146742D01*
X137780882Y-73145233D01*
X137796747Y-73141104D01*
X137818471Y-73133768D01*
X137847819Y-73122641D01*
X137886556Y-73107136D01*
X137890755Y-73105475D01*
X137932735Y-73094378D01*
X137971030Y-73094696D01*
X138005324Y-73106432D01*
X138011054Y-73109330D01*
X138029950Y-73117683D01*
X138050861Y-73125800D01*
X138061266Y-73129908D01*
X138073407Y-73136230D01*
X138076974Y-73140601D01*
X138076376Y-73141123D01*
X138067149Y-73143864D01*
X138049590Y-73146792D01*
X138026854Y-73149357D01*
X137996642Y-73153358D01*
X137967744Y-73160430D01*
X137947761Y-73169112D01*
X137937147Y-73178524D01*
X137936359Y-73187789D01*
X137945851Y-73196030D01*
X137966080Y-73202367D01*
X137997501Y-73205924D01*
X138036000Y-73210498D01*
X138076597Y-73223197D01*
X138085096Y-73227040D01*
X138102928Y-73236177D01*
X138109269Y-73241692D01*
X138104084Y-73243523D01*
X138087336Y-73241609D01*
X138079266Y-73240557D01*
X138056722Y-73241511D01*
X138040611Y-73247948D01*
X138032374Y-73258374D01*
X138033453Y-73271293D01*
X138045289Y-73285210D01*
X138048965Y-73288173D01*
X138052474Y-73292103D01*
X138050508Y-73294513D01*
X138041385Y-73295774D01*
X138023419Y-73296257D01*
X137994929Y-73296336D01*
X137982849Y-73296383D01*
X137954028Y-73297240D01*
X137932175Y-73299616D01*
X137913396Y-73304084D01*
X137893799Y-73311218D01*
X137875698Y-73318952D01*
X137840948Y-73337176D01*
X137817178Y-73355786D01*
X137803539Y-73375555D01*
X137799182Y-73397257D01*
X137799640Y-73400315D01*
X137808024Y-73412612D01*
X137825100Y-73425875D01*
X137848429Y-73438464D01*
X137875573Y-73448733D01*
X137879022Y-73449675D01*
X137902942Y-73453404D01*
X137935014Y-73455357D01*
X137971961Y-73455574D01*
X138010507Y-73454096D01*
X138047375Y-73450963D01*
X138079287Y-73446215D01*
X138091958Y-73443926D01*
X138112445Y-73440951D01*
X138126736Y-73439787D01*
X138136097Y-73440366D01*
X138137635Y-73444352D01*
X138131285Y-73455078D01*
X138128433Y-73459668D01*
X138124686Y-73470606D01*
X138128891Y-73479557D01*
X138133991Y-73483712D01*
X138150929Y-73491603D01*
X138175078Y-73499274D01*
X138203249Y-73505909D01*
X138232250Y-73510693D01*
X138258891Y-73512808D01*
X138264041Y-73513211D01*
X138268393Y-73515863D01*
X138263619Y-73519979D01*
X138251593Y-73524410D01*
X138234188Y-73528001D01*
X138206854Y-73532976D01*
X138176031Y-73540783D01*
X138148128Y-73549943D01*
X138126200Y-73559439D01*
X138113305Y-73568252D01*
X138111659Y-73570086D01*
X138105661Y-73578620D01*
X138106021Y-73587016D01*
X138112625Y-73600620D01*
X138123236Y-73615373D01*
X138147815Y-73634116D01*
X138179899Y-73646141D01*
X138217255Y-73650385D01*
X138235392Y-73650900D01*
X138248593Y-73652878D01*
X138250595Y-73656184D01*
X138246707Y-73664537D01*
X138244796Y-73679183D01*
X138246471Y-73687838D01*
X138256755Y-73705950D01*
X138274509Y-73725335D01*
X138297530Y-73743315D01*
X138303288Y-73747752D01*
X138300693Y-73749174D01*
X138287526Y-73747675D01*
X138286564Y-73747533D01*
X138268786Y-73744417D01*
X138255341Y-73741276D01*
X138243116Y-73740111D01*
X138226346Y-73741980D01*
X138215097Y-73746289D01*
X138208245Y-73756311D01*
X138211153Y-73771449D01*
X138223979Y-73792025D01*
X138246882Y-73818360D01*
X138280020Y-73850777D01*
X138291250Y-73861716D01*
X138300829Y-73872416D01*
X138303504Y-73877562D01*
X138299178Y-73877371D01*
X138286268Y-73873616D01*
X138268280Y-73866883D01*
X138249408Y-73859239D01*
X138219792Y-73847445D01*
X138198057Y-73839208D01*
X138181973Y-73833741D01*
X138169310Y-73830260D01*
X138157836Y-73827979D01*
X138146352Y-73827533D01*
X138132765Y-73834137D01*
X138126745Y-73849312D01*
X138128500Y-73872261D01*
X138138242Y-73902188D01*
X138139367Y-73904951D01*
X138143247Y-73917952D01*
X138140614Y-73920781D01*
X138131616Y-73913478D01*
X138116397Y-73896083D01*
X138105657Y-73883091D01*
X138076915Y-73850858D01*
X138051753Y-73827447D01*
X138028321Y-73811518D01*
X138004772Y-73801735D01*
X137979259Y-73796760D01*
X137969876Y-73797740D01*
X137957073Y-73806735D01*
X137951789Y-73821383D01*
X137951943Y-73823432D01*
X137956079Y-73837968D01*
X137964509Y-73858247D01*
X137975417Y-73880507D01*
X137986988Y-73900986D01*
X137997407Y-73915922D01*
X138003755Y-73924334D01*
X138011523Y-73937553D01*
X138015639Y-73948185D01*
X138014395Y-73952548D01*
X138011658Y-73951457D01*
X138001618Y-73944131D01*
X137988237Y-73932185D01*
X137984250Y-73928462D01*
X137960882Y-73909826D01*
X137935918Y-73894143D01*
X137912744Y-73883328D01*
X137894748Y-73879297D01*
X137881169Y-73882584D01*
X137865007Y-73894766D01*
X137851557Y-73910235D01*
X137843456Y-73868822D01*
X137840998Y-73858295D01*
X137832473Y-73830674D01*
X137820842Y-73799570D01*
X137807879Y-73769920D01*
X137795302Y-73744595D01*
X137769569Y-73699568D01*
X137744835Y-73666087D01*
X137720728Y-73643767D01*
X137696875Y-73632224D01*
X137672901Y-73631075D01*
X137659381Y-73634417D01*
X137638781Y-73647070D01*
X137626736Y-73667914D01*
X137623119Y-73697241D01*
X137627806Y-73735342D01*
X137627858Y-73735593D01*
X137634869Y-73760134D01*
X137646426Y-73791229D01*
X137660896Y-73825234D01*
X137676642Y-73858507D01*
X137692032Y-73887407D01*
X137705429Y-73908292D01*
X137709076Y-73913348D01*
X137715154Y-73923921D01*
X137714990Y-73928131D01*
X137708632Y-73926194D01*
X137693736Y-73917543D01*
X137674316Y-73903766D01*
X137652868Y-73886858D01*
X137631891Y-73868816D01*
X137613882Y-73851636D01*
X137601340Y-73837313D01*
X137591904Y-73825339D01*
X137574211Y-73808146D01*
X137559277Y-73800963D01*
X137548102Y-73804407D01*
X137547310Y-73805732D01*
X137547371Y-73816914D01*
X137551664Y-73835749D01*
X137559189Y-73859653D01*
X137568945Y-73886042D01*
X137579929Y-73912331D01*
X137591140Y-73935937D01*
X137601577Y-73954273D01*
X137610239Y-73964757D01*
X137614480Y-73969917D01*
X137621458Y-73981544D01*
X137622784Y-73984145D01*
X137625915Y-73993835D01*
X137621293Y-73994281D01*
X137609023Y-73985553D01*
X137589209Y-73967722D01*
X137561957Y-73940861D01*
X137537839Y-73917223D01*
X137517669Y-73899784D01*
X137504143Y-73891635D01*
X137496771Y-73892624D01*
X137495062Y-73902601D01*
X137498524Y-73921416D01*
X137500049Y-73928078D01*
X137501754Y-73941221D01*
X137500272Y-73946444D01*
X137499987Y-73946421D01*
X137493598Y-73940440D01*
X137484514Y-73925671D01*
X137473952Y-73904698D01*
X137463132Y-73880108D01*
X137453272Y-73854487D01*
X137445590Y-73830419D01*
X137443216Y-73821955D01*
X137430718Y-73781617D01*
X137418171Y-73747589D01*
X137406333Y-73721771D01*
X137395962Y-73706059D01*
X137395581Y-73705653D01*
X137388009Y-73698807D01*
X137382893Y-73700577D01*
X137376377Y-73712164D01*
X137372139Y-73723970D01*
X137367927Y-73749806D01*
X137366851Y-73780754D01*
X137368974Y-73812696D01*
X137374362Y-73841515D01*
X137377824Y-73854626D01*
X137380141Y-73866173D01*
X137378877Y-73869394D01*
X137374002Y-73866315D01*
X137369333Y-73861101D01*
X137359646Y-73846659D01*
X137349390Y-73828241D01*
X137341917Y-73812333D01*
X137324530Y-73762596D01*
X137313436Y-73709352D01*
X137308976Y-73655855D01*
X137311493Y-73605357D01*
X137321328Y-73561113D01*
X137326014Y-73549858D01*
X137336897Y-73527634D01*
X137352418Y-73498041D01*
X137371605Y-73462774D01*
X137393484Y-73423528D01*
X137417081Y-73381998D01*
X137441425Y-73339878D01*
X137465540Y-73298865D01*
X137488456Y-73260653D01*
X137509197Y-73226937D01*
X137526792Y-73199413D01*
X137540266Y-73179774D01*
X137561197Y-73153147D01*
X137598703Y-73115113D01*
X137639473Y-73086449D01*
X137685420Y-73066179D01*
X137738459Y-73053326D01*
X137800502Y-73046912D01*
X137817775Y-73046368D01*
X137835377Y-73047546D01*
G37*
G36*
X137221503Y-68889795D02*
G01*
X137283367Y-68890417D01*
X137341995Y-68891469D01*
X137395411Y-68892951D01*
X137441640Y-68894863D01*
X137478706Y-68897204D01*
X137490966Y-68898207D01*
X137554890Y-68903947D01*
X137622502Y-68910764D01*
X137690626Y-68918292D01*
X137756089Y-68926171D01*
X137815715Y-68934036D01*
X137866329Y-68941525D01*
X137893927Y-68945894D01*
X137932767Y-68951973D01*
X137970089Y-68957746D01*
X138000624Y-68962394D01*
X138009735Y-68963828D01*
X138041204Y-68969325D01*
X138081696Y-68976952D01*
X138129121Y-68986275D01*
X138181392Y-68996864D01*
X138236420Y-69008286D01*
X138292115Y-69020111D01*
X138346389Y-69031905D01*
X138397153Y-69043239D01*
X138442319Y-69053679D01*
X138514218Y-69071556D01*
X138598465Y-69094169D01*
X138689903Y-69120128D01*
X138786440Y-69148766D01*
X138885979Y-69179416D01*
X138986429Y-69211409D01*
X139085694Y-69244080D01*
X139181680Y-69276759D01*
X139272295Y-69308780D01*
X139355443Y-69339475D01*
X139429030Y-69368178D01*
X139473781Y-69386252D01*
X139527882Y-69408158D01*
X139572622Y-69426346D01*
X139607507Y-69440615D01*
X139632042Y-69450762D01*
X139645733Y-69456586D01*
X139672793Y-69468555D01*
X139705979Y-69483072D01*
X139738756Y-69497167D01*
X139776976Y-69513373D01*
X139819848Y-69531756D01*
X139873925Y-69555731D01*
X139932099Y-69582381D01*
X139996035Y-69612483D01*
X140067398Y-69646812D01*
X140147850Y-69686144D01*
X140159291Y-69691768D01*
X140199259Y-69711349D01*
X140235239Y-69728874D01*
X140265841Y-69743672D01*
X140289674Y-69755072D01*
X140305344Y-69762404D01*
X140311462Y-69764997D01*
X140317389Y-69767668D01*
X140331789Y-69775297D01*
X140352411Y-69786687D01*
X140377045Y-69800639D01*
X140393760Y-69810082D01*
X140430243Y-69830110D01*
X140468109Y-69850297D01*
X140501416Y-69867451D01*
X140529856Y-69882149D01*
X140565904Y-69901504D01*
X140603354Y-69922199D01*
X140637531Y-69941686D01*
X140646860Y-69947101D01*
X140672656Y-69961909D01*
X140693896Y-69973860D01*
X140708590Y-69981844D01*
X140714748Y-69984752D01*
X140715371Y-69984933D01*
X140723900Y-69989303D01*
X140740709Y-69998741D01*
X140764060Y-70012217D01*
X140792219Y-70028702D01*
X140823450Y-70047166D01*
X140856017Y-70066580D01*
X140888184Y-70085914D01*
X140918217Y-70104139D01*
X140944380Y-70120225D01*
X140964936Y-70133144D01*
X140989028Y-70148575D01*
X141022233Y-70169913D01*
X141048181Y-70186712D01*
X141068784Y-70200219D01*
X141085956Y-70211683D01*
X141101609Y-70222352D01*
X141114117Y-70230810D01*
X141136399Y-70245588D01*
X141162865Y-70262930D01*
X141190122Y-70280603D01*
X141219798Y-70299859D01*
X141258844Y-70325612D01*
X141293442Y-70348919D01*
X141322419Y-70368965D01*
X141344601Y-70384932D01*
X141358812Y-70396006D01*
X141363880Y-70401371D01*
X141363756Y-70402456D01*
X141357990Y-70405949D01*
X141353192Y-70408204D01*
X141341668Y-70417161D01*
X141327226Y-70430609D01*
X141302566Y-70455269D01*
X141286021Y-70443615D01*
X141254885Y-70424752D01*
X141213806Y-70406892D01*
X141163284Y-70391180D01*
X141152762Y-70388266D01*
X141126887Y-70379773D01*
X141103244Y-70369298D01*
X141077922Y-70354948D01*
X141047009Y-70334826D01*
X141000800Y-70303783D01*
X140956167Y-70274221D01*
X140913683Y-70246630D01*
X140871221Y-70219675D01*
X140826653Y-70192023D01*
X140777853Y-70162339D01*
X140722694Y-70129290D01*
X140659047Y-70091541D01*
X140647695Y-70084830D01*
X140608201Y-70061454D01*
X140569035Y-70038234D01*
X140532744Y-70016682D01*
X140501873Y-69998310D01*
X140478970Y-69984630D01*
X140459498Y-69973177D01*
X140436219Y-69960065D01*
X140417690Y-69950286D01*
X140406732Y-69945374D01*
X140401238Y-69943154D01*
X140385275Y-69935289D01*
X140363702Y-69923693D01*
X140339585Y-69909983D01*
X140338730Y-69909485D01*
X140318007Y-69897936D01*
X140288033Y-69881890D01*
X140250431Y-69862167D01*
X140206823Y-69839593D01*
X140158833Y-69814988D01*
X140108084Y-69789176D01*
X140056199Y-69762979D01*
X140004801Y-69737221D01*
X139955514Y-69712723D01*
X139909961Y-69690309D01*
X139869764Y-69670801D01*
X139836547Y-69655022D01*
X139780976Y-69629079D01*
X139730013Y-69605366D01*
X139688362Y-69586087D01*
X139655124Y-69570831D01*
X139629401Y-69559185D01*
X139610292Y-69550737D01*
X139596899Y-69545074D01*
X139595709Y-69544588D01*
X139583741Y-69539625D01*
X139563527Y-69531195D01*
X139537573Y-69520343D01*
X139508386Y-69508118D01*
X139505144Y-69506759D01*
X139474166Y-69493869D01*
X139444985Y-69481868D01*
X139420751Y-69472045D01*
X139404613Y-69465687D01*
X139398083Y-69463168D01*
X139376472Y-69454604D01*
X139349739Y-69443802D01*
X139322205Y-69432502D01*
X139308885Y-69427026D01*
X139284320Y-69417122D01*
X139264230Y-69409268D01*
X139252006Y-69404802D01*
X139251554Y-69404654D01*
X139237838Y-69399859D01*
X139217231Y-69392331D01*
X139194015Y-69383633D01*
X139182381Y-69379232D01*
X139058166Y-69333753D01*
X138929709Y-69289314D01*
X138798905Y-69246470D01*
X138667648Y-69205777D01*
X138537830Y-69167791D01*
X138411345Y-69133067D01*
X138290086Y-69102161D01*
X138175948Y-69075629D01*
X138070823Y-69054027D01*
X138049416Y-69049945D01*
X138016736Y-69043666D01*
X137980612Y-69036689D01*
X137945685Y-69029908D01*
X137915118Y-69024162D01*
X137882252Y-69018392D01*
X137853488Y-69013742D01*
X137832756Y-69010876D01*
X137816018Y-69008785D01*
X137800056Y-69006334D01*
X137792474Y-69004542D01*
X137787250Y-69003300D01*
X137771297Y-69000774D01*
X137746608Y-68997360D01*
X137715065Y-68993284D01*
X137678548Y-68988769D01*
X137638941Y-68984039D01*
X137598124Y-68979318D01*
X137557979Y-68974831D01*
X137520388Y-68970801D01*
X137487232Y-68967452D01*
X137460393Y-68965008D01*
X137411673Y-68961213D01*
X137213890Y-68951282D01*
X137023674Y-68950765D01*
X136841078Y-68959660D01*
X136666157Y-68977965D01*
X136498966Y-69005677D01*
X136489841Y-69007540D01*
X136454112Y-69015518D01*
X136412980Y-69025511D01*
X136369331Y-69036744D01*
X136326054Y-69048442D01*
X136286036Y-69059830D01*
X136252163Y-69070133D01*
X136227324Y-69078577D01*
X136203512Y-69087338D01*
X136173594Y-69098031D01*
X136147968Y-69106880D01*
X136145433Y-69107741D01*
X136101890Y-69124817D01*
X136051548Y-69148117D01*
X135996885Y-69176214D01*
X135940379Y-69207679D01*
X135884508Y-69241087D01*
X135831751Y-69275009D01*
X135784585Y-69308018D01*
X135745489Y-69338687D01*
X135723028Y-69358554D01*
X135687820Y-69392047D01*
X135651554Y-69428788D01*
X135617767Y-69465160D01*
X135589997Y-69497550D01*
X135534492Y-69571989D01*
X135474368Y-69670003D01*
X135425114Y-69772945D01*
X135386668Y-69881032D01*
X135358967Y-69994484D01*
X135341947Y-70113520D01*
X135335547Y-70238358D01*
X135339703Y-70369217D01*
X135345579Y-70433487D01*
X135362516Y-70548124D01*
X135388198Y-70667526D01*
X135422853Y-70792689D01*
X135466710Y-70924609D01*
X135467089Y-70925668D01*
X135476681Y-70952733D01*
X135484523Y-70975314D01*
X135489814Y-70991078D01*
X135491756Y-70997693D01*
X135489966Y-70998671D01*
X135484868Y-70991113D01*
X135477740Y-70977132D01*
X135469872Y-70959271D01*
X135462553Y-70940075D01*
X135458853Y-70929515D01*
X135449533Y-70903255D01*
X135438571Y-70872664D01*
X135427633Y-70842406D01*
X135419858Y-70820627D01*
X135378796Y-70689398D01*
X135347611Y-70558570D01*
X135326353Y-70429039D01*
X135315072Y-70301700D01*
X135313819Y-70177446D01*
X135322644Y-70057172D01*
X135341598Y-69941773D01*
X135370730Y-69832145D01*
X135371517Y-69829706D01*
X135394314Y-69764838D01*
X135419539Y-69702892D01*
X135446124Y-69646154D01*
X135472999Y-69596912D01*
X135499097Y-69557451D01*
X135506077Y-69548045D01*
X135519066Y-69530348D01*
X135533196Y-69510944D01*
X135593552Y-69434519D01*
X135668017Y-69355700D01*
X135750810Y-69282978D01*
X135842592Y-69215872D01*
X135944026Y-69153905D01*
X136055771Y-69096598D01*
X136178490Y-69043471D01*
X136183785Y-69041403D01*
X136211797Y-69031283D01*
X136247020Y-69019472D01*
X136286335Y-69006929D01*
X136326620Y-68994612D01*
X136364754Y-68983482D01*
X136397617Y-68974496D01*
X136422088Y-68968613D01*
X136429290Y-68967107D01*
X136458367Y-68960969D01*
X136491690Y-68953874D01*
X136523383Y-68947071D01*
X136555049Y-68940806D01*
X136599575Y-68933065D01*
X136650927Y-68924959D01*
X136706290Y-68916897D01*
X136762846Y-68909288D01*
X136817781Y-68902539D01*
X136868276Y-68897059D01*
X136892971Y-68895132D01*
X136932771Y-68893161D01*
X136981188Y-68891623D01*
X137036245Y-68890518D01*
X137095966Y-68889845D01*
X137158378Y-68889605D01*
X137221503Y-68889795D01*
G37*
%TD*%
M02*
