%TF.GenerationSoftware,KiCad,Pcbnew,9.0.1*%
%TF.CreationDate,2025-04-10T15:19:35-04:00*%
%TF.ProjectId,ride-along-module,72696465-2d61-46c6-9f6e-672d6d6f6475,rev?*%
%TF.SameCoordinates,Original*%
%TF.FileFunction,Soldermask,Top*%
%TF.FilePolarity,Negative*%
%FSLAX46Y46*%
G04 Gerber Fmt 4.6, Leading zero omitted, Abs format (unit mm)*
G04 Created by KiCad (PCBNEW 9.0.1) date 2025-04-10 15:19:35*
%MOMM*%
%LPD*%
G01*
G04 APERTURE LIST*
G04 Aperture macros list*
%AMRoundRect*
0 Rectangle with rounded corners*
0 $1 Rounding radius*
0 $2 $3 $4 $5 $6 $7 $8 $9 X,Y pos of 4 corners*
0 Add a 4 corners polygon primitive as box body*
4,1,4,$2,$3,$4,$5,$6,$7,$8,$9,$2,$3,0*
0 Add four circle primitives for the rounded corners*
1,1,$1+$1,$2,$3*
1,1,$1+$1,$4,$5*
1,1,$1+$1,$6,$7*
1,1,$1+$1,$8,$9*
0 Add four rect primitives between the rounded corners*
20,1,$1+$1,$2,$3,$4,$5,0*
20,1,$1+$1,$4,$5,$6,$7,0*
20,1,$1+$1,$6,$7,$8,$9,0*
20,1,$1+$1,$8,$9,$2,$3,0*%
%AMFreePoly0*
4,1,23,0.500000,-0.750000,0.000000,-0.750000,0.000000,-0.745722,-0.065263,-0.745722,-0.191342,-0.711940,-0.304381,-0.646677,-0.396677,-0.554381,-0.461940,-0.441342,-0.495722,-0.315263,-0.495722,-0.250000,-0.500000,-0.250000,-0.500000,0.250000,-0.495722,0.250000,-0.495722,0.315263,-0.461940,0.441342,-0.396677,0.554381,-0.304381,0.646677,-0.191342,0.711940,-0.065263,0.745722,0.000000,0.745722,
0.000000,0.750000,0.500000,0.750000,0.500000,-0.750000,0.500000,-0.750000,$1*%
%AMFreePoly1*
4,1,23,0.000000,0.745722,0.065263,0.745722,0.191342,0.711940,0.304381,0.646677,0.396677,0.554381,0.461940,0.441342,0.495722,0.315263,0.495722,0.250000,0.500000,0.250000,0.500000,-0.250000,0.495722,-0.250000,0.495722,-0.315263,0.461940,-0.441342,0.396677,-0.554381,0.304381,-0.646677,0.191342,-0.711940,0.065263,-0.745722,0.000000,-0.745722,0.000000,-0.750000,-0.500000,-0.750000,
-0.500000,0.750000,0.000000,0.750000,0.000000,0.745722,0.000000,0.745722,$1*%
G04 Aperture macros list end*
%ADD10C,0.800000*%
%ADD11C,6.400000*%
%ADD12RoundRect,0.140000X-0.170000X0.140000X-0.170000X-0.140000X0.170000X-0.140000X0.170000X0.140000X0*%
%ADD13RoundRect,0.200000X-0.200000X-0.275000X0.200000X-0.275000X0.200000X0.275000X-0.200000X0.275000X0*%
%ADD14RoundRect,0.218750X-0.256250X0.218750X-0.256250X-0.218750X0.256250X-0.218750X0.256250X0.218750X0*%
%ADD15RoundRect,0.225000X0.250000X-0.225000X0.250000X0.225000X-0.250000X0.225000X-0.250000X-0.225000X0*%
%ADD16RoundRect,0.200000X0.200000X0.275000X-0.200000X0.275000X-0.200000X-0.275000X0.200000X-0.275000X0*%
%ADD17R,0.950000X0.550000*%
%ADD18RoundRect,0.250000X0.450000X0.800000X-0.450000X0.800000X-0.450000X-0.800000X0.450000X-0.800000X0*%
%ADD19RoundRect,0.087500X-0.087500X0.225000X-0.087500X-0.225000X0.087500X-0.225000X0.087500X0.225000X0*%
%ADD20RoundRect,0.087500X-0.225000X0.087500X-0.225000X-0.087500X0.225000X-0.087500X0.225000X0.087500X0*%
%ADD21C,3.000000*%
%ADD22RoundRect,0.140000X0.140000X0.170000X-0.140000X0.170000X-0.140000X-0.170000X0.140000X-0.170000X0*%
%ADD23RoundRect,0.225000X-0.250000X0.225000X-0.250000X-0.225000X0.250000X-0.225000X0.250000X0.225000X0*%
%ADD24RoundRect,0.140000X0.170000X-0.140000X0.170000X0.140000X-0.170000X0.140000X-0.170000X-0.140000X0*%
%ADD25RoundRect,0.200000X0.275000X-0.200000X0.275000X0.200000X-0.275000X0.200000X-0.275000X-0.200000X0*%
%ADD26RoundRect,0.250000X-0.625000X0.350000X-0.625000X-0.350000X0.625000X-0.350000X0.625000X0.350000X0*%
%ADD27O,1.750000X1.200000*%
%ADD28C,0.650000*%
%ADD29RoundRect,0.150000X0.425000X-0.150000X0.425000X0.150000X-0.425000X0.150000X-0.425000X-0.150000X0*%
%ADD30RoundRect,0.075000X0.500000X-0.075000X0.500000X0.075000X-0.500000X0.075000X-0.500000X-0.075000X0*%
%ADD31O,2.100000X1.000000*%
%ADD32O,2.794000X2.032000*%
%ADD33RoundRect,0.140000X-0.140000X-0.170000X0.140000X-0.170000X0.140000X0.170000X-0.140000X0.170000X0*%
%ADD34RoundRect,0.225000X-0.225000X-0.250000X0.225000X-0.250000X0.225000X0.250000X-0.225000X0.250000X0*%
%ADD35R,0.800000X1.500000*%
%ADD36RoundRect,0.362500X-0.362500X-0.637500X0.362500X-0.637500X0.362500X0.637500X-0.362500X0.637500X0*%
%ADD37RoundRect,0.225000X0.225000X0.250000X-0.225000X0.250000X-0.225000X-0.250000X0.225000X-0.250000X0*%
%ADD38RoundRect,0.218750X0.218750X0.256250X-0.218750X0.256250X-0.218750X-0.256250X0.218750X-0.256250X0*%
%ADD39RoundRect,0.250000X0.445000X-0.457500X0.445000X0.457500X-0.445000X0.457500X-0.445000X-0.457500X0*%
%ADD40RoundRect,0.190000X-0.610000X-0.190000X0.610000X-0.190000X0.610000X0.190000X-0.610000X0.190000X0*%
%ADD41RoundRect,0.150000X-0.512500X-0.150000X0.512500X-0.150000X0.512500X0.150000X-0.512500X0.150000X0*%
%ADD42RoundRect,0.150000X0.512500X0.150000X-0.512500X0.150000X-0.512500X-0.150000X0.512500X-0.150000X0*%
%ADD43FreePoly0,0.000000*%
%ADD44FreePoly1,0.000000*%
%ADD45RoundRect,0.147500X-0.147500X-0.172500X0.147500X-0.172500X0.147500X0.172500X-0.147500X0.172500X0*%
%ADD46RoundRect,0.075000X-0.700000X-0.075000X0.700000X-0.075000X0.700000X0.075000X-0.700000X0.075000X0*%
%ADD47RoundRect,0.075000X-0.075000X-0.700000X0.075000X-0.700000X0.075000X0.700000X-0.075000X0.700000X0*%
G04 APERTURE END LIST*
%TO.C,JP1*%
G36*
X129375000Y-77228000D02*
G01*
X129675000Y-77228000D01*
X129675000Y-78728000D01*
X129375000Y-78728000D01*
X129375000Y-77228000D01*
G37*
%TD*%
D10*
%TO.C,H1*%
X158128000Y-84836000D03*
X158830944Y-83138944D03*
X158830944Y-86533056D03*
X160528000Y-82436000D03*
D11*
X160528000Y-84836000D03*
D10*
X160528000Y-87236000D03*
X162225056Y-83138944D03*
X162225056Y-86533056D03*
X162928000Y-84836000D03*
%TD*%
D12*
%TO.C,C8*%
X134112000Y-77371000D03*
X134112000Y-78331000D03*
%TD*%
D13*
%TO.C,R1*%
X150813000Y-68834000D03*
X152463000Y-68834000D03*
%TD*%
%TO.C,R4*%
X128591000Y-64135000D03*
X130241000Y-64135000D03*
%TD*%
D14*
%TO.C,D3*%
X125730000Y-66014500D03*
X125730000Y-67589500D03*
%TD*%
D15*
%TO.C,C18*%
X125730000Y-74308000D03*
X125730000Y-72758000D03*
%TD*%
D10*
%TO.C,H4*%
X117996000Y-57150000D03*
X118698944Y-55452944D03*
X118698944Y-58847056D03*
X120396000Y-54750000D03*
D11*
X120396000Y-57150000D03*
D10*
X120396000Y-59550000D03*
X122093056Y-55452944D03*
X122093056Y-58847056D03*
X122796000Y-57150000D03*
%TD*%
D16*
%TO.C,R2*%
X160464000Y-78105000D03*
X158814000Y-78105000D03*
%TD*%
D17*
%TO.C,U4*%
X132597000Y-81310000D03*
X132597000Y-82560000D03*
X132597000Y-83810000D03*
X132597000Y-85060000D03*
X134747000Y-85060000D03*
X134747000Y-83810000D03*
X134747000Y-82560000D03*
X134747000Y-81310000D03*
%TD*%
D12*
%TO.C,C10*%
X134112000Y-70104000D03*
X134112000Y-71064000D03*
%TD*%
D18*
%TO.C,D2*%
X155870000Y-75311000D03*
X151470000Y-75311000D03*
%TD*%
D19*
%TO.C,U5*%
X132564000Y-72097000D03*
X132064000Y-72097000D03*
X131564000Y-72097000D03*
X131064000Y-72097000D03*
D20*
X130901500Y-72759500D03*
X130901500Y-73259500D03*
X130901500Y-73759500D03*
D19*
X131064000Y-74422000D03*
X131564000Y-74422000D03*
X132064000Y-74422000D03*
X132564000Y-74422000D03*
D20*
X132726500Y-73759500D03*
X132726500Y-73259500D03*
X132726500Y-72759500D03*
%TD*%
D10*
%TO.C,H3*%
X117996000Y-84836000D03*
X118698944Y-83138944D03*
X118698944Y-86533056D03*
X120396000Y-82436000D03*
D11*
X120396000Y-84836000D03*
D10*
X120396000Y-87236000D03*
X122093056Y-83138944D03*
X122093056Y-86533056D03*
X122796000Y-84836000D03*
%TD*%
D21*
%TO.C,TP3*%
X149606000Y-84328000D03*
%TD*%
D22*
%TO.C,C1*%
X143761000Y-81277000D03*
X142801000Y-81277000D03*
%TD*%
D21*
%TO.C,TP4*%
X121031000Y-64389000D03*
%TD*%
D16*
%TO.C,R5*%
X133691000Y-64116000D03*
X132041000Y-64116000D03*
%TD*%
D10*
%TO.C,H2*%
X158128000Y-57150000D03*
X158830944Y-55452944D03*
X158830944Y-58847056D03*
X160528000Y-54750000D03*
D11*
X160528000Y-57150000D03*
D10*
X160528000Y-59550000D03*
X162225056Y-55452944D03*
X162225056Y-58847056D03*
X162928000Y-57150000D03*
%TD*%
D23*
%TO.C,C15*%
X140208000Y-57137000D03*
X140208000Y-58687000D03*
%TD*%
D21*
%TO.C,TP1*%
X153797000Y-80137000D03*
%TD*%
D22*
%TO.C,C6*%
X136652000Y-66548000D03*
X135692000Y-66548000D03*
%TD*%
D24*
%TO.C,C12*%
X148844000Y-77696000D03*
X148844000Y-76736000D03*
%TD*%
D21*
%TO.C,TP2*%
X153797000Y-84328000D03*
%TD*%
D25*
%TO.C,R6*%
X125730000Y-71079500D03*
X125730000Y-69429500D03*
%TD*%
D26*
%TO.C,BT1*%
X121031000Y-70120000D03*
D27*
X121031000Y-72120000D03*
%TD*%
D21*
%TO.C,FID2*%
X127381000Y-84455000D03*
%TD*%
D23*
%TO.C,C17*%
X125730000Y-79235000D03*
X125730000Y-80785000D03*
%TD*%
D28*
%TO.C,J1*%
X159330600Y-74822800D03*
X159330600Y-69042800D03*
D29*
X158255600Y-75132800D03*
X158255600Y-74332800D03*
D30*
X158255600Y-73182800D03*
X158255600Y-72182800D03*
X158255600Y-71682800D03*
X158255600Y-70682800D03*
D29*
X158255600Y-69532800D03*
X158255600Y-68732800D03*
X158255600Y-68732800D03*
X158255600Y-69532800D03*
D30*
X158255600Y-70182800D03*
X158255600Y-71182800D03*
X158255600Y-72682800D03*
X158255600Y-73682800D03*
D29*
X158255600Y-74332800D03*
X158255600Y-75132800D03*
D31*
X158830600Y-76252800D03*
D32*
X163010600Y-76252800D03*
D31*
X158830600Y-67612800D03*
D32*
X163010600Y-67612800D03*
%TD*%
D16*
%TO.C,R3*%
X160464000Y-65786000D03*
X158814000Y-65786000D03*
%TD*%
D24*
%TO.C,C11*%
X134137000Y-76197000D03*
X134137000Y-75237000D03*
%TD*%
D22*
%TO.C,C5*%
X143736000Y-82296000D03*
X142776000Y-82296000D03*
%TD*%
D33*
%TO.C,C3*%
X139728000Y-66548000D03*
X140688000Y-66548000D03*
%TD*%
D34*
%TO.C,C14*%
X132091000Y-62516000D03*
X133641000Y-62516000D03*
%TD*%
D22*
%TO.C,C9*%
X139164000Y-81280000D03*
X138204000Y-81280000D03*
%TD*%
D35*
%TO.C,J2*%
X145757000Y-57240500D03*
X146857000Y-57240500D03*
X147957000Y-57240500D03*
X149057000Y-57240500D03*
X150157000Y-57240500D03*
X151257000Y-57240500D03*
X152357000Y-57240500D03*
X153457000Y-57240500D03*
D36*
X142087000Y-54640500D03*
X142087000Y-62940500D03*
X155837000Y-54640500D03*
X155837000Y-62940500D03*
%TD*%
D37*
%TO.C,C21*%
X129399500Y-74930000D03*
X127849500Y-74930000D03*
%TD*%
D23*
%TO.C,C19*%
X131064000Y-81394000D03*
X131064000Y-82944000D03*
%TD*%
D33*
%TO.C,C7*%
X144808000Y-81280000D03*
X145768000Y-81280000D03*
%TD*%
D38*
%TO.C,D1*%
X155854500Y-68834000D03*
X154279500Y-68834000D03*
%TD*%
D39*
%TO.C,C20*%
X129159000Y-72345500D03*
X129159000Y-69640500D03*
%TD*%
D33*
%TO.C,C2*%
X137696000Y-66548000D03*
X138656000Y-66548000D03*
%TD*%
D40*
%TO.C,SW1*%
X128524000Y-58547000D03*
X128524000Y-59817000D03*
X133604000Y-59817000D03*
X133604000Y-58547000D03*
%TD*%
D23*
%TO.C,C16*%
X121793000Y-75819000D03*
X121793000Y-77369000D03*
%TD*%
D21*
%TO.C,FID3*%
X158623000Y-62103000D03*
%TD*%
D41*
%TO.C,U3*%
X123449500Y-75824000D03*
X123449500Y-76774000D03*
X123449500Y-77724000D03*
X125724500Y-77724000D03*
X125724500Y-75824000D03*
%TD*%
D34*
%TO.C,C4*%
X128641000Y-62516000D03*
X130191000Y-62516000D03*
%TD*%
D42*
%TO.C,U1*%
X154725800Y-72898000D03*
X154725800Y-71948000D03*
X154725800Y-70998000D03*
X152450800Y-70998000D03*
X152450800Y-71948000D03*
X152450800Y-72898000D03*
%TD*%
D43*
%TO.C,JP1*%
X128875000Y-77978000D03*
D44*
X130175000Y-77978000D03*
%TD*%
D45*
%TO.C,L1*%
X144826000Y-82296000D03*
X145796000Y-82296000D03*
%TD*%
D46*
%TO.C,U2*%
X135824000Y-70201000D03*
X135824000Y-70701000D03*
X135824000Y-71201000D03*
X135824000Y-71701000D03*
X135824000Y-72201000D03*
X135824000Y-72701000D03*
X135824000Y-73201000D03*
X135824000Y-73701000D03*
X135824000Y-74201000D03*
X135824000Y-74701000D03*
X135824000Y-75201000D03*
X135824000Y-75701000D03*
X135824000Y-76201000D03*
X135824000Y-76701000D03*
X135824000Y-77201000D03*
X135824000Y-77701000D03*
D47*
X137749000Y-79626000D03*
X138249000Y-79626000D03*
X138749000Y-79626000D03*
X139249000Y-79626000D03*
X139749000Y-79626000D03*
X140249000Y-79626000D03*
X140749000Y-79626000D03*
X141249000Y-79626000D03*
X141749000Y-79626000D03*
X142249000Y-79626000D03*
X142749000Y-79626000D03*
X143249000Y-79626000D03*
X143749000Y-79626000D03*
X144249000Y-79626000D03*
X144749000Y-79626000D03*
X145249000Y-79626000D03*
D46*
X147174000Y-77701000D03*
X147174000Y-77201000D03*
X147174000Y-76701000D03*
X147174000Y-76201000D03*
X147174000Y-75701000D03*
X147174000Y-75201000D03*
X147174000Y-74701000D03*
X147174000Y-74201000D03*
X147174000Y-73701000D03*
X147174000Y-73201000D03*
X147174000Y-72701000D03*
X147174000Y-72201000D03*
X147174000Y-71701000D03*
X147174000Y-71201000D03*
X147174000Y-70701000D03*
X147174000Y-70201000D03*
D47*
X145249000Y-68276000D03*
X144749000Y-68276000D03*
X144249000Y-68276000D03*
X143749000Y-68276000D03*
X143249000Y-68276000D03*
X142749000Y-68276000D03*
X142249000Y-68276000D03*
X141749000Y-68276000D03*
X141249000Y-68276000D03*
X140749000Y-68276000D03*
X140249000Y-68276000D03*
X139749000Y-68276000D03*
X139249000Y-68276000D03*
X138749000Y-68276000D03*
X138249000Y-68276000D03*
X137749000Y-68276000D03*
%TD*%
D21*
%TO.C,FID1*%
X124079000Y-61468000D03*
%TD*%
D24*
%TO.C,C13*%
X148844000Y-70203000D03*
X148844000Y-69243000D03*
%TD*%
M02*
