M48
; DRILL file {KiCad 9.0.1} date 2025-04-10T15:19:30-0400
; FORMAT={-:-/ absolute / metric / decimal}
; #@! TF.CreationDate,2025-04-10T15:19:30-04:00
; #@! TF.GenerationSoftware,Kicad,Pcbnew,9.0.1
; #@! TF.FileFunction,Plated,1,2,PTH
FMAT,2
METRIC
; #@! TA.AperFunction,Plated,PTH,ViaDrill
T1C0.300
; #@! TA.AperFunction,Plated,PTH,ComponentDrill
T2C0.500
; #@! TA.AperFunction,Plated,PTH,ComponentDrill
T3C0.600
; #@! TA.AperFunction,Plated,PTH,ComponentDrill
T4C0.750
; #@! TA.AperFunction,Plated,PTH,ComponentDrill
T5C1.600
; #@! TA.AperFunction,Plated,PTH,ComponentDrill
T6C3.200
%
G90
G05
T1
X121.031Y-76.581
X121.793Y-78.359
X125.73Y-64.77
X125.73Y-81.915
X126.746Y-59.817
X126.746Y-72.771
X127.508Y-77.978
X127.762Y-73.749
X127.762Y-76.327
X128.666Y-61.616
X129.159Y-68.326
X130.683Y-71.247
X131.064Y-84.074
X131.445Y-70.739
X131.572Y-75.565
X131.713Y-72.907
X132.116Y-61.616
X132.116Y-65.316
X133.477Y-74.422
X134.112Y-71.755
X134.874Y-66.548
X136.017Y-82.931
X136.017Y-85.06
X137.27Y-75.201
X137.287Y-74.041
X137.922Y-74.549
X138.249Y-69.596
X138.303Y-82.423
X140.208Y-60.071
X140.208Y-65.468
X141.605Y-65.278
X141.859Y-82.296
X142.494Y-64.643
X142.748Y-73.279
X143.094Y-65.405
X143.383Y-62.738
X143.383Y-63.5
X143.606Y-54.64
X143.637Y-77.343
X144.249Y-78.255
X144.749Y-77.343
X144.849Y-64.643
X144.907Y-63.5
X145.288Y-78.232
X145.415Y-65.405
X146.05Y-80.391
X146.685Y-82.296
X147.955Y-69.215
X148.844Y-70.993
X148.844Y-75.819
X150.241Y-75.311
X151.271Y-58.914
X153.67Y-71.948
X154.559Y-62.865
X154.655Y-54.64
X159.517Y-70.612
X159.517Y-73.215
X160.464Y-69.215
X160.464Y-74.545
T2
X117.996Y-57.15
X117.996Y-84.836
X118.699Y-55.453
X118.699Y-58.847
X118.699Y-83.139
X118.699Y-86.533
X120.396Y-54.75
X120.396Y-59.55
X120.396Y-82.436
X120.396Y-87.236
X122.093Y-55.453
X122.093Y-58.847
X122.093Y-83.139
X122.093Y-86.533
X122.796Y-57.15
X122.796Y-84.836
X158.128Y-57.15
X158.128Y-84.836
X158.831Y-55.453
X158.831Y-58.847
X158.831Y-83.139
X158.831Y-86.533
X160.528Y-54.75
X160.528Y-59.55
X160.528Y-82.436
X160.528Y-87.236
X162.225Y-55.453
X162.225Y-58.847
X162.225Y-83.139
X162.225Y-86.533
X162.928Y-57.15
X162.928Y-84.836
T4
X121.031Y-70.12
X121.031Y-72.12
T5
X121.031Y-64.389
X149.606Y-84.328
X153.797Y-80.137
X153.797Y-84.328
T6
X120.396Y-57.15
X120.396Y-84.836
X160.528Y-57.15
X160.528Y-84.836
T3
G00X158.281Y-67.613
M15
G01X159.381Y-67.613
M16
G05
G00X158.281Y-76.253
M15
G01X159.381Y-76.253
M16
G05
G00X162.611Y-67.613
M15
G01X163.411Y-67.613
M16
G05
G00X162.611Y-76.253
M15
G01X163.411Y-76.253
M16
G05
M30
