%TF.GenerationSoftware,KiCad,Pcbnew,8.0.8*%
%TF.CreationDate,2025-02-11T16:16:20-05:00*%
%TF.ProjectId,IMU,494d552e-6b69-4636-9164-5f7063625858,rev?*%
%TF.SameCoordinates,Original*%
%TF.FileFunction,Legend,Top*%
%TF.FilePolarity,Positive*%
%FSLAX46Y46*%
G04 Gerber Fmt 4.6, Leading zero omitted, Abs format (unit mm)*
G04 Created by KiCad (PCBNEW 8.0.8) date 2025-02-11 16:16:20*
%MOMM*%
%LPD*%
G01*
G04 APERTURE LIST*
%ADD10C,0.200000*%
%ADD11C,0.150000*%
%ADD12C,0.120000*%
G04 APERTURE END LIST*
D10*
X131629762Y-88406275D02*
X131629762Y-87406275D01*
X132105952Y-88406275D02*
X132105952Y-87406275D01*
X132105952Y-87406275D02*
X132439285Y-88120560D01*
X132439285Y-88120560D02*
X132772618Y-87406275D01*
X132772618Y-87406275D02*
X132772618Y-88406275D01*
X133248809Y-87406275D02*
X133248809Y-88215798D01*
X133248809Y-88215798D02*
X133296428Y-88311036D01*
X133296428Y-88311036D02*
X133344047Y-88358656D01*
X133344047Y-88358656D02*
X133439285Y-88406275D01*
X133439285Y-88406275D02*
X133629761Y-88406275D01*
X133629761Y-88406275D02*
X133724999Y-88358656D01*
X133724999Y-88358656D02*
X133772618Y-88311036D01*
X133772618Y-88311036D02*
X133820237Y-88215798D01*
X133820237Y-88215798D02*
X133820237Y-87406275D01*
X131129761Y-90016219D02*
X130796428Y-89540028D01*
X130558333Y-90016219D02*
X130558333Y-89016219D01*
X130558333Y-89016219D02*
X130939285Y-89016219D01*
X130939285Y-89016219D02*
X131034523Y-89063838D01*
X131034523Y-89063838D02*
X131082142Y-89111457D01*
X131082142Y-89111457D02*
X131129761Y-89206695D01*
X131129761Y-89206695D02*
X131129761Y-89349552D01*
X131129761Y-89349552D02*
X131082142Y-89444790D01*
X131082142Y-89444790D02*
X131034523Y-89492409D01*
X131034523Y-89492409D02*
X130939285Y-89540028D01*
X130939285Y-89540028D02*
X130558333Y-89540028D01*
X131939285Y-89968600D02*
X131844047Y-90016219D01*
X131844047Y-90016219D02*
X131653571Y-90016219D01*
X131653571Y-90016219D02*
X131558333Y-89968600D01*
X131558333Y-89968600D02*
X131510714Y-89873361D01*
X131510714Y-89873361D02*
X131510714Y-89492409D01*
X131510714Y-89492409D02*
X131558333Y-89397171D01*
X131558333Y-89397171D02*
X131653571Y-89349552D01*
X131653571Y-89349552D02*
X131844047Y-89349552D01*
X131844047Y-89349552D02*
X131939285Y-89397171D01*
X131939285Y-89397171D02*
X131986904Y-89492409D01*
X131986904Y-89492409D02*
X131986904Y-89587647D01*
X131986904Y-89587647D02*
X131510714Y-89682885D01*
X132320238Y-89349552D02*
X132558333Y-90016219D01*
X132558333Y-90016219D02*
X132796428Y-89349552D01*
X133177381Y-89920980D02*
X133225000Y-89968600D01*
X133225000Y-89968600D02*
X133177381Y-90016219D01*
X133177381Y-90016219D02*
X133129762Y-89968600D01*
X133129762Y-89968600D02*
X133177381Y-89920980D01*
X133177381Y-89920980D02*
X133177381Y-90016219D01*
X134939285Y-90016219D02*
X134367857Y-90016219D01*
X134653571Y-90016219D02*
X134653571Y-89016219D01*
X134653571Y-89016219D02*
X134558333Y-89159076D01*
X134558333Y-89159076D02*
X134463095Y-89254314D01*
X134463095Y-89254314D02*
X134367857Y-89301933D01*
D11*
X141418666Y-88162819D02*
X141418666Y-88877104D01*
X141418666Y-88877104D02*
X141371047Y-89019961D01*
X141371047Y-89019961D02*
X141275809Y-89115200D01*
X141275809Y-89115200D02*
X141132952Y-89162819D01*
X141132952Y-89162819D02*
X141037714Y-89162819D01*
X142418666Y-89162819D02*
X141847238Y-89162819D01*
X142132952Y-89162819D02*
X142132952Y-88162819D01*
X142132952Y-88162819D02*
X142037714Y-88305676D01*
X142037714Y-88305676D02*
X141942476Y-88400914D01*
X141942476Y-88400914D02*
X141847238Y-88448533D01*
X129672080Y-101258666D02*
X129719700Y-101306285D01*
X129719700Y-101306285D02*
X129767319Y-101449142D01*
X129767319Y-101449142D02*
X129767319Y-101544380D01*
X129767319Y-101544380D02*
X129719700Y-101687237D01*
X129719700Y-101687237D02*
X129624461Y-101782475D01*
X129624461Y-101782475D02*
X129529223Y-101830094D01*
X129529223Y-101830094D02*
X129338747Y-101877713D01*
X129338747Y-101877713D02*
X129195890Y-101877713D01*
X129195890Y-101877713D02*
X129005414Y-101830094D01*
X129005414Y-101830094D02*
X128910176Y-101782475D01*
X128910176Y-101782475D02*
X128814938Y-101687237D01*
X128814938Y-101687237D02*
X128767319Y-101544380D01*
X128767319Y-101544380D02*
X128767319Y-101449142D01*
X128767319Y-101449142D02*
X128814938Y-101306285D01*
X128814938Y-101306285D02*
X128862557Y-101258666D01*
X128862557Y-100877713D02*
X128814938Y-100830094D01*
X128814938Y-100830094D02*
X128767319Y-100734856D01*
X128767319Y-100734856D02*
X128767319Y-100496761D01*
X128767319Y-100496761D02*
X128814938Y-100401523D01*
X128814938Y-100401523D02*
X128862557Y-100353904D01*
X128862557Y-100353904D02*
X128957795Y-100306285D01*
X128957795Y-100306285D02*
X129053033Y-100306285D01*
X129053033Y-100306285D02*
X129195890Y-100353904D01*
X129195890Y-100353904D02*
X129767319Y-100925332D01*
X129767319Y-100925332D02*
X129767319Y-100306285D01*
X131852595Y-103118819D02*
X131852595Y-103928342D01*
X131852595Y-103928342D02*
X131900214Y-104023580D01*
X131900214Y-104023580D02*
X131947833Y-104071200D01*
X131947833Y-104071200D02*
X132043071Y-104118819D01*
X132043071Y-104118819D02*
X132233547Y-104118819D01*
X132233547Y-104118819D02*
X132328785Y-104071200D01*
X132328785Y-104071200D02*
X132376404Y-104023580D01*
X132376404Y-104023580D02*
X132424023Y-103928342D01*
X132424023Y-103928342D02*
X132424023Y-103118819D01*
X132852595Y-103214057D02*
X132900214Y-103166438D01*
X132900214Y-103166438D02*
X132995452Y-103118819D01*
X132995452Y-103118819D02*
X133233547Y-103118819D01*
X133233547Y-103118819D02*
X133328785Y-103166438D01*
X133328785Y-103166438D02*
X133376404Y-103214057D01*
X133376404Y-103214057D02*
X133424023Y-103309295D01*
X133424023Y-103309295D02*
X133424023Y-103404533D01*
X133424023Y-103404533D02*
X133376404Y-103547390D01*
X133376404Y-103547390D02*
X132804976Y-104118819D01*
X132804976Y-104118819D02*
X133424023Y-104118819D01*
X134479833Y-94941580D02*
X134432214Y-94989200D01*
X134432214Y-94989200D02*
X134289357Y-95036819D01*
X134289357Y-95036819D02*
X134194119Y-95036819D01*
X134194119Y-95036819D02*
X134051262Y-94989200D01*
X134051262Y-94989200D02*
X133956024Y-94893961D01*
X133956024Y-94893961D02*
X133908405Y-94798723D01*
X133908405Y-94798723D02*
X133860786Y-94608247D01*
X133860786Y-94608247D02*
X133860786Y-94465390D01*
X133860786Y-94465390D02*
X133908405Y-94274914D01*
X133908405Y-94274914D02*
X133956024Y-94179676D01*
X133956024Y-94179676D02*
X134051262Y-94084438D01*
X134051262Y-94084438D02*
X134194119Y-94036819D01*
X134194119Y-94036819D02*
X134289357Y-94036819D01*
X134289357Y-94036819D02*
X134432214Y-94084438D01*
X134432214Y-94084438D02*
X134479833Y-94132057D01*
X135432214Y-95036819D02*
X134860786Y-95036819D01*
X135146500Y-95036819D02*
X135146500Y-94036819D01*
X135146500Y-94036819D02*
X135051262Y-94179676D01*
X135051262Y-94179676D02*
X134956024Y-94274914D01*
X134956024Y-94274914D02*
X134860786Y-94322533D01*
X129820595Y-97327819D02*
X129820595Y-98137342D01*
X129820595Y-98137342D02*
X129868214Y-98232580D01*
X129868214Y-98232580D02*
X129915833Y-98280200D01*
X129915833Y-98280200D02*
X130011071Y-98327819D01*
X130011071Y-98327819D02*
X130201547Y-98327819D01*
X130201547Y-98327819D02*
X130296785Y-98280200D01*
X130296785Y-98280200D02*
X130344404Y-98232580D01*
X130344404Y-98232580D02*
X130392023Y-98137342D01*
X130392023Y-98137342D02*
X130392023Y-97327819D01*
X131392023Y-98327819D02*
X130820595Y-98327819D01*
X131106309Y-98327819D02*
X131106309Y-97327819D01*
X131106309Y-97327819D02*
X131011071Y-97470676D01*
X131011071Y-97470676D02*
X130915833Y-97565914D01*
X130915833Y-97565914D02*
X130820595Y-97613533D01*
X133727833Y-97608580D02*
X133680214Y-97656200D01*
X133680214Y-97656200D02*
X133537357Y-97703819D01*
X133537357Y-97703819D02*
X133442119Y-97703819D01*
X133442119Y-97703819D02*
X133299262Y-97656200D01*
X133299262Y-97656200D02*
X133204024Y-97560961D01*
X133204024Y-97560961D02*
X133156405Y-97465723D01*
X133156405Y-97465723D02*
X133108786Y-97275247D01*
X133108786Y-97275247D02*
X133108786Y-97132390D01*
X133108786Y-97132390D02*
X133156405Y-96941914D01*
X133156405Y-96941914D02*
X133204024Y-96846676D01*
X133204024Y-96846676D02*
X133299262Y-96751438D01*
X133299262Y-96751438D02*
X133442119Y-96703819D01*
X133442119Y-96703819D02*
X133537357Y-96703819D01*
X133537357Y-96703819D02*
X133680214Y-96751438D01*
X133680214Y-96751438D02*
X133727833Y-96799057D01*
X134061167Y-96703819D02*
X134680214Y-96703819D01*
X134680214Y-96703819D02*
X134346881Y-97084771D01*
X134346881Y-97084771D02*
X134489738Y-97084771D01*
X134489738Y-97084771D02*
X134584976Y-97132390D01*
X134584976Y-97132390D02*
X134632595Y-97180009D01*
X134632595Y-97180009D02*
X134680214Y-97275247D01*
X134680214Y-97275247D02*
X134680214Y-97513342D01*
X134680214Y-97513342D02*
X134632595Y-97608580D01*
X134632595Y-97608580D02*
X134584976Y-97656200D01*
X134584976Y-97656200D02*
X134489738Y-97703819D01*
X134489738Y-97703819D02*
X134204024Y-97703819D01*
X134204024Y-97703819D02*
X134108786Y-97656200D01*
X134108786Y-97656200D02*
X134061167Y-97608580D01*
X123628666Y-88162819D02*
X123628666Y-88877104D01*
X123628666Y-88877104D02*
X123581047Y-89019961D01*
X123581047Y-89019961D02*
X123485809Y-89115200D01*
X123485809Y-89115200D02*
X123342952Y-89162819D01*
X123342952Y-89162819D02*
X123247714Y-89162819D01*
X124057238Y-88258057D02*
X124104857Y-88210438D01*
X124104857Y-88210438D02*
X124200095Y-88162819D01*
X124200095Y-88162819D02*
X124438190Y-88162819D01*
X124438190Y-88162819D02*
X124533428Y-88210438D01*
X124533428Y-88210438D02*
X124581047Y-88258057D01*
X124581047Y-88258057D02*
X124628666Y-88353295D01*
X124628666Y-88353295D02*
X124628666Y-88448533D01*
X124628666Y-88448533D02*
X124581047Y-88591390D01*
X124581047Y-88591390D02*
X124009619Y-89162819D01*
X124009619Y-89162819D02*
X124628666Y-89162819D01*
D12*
%TO.C,J1*%
X140422000Y-89708000D02*
X141752000Y-89708000D01*
X140422000Y-91038000D02*
X140422000Y-89708000D01*
X140422000Y-92308000D02*
X140422000Y-105068000D01*
X140422000Y-92308000D02*
X143082000Y-92308000D01*
X140422000Y-105068000D02*
X143082000Y-105068000D01*
X143082000Y-92308000D02*
X143082000Y-105068000D01*
%TO.C,C2*%
X128377500Y-98607000D02*
X128377500Y-102692000D01*
X130247500Y-98607000D02*
X128377500Y-98607000D01*
X130247500Y-102692000D02*
X130247500Y-98607000D01*
%TO.C,U2*%
X131004500Y-100104000D02*
X131004500Y-100279000D01*
X131004500Y-102824000D02*
X131004500Y-102649000D01*
X131679500Y-100104000D02*
X131004500Y-100104000D01*
X131679500Y-102824000D02*
X131004500Y-102824000D01*
X133549500Y-100104000D02*
X134224500Y-100104000D01*
X133549500Y-102824000D02*
X133924500Y-102824000D01*
X134224500Y-100104000D02*
X134224500Y-100279000D01*
X134364500Y-103014000D02*
X134084500Y-103014000D01*
X134224500Y-102824000D01*
X134364500Y-103014000D01*
G36*
X134364500Y-103014000D02*
G01*
X134084500Y-103014000D01*
X134224500Y-102824000D01*
X134364500Y-103014000D01*
G37*
%TO.C,C1*%
X134500233Y-95502000D02*
X134792767Y-95502000D01*
X134500233Y-96522000D02*
X134792767Y-96522000D01*
%TO.C,U1*%
X128932500Y-91623000D02*
X129432500Y-91623000D01*
X128932500Y-92123000D02*
X128932500Y-91623000D01*
X128932500Y-96823000D02*
X128932500Y-96323000D01*
X129432500Y-96823000D02*
X128932500Y-96823000D01*
X131732500Y-91623000D02*
X132232500Y-91623000D01*
X131932500Y-96823000D02*
X131182500Y-96823000D01*
X132232500Y-91623000D02*
X132232500Y-92123000D01*
X132132500Y-97183000D02*
X132132500Y-96823000D01*
X132492500Y-96823000D01*
X132132500Y-97183000D01*
G36*
X132132500Y-97183000D02*
G01*
X132132500Y-96823000D01*
X132492500Y-96823000D01*
X132132500Y-97183000D01*
G37*
%TO.C,C3*%
X133748233Y-98169000D02*
X134040767Y-98169000D01*
X133748233Y-99189000D02*
X134040767Y-99189000D01*
%TO.C,J2*%
X122632000Y-89708000D02*
X123962000Y-89708000D01*
X122632000Y-91038000D02*
X122632000Y-89708000D01*
X122632000Y-92308000D02*
X122632000Y-105068000D01*
X122632000Y-92308000D02*
X125292000Y-92308000D01*
X122632000Y-105068000D02*
X125292000Y-105068000D01*
X125292000Y-92308000D02*
X125292000Y-105068000D01*
%TD*%
M02*
