M48
; DRILL file {KiCad 8.0.8} date 2025-02-11T16:16:27-0500
; FORMAT={-:-/ absolute / inch / decimal}
; #@! TF.CreationDate,2025-02-11T16:16:27-05:00
; #@! TF.GenerationSoftware,Kicad,Pcbnew,8.0.8
; #@! TF.FileFunction,Plated,1,2,PTH
FMAT,2
INCH
; #@! TA.AperFunction,Plated,PTH,ViaDrill
T1C0.0118
; #@! TA.AperFunction,Plated,PTH,ComponentDrill
T2C0.0394
%
G90
G05
T1
X5.0414Y-3.6357
X5.091Y-4.1
X5.201Y-3.92
X5.201Y-4.085
X5.221Y-3.985
X5.2314Y-3.6357
X5.2314Y-3.685
X5.2314Y-3.7342
X5.281Y-3.6842
X5.281Y-4.065
X5.281Y-4.1
X5.31Y-3.924
X5.316Y-3.99
X5.335Y-3.819
X5.361Y-3.8842
X5.4004Y-4.0242
X5.401Y-3.7842
T2
X4.8804Y-3.5842
X4.8804Y-3.6842
X4.8804Y-3.7842
X4.8804Y-3.8842
X4.8804Y-3.9842
X4.8804Y-4.0842
X5.5808Y-3.5842
X5.5808Y-3.6842
X5.5808Y-3.7842
X5.5808Y-3.8842
X5.5808Y-3.9842
X5.5808Y-4.0842
M30
