%TF.GenerationSoftware,KiCad,Pcbnew,8.0.8*%
%TF.CreationDate,2025-02-11T16:16:20-05:00*%
%TF.ProjectId,IMU,494d552e-6b69-4636-9164-5f7063625858,rev?*%
%TF.SameCoordinates,Original*%
%TF.FileFunction,Copper,L1,Top*%
%TF.FilePolarity,Positive*%
%FSLAX46Y46*%
G04 Gerber Fmt 4.6, Leading zero omitted, Abs format (unit mm)*
G04 Created by KiCad (PCBNEW 8.0.8) date 2025-02-11 16:16:20*
%MOMM*%
%LPD*%
G01*
G04 APERTURE LIST*
G04 Aperture macros list*
%AMRoundRect*
0 Rectangle with rounded corners*
0 $1 Rounding radius*
0 $2 $3 $4 $5 $6 $7 $8 $9 X,Y pos of 4 corners*
0 Add a 4 corners polygon primitive as box body*
4,1,4,$2,$3,$4,$5,$6,$7,$8,$9,$2,$3,0*
0 Add four circle primitives for the rounded corners*
1,1,$1+$1,$2,$3*
1,1,$1+$1,$4,$5*
1,1,$1+$1,$6,$7*
1,1,$1+$1,$8,$9*
0 Add four rect primitives between the rounded corners*
20,1,$1+$1,$2,$3,$4,$5,0*
20,1,$1+$1,$4,$5,$6,$7,0*
20,1,$1+$1,$6,$7,$8,$9,0*
20,1,$1+$1,$8,$9,$2,$3,0*%
G04 Aperture macros list end*
%TA.AperFunction,SMDPad,CuDef*%
%ADD10C,1.000000*%
%TD*%
%TA.AperFunction,ComponentPad*%
%ADD11R,1.700000X1.700000*%
%TD*%
%TA.AperFunction,ComponentPad*%
%ADD12O,1.700000X1.700000*%
%TD*%
%TA.AperFunction,SMDPad,CuDef*%
%ADD13RoundRect,0.250000X-0.425000X0.537500X-0.425000X-0.537500X0.425000X-0.537500X0.425000X0.537500X0*%
%TD*%
%TA.AperFunction,SMDPad,CuDef*%
%ADD14RoundRect,0.087500X0.225000X0.087500X-0.225000X0.087500X-0.225000X-0.087500X0.225000X-0.087500X0*%
%TD*%
%TA.AperFunction,SMDPad,CuDef*%
%ADD15RoundRect,0.087500X0.087500X0.225000X-0.087500X0.225000X-0.087500X-0.225000X0.087500X-0.225000X0*%
%TD*%
%TA.AperFunction,SMDPad,CuDef*%
%ADD16RoundRect,0.237500X-0.300000X-0.237500X0.300000X-0.237500X0.300000X0.237500X-0.300000X0.237500X0*%
%TD*%
%TA.AperFunction,SMDPad,CuDef*%
%ADD17R,0.950000X0.550000*%
%TD*%
%TA.AperFunction,ViaPad*%
%ADD18C,0.600000*%
%TD*%
%TA.AperFunction,Conductor*%
%ADD19C,0.200000*%
%TD*%
%TA.AperFunction,Conductor*%
%ADD20C,0.355600*%
%TD*%
G04 APERTURE END LIST*
D10*
%TO.P,FID1,*%
%TO.N,*%
X138694000Y-102976000D03*
%TD*%
%TO.P,FID2,*%
%TO.N,*%
X136027000Y-91673000D03*
%TD*%
D11*
%TO.P,J1,1,Pin_1*%
%TO.N,+3.3V*%
X141752000Y-91038000D03*
D12*
%TO.P,J1,2,Pin_2*%
%TO.N,/sensors/imu_miso*%
X141752000Y-93578000D03*
%TO.P,J1,3,Pin_3*%
%TO.N,/sensors/imu_mosi*%
X141752000Y-96118000D03*
%TO.P,J1,4,Pin_4*%
%TO.N,/sensors/imu_sclk*%
X141752000Y-98658000D03*
%TO.P,J1,5,Pin_5*%
%TO.N,/sensors/imu_int1*%
X141752000Y-101198000D03*
%TO.P,J1,6,Pin_6*%
%TO.N,GNDD*%
X141752000Y-103738000D03*
%TD*%
D13*
%TO.P,C2,1*%
%TO.N,+3.3V*%
X129312500Y-99654500D03*
%TO.P,C2,2*%
%TO.N,GNDD*%
X129312500Y-102529500D03*
%TD*%
D14*
%TO.P,U2,1,SDO/SA0*%
%TO.N,/sensors/imu_mosi*%
X133777000Y-102214000D03*
%TO.P,U2,2,SDX*%
%TO.N,GNDD*%
X133777000Y-101714000D03*
%TO.P,U2,3,SCX*%
X133777000Y-101214000D03*
%TO.P,U2,4,INT1*%
%TO.N,/sensors/imu_int1*%
X133777000Y-100714000D03*
D15*
%TO.P,U2,5,VDDIO*%
%TO.N,+3.3V*%
X133114500Y-100551500D03*
%TO.P,U2,6,GND*%
%TO.N,GNDD*%
X132614500Y-100551500D03*
%TO.P,U2,7,GND*%
X132114500Y-100551500D03*
D14*
%TO.P,U2,8,VDD*%
%TO.N,+3.3V*%
X131452000Y-100714000D03*
%TO.P,U2,9,INT2*%
%TO.N,/sensors/imu_int2*%
X131452000Y-101214000D03*
%TO.P,U2,10,NC*%
%TO.N,unconnected-(U2-NC-Pad10)*%
X131452000Y-101714000D03*
%TO.P,U2,11,NC*%
%TO.N,unconnected-(U2-NC-Pad11)*%
X131452000Y-102214000D03*
D15*
%TO.P,U2,12,CS*%
%TO.N,GNDD*%
X132114500Y-102376500D03*
%TO.P,U2,13,SCL*%
%TO.N,/sensors/imu_sclk*%
X132614500Y-102376500D03*
%TO.P,U2,14,SDA*%
%TO.N,/sensors/imu_miso*%
X133114500Y-102376500D03*
%TD*%
D10*
%TO.P,FID3,*%
%TO.N,*%
X127137000Y-98658000D03*
%TD*%
D16*
%TO.P,C1,1*%
%TO.N,+3.3V*%
X133784000Y-96012000D03*
%TO.P,C1,2*%
%TO.N,GNDD*%
X135509000Y-96012000D03*
%TD*%
D17*
%TO.P,U1,1,VDD*%
%TO.N,+3.3V*%
X131657500Y-96098000D03*
%TO.P,U1,2,PS*%
%TO.N,GNDD*%
X131657500Y-94848000D03*
%TO.P,U1,3,GND*%
X131657500Y-93598000D03*
%TO.P,U1,4,CSB*%
X131657500Y-92348000D03*
%TO.P,U1,5,CSB*%
X129507500Y-92348000D03*
%TO.P,U1,6,SDO*%
%TO.N,/sensors/pres_miso*%
X129507500Y-93598000D03*
%TO.P,U1,7,SDI/SDA*%
%TO.N,/sensors/pres_mosi*%
X129507500Y-94848000D03*
%TO.P,U1,8,SCLK*%
%TO.N,/sensors/pres_sclk*%
X129507500Y-96098000D03*
%TD*%
D16*
%TO.P,C3,1*%
%TO.N,+3.3V*%
X133032000Y-98679000D03*
%TO.P,C3,2*%
%TO.N,GNDD*%
X134757000Y-98679000D03*
%TD*%
D11*
%TO.P,J2,1,Pin_1*%
%TO.N,+3.3V*%
X123962000Y-91038000D03*
D12*
%TO.P,J2,2,Pin_2*%
%TO.N,/sensors/pres_miso*%
X123962000Y-93578000D03*
%TO.P,J2,3,Pin_3*%
%TO.N,/sensors/pres_mosi*%
X123962000Y-96118000D03*
%TO.P,J2,4,Pin_4*%
%TO.N,/sensors/pres_sclk*%
X123962000Y-98658000D03*
%TO.P,J2,5,Pin_5*%
%TO.N,/sensors/imu_int2*%
X123962000Y-101198000D03*
%TO.P,J2,6,Pin_6*%
%TO.N,GNDD*%
X123962000Y-103738000D03*
%TD*%
D18*
%TO.N,GNDD*%
X132106500Y-103759000D03*
X134874000Y-99668500D03*
X129312500Y-104140000D03*
X132106500Y-99568000D03*
X132878500Y-92348000D03*
X132878500Y-94848000D03*
X132878500Y-93598000D03*
X135509000Y-97001500D03*
X128052500Y-92348000D03*
X132614500Y-101219000D03*
X135027500Y-101346000D03*
%TO.N,/sensors/imu_miso*%
X134138500Y-103251000D03*
X134138500Y-93578000D03*
%TO.N,/sensors/imu_sclk*%
X136170500Y-98658000D03*
X134138500Y-104140000D03*
%TO.N,/sensors/imu_mosi*%
X137170000Y-102214000D03*
X137186500Y-96118000D03*
%TD*%
D19*
%TO.N,+3.3V*%
X131687500Y-96012000D02*
X131657500Y-95982000D01*
D20*
X131657500Y-96098000D02*
X133698000Y-96098000D01*
D19*
X133698000Y-96098000D02*
X133784000Y-96012000D01*
X133114500Y-98713500D02*
X133149000Y-98679000D01*
D20*
X131452000Y-100056500D02*
X131050000Y-99654500D01*
X131452000Y-100596000D02*
X131452000Y-100056500D01*
X133114500Y-100433500D02*
X133114500Y-98713500D01*
X131050000Y-99654500D02*
X129312500Y-99654500D01*
D19*
%TO.N,GNDD*%
X133777000Y-101214000D02*
X134895500Y-101214000D01*
X132965500Y-92348000D02*
X133005500Y-92308000D01*
X134895500Y-101214000D02*
X135027500Y-101346000D01*
X132114500Y-100433500D02*
X132114500Y-99576000D01*
X133777000Y-101596000D02*
X132991500Y-101596000D01*
X132878500Y-92348000D02*
X132965500Y-92348000D01*
X132991500Y-101596000D02*
X132614500Y-101219000D01*
X132114500Y-102258500D02*
X132114500Y-103751000D01*
X132106500Y-103759000D02*
X132114500Y-103751000D01*
D20*
X131657500Y-93598000D02*
X132878500Y-93598000D01*
D19*
X132114500Y-99576000D02*
X132106500Y-99568000D01*
D20*
X131657500Y-94848000D02*
X132878500Y-94848000D01*
X129312500Y-102529500D02*
X129312500Y-104140000D01*
X131657500Y-92348000D02*
X132878500Y-92348000D01*
D19*
X132614500Y-100433500D02*
X132614500Y-101219000D01*
D20*
X129507500Y-92348000D02*
X128052500Y-92348000D01*
X135509000Y-96012000D02*
X135509000Y-97001500D01*
X134874000Y-99668500D02*
X134874000Y-98679000D01*
D19*
%TO.N,/sensors/pres_miso*%
X129507500Y-93598000D02*
X129487500Y-93578000D01*
X123962000Y-93472000D02*
X124216000Y-93472000D01*
X129487500Y-93578000D02*
X123962000Y-93578000D01*
X124216000Y-93472000D02*
X124226000Y-93482000D01*
%TO.N,/sensors/imu_int1*%
X137800500Y-101198000D02*
X137316500Y-100714000D01*
X141752000Y-101198000D02*
X137800500Y-101198000D01*
X137316500Y-100714000D02*
X133777000Y-100714000D01*
%TO.N,/sensors/imu_int2*%
X123978000Y-101214000D02*
X123962000Y-101198000D01*
X123966000Y-101096000D02*
X123962000Y-101092000D01*
X130165500Y-101214000D02*
X123978000Y-101214000D01*
%TO.N,/sensors/imu_miso*%
X133376500Y-103251000D02*
X134138500Y-103251000D01*
X133114500Y-102258500D02*
X133114500Y-102989000D01*
X134138500Y-93578000D02*
X141752000Y-93578000D01*
X133114500Y-102989000D02*
X133376500Y-103251000D01*
%TO.N,/sensors/pres_sclk*%
X124136750Y-98552000D02*
X123962000Y-98552000D01*
X129507500Y-96098000D02*
X126590750Y-96098000D01*
X126590750Y-96098000D02*
X124136750Y-98552000D01*
%TO.N,/sensors/imu_sclk*%
X133503500Y-104140000D02*
X134138500Y-104140000D01*
X132614500Y-103251000D02*
X133249500Y-103886000D01*
X136170500Y-98658000D02*
X141752000Y-98658000D01*
X133249500Y-103886000D02*
X133503500Y-104140000D01*
X132614500Y-102258500D02*
X132614500Y-103251000D01*
%TO.N,/sensors/imu_mosi*%
X137186500Y-96118000D02*
X141752000Y-96118000D01*
X137056500Y-102214000D02*
X137170000Y-102214000D01*
X133777000Y-102214000D02*
X137056500Y-102214000D01*
%TO.N,/sensors/pres_mosi*%
X123962000Y-96118000D02*
X125232000Y-94848000D01*
X125232000Y-94848000D02*
X129507500Y-94848000D01*
%TD*%
%TA.AperFunction,Conductor*%
%TO.N,+3.3V*%
G36*
X140529948Y-94198185D02*
G01*
X140575292Y-94250097D01*
X140577965Y-94255830D01*
X140710445Y-94445031D01*
X140713501Y-94449395D01*
X140713506Y-94449402D01*
X140880597Y-94616493D01*
X140880603Y-94616498D01*
X141066158Y-94746425D01*
X141109783Y-94801002D01*
X141116977Y-94870500D01*
X141085454Y-94932855D01*
X141066158Y-94949575D01*
X140880597Y-95079505D01*
X140713506Y-95246596D01*
X140577965Y-95440170D01*
X140577962Y-95440175D01*
X140575289Y-95445909D01*
X140529115Y-95498346D01*
X140462909Y-95517500D01*
X137768912Y-95517500D01*
X137701873Y-95497815D01*
X137691597Y-95490445D01*
X137688763Y-95488185D01*
X137688762Y-95488184D01*
X137570023Y-95413575D01*
X137536023Y-95392211D01*
X137365754Y-95332631D01*
X137365749Y-95332630D01*
X137186504Y-95312435D01*
X137186496Y-95312435D01*
X137007250Y-95332630D01*
X137007245Y-95332631D01*
X136836976Y-95392211D01*
X136684237Y-95488184D01*
X136680618Y-95491803D01*
X136619293Y-95525285D01*
X136549602Y-95520296D01*
X136493671Y-95478422D01*
X136486501Y-95466444D01*
X136486199Y-95466631D01*
X136482408Y-95460485D01*
X136482408Y-95460484D01*
X136391840Y-95313650D01*
X136269850Y-95191660D01*
X136178629Y-95135395D01*
X136123018Y-95101093D01*
X136123013Y-95101091D01*
X136121569Y-95100612D01*
X135959253Y-95046826D01*
X135959251Y-95046825D01*
X135858178Y-95036500D01*
X135159830Y-95036500D01*
X135159812Y-95036501D01*
X135058747Y-95046825D01*
X134894984Y-95101092D01*
X134894981Y-95101093D01*
X134748148Y-95191661D01*
X134733825Y-95205984D01*
X134672501Y-95239468D01*
X134602809Y-95234482D01*
X134558465Y-95205982D01*
X134544538Y-95192055D01*
X134544534Y-95192052D01*
X134397811Y-95101551D01*
X134397800Y-95101546D01*
X134234152Y-95047319D01*
X134133154Y-95037000D01*
X134034000Y-95037000D01*
X134034000Y-96986999D01*
X134133140Y-96986999D01*
X134133154Y-96986998D01*
X134234152Y-96976680D01*
X134397800Y-96922453D01*
X134397807Y-96922450D01*
X134518989Y-96847703D01*
X134586381Y-96829262D01*
X134653045Y-96850184D01*
X134697815Y-96903825D01*
X134707308Y-96967122D01*
X134705069Y-96986998D01*
X134703436Y-97001496D01*
X134703435Y-97001501D01*
X134703435Y-97001503D01*
X134723630Y-97180749D01*
X134723631Y-97180754D01*
X134783211Y-97351023D01*
X134882889Y-97509658D01*
X134881368Y-97510613D01*
X134904337Y-97566878D01*
X134891578Y-97635573D01*
X134843706Y-97686465D01*
X134780981Y-97703500D01*
X134407830Y-97703500D01*
X134407812Y-97703501D01*
X134306747Y-97713825D01*
X134142984Y-97768092D01*
X134142981Y-97768093D01*
X133996148Y-97858661D01*
X133981825Y-97872984D01*
X133920501Y-97906468D01*
X133850809Y-97901482D01*
X133806465Y-97872982D01*
X133792538Y-97859055D01*
X133792534Y-97859052D01*
X133645811Y-97768551D01*
X133645800Y-97768546D01*
X133482152Y-97714319D01*
X133381154Y-97704000D01*
X133282000Y-97704000D01*
X133282000Y-99632958D01*
X133286666Y-99641504D01*
X133289500Y-99667862D01*
X133289500Y-99784699D01*
X133269815Y-99851738D01*
X133217011Y-99897493D01*
X133147853Y-99907437D01*
X133090014Y-99883075D01*
X132998538Y-99812883D01*
X132975772Y-99803453D01*
X132921370Y-99759610D01*
X132899307Y-99693316D01*
X132900008Y-99675009D01*
X132912065Y-99568002D01*
X132912065Y-99567996D01*
X132891869Y-99388750D01*
X132891866Y-99388737D01*
X132832290Y-99218479D01*
X132801006Y-99168690D01*
X132782000Y-99102719D01*
X132782000Y-98929000D01*
X132629870Y-98929000D01*
X132563898Y-98909994D01*
X132456023Y-98842211D01*
X132285754Y-98782631D01*
X132285749Y-98782630D01*
X132106504Y-98762435D01*
X132106496Y-98762435D01*
X131927250Y-98782630D01*
X131927245Y-98782631D01*
X131756976Y-98842211D01*
X131604237Y-98938184D01*
X131476684Y-99065737D01*
X131380711Y-99218476D01*
X131321131Y-99388745D01*
X131321130Y-99388750D01*
X131300935Y-99567996D01*
X131300935Y-99568003D01*
X131321130Y-99747249D01*
X131321133Y-99747262D01*
X131365497Y-99874045D01*
X131369059Y-99943824D01*
X131334331Y-100004451D01*
X131272337Y-100036679D01*
X131248458Y-100039000D01*
X131188487Y-100039000D01*
X131073640Y-100054118D01*
X131073628Y-100054122D01*
X130930719Y-100113316D01*
X130930713Y-100113319D01*
X130807990Y-100207489D01*
X130807989Y-100207490D01*
X130708871Y-100336663D01*
X130706212Y-100334623D01*
X130666832Y-100372101D01*
X130598212Y-100385258D01*
X130533372Y-100359228D01*
X130492898Y-100302275D01*
X130486760Y-100249222D01*
X130487499Y-100241990D01*
X130487500Y-100241973D01*
X130487500Y-99904500D01*
X128137501Y-99904500D01*
X128137501Y-100241986D01*
X128147993Y-100344695D01*
X128183053Y-100450495D01*
X128185455Y-100520324D01*
X128149723Y-100580366D01*
X128087203Y-100611559D01*
X128065347Y-100613500D01*
X125258552Y-100613500D01*
X125191513Y-100593815D01*
X125146171Y-100541907D01*
X125136036Y-100520173D01*
X125136034Y-100520170D01*
X125136033Y-100520169D01*
X125023342Y-100359228D01*
X125000494Y-100326597D01*
X124833402Y-100159506D01*
X124833396Y-100159501D01*
X124647842Y-100029575D01*
X124604217Y-99974998D01*
X124597023Y-99905500D01*
X124628546Y-99843145D01*
X124647842Y-99826425D01*
X124718214Y-99777150D01*
X124833401Y-99696495D01*
X125000495Y-99529401D01*
X125136035Y-99335830D01*
X125235903Y-99121663D01*
X125297063Y-98893408D01*
X125317659Y-98658000D01*
X126131659Y-98658000D01*
X126150975Y-98854129D01*
X126208188Y-99042733D01*
X126301086Y-99216532D01*
X126301090Y-99216539D01*
X126426116Y-99368883D01*
X126578460Y-99493909D01*
X126578467Y-99493913D01*
X126752266Y-99586811D01*
X126752269Y-99586811D01*
X126752273Y-99586814D01*
X126940868Y-99644024D01*
X127137000Y-99663341D01*
X127333132Y-99644024D01*
X127521727Y-99586814D01*
X127556926Y-99568000D01*
X127695532Y-99493913D01*
X127695538Y-99493910D01*
X127847883Y-99368883D01*
X127917647Y-99283876D01*
X127975392Y-99244542D01*
X128045237Y-99242671D01*
X128105005Y-99278859D01*
X128135721Y-99341614D01*
X128137500Y-99362541D01*
X128137500Y-99404500D01*
X129062500Y-99404500D01*
X129562500Y-99404500D01*
X130487499Y-99404500D01*
X130487499Y-99067028D01*
X130487498Y-99067013D01*
X130477005Y-98964302D01*
X130421858Y-98797880D01*
X130421856Y-98797875D01*
X130329815Y-98648654D01*
X130205845Y-98524684D01*
X130056624Y-98432643D01*
X130056619Y-98432641D01*
X129935014Y-98392345D01*
X131994500Y-98392345D01*
X131994500Y-98429000D01*
X132782000Y-98429000D01*
X132782000Y-97703999D01*
X132682860Y-97704000D01*
X132682844Y-97704001D01*
X132581847Y-97714319D01*
X132418199Y-97768546D01*
X132418188Y-97768551D01*
X132271465Y-97859052D01*
X132271461Y-97859055D01*
X132149555Y-97980961D01*
X132149552Y-97980965D01*
X132059051Y-98127688D01*
X132059046Y-98127699D01*
X132004819Y-98291347D01*
X131994500Y-98392345D01*
X129935014Y-98392345D01*
X129890197Y-98377494D01*
X129890190Y-98377493D01*
X129787486Y-98367000D01*
X129562500Y-98367000D01*
X129562500Y-99404500D01*
X129062500Y-99404500D01*
X129062500Y-98367000D01*
X128837529Y-98367000D01*
X128837512Y-98367001D01*
X128734802Y-98377494D01*
X128568380Y-98432641D01*
X128568375Y-98432643D01*
X128419157Y-98524682D01*
X128340593Y-98603246D01*
X128279269Y-98636730D01*
X128209578Y-98631746D01*
X128153644Y-98589874D01*
X128129509Y-98527717D01*
X128129210Y-98524684D01*
X128123024Y-98461868D01*
X128065814Y-98273273D01*
X128065811Y-98273269D01*
X128065811Y-98273266D01*
X127972913Y-98099467D01*
X127972909Y-98099460D01*
X127847883Y-97947116D01*
X127695539Y-97822090D01*
X127695532Y-97822086D01*
X127521733Y-97729188D01*
X127521727Y-97729186D01*
X127333132Y-97671976D01*
X127333129Y-97671975D01*
X127137000Y-97652659D01*
X126940870Y-97671975D01*
X126752266Y-97729188D01*
X126578467Y-97822086D01*
X126578460Y-97822090D01*
X126426116Y-97947116D01*
X126301090Y-98099460D01*
X126301086Y-98099467D01*
X126208188Y-98273266D01*
X126150975Y-98461870D01*
X126131659Y-98658000D01*
X125317659Y-98658000D01*
X125297063Y-98422592D01*
X125277200Y-98348463D01*
X125278863Y-98278614D01*
X125309292Y-98228691D01*
X126803166Y-96734819D01*
X126864489Y-96701334D01*
X126890847Y-96698500D01*
X128591546Y-96698500D01*
X128658585Y-96718185D01*
X128667657Y-96725495D01*
X128667855Y-96725232D01*
X128790164Y-96816793D01*
X128790171Y-96816797D01*
X128925017Y-96867091D01*
X128925016Y-96867091D01*
X128931944Y-96867835D01*
X128984627Y-96873500D01*
X130030372Y-96873499D01*
X130089983Y-96867091D01*
X130224831Y-96816796D01*
X130340046Y-96730546D01*
X130426296Y-96615331D01*
X130426388Y-96615086D01*
X130466584Y-96507313D01*
X130508454Y-96451379D01*
X130573919Y-96426961D01*
X130642192Y-96441812D01*
X130691598Y-96491217D01*
X130698948Y-96507312D01*
X130739145Y-96615086D01*
X130739149Y-96615093D01*
X130825309Y-96730187D01*
X130825312Y-96730190D01*
X130940406Y-96816350D01*
X130940413Y-96816354D01*
X131075120Y-96866596D01*
X131075127Y-96866598D01*
X131134655Y-96872999D01*
X131134672Y-96873000D01*
X131407500Y-96873000D01*
X131407500Y-96348000D01*
X131907500Y-96348000D01*
X131907500Y-96873000D01*
X132180328Y-96873000D01*
X132180344Y-96872999D01*
X132239872Y-96866598D01*
X132239879Y-96866596D01*
X132374586Y-96816354D01*
X132374593Y-96816350D01*
X132489687Y-96730190D01*
X132489690Y-96730187D01*
X132575850Y-96615093D01*
X132575853Y-96615088D01*
X132587907Y-96582769D01*
X132629778Y-96526834D01*
X132695241Y-96502416D01*
X132763515Y-96517267D01*
X132809628Y-96561003D01*
X132901552Y-96710034D01*
X132901555Y-96710038D01*
X133023461Y-96831944D01*
X133023465Y-96831947D01*
X133170188Y-96922448D01*
X133170199Y-96922453D01*
X133333847Y-96976680D01*
X133434851Y-96986999D01*
X133534000Y-96986998D01*
X133534000Y-96262000D01*
X132762500Y-96262000D01*
X132746703Y-96277796D01*
X132742815Y-96291039D01*
X132690011Y-96336794D01*
X132638500Y-96348000D01*
X131907500Y-96348000D01*
X131407500Y-96348000D01*
X131407500Y-96222000D01*
X131427185Y-96154961D01*
X131479989Y-96109206D01*
X131531500Y-96098000D01*
X131657500Y-96098000D01*
X131657500Y-95972000D01*
X131677185Y-95904961D01*
X131729989Y-95859206D01*
X131781500Y-95848000D01*
X132616500Y-95848000D01*
X132632296Y-95832203D01*
X132636185Y-95818961D01*
X132688989Y-95773206D01*
X132740500Y-95762000D01*
X133534000Y-95762000D01*
X133534000Y-95345110D01*
X133553007Y-95279138D01*
X133604287Y-95197526D01*
X133604287Y-95197524D01*
X133604289Y-95197522D01*
X133663868Y-95027255D01*
X133663869Y-95027249D01*
X133684065Y-94848003D01*
X133684065Y-94847996D01*
X133663869Y-94668750D01*
X133663868Y-94668745D01*
X133604288Y-94498475D01*
X133570706Y-94445031D01*
X133551705Y-94377794D01*
X133572072Y-94310959D01*
X133625340Y-94265745D01*
X133694596Y-94256506D01*
X133741671Y-94274065D01*
X133788973Y-94303787D01*
X133788977Y-94303788D01*
X133788978Y-94303789D01*
X133959245Y-94363368D01*
X133959250Y-94363369D01*
X134138496Y-94383565D01*
X134138500Y-94383565D01*
X134138504Y-94383565D01*
X134317749Y-94363369D01*
X134317752Y-94363368D01*
X134317755Y-94363368D01*
X134488022Y-94303789D01*
X134640762Y-94207816D01*
X134640767Y-94207810D01*
X134643597Y-94205555D01*
X134645775Y-94204665D01*
X134646658Y-94204111D01*
X134646755Y-94204265D01*
X134708283Y-94179145D01*
X134720912Y-94178500D01*
X140462909Y-94178500D01*
X140529948Y-94198185D01*
G37*
%TD.AperFunction*%
%TA.AperFunction,Conductor*%
G36*
X142286425Y-86458814D02*
G01*
X142486568Y-86473130D01*
X142504072Y-86475647D01*
X142695803Y-86517356D01*
X142712761Y-86522335D01*
X142896620Y-86590912D01*
X142912700Y-86598256D01*
X143070304Y-86684315D01*
X143084909Y-86692290D01*
X143099793Y-86701855D01*
X143256866Y-86819439D01*
X143270237Y-86831025D01*
X143408981Y-86969770D01*
X143420566Y-86983141D01*
X143538146Y-87140210D01*
X143547711Y-87155093D01*
X143641744Y-87327301D01*
X143649094Y-87343395D01*
X143717662Y-87527235D01*
X143722646Y-87544210D01*
X143764352Y-87735932D01*
X143766870Y-87753443D01*
X143770683Y-87806746D01*
X143776785Y-87892069D01*
X143781195Y-87953715D01*
X143781511Y-87962562D01*
X143781511Y-106813572D01*
X143781195Y-106822419D01*
X143766880Y-107022558D01*
X143764362Y-107040068D01*
X143722657Y-107231788D01*
X143717673Y-107248765D01*
X143649100Y-107432614D01*
X143641751Y-107448705D01*
X143547719Y-107620913D01*
X143538157Y-107635793D01*
X143420574Y-107792865D01*
X143408989Y-107806235D01*
X143270244Y-107944981D01*
X143256873Y-107956567D01*
X143099801Y-108074150D01*
X143084918Y-108083715D01*
X142912709Y-108177750D01*
X142896614Y-108185100D01*
X142712773Y-108253669D01*
X142695799Y-108258653D01*
X142504076Y-108300361D01*
X142486564Y-108302879D01*
X142286580Y-108317184D01*
X142277733Y-108317500D01*
X123426428Y-108317500D01*
X123417582Y-108317184D01*
X123395622Y-108315613D01*
X123217442Y-108302869D01*
X123199931Y-108300351D01*
X123008212Y-108258646D01*
X122991236Y-108253662D01*
X122807390Y-108185090D01*
X122791298Y-108177740D01*
X122619095Y-108083711D01*
X122604210Y-108074146D01*
X122447132Y-107956558D01*
X122433762Y-107944972D01*
X122295027Y-107806237D01*
X122283441Y-107792867D01*
X122283440Y-107792865D01*
X122165849Y-107635784D01*
X122156288Y-107620904D01*
X122062259Y-107448701D01*
X122054909Y-107432609D01*
X121986334Y-107248755D01*
X121981355Y-107231797D01*
X121939647Y-107040063D01*
X121937130Y-107022561D01*
X121922816Y-106822418D01*
X121922500Y-106813572D01*
X121922500Y-93577999D01*
X122606341Y-93577999D01*
X122606341Y-93578000D01*
X122626936Y-93813403D01*
X122626938Y-93813413D01*
X122688094Y-94041655D01*
X122688096Y-94041659D01*
X122688097Y-94041663D01*
X122784081Y-94247500D01*
X122787965Y-94255830D01*
X122787967Y-94255834D01*
X122923501Y-94449395D01*
X122923506Y-94449402D01*
X123090597Y-94616493D01*
X123090603Y-94616498D01*
X123276158Y-94746425D01*
X123319783Y-94801002D01*
X123326977Y-94870500D01*
X123295454Y-94932855D01*
X123276158Y-94949575D01*
X123090597Y-95079505D01*
X122923505Y-95246597D01*
X122787965Y-95440169D01*
X122787964Y-95440171D01*
X122688098Y-95654335D01*
X122688094Y-95654344D01*
X122626938Y-95882586D01*
X122626936Y-95882596D01*
X122606341Y-96117999D01*
X122606341Y-96118000D01*
X122626936Y-96353403D01*
X122626938Y-96353413D01*
X122688094Y-96581655D01*
X122688096Y-96581659D01*
X122688097Y-96581663D01*
X122757523Y-96730547D01*
X122787965Y-96795830D01*
X122787967Y-96795834D01*
X122863584Y-96903825D01*
X122921822Y-96986998D01*
X122923501Y-96989395D01*
X122923506Y-96989402D01*
X123090597Y-97156493D01*
X123090603Y-97156498D01*
X123276158Y-97286425D01*
X123319783Y-97341002D01*
X123326977Y-97410500D01*
X123295454Y-97472855D01*
X123276158Y-97489575D01*
X123090597Y-97619505D01*
X122923505Y-97786597D01*
X122787965Y-97980169D01*
X122787964Y-97980171D01*
X122688098Y-98194335D01*
X122688094Y-98194344D01*
X122626938Y-98422586D01*
X122626936Y-98422596D01*
X122606341Y-98657999D01*
X122606341Y-98658000D01*
X122626936Y-98893403D01*
X122626938Y-98893413D01*
X122688094Y-99121655D01*
X122688096Y-99121659D01*
X122688097Y-99121663D01*
X122763848Y-99284111D01*
X122787965Y-99335830D01*
X122787967Y-99335834D01*
X122923501Y-99529395D01*
X122923506Y-99529402D01*
X123090597Y-99696493D01*
X123090603Y-99696498D01*
X123276158Y-99826425D01*
X123319783Y-99881002D01*
X123326977Y-99950500D01*
X123295454Y-100012855D01*
X123276158Y-100029575D01*
X123090597Y-100159505D01*
X122923505Y-100326597D01*
X122787965Y-100520169D01*
X122787964Y-100520171D01*
X122688098Y-100734335D01*
X122688094Y-100734344D01*
X122626938Y-100962586D01*
X122626936Y-100962596D01*
X122606341Y-101197999D01*
X122606341Y-101198000D01*
X122626936Y-101433403D01*
X122626938Y-101433413D01*
X122688094Y-101661655D01*
X122688096Y-101661659D01*
X122688097Y-101661663D01*
X122785293Y-101870099D01*
X122787965Y-101875830D01*
X122787967Y-101875834D01*
X122923501Y-102069395D01*
X122923506Y-102069402D01*
X123090597Y-102236493D01*
X123090603Y-102236498D01*
X123276158Y-102366425D01*
X123319783Y-102421002D01*
X123326977Y-102490500D01*
X123295454Y-102552855D01*
X123276158Y-102569575D01*
X123090597Y-102699505D01*
X122923505Y-102866597D01*
X122787965Y-103060169D01*
X122787964Y-103060171D01*
X122688098Y-103274335D01*
X122688094Y-103274344D01*
X122626938Y-103502586D01*
X122626936Y-103502596D01*
X122606341Y-103737999D01*
X122606341Y-103738000D01*
X122626936Y-103973403D01*
X122626938Y-103973413D01*
X122688094Y-104201655D01*
X122688096Y-104201659D01*
X122688097Y-104201663D01*
X122742931Y-104319254D01*
X122787965Y-104415830D01*
X122787967Y-104415834D01*
X122877968Y-104544368D01*
X122923505Y-104609401D01*
X123090599Y-104776495D01*
X123187384Y-104844265D01*
X123284165Y-104912032D01*
X123284167Y-104912033D01*
X123284170Y-104912035D01*
X123498337Y-105011903D01*
X123726592Y-105073063D01*
X123914918Y-105089539D01*
X123961999Y-105093659D01*
X123962000Y-105093659D01*
X123962001Y-105093659D01*
X124001234Y-105090226D01*
X124197408Y-105073063D01*
X124425663Y-105011903D01*
X124639830Y-104912035D01*
X124833401Y-104776495D01*
X125000495Y-104609401D01*
X125136035Y-104415830D01*
X125235903Y-104201663D01*
X125297063Y-103973408D01*
X125317659Y-103738000D01*
X125297063Y-103502592D01*
X125235903Y-103274337D01*
X125136035Y-103060171D01*
X125122049Y-103040196D01*
X125000494Y-102866597D01*
X124833402Y-102699506D01*
X124833396Y-102699501D01*
X124647842Y-102569575D01*
X124604217Y-102514998D01*
X124597023Y-102445500D01*
X124628546Y-102383145D01*
X124647842Y-102366425D01*
X124670026Y-102350891D01*
X124833401Y-102236495D01*
X125000495Y-102069401D01*
X125113170Y-101908484D01*
X125139140Y-101871396D01*
X125140214Y-101872148D01*
X125186207Y-101828288D01*
X125243035Y-101814500D01*
X128013017Y-101814500D01*
X128080056Y-101834185D01*
X128125811Y-101886989D01*
X128135717Y-101938834D01*
X128137000Y-101938834D01*
X128137000Y-103117001D01*
X128137001Y-103117018D01*
X128147500Y-103219796D01*
X128147501Y-103219799D01*
X128202685Y-103386331D01*
X128202687Y-103386336D01*
X128237569Y-103442888D01*
X128294788Y-103535656D01*
X128418844Y-103659712D01*
X128476866Y-103695500D01*
X128509661Y-103715728D01*
X128556385Y-103767676D01*
X128567608Y-103836639D01*
X128561606Y-103862221D01*
X128527132Y-103960742D01*
X128527130Y-103960750D01*
X128506935Y-104139996D01*
X128506935Y-104140003D01*
X128527130Y-104319249D01*
X128527131Y-104319254D01*
X128586711Y-104489523D01*
X128669023Y-104620521D01*
X128682684Y-104642262D01*
X128810238Y-104769816D01*
X128962978Y-104865789D01*
X129133245Y-104925368D01*
X129133250Y-104925369D01*
X129312496Y-104945565D01*
X129312500Y-104945565D01*
X129312504Y-104945565D01*
X129491749Y-104925369D01*
X129491752Y-104925368D01*
X129491755Y-104925368D01*
X129662022Y-104865789D01*
X129814762Y-104769816D01*
X129942316Y-104642262D01*
X130038289Y-104489522D01*
X130097868Y-104319255D01*
X130097869Y-104319249D01*
X130118065Y-104140003D01*
X130118065Y-104139996D01*
X130097869Y-103960750D01*
X130097868Y-103960745D01*
X130063393Y-103862221D01*
X130059832Y-103792442D01*
X130094561Y-103731814D01*
X130115332Y-103715732D01*
X130206156Y-103659712D01*
X130330212Y-103535656D01*
X130422314Y-103386334D01*
X130477499Y-103219797D01*
X130488000Y-103117009D01*
X130487999Y-102669601D01*
X130507683Y-102602565D01*
X130560487Y-102556810D01*
X130629646Y-102546866D01*
X130693202Y-102575891D01*
X130710375Y-102594117D01*
X130713383Y-102598037D01*
X130791241Y-102699505D01*
X130807634Y-102720868D01*
X130930463Y-102815117D01*
X130930462Y-102815117D01*
X130976497Y-102834185D01*
X131073501Y-102874365D01*
X131188460Y-102889500D01*
X131390000Y-102889500D01*
X131457039Y-102909185D01*
X131502794Y-102961989D01*
X131514000Y-103013500D01*
X131514000Y-103168060D01*
X131494315Y-103235099D01*
X131477681Y-103255741D01*
X131476684Y-103256737D01*
X131380711Y-103409476D01*
X131321131Y-103579745D01*
X131321130Y-103579750D01*
X131300935Y-103758996D01*
X131300935Y-103759003D01*
X131321130Y-103938249D01*
X131321131Y-103938254D01*
X131380711Y-104108523D01*
X131476684Y-104261262D01*
X131604238Y-104388816D01*
X131756978Y-104484789D01*
X131927245Y-104544368D01*
X131927250Y-104544369D01*
X132106496Y-104564565D01*
X132106500Y-104564565D01*
X132106504Y-104564565D01*
X132285749Y-104544369D01*
X132285752Y-104544368D01*
X132285755Y-104544368D01*
X132456022Y-104484789D01*
X132608762Y-104388816D01*
X132668240Y-104329338D01*
X132729563Y-104295853D01*
X132799255Y-104300837D01*
X132843602Y-104329338D01*
X132887849Y-104373585D01*
X132887855Y-104373590D01*
X133018639Y-104504374D01*
X133018649Y-104504385D01*
X133022979Y-104508715D01*
X133022980Y-104508716D01*
X133134784Y-104620520D01*
X133134786Y-104620521D01*
X133134790Y-104620524D01*
X133215064Y-104666870D01*
X133215065Y-104666870D01*
X133271715Y-104699577D01*
X133424442Y-104740500D01*
X133424443Y-104740500D01*
X133556088Y-104740500D01*
X133623127Y-104760185D01*
X133633403Y-104767555D01*
X133636236Y-104769814D01*
X133636238Y-104769816D01*
X133788978Y-104865789D01*
X133959245Y-104925368D01*
X133959250Y-104925369D01*
X134138496Y-104945565D01*
X134138500Y-104945565D01*
X134138504Y-104945565D01*
X134317749Y-104925369D01*
X134317752Y-104925368D01*
X134317755Y-104925368D01*
X134488022Y-104865789D01*
X134640762Y-104769816D01*
X134768316Y-104642262D01*
X134864289Y-104489522D01*
X134923868Y-104319255D01*
X134923869Y-104319249D01*
X134944065Y-104140003D01*
X134944065Y-104139996D01*
X134923869Y-103960750D01*
X134923868Y-103960745D01*
X134864288Y-103790475D01*
X134846064Y-103761473D01*
X134827063Y-103694237D01*
X134846064Y-103629527D01*
X134864288Y-103600524D01*
X134886986Y-103535657D01*
X134923868Y-103430255D01*
X134926209Y-103409478D01*
X134944065Y-103251003D01*
X134944065Y-103250996D01*
X134923869Y-103071750D01*
X134923866Y-103071737D01*
X134891575Y-102979455D01*
X134888013Y-102909676D01*
X134922741Y-102849049D01*
X134984735Y-102816821D01*
X135008616Y-102814500D01*
X136587588Y-102814500D01*
X136654627Y-102834185D01*
X136664903Y-102841555D01*
X136667736Y-102843814D01*
X136667738Y-102843816D01*
X136781270Y-102915152D01*
X136816817Y-102937489D01*
X136820478Y-102939789D01*
X136883922Y-102961989D01*
X136990745Y-102999368D01*
X136990750Y-102999369D01*
X137169996Y-103019565D01*
X137170000Y-103019565D01*
X137170004Y-103019565D01*
X137349249Y-102999369D01*
X137349252Y-102999368D01*
X137349255Y-102999368D01*
X137519522Y-102939789D01*
X137519522Y-102939788D01*
X137526095Y-102937489D01*
X137526681Y-102939165D01*
X137586708Y-102929277D01*
X137650845Y-102956994D01*
X137689815Y-103014986D01*
X137694981Y-103040196D01*
X137707975Y-103172129D01*
X137707976Y-103172132D01*
X137731900Y-103251000D01*
X137765188Y-103360733D01*
X137858086Y-103534532D01*
X137858090Y-103534539D01*
X137983116Y-103686883D01*
X138135460Y-103811909D01*
X138135467Y-103811913D01*
X138309266Y-103904811D01*
X138309269Y-103904811D01*
X138309273Y-103904814D01*
X138497868Y-103962024D01*
X138694000Y-103981341D01*
X138890132Y-103962024D01*
X139078727Y-103904814D01*
X139252538Y-103811910D01*
X139404883Y-103686883D01*
X139529910Y-103534538D01*
X139576362Y-103447632D01*
X139622811Y-103360733D01*
X139622811Y-103360732D01*
X139622814Y-103360727D01*
X139680024Y-103172132D01*
X139699341Y-102976000D01*
X139680024Y-102779868D01*
X139622814Y-102591273D01*
X139622811Y-102591269D01*
X139622811Y-102591266D01*
X139529913Y-102417467D01*
X139529909Y-102417460D01*
X139404883Y-102265116D01*
X139252539Y-102140090D01*
X139252532Y-102140086D01*
X139078728Y-102047186D01*
X139058863Y-102041160D01*
X139000425Y-102002863D01*
X138971968Y-101939050D01*
X138982529Y-101869983D01*
X139028754Y-101817590D01*
X139094859Y-101798500D01*
X140462909Y-101798500D01*
X140529948Y-101818185D01*
X140575292Y-101870097D01*
X140577965Y-101875830D01*
X140697950Y-102047186D01*
X140713501Y-102069395D01*
X140713506Y-102069402D01*
X140880597Y-102236493D01*
X140880603Y-102236498D01*
X141066158Y-102366425D01*
X141109783Y-102421002D01*
X141116977Y-102490500D01*
X141085454Y-102552855D01*
X141066158Y-102569575D01*
X140880597Y-102699505D01*
X140713505Y-102866597D01*
X140577965Y-103060169D01*
X140577964Y-103060171D01*
X140478098Y-103274335D01*
X140478094Y-103274344D01*
X140416938Y-103502586D01*
X140416936Y-103502596D01*
X140396341Y-103737999D01*
X140396341Y-103738000D01*
X140416936Y-103973403D01*
X140416938Y-103973413D01*
X140478094Y-104201655D01*
X140478096Y-104201659D01*
X140478097Y-104201663D01*
X140532931Y-104319254D01*
X140577965Y-104415830D01*
X140577967Y-104415834D01*
X140667968Y-104544368D01*
X140713505Y-104609401D01*
X140880599Y-104776495D01*
X140977384Y-104844265D01*
X141074165Y-104912032D01*
X141074167Y-104912033D01*
X141074170Y-104912035D01*
X141288337Y-105011903D01*
X141516592Y-105073063D01*
X141704918Y-105089539D01*
X141751999Y-105093659D01*
X141752000Y-105093659D01*
X141752001Y-105093659D01*
X141791234Y-105090226D01*
X141987408Y-105073063D01*
X142215663Y-105011903D01*
X142429830Y-104912035D01*
X142623401Y-104776495D01*
X142790495Y-104609401D01*
X142926035Y-104415830D01*
X143025903Y-104201663D01*
X143087063Y-103973408D01*
X143107659Y-103738000D01*
X143087063Y-103502592D01*
X143025903Y-103274337D01*
X142926035Y-103060171D01*
X142912049Y-103040196D01*
X142790494Y-102866597D01*
X142623402Y-102699506D01*
X142623396Y-102699501D01*
X142437842Y-102569575D01*
X142394217Y-102514998D01*
X142387023Y-102445500D01*
X142418546Y-102383145D01*
X142437842Y-102366425D01*
X142460026Y-102350891D01*
X142623401Y-102236495D01*
X142790495Y-102069401D01*
X142926035Y-101875830D01*
X143025903Y-101661663D01*
X143087063Y-101433408D01*
X143107659Y-101198000D01*
X143087063Y-100962592D01*
X143025903Y-100734337D01*
X142926035Y-100520171D01*
X142926034Y-100520169D01*
X142790494Y-100326597D01*
X142623402Y-100159506D01*
X142623396Y-100159501D01*
X142437842Y-100029575D01*
X142394217Y-99974998D01*
X142387023Y-99905500D01*
X142418546Y-99843145D01*
X142437842Y-99826425D01*
X142508214Y-99777150D01*
X142623401Y-99696495D01*
X142790495Y-99529401D01*
X142926035Y-99335830D01*
X143025903Y-99121663D01*
X143087063Y-98893408D01*
X143107659Y-98658000D01*
X143087063Y-98422592D01*
X143040626Y-98249285D01*
X143025905Y-98194344D01*
X143025904Y-98194343D01*
X143025903Y-98194337D01*
X142926035Y-97980171D01*
X142926034Y-97980169D01*
X142790494Y-97786597D01*
X142623402Y-97619506D01*
X142623396Y-97619501D01*
X142437842Y-97489575D01*
X142394217Y-97434998D01*
X142387023Y-97365500D01*
X142418546Y-97303145D01*
X142437842Y-97286425D01*
X142588754Y-97180755D01*
X142623401Y-97156495D01*
X142790495Y-96989401D01*
X142926035Y-96795830D01*
X143025903Y-96581663D01*
X143087063Y-96353408D01*
X143107659Y-96118000D01*
X143087063Y-95882592D01*
X143025903Y-95654337D01*
X142926035Y-95440171D01*
X142926034Y-95440169D01*
X142790494Y-95246597D01*
X142623402Y-95079506D01*
X142623396Y-95079501D01*
X142437842Y-94949575D01*
X142394217Y-94894998D01*
X142387023Y-94825500D01*
X142418546Y-94763145D01*
X142437842Y-94746425D01*
X142548780Y-94668745D01*
X142623401Y-94616495D01*
X142790495Y-94449401D01*
X142926035Y-94255830D01*
X143025903Y-94041663D01*
X143087063Y-93813408D01*
X143107659Y-93578000D01*
X143087063Y-93342592D01*
X143025903Y-93114337D01*
X142926035Y-92900171D01*
X142926034Y-92900169D01*
X142790496Y-92706600D01*
X142742920Y-92659024D01*
X142668179Y-92584283D01*
X142634696Y-92522963D01*
X142639680Y-92453271D01*
X142681551Y-92397337D01*
X142712529Y-92380422D01*
X142844086Y-92331354D01*
X142844093Y-92331350D01*
X142959187Y-92245190D01*
X142959190Y-92245187D01*
X143045350Y-92130093D01*
X143045354Y-92130086D01*
X143095596Y-91995379D01*
X143095598Y-91995372D01*
X143101999Y-91935844D01*
X143102000Y-91935827D01*
X143102000Y-91288000D01*
X142185012Y-91288000D01*
X142217925Y-91230993D01*
X142252000Y-91103826D01*
X142252000Y-90972174D01*
X142217925Y-90845007D01*
X142185012Y-90788000D01*
X143102000Y-90788000D01*
X143102000Y-90140172D01*
X143101999Y-90140155D01*
X143095598Y-90080627D01*
X143095596Y-90080620D01*
X143045354Y-89945913D01*
X143045350Y-89945906D01*
X142959190Y-89830812D01*
X142959187Y-89830809D01*
X142844093Y-89744649D01*
X142844086Y-89744645D01*
X142709379Y-89694403D01*
X142709372Y-89694401D01*
X142649844Y-89688000D01*
X142002000Y-89688000D01*
X142002000Y-90604988D01*
X141944993Y-90572075D01*
X141817826Y-90538000D01*
X141686174Y-90538000D01*
X141559007Y-90572075D01*
X141502000Y-90604988D01*
X141502000Y-89688000D01*
X140854155Y-89688000D01*
X140794627Y-89694401D01*
X140794620Y-89694403D01*
X140659913Y-89744645D01*
X140659906Y-89744649D01*
X140544812Y-89830809D01*
X140544809Y-89830812D01*
X140458649Y-89945906D01*
X140458645Y-89945913D01*
X140408403Y-90080620D01*
X140408401Y-90080627D01*
X140402000Y-90140155D01*
X140402000Y-90788000D01*
X141318988Y-90788000D01*
X141286075Y-90845007D01*
X141252000Y-90972174D01*
X141252000Y-91103826D01*
X141286075Y-91230993D01*
X141318988Y-91288000D01*
X140402000Y-91288000D01*
X140402000Y-91935844D01*
X140408401Y-91995372D01*
X140408403Y-91995379D01*
X140458645Y-92130086D01*
X140458649Y-92130093D01*
X140544809Y-92245187D01*
X140544812Y-92245190D01*
X140659906Y-92331350D01*
X140659913Y-92331354D01*
X140791470Y-92380421D01*
X140847403Y-92422292D01*
X140871821Y-92487756D01*
X140856970Y-92556029D01*
X140835819Y-92584284D01*
X140713503Y-92706600D01*
X140577965Y-92900170D01*
X140577962Y-92900175D01*
X140575289Y-92905909D01*
X140529115Y-92958346D01*
X140462909Y-92977500D01*
X134720912Y-92977500D01*
X134653873Y-92957815D01*
X134643597Y-92950445D01*
X134640763Y-92948185D01*
X134640762Y-92948184D01*
X134525454Y-92875731D01*
X134488023Y-92852211D01*
X134317754Y-92792631D01*
X134317749Y-92792630D01*
X134138504Y-92772435D01*
X134138496Y-92772435D01*
X133959250Y-92792630D01*
X133959245Y-92792631D01*
X133788974Y-92852212D01*
X133781776Y-92856735D01*
X133714538Y-92875731D01*
X133647704Y-92855361D01*
X133602493Y-92802091D01*
X133593258Y-92732834D01*
X133602161Y-92704155D01*
X133601989Y-92704095D01*
X133603682Y-92699255D01*
X133604097Y-92697920D01*
X133604284Y-92697528D01*
X133604289Y-92697522D01*
X133663868Y-92527255D01*
X133665935Y-92508909D01*
X133684065Y-92348003D01*
X133684065Y-92347996D01*
X133663869Y-92168750D01*
X133663868Y-92168745D01*
X133604288Y-91998476D01*
X133523015Y-91869132D01*
X133508316Y-91845738D01*
X133380762Y-91718184D01*
X133376414Y-91715452D01*
X133308853Y-91673000D01*
X135021659Y-91673000D01*
X135040975Y-91869129D01*
X135098188Y-92057733D01*
X135191086Y-92231532D01*
X135191090Y-92231539D01*
X135316116Y-92383883D01*
X135468460Y-92508909D01*
X135468467Y-92508913D01*
X135642266Y-92601811D01*
X135642269Y-92601811D01*
X135642273Y-92601814D01*
X135830868Y-92659024D01*
X136027000Y-92678341D01*
X136223132Y-92659024D01*
X136411727Y-92601814D01*
X136444524Y-92584284D01*
X136551228Y-92527249D01*
X136585538Y-92508910D01*
X136737883Y-92383883D01*
X136862910Y-92231538D01*
X136955814Y-92057727D01*
X137013024Y-91869132D01*
X137032341Y-91673000D01*
X137013024Y-91476868D01*
X136955814Y-91288273D01*
X136955811Y-91288269D01*
X136955811Y-91288266D01*
X136862913Y-91114467D01*
X136862909Y-91114460D01*
X136737883Y-90962116D01*
X136585539Y-90837090D01*
X136585532Y-90837086D01*
X136411733Y-90744188D01*
X136411727Y-90744186D01*
X136223132Y-90686976D01*
X136223129Y-90686975D01*
X136027000Y-90667659D01*
X135830870Y-90686975D01*
X135642266Y-90744188D01*
X135468467Y-90837086D01*
X135468460Y-90837090D01*
X135316116Y-90962116D01*
X135191090Y-91114460D01*
X135191086Y-91114467D01*
X135098188Y-91288266D01*
X135040975Y-91476870D01*
X135021659Y-91673000D01*
X133308853Y-91673000D01*
X133228023Y-91622211D01*
X133057754Y-91562631D01*
X133057749Y-91562630D01*
X132878504Y-91542435D01*
X132878496Y-91542435D01*
X132699250Y-91562630D01*
X132699245Y-91562631D01*
X132528973Y-91622212D01*
X132512199Y-91632752D01*
X132444962Y-91651751D01*
X132382943Y-91632849D01*
X132382614Y-91633454D01*
X132379692Y-91631858D01*
X132378128Y-91631382D01*
X132375705Y-91629681D01*
X132374828Y-91629202D01*
X132239982Y-91578908D01*
X132239983Y-91578908D01*
X132180383Y-91572501D01*
X132180381Y-91572500D01*
X132180373Y-91572500D01*
X132180364Y-91572500D01*
X131134629Y-91572500D01*
X131134623Y-91572501D01*
X131075016Y-91578908D01*
X130940171Y-91629202D01*
X130940164Y-91629206D01*
X130824955Y-91715452D01*
X130824952Y-91715455D01*
X130738706Y-91830664D01*
X130738702Y-91830671D01*
X130698682Y-91937972D01*
X130656811Y-91993906D01*
X130591346Y-92018323D01*
X130523073Y-92003471D01*
X130473668Y-91954066D01*
X130466318Y-91937972D01*
X130426297Y-91830671D01*
X130426293Y-91830664D01*
X130340047Y-91715455D01*
X130340044Y-91715452D01*
X130224835Y-91629206D01*
X130224828Y-91629202D01*
X130089982Y-91578908D01*
X130089983Y-91578908D01*
X130030383Y-91572501D01*
X130030381Y-91572500D01*
X130030373Y-91572500D01*
X130030364Y-91572500D01*
X128984629Y-91572500D01*
X128984623Y-91572501D01*
X128925016Y-91578908D01*
X128790171Y-91629202D01*
X128790164Y-91629206D01*
X128769111Y-91644967D01*
X128703647Y-91669384D01*
X128694801Y-91669700D01*
X128513324Y-91669700D01*
X128447351Y-91650693D01*
X128402024Y-91622211D01*
X128231754Y-91562631D01*
X128231749Y-91562630D01*
X128052504Y-91542435D01*
X128052496Y-91542435D01*
X127873250Y-91562630D01*
X127873245Y-91562631D01*
X127702976Y-91622211D01*
X127550237Y-91718184D01*
X127422684Y-91845737D01*
X127326711Y-91998476D01*
X127267131Y-92168745D01*
X127267130Y-92168750D01*
X127246935Y-92347996D01*
X127246935Y-92348003D01*
X127267130Y-92527249D01*
X127267131Y-92527254D01*
X127326711Y-92697524D01*
X127383265Y-92787527D01*
X127402266Y-92854764D01*
X127381899Y-92921599D01*
X127328631Y-92966814D01*
X127278272Y-92977500D01*
X125251091Y-92977500D01*
X125184052Y-92957815D01*
X125138711Y-92905909D01*
X125136037Y-92900175D01*
X125136034Y-92900170D01*
X125136033Y-92900169D01*
X125036505Y-92758027D01*
X125000496Y-92706600D01*
X124952920Y-92659024D01*
X124878179Y-92584283D01*
X124844696Y-92522963D01*
X124849680Y-92453271D01*
X124891551Y-92397337D01*
X124922529Y-92380422D01*
X125054086Y-92331354D01*
X125054093Y-92331350D01*
X125169187Y-92245190D01*
X125169190Y-92245187D01*
X125255350Y-92130093D01*
X125255354Y-92130086D01*
X125305596Y-91995379D01*
X125305598Y-91995372D01*
X125311999Y-91935844D01*
X125312000Y-91935827D01*
X125312000Y-91288000D01*
X124395012Y-91288000D01*
X124427925Y-91230993D01*
X124462000Y-91103826D01*
X124462000Y-90972174D01*
X124427925Y-90845007D01*
X124395012Y-90788000D01*
X125312000Y-90788000D01*
X125312000Y-90140172D01*
X125311999Y-90140155D01*
X125305598Y-90080627D01*
X125305596Y-90080620D01*
X125255354Y-89945913D01*
X125255350Y-89945906D01*
X125169190Y-89830812D01*
X125169187Y-89830809D01*
X125054093Y-89744649D01*
X125054086Y-89744645D01*
X124919379Y-89694403D01*
X124919372Y-89694401D01*
X124859844Y-89688000D01*
X124212000Y-89688000D01*
X124212000Y-90604988D01*
X124154993Y-90572075D01*
X124027826Y-90538000D01*
X123896174Y-90538000D01*
X123769007Y-90572075D01*
X123712000Y-90604988D01*
X123712000Y-89688000D01*
X123064155Y-89688000D01*
X123004627Y-89694401D01*
X123004620Y-89694403D01*
X122869913Y-89744645D01*
X122869906Y-89744649D01*
X122754812Y-89830809D01*
X122754809Y-89830812D01*
X122668649Y-89945906D01*
X122668645Y-89945913D01*
X122618403Y-90080620D01*
X122618401Y-90080627D01*
X122612000Y-90140155D01*
X122612000Y-90788000D01*
X123528988Y-90788000D01*
X123496075Y-90845007D01*
X123462000Y-90972174D01*
X123462000Y-91103826D01*
X123496075Y-91230993D01*
X123528988Y-91288000D01*
X122612000Y-91288000D01*
X122612000Y-91935844D01*
X122618401Y-91995372D01*
X122618403Y-91995379D01*
X122668645Y-92130086D01*
X122668649Y-92130093D01*
X122754809Y-92245187D01*
X122754812Y-92245190D01*
X122869906Y-92331350D01*
X122869913Y-92331354D01*
X123001470Y-92380421D01*
X123057403Y-92422292D01*
X123081821Y-92487756D01*
X123066970Y-92556029D01*
X123045819Y-92584284D01*
X122923503Y-92706600D01*
X122787965Y-92900169D01*
X122787964Y-92900171D01*
X122688098Y-93114335D01*
X122688094Y-93114344D01*
X122626938Y-93342586D01*
X122626936Y-93342596D01*
X122606341Y-93577999D01*
X121922500Y-93577999D01*
X121922500Y-87962426D01*
X121922816Y-87953580D01*
X121937130Y-87753442D01*
X121939648Y-87735932D01*
X121981356Y-87544198D01*
X121986333Y-87527247D01*
X122054913Y-87343379D01*
X122062257Y-87327301D01*
X122156295Y-87155083D01*
X122165855Y-87140210D01*
X122283444Y-86983128D01*
X122295020Y-86969770D01*
X122433770Y-86831019D01*
X122447124Y-86819447D01*
X122604221Y-86701845D01*
X122619092Y-86692290D01*
X122791298Y-86598258D01*
X122807385Y-86590911D01*
X122991248Y-86522333D01*
X123008199Y-86517356D01*
X123199938Y-86475646D01*
X123217436Y-86473130D01*
X123417600Y-86458814D01*
X123426437Y-86458499D01*
X123487892Y-86458499D01*
X142216116Y-86458499D01*
X142277579Y-86458499D01*
X142286425Y-86458814D01*
G37*
%TD.AperFunction*%
%TD*%
M02*
