%TF.GenerationSoftware,KiCad,Pcbnew,8.0.8*%
%TF.CreationDate,2025-02-11T16:16:30-05:00*%
%TF.ProjectId,IMU,494d552e-6b69-4636-9164-5f7063625858,rev?*%
%TF.SameCoordinates,Original*%
%TF.FileFunction,Drillmap*%
%TF.FilePolarity,Positive*%
%FSLAX45Y45*%
G04 Gerber Fmt 4.5, Leading zero omitted, Abs format (unit mm)*
G04 Created by KiCad (PCBNEW 8.0.8) date 2025-02-11 16:16:30*
%MOMM*%
%LPD*%
G01*
G04 APERTURE LIST*
%ADD10C,0.160000*%
%ADD11C,0.200000*%
G04 APERTURE END LIST*
D10*
X12342200Y-10881800D02*
X14228201Y-10881800D01*
X12342200Y-10881800D02*
G75*
G02*
X12142200Y-10681800I0J200000D01*
G01*
X14428201Y-10681800D02*
G75*
G02*
X14228201Y-10881801I-200001J0D01*
G01*
X14428201Y-10681800D02*
X14428201Y-8795800D01*
X14228201Y-8595800D02*
X12342200Y-8595800D01*
X12142200Y-8795800D02*
X12142200Y-10681800D01*
X14228201Y-8595800D02*
G75*
G02*
X14428200Y-8795800I-1J-200000D01*
G01*
X12142200Y-8795800D02*
G75*
G02*
X12342200Y-8595800I200000J0D01*
G01*
D11*
X12394977Y-11201284D02*
X12394977Y-11001284D01*
X12394977Y-11001284D02*
X12442596Y-11001284D01*
X12442596Y-11001284D02*
X12471167Y-11010808D01*
X12471167Y-11010808D02*
X12490215Y-11029855D01*
X12490215Y-11029855D02*
X12499739Y-11048903D01*
X12499739Y-11048903D02*
X12509262Y-11086998D01*
X12509262Y-11086998D02*
X12509262Y-11115570D01*
X12509262Y-11115570D02*
X12499739Y-11153665D01*
X12499739Y-11153665D02*
X12490215Y-11172712D01*
X12490215Y-11172712D02*
X12471167Y-11191760D01*
X12471167Y-11191760D02*
X12442596Y-11201284D01*
X12442596Y-11201284D02*
X12394977Y-11201284D01*
X12594977Y-11201284D02*
X12594977Y-11067950D01*
X12594977Y-11106046D02*
X12604501Y-11086998D01*
X12604501Y-11086998D02*
X12614024Y-11077474D01*
X12614024Y-11077474D02*
X12633072Y-11067950D01*
X12633072Y-11067950D02*
X12652120Y-11067950D01*
X12718786Y-11201284D02*
X12718786Y-11067950D01*
X12718786Y-11001284D02*
X12709262Y-11010808D01*
X12709262Y-11010808D02*
X12718786Y-11020331D01*
X12718786Y-11020331D02*
X12728310Y-11010808D01*
X12728310Y-11010808D02*
X12718786Y-11001284D01*
X12718786Y-11001284D02*
X12718786Y-11020331D01*
X12842596Y-11201284D02*
X12823548Y-11191760D01*
X12823548Y-11191760D02*
X12814024Y-11172712D01*
X12814024Y-11172712D02*
X12814024Y-11001284D01*
X12947358Y-11201284D02*
X12928310Y-11191760D01*
X12928310Y-11191760D02*
X12918786Y-11172712D01*
X12918786Y-11172712D02*
X12918786Y-11001284D01*
X13175929Y-11201284D02*
X13175929Y-11001284D01*
X13175929Y-11001284D02*
X13242596Y-11144141D01*
X13242596Y-11144141D02*
X13309262Y-11001284D01*
X13309262Y-11001284D02*
X13309262Y-11201284D01*
X13490215Y-11201284D02*
X13490215Y-11096522D01*
X13490215Y-11096522D02*
X13480691Y-11077474D01*
X13480691Y-11077474D02*
X13461643Y-11067950D01*
X13461643Y-11067950D02*
X13423548Y-11067950D01*
X13423548Y-11067950D02*
X13404501Y-11077474D01*
X13490215Y-11191760D02*
X13471167Y-11201284D01*
X13471167Y-11201284D02*
X13423548Y-11201284D01*
X13423548Y-11201284D02*
X13404501Y-11191760D01*
X13404501Y-11191760D02*
X13394977Y-11172712D01*
X13394977Y-11172712D02*
X13394977Y-11153665D01*
X13394977Y-11153665D02*
X13404501Y-11134617D01*
X13404501Y-11134617D02*
X13423548Y-11125093D01*
X13423548Y-11125093D02*
X13471167Y-11125093D01*
X13471167Y-11125093D02*
X13490215Y-11115570D01*
X13585453Y-11067950D02*
X13585453Y-11267950D01*
X13585453Y-11077474D02*
X13604501Y-11067950D01*
X13604501Y-11067950D02*
X13642596Y-11067950D01*
X13642596Y-11067950D02*
X13661643Y-11077474D01*
X13661643Y-11077474D02*
X13671167Y-11086998D01*
X13671167Y-11086998D02*
X13680691Y-11106046D01*
X13680691Y-11106046D02*
X13680691Y-11163189D01*
X13680691Y-11163189D02*
X13671167Y-11182236D01*
X13671167Y-11182236D02*
X13661643Y-11191760D01*
X13661643Y-11191760D02*
X13642596Y-11201284D01*
X13642596Y-11201284D02*
X13604501Y-11201284D01*
X13604501Y-11201284D02*
X13585453Y-11191760D01*
X13766405Y-11182236D02*
X13775929Y-11191760D01*
X13775929Y-11191760D02*
X13766405Y-11201284D01*
X13766405Y-11201284D02*
X13756882Y-11191760D01*
X13756882Y-11191760D02*
X13766405Y-11182236D01*
X13766405Y-11182236D02*
X13766405Y-11201284D01*
X13766405Y-11077474D02*
X13775929Y-11086998D01*
X13775929Y-11086998D02*
X13766405Y-11096522D01*
X13766405Y-11096522D02*
X13756882Y-11086998D01*
X13756882Y-11086998D02*
X13766405Y-11077474D01*
X13766405Y-11077474D02*
X13766405Y-11096522D01*
M02*
