M48
; DRILL file {KiCad 9.0.0} date 2025-04-04T04:48:57-0400
; FORMAT={-:-/ absolute / metric / decimal}
; #@! TF.CreationDate,2025-04-04T04:48:57-04:00
; #@! TF.GenerationSoftware,Kicad,Pcbnew,9.0.0
; #@! TF.FileFunction,Plated,1,2,PTH
FMAT,2
METRIC
; #@! TA.AperFunction,Plated,PTH,ViaDrill
T1C0.300
; #@! TA.AperFunction,Plated,PTH,ComponentDrill
T2C1.000
%
G90
G05
T1
X127.097Y-92.348
X129.312Y-104.14
X131.963Y-93.598
X131.963Y-94.848
X132.106Y-99.568
X132.614Y-101.219
X134.138Y-103.251
X134.138Y-104.14
X134.476Y-94.594
X135.138Y-101.314
X135.265Y-97.896
X136.171Y-98.658
X137.17Y-93.578
X137.17Y-102.214
T2
X123.962Y-91.038
X123.962Y-93.578
X123.962Y-96.118
X123.962Y-98.658
X123.962Y-101.198
X123.962Y-103.738
X123.962Y-106.278
X141.742Y-91.328
X141.742Y-93.868
X141.742Y-96.408
X141.742Y-98.948
X141.742Y-101.488
X141.742Y-104.028
X141.742Y-106.568
M30
