%TF.GenerationSoftware,KiCad,Pcbnew,8.0.8*%
%TF.CreationDate,2025-02-11T20:59:27-05:00*%
%TF.ProjectId,IMU,494d552e-6b69-4636-9164-5f7063625858,rev?*%
%TF.SameCoordinates,Original*%
%TF.FileFunction,Copper,L2,Bot*%
%TF.FilePolarity,Positive*%
%FSLAX46Y46*%
G04 Gerber Fmt 4.6, Leading zero omitted, Abs format (unit mm)*
G04 Created by KiCad (PCBNEW 8.0.8) date 2025-02-11 20:59:27*
%MOMM*%
%LPD*%
G01*
G04 APERTURE LIST*
%TA.AperFunction,ComponentPad*%
%ADD10R,1.700000X1.700000*%
%TD*%
%TA.AperFunction,ComponentPad*%
%ADD11O,1.700000X1.700000*%
%TD*%
%TA.AperFunction,ViaPad*%
%ADD12C,0.600000*%
%TD*%
%TA.AperFunction,Conductor*%
%ADD13C,0.200000*%
%TD*%
G04 APERTURE END LIST*
D10*
%TO.P,J1,1,Pin_1*%
%TO.N,+3.3V*%
X141752000Y-91038000D03*
D11*
%TO.P,J1,2,Pin_2*%
%TO.N,/sensors/imu_miso*%
X141752000Y-93578000D03*
%TO.P,J1,3,Pin_3*%
%TO.N,/sensors/imu_mosi*%
X141752000Y-96118000D03*
%TO.P,J1,4,Pin_4*%
%TO.N,/sensors/imu_sclk*%
X141752000Y-98658000D03*
%TO.P,J1,5,Pin_5*%
%TO.N,/sensors/imu_int1*%
X141752000Y-101198000D03*
%TO.P,J1,6,Pin_6*%
%TO.N,GNDD*%
X141752000Y-103738000D03*
%TD*%
D10*
%TO.P,J2,1,Pin_1*%
%TO.N,+3.3V*%
X123962000Y-91038000D03*
D11*
%TO.P,J2,2,Pin_2*%
%TO.N,/sensors/pres_miso*%
X123962000Y-93578000D03*
%TO.P,J2,3,Pin_3*%
%TO.N,/sensors/pres_mosi*%
X123962000Y-96118000D03*
%TO.P,J2,4,Pin_4*%
%TO.N,/sensors/pres_sclk*%
X123962000Y-98658000D03*
%TO.P,J2,5,Pin_5*%
%TO.N,/sensors/imu_int2*%
X123962000Y-101198000D03*
%TO.P,J2,6,Pin_6*%
%TO.N,GNDD*%
X123962000Y-103738000D03*
%TD*%
D12*
%TO.N,/sensors/imu_miso*%
X137170000Y-93578000D03*
%TO.N,GNDD*%
X132106500Y-103759000D03*
X135138000Y-99928000D03*
X129312500Y-104140000D03*
X132106500Y-99568000D03*
X131963000Y-92348000D03*
X131963000Y-94848000D03*
X131963000Y-93598000D03*
X134476500Y-94594000D03*
X127088000Y-92348000D03*
X132614500Y-101219000D03*
X135138000Y-101314000D03*
%TO.N,/sensors/imu_miso*%
X134138500Y-103251000D03*
%TO.N,/sensors/imu_sclk*%
X136170500Y-98658000D03*
X134138500Y-104140000D03*
%TO.N,/sensors/imu_mosi*%
X137170000Y-102214000D03*
%TD*%
D13*
%TO.N,/sensors/imu_miso*%
X137170000Y-93578000D02*
X134138500Y-96609500D01*
X134138500Y-96609500D02*
X134138500Y-103251000D01*
%TO.N,/sensors/imu_mosi*%
X138821000Y-96118000D02*
X141752000Y-96118000D01*
X138821000Y-96118000D02*
X137186500Y-97752500D01*
X137186500Y-97752500D02*
X137186500Y-102214000D01*
%TO.N,/sensors/imu_sclk*%
X136170500Y-98658000D02*
X136170500Y-102108000D01*
X136170500Y-102108000D02*
X134138500Y-104140000D01*
%TD*%
%TA.AperFunction,Conductor*%
%TO.N,GNDD*%
G36*
X142286495Y-86458819D02*
G01*
X142486424Y-86473120D01*
X142504216Y-86475679D01*
X142555777Y-86486895D01*
X142695663Y-86517326D01*
X142712902Y-86522388D01*
X142896475Y-86590858D01*
X142912828Y-86598326D01*
X143084786Y-86692223D01*
X143099909Y-86701942D01*
X143256751Y-86819353D01*
X143270338Y-86831126D01*
X143408878Y-86969667D01*
X143420650Y-86983253D01*
X143538059Y-87140094D01*
X143547778Y-87155217D01*
X143641675Y-87327176D01*
X143649142Y-87343524D01*
X143717611Y-87527097D01*
X143722676Y-87544346D01*
X143764323Y-87735796D01*
X143766881Y-87753590D01*
X143776785Y-87892069D01*
X143781190Y-87953647D01*
X143781511Y-87962636D01*
X143781511Y-106813499D01*
X143781190Y-106822488D01*
X143766891Y-107022411D01*
X143764333Y-107040205D01*
X143722686Y-107231653D01*
X143717621Y-107248903D01*
X143649152Y-107432475D01*
X143641684Y-107448827D01*
X143547788Y-107620786D01*
X143538068Y-107635910D01*
X143420658Y-107792752D01*
X143408886Y-107806338D01*
X143270345Y-107944880D01*
X143256758Y-107956653D01*
X143099914Y-108074065D01*
X143084791Y-108083784D01*
X142912838Y-108177679D01*
X142896485Y-108185148D01*
X142712906Y-108253620D01*
X142695657Y-108258684D01*
X142504218Y-108300330D01*
X142486424Y-108302889D01*
X142307165Y-108315711D01*
X142286648Y-108317179D01*
X142277661Y-108317500D01*
X123426501Y-108317500D01*
X123417512Y-108317179D01*
X123217590Y-108302880D01*
X123199796Y-108300322D01*
X123008348Y-108258675D01*
X122991098Y-108253610D01*
X122807526Y-108185141D01*
X122791174Y-108177673D01*
X122619216Y-108083777D01*
X122604092Y-108074057D01*
X122447247Y-107956644D01*
X122433661Y-107944871D01*
X122295128Y-107806338D01*
X122283355Y-107792752D01*
X122165942Y-107635907D01*
X122156222Y-107620783D01*
X122062326Y-107448825D01*
X122054858Y-107432473D01*
X121994091Y-107269552D01*
X121986388Y-107248899D01*
X121981324Y-107231651D01*
X121939675Y-107040193D01*
X121937120Y-107022419D01*
X121922821Y-106822487D01*
X121922500Y-106813499D01*
X121922500Y-103610998D01*
X122865037Y-103610998D01*
X122865038Y-103611000D01*
X123478392Y-103611000D01*
X123462000Y-103672174D01*
X123462000Y-103803826D01*
X123478392Y-103865000D01*
X122865038Y-103865000D01*
X122865037Y-103865001D01*
X122872147Y-103941725D01*
X122928138Y-104138514D01*
X122928140Y-104138519D01*
X123019340Y-104321672D01*
X123142637Y-104484946D01*
X123293838Y-104622784D01*
X123467796Y-104730493D01*
X123467803Y-104730496D01*
X123658578Y-104804403D01*
X123658576Y-104804403D01*
X123835000Y-104837381D01*
X123835000Y-104221608D01*
X123896174Y-104238000D01*
X124027826Y-104238000D01*
X124089000Y-104221608D01*
X124089000Y-104837381D01*
X124265422Y-104804403D01*
X124456196Y-104730496D01*
X124456203Y-104730493D01*
X124630161Y-104622784D01*
X124781362Y-104484946D01*
X124904659Y-104321672D01*
X124995859Y-104138519D01*
X124995861Y-104138514D01*
X125051852Y-103941725D01*
X125058962Y-103865001D01*
X125058962Y-103865000D01*
X124445608Y-103865000D01*
X124462000Y-103803826D01*
X124462000Y-103672174D01*
X124445608Y-103611000D01*
X125058962Y-103611000D01*
X125058962Y-103610998D01*
X125051852Y-103534274D01*
X124995861Y-103337485D01*
X124995859Y-103337480D01*
X124952796Y-103250999D01*
X133579215Y-103250999D01*
X133579215Y-103251000D01*
X133598271Y-103395752D01*
X133654144Y-103530641D01*
X133654149Y-103530649D01*
X133721787Y-103618796D01*
X133747388Y-103685016D01*
X133733123Y-103754565D01*
X133721788Y-103772204D01*
X133654146Y-103860356D01*
X133654145Y-103860358D01*
X133652222Y-103865001D01*
X133598271Y-103995247D01*
X133579215Y-104139999D01*
X133579215Y-104140000D01*
X133598271Y-104284752D01*
X133654144Y-104419641D01*
X133654149Y-104419649D01*
X133743025Y-104535474D01*
X133858850Y-104624350D01*
X133858857Y-104624355D01*
X133993746Y-104680228D01*
X134138500Y-104699285D01*
X134283254Y-104680228D01*
X134418143Y-104624355D01*
X134533974Y-104535474D01*
X134622855Y-104419643D01*
X134678728Y-104284754D01*
X134697785Y-104140000D01*
X134697785Y-104139999D01*
X134697785Y-104134243D01*
X134717787Y-104066122D01*
X134734690Y-104045148D01*
X135168840Y-103610998D01*
X140655037Y-103610998D01*
X140655038Y-103611000D01*
X141268392Y-103611000D01*
X141252000Y-103672174D01*
X141252000Y-103803826D01*
X141268392Y-103865000D01*
X140655038Y-103865000D01*
X140655037Y-103865001D01*
X140662147Y-103941725D01*
X140718138Y-104138514D01*
X140718140Y-104138519D01*
X140809340Y-104321672D01*
X140932637Y-104484946D01*
X141083838Y-104622784D01*
X141257796Y-104730493D01*
X141257803Y-104730496D01*
X141448578Y-104804403D01*
X141448576Y-104804403D01*
X141625000Y-104837381D01*
X141625000Y-104221608D01*
X141686174Y-104238000D01*
X141817826Y-104238000D01*
X141879000Y-104221608D01*
X141879000Y-104837381D01*
X142055422Y-104804403D01*
X142246196Y-104730496D01*
X142246203Y-104730493D01*
X142420161Y-104622784D01*
X142571362Y-104484946D01*
X142694659Y-104321672D01*
X142785859Y-104138519D01*
X142785861Y-104138514D01*
X142841852Y-103941725D01*
X142848962Y-103865001D01*
X142848962Y-103865000D01*
X142235608Y-103865000D01*
X142252000Y-103803826D01*
X142252000Y-103672174D01*
X142235608Y-103611000D01*
X142848962Y-103611000D01*
X142848962Y-103610998D01*
X142841852Y-103534274D01*
X142785861Y-103337485D01*
X142785859Y-103337480D01*
X142694659Y-103154327D01*
X142571362Y-102991053D01*
X142420161Y-102853215D01*
X142246203Y-102745506D01*
X142246196Y-102745503D01*
X142055422Y-102671596D01*
X142055424Y-102671596D01*
X141879000Y-102638617D01*
X141879000Y-103254391D01*
X141817826Y-103238000D01*
X141686174Y-103238000D01*
X141625000Y-103254391D01*
X141625000Y-102638617D01*
X141448576Y-102671596D01*
X141257803Y-102745503D01*
X141257796Y-102745506D01*
X141083838Y-102853215D01*
X140932637Y-102991053D01*
X140809340Y-103154327D01*
X140718140Y-103337480D01*
X140718138Y-103337485D01*
X140662147Y-103534274D01*
X140655037Y-103610998D01*
X135168840Y-103610998D01*
X136435308Y-102344531D01*
X136497620Y-102310505D01*
X136568436Y-102315570D01*
X136625271Y-102358117D01*
X136640811Y-102385407D01*
X136685642Y-102493637D01*
X136685649Y-102493649D01*
X136774525Y-102609474D01*
X136855484Y-102671596D01*
X136890357Y-102698355D01*
X137025246Y-102754228D01*
X137170000Y-102773285D01*
X137314754Y-102754228D01*
X137449643Y-102698355D01*
X137565474Y-102609474D01*
X137654355Y-102493643D01*
X137710228Y-102358754D01*
X137729285Y-102214000D01*
X137710228Y-102069246D01*
X137654355Y-101934358D01*
X137567036Y-101820562D01*
X137541437Y-101754342D01*
X137541000Y-101743859D01*
X137541000Y-101197995D01*
X140642768Y-101197995D01*
X140642768Y-101198004D01*
X140661654Y-101401819D01*
X140661655Y-101401821D01*
X140717672Y-101598701D01*
X140808912Y-101781935D01*
X140808913Y-101781936D01*
X140932266Y-101945284D01*
X141083536Y-102083185D01*
X141257566Y-102190940D01*
X141257568Y-102190940D01*
X141257573Y-102190944D01*
X141448444Y-102264888D01*
X141649653Y-102302500D01*
X141649655Y-102302500D01*
X141854345Y-102302500D01*
X141854347Y-102302500D01*
X142055556Y-102264888D01*
X142246427Y-102190944D01*
X142420462Y-102083186D01*
X142571732Y-101945285D01*
X142579985Y-101934357D01*
X142612649Y-101891102D01*
X142695088Y-101781935D01*
X142786328Y-101598701D01*
X142842345Y-101401821D01*
X142861232Y-101198000D01*
X142842345Y-100994179D01*
X142786328Y-100797299D01*
X142695088Y-100614065D01*
X142654538Y-100560368D01*
X142571733Y-100450715D01*
X142420463Y-100312814D01*
X142246433Y-100205059D01*
X142246428Y-100205057D01*
X142246427Y-100205056D01*
X142055559Y-100131113D01*
X142055560Y-100131113D01*
X142055557Y-100131112D01*
X142055556Y-100131112D01*
X141854347Y-100093500D01*
X141649653Y-100093500D01*
X141448444Y-100131112D01*
X141448439Y-100131113D01*
X141257577Y-100205054D01*
X141257566Y-100205059D01*
X141083536Y-100312814D01*
X140932266Y-100450715D01*
X140808913Y-100614063D01*
X140717671Y-100797301D01*
X140661654Y-100994180D01*
X140642768Y-101197995D01*
X137541000Y-101197995D01*
X137541000Y-98657995D01*
X140642768Y-98657995D01*
X140642768Y-98658004D01*
X140661654Y-98861819D01*
X140717343Y-99057544D01*
X140717672Y-99058701D01*
X140808912Y-99241935D01*
X140808913Y-99241936D01*
X140932266Y-99405284D01*
X141083536Y-99543185D01*
X141257566Y-99650940D01*
X141257568Y-99650940D01*
X141257573Y-99650944D01*
X141448444Y-99724888D01*
X141649653Y-99762500D01*
X141649655Y-99762500D01*
X141854345Y-99762500D01*
X141854347Y-99762500D01*
X142055556Y-99724888D01*
X142246427Y-99650944D01*
X142420462Y-99543186D01*
X142571732Y-99405285D01*
X142695088Y-99241935D01*
X142786328Y-99058701D01*
X142842345Y-98861821D01*
X142861232Y-98658000D01*
X142842345Y-98454179D01*
X142786328Y-98257299D01*
X142695088Y-98074065D01*
X142654538Y-98020368D01*
X142571733Y-97910715D01*
X142420463Y-97772814D01*
X142246433Y-97665059D01*
X142246428Y-97665057D01*
X142246427Y-97665056D01*
X142246422Y-97665054D01*
X142055559Y-97591113D01*
X142055560Y-97591113D01*
X142055557Y-97591112D01*
X142055556Y-97591112D01*
X141854347Y-97553500D01*
X141649653Y-97553500D01*
X141448444Y-97591112D01*
X141448439Y-97591113D01*
X141257577Y-97665054D01*
X141257566Y-97665059D01*
X141083536Y-97772814D01*
X140932266Y-97910715D01*
X140808913Y-98074063D01*
X140717671Y-98257301D01*
X140661654Y-98454180D01*
X140642768Y-98657995D01*
X137541000Y-98657995D01*
X137541000Y-97951529D01*
X137561002Y-97883408D01*
X137577905Y-97862434D01*
X138930934Y-96509405D01*
X138993246Y-96475379D01*
X139020029Y-96472500D01*
X140616651Y-96472500D01*
X140684772Y-96492502D01*
X140729440Y-96542335D01*
X140808912Y-96701935D01*
X140808913Y-96701936D01*
X140932266Y-96865284D01*
X141083536Y-97003185D01*
X141257566Y-97110940D01*
X141257568Y-97110940D01*
X141257573Y-97110944D01*
X141448444Y-97184888D01*
X141649653Y-97222500D01*
X141649655Y-97222500D01*
X141854345Y-97222500D01*
X141854347Y-97222500D01*
X142055556Y-97184888D01*
X142246427Y-97110944D01*
X142420462Y-97003186D01*
X142571732Y-96865285D01*
X142695088Y-96701935D01*
X142786328Y-96518701D01*
X142842345Y-96321821D01*
X142861232Y-96118000D01*
X142842345Y-95914179D01*
X142786328Y-95717299D01*
X142695088Y-95534065D01*
X142654538Y-95480368D01*
X142571733Y-95370715D01*
X142420463Y-95232814D01*
X142246433Y-95125059D01*
X142246428Y-95125057D01*
X142246427Y-95125056D01*
X142055559Y-95051113D01*
X142055560Y-95051113D01*
X142055557Y-95051112D01*
X142055556Y-95051112D01*
X141854347Y-95013500D01*
X141649653Y-95013500D01*
X141448444Y-95051112D01*
X141448439Y-95051113D01*
X141257577Y-95125054D01*
X141257566Y-95125059D01*
X141083536Y-95232814D01*
X140932266Y-95370715D01*
X140808913Y-95534063D01*
X140808912Y-95534064D01*
X140808912Y-95534065D01*
X140729440Y-95693664D01*
X140681173Y-95745726D01*
X140616651Y-95763500D01*
X138774325Y-95763500D01*
X138684166Y-95787659D01*
X138603335Y-95834326D01*
X138603325Y-95834334D01*
X137326721Y-97110940D01*
X136968832Y-97468829D01*
X136935831Y-97501830D01*
X136902830Y-97534830D01*
X136902826Y-97534835D01*
X136856159Y-97615666D01*
X136832000Y-97705825D01*
X136832000Y-98238033D01*
X136811998Y-98306154D01*
X136758342Y-98352647D01*
X136688068Y-98362751D01*
X136623488Y-98333257D01*
X136606038Y-98314738D01*
X136565972Y-98262524D01*
X136450149Y-98173649D01*
X136450141Y-98173644D01*
X136315252Y-98117771D01*
X136170500Y-98098715D01*
X136025747Y-98117771D01*
X135958302Y-98145708D01*
X135890858Y-98173645D01*
X135890857Y-98173646D01*
X135890856Y-98173646D01*
X135775026Y-98262526D01*
X135686146Y-98378356D01*
X135686145Y-98378358D01*
X135658208Y-98445802D01*
X135630271Y-98513247D01*
X135611215Y-98657999D01*
X135611215Y-98658000D01*
X135630271Y-98802752D01*
X135686144Y-98937641D01*
X135686149Y-98937649D01*
X135775026Y-99053475D01*
X135779095Y-99057544D01*
X135813121Y-99119856D01*
X135816000Y-99146639D01*
X135816000Y-101908970D01*
X135795998Y-101977091D01*
X135779095Y-101998066D01*
X134803879Y-102973281D01*
X134741567Y-103007306D01*
X134670751Y-103002241D01*
X134614822Y-102960890D01*
X134533974Y-102855526D01*
X134533972Y-102855524D01*
X134533968Y-102855519D01*
X134529905Y-102851456D01*
X134495879Y-102789144D01*
X134493000Y-102762361D01*
X134493000Y-96808527D01*
X134513002Y-96740406D01*
X134529900Y-96719437D01*
X137075147Y-94174189D01*
X137137459Y-94140164D01*
X137164242Y-94137285D01*
X137170000Y-94137285D01*
X137314754Y-94118228D01*
X137449643Y-94062355D01*
X137565474Y-93973474D01*
X137654355Y-93857643D01*
X137710228Y-93722754D01*
X137729285Y-93578000D01*
X137729284Y-93577995D01*
X140642768Y-93577995D01*
X140642768Y-93578004D01*
X140661654Y-93781819D01*
X140683228Y-93857643D01*
X140717672Y-93978701D01*
X140808912Y-94161935D01*
X140808913Y-94161936D01*
X140932266Y-94325284D01*
X141083536Y-94463185D01*
X141257566Y-94570940D01*
X141257568Y-94570940D01*
X141257573Y-94570944D01*
X141448444Y-94644888D01*
X141649653Y-94682500D01*
X141649655Y-94682500D01*
X141854345Y-94682500D01*
X141854347Y-94682500D01*
X142055556Y-94644888D01*
X142246427Y-94570944D01*
X142420462Y-94463186D01*
X142571732Y-94325285D01*
X142695088Y-94161935D01*
X142786328Y-93978701D01*
X142842345Y-93781821D01*
X142861232Y-93578000D01*
X142842345Y-93374179D01*
X142786328Y-93177299D01*
X142695088Y-92994065D01*
X142654538Y-92940368D01*
X142571733Y-92830715D01*
X142420463Y-92692814D01*
X142246433Y-92585059D01*
X142246428Y-92585057D01*
X142246427Y-92585056D01*
X142055559Y-92511113D01*
X142055560Y-92511113D01*
X142055557Y-92511112D01*
X142055556Y-92511112D01*
X141854347Y-92473500D01*
X141649653Y-92473500D01*
X141448444Y-92511112D01*
X141448439Y-92511113D01*
X141257577Y-92585054D01*
X141257566Y-92585059D01*
X141083536Y-92692814D01*
X140932266Y-92830715D01*
X140808913Y-92994063D01*
X140717671Y-93177301D01*
X140661654Y-93374180D01*
X140642768Y-93577995D01*
X137729284Y-93577995D01*
X137710228Y-93433246D01*
X137654355Y-93298358D01*
X137565474Y-93182526D01*
X137565472Y-93182524D01*
X137565471Y-93182523D01*
X137449649Y-93093649D01*
X137449641Y-93093644D01*
X137314752Y-93037771D01*
X137170000Y-93018715D01*
X137025247Y-93037771D01*
X136957802Y-93065708D01*
X136890358Y-93093645D01*
X136890357Y-93093646D01*
X136890356Y-93093646D01*
X136774526Y-93182526D01*
X136685646Y-93298356D01*
X136685645Y-93298358D01*
X136657708Y-93365802D01*
X136629771Y-93433247D01*
X136610715Y-93577999D01*
X136610715Y-93583755D01*
X136590713Y-93651876D01*
X136573810Y-93672850D01*
X133903109Y-96343550D01*
X133903107Y-96343551D01*
X133903108Y-96343552D01*
X133854831Y-96391829D01*
X133854826Y-96391835D01*
X133808159Y-96472666D01*
X133784000Y-96562825D01*
X133784000Y-102762361D01*
X133763998Y-102830482D01*
X133747095Y-102851456D01*
X133743031Y-102855519D01*
X133654146Y-102971356D01*
X133654145Y-102971358D01*
X133645987Y-102991053D01*
X133598271Y-103106247D01*
X133579215Y-103250999D01*
X124952796Y-103250999D01*
X124904659Y-103154327D01*
X124781362Y-102991053D01*
X124630161Y-102853215D01*
X124456203Y-102745506D01*
X124456196Y-102745503D01*
X124265422Y-102671596D01*
X124265424Y-102671596D01*
X124089000Y-102638617D01*
X124089000Y-103254391D01*
X124027826Y-103238000D01*
X123896174Y-103238000D01*
X123835000Y-103254391D01*
X123835000Y-102638617D01*
X123658576Y-102671596D01*
X123467803Y-102745503D01*
X123467796Y-102745506D01*
X123293838Y-102853215D01*
X123142637Y-102991053D01*
X123019340Y-103154327D01*
X122928140Y-103337480D01*
X122928138Y-103337485D01*
X122872147Y-103534274D01*
X122865037Y-103610998D01*
X121922500Y-103610998D01*
X121922500Y-101197995D01*
X122852768Y-101197995D01*
X122852768Y-101198004D01*
X122871654Y-101401819D01*
X122871655Y-101401821D01*
X122927672Y-101598701D01*
X123018912Y-101781935D01*
X123018913Y-101781936D01*
X123142266Y-101945284D01*
X123293536Y-102083185D01*
X123467566Y-102190940D01*
X123467568Y-102190940D01*
X123467573Y-102190944D01*
X123658444Y-102264888D01*
X123859653Y-102302500D01*
X123859655Y-102302500D01*
X124064345Y-102302500D01*
X124064347Y-102302500D01*
X124265556Y-102264888D01*
X124456427Y-102190944D01*
X124630462Y-102083186D01*
X124781732Y-101945285D01*
X124789985Y-101934357D01*
X124822649Y-101891102D01*
X124905088Y-101781935D01*
X124996328Y-101598701D01*
X125052345Y-101401821D01*
X125071232Y-101198000D01*
X125052345Y-100994179D01*
X124996328Y-100797299D01*
X124905088Y-100614065D01*
X124864538Y-100560368D01*
X124781733Y-100450715D01*
X124630463Y-100312814D01*
X124456433Y-100205059D01*
X124456428Y-100205057D01*
X124456427Y-100205056D01*
X124265559Y-100131113D01*
X124265560Y-100131113D01*
X124265557Y-100131112D01*
X124265556Y-100131112D01*
X124064347Y-100093500D01*
X123859653Y-100093500D01*
X123658444Y-100131112D01*
X123658439Y-100131113D01*
X123467577Y-100205054D01*
X123467566Y-100205059D01*
X123293536Y-100312814D01*
X123142266Y-100450715D01*
X123018913Y-100614063D01*
X122927671Y-100797301D01*
X122871654Y-100994180D01*
X122852768Y-101197995D01*
X121922500Y-101197995D01*
X121922500Y-98657995D01*
X122852768Y-98657995D01*
X122852768Y-98658004D01*
X122871654Y-98861819D01*
X122927343Y-99057544D01*
X122927672Y-99058701D01*
X123018912Y-99241935D01*
X123018913Y-99241936D01*
X123142266Y-99405284D01*
X123293536Y-99543185D01*
X123467566Y-99650940D01*
X123467568Y-99650940D01*
X123467573Y-99650944D01*
X123658444Y-99724888D01*
X123859653Y-99762500D01*
X123859655Y-99762500D01*
X124064345Y-99762500D01*
X124064347Y-99762500D01*
X124265556Y-99724888D01*
X124456427Y-99650944D01*
X124630462Y-99543186D01*
X124781732Y-99405285D01*
X124905088Y-99241935D01*
X124996328Y-99058701D01*
X125052345Y-98861821D01*
X125071232Y-98658000D01*
X125052345Y-98454179D01*
X124996328Y-98257299D01*
X124905088Y-98074065D01*
X124864538Y-98020368D01*
X124781733Y-97910715D01*
X124630463Y-97772814D01*
X124456433Y-97665059D01*
X124456428Y-97665057D01*
X124456427Y-97665056D01*
X124456422Y-97665054D01*
X124265559Y-97591113D01*
X124265560Y-97591113D01*
X124265557Y-97591112D01*
X124265556Y-97591112D01*
X124064347Y-97553500D01*
X123859653Y-97553500D01*
X123658444Y-97591112D01*
X123658439Y-97591113D01*
X123467577Y-97665054D01*
X123467566Y-97665059D01*
X123293536Y-97772814D01*
X123142266Y-97910715D01*
X123018913Y-98074063D01*
X122927671Y-98257301D01*
X122871654Y-98454180D01*
X122852768Y-98657995D01*
X121922500Y-98657995D01*
X121922500Y-96117995D01*
X122852768Y-96117995D01*
X122852768Y-96118004D01*
X122871654Y-96321819D01*
X122915346Y-96475379D01*
X122927672Y-96518701D01*
X123018912Y-96701935D01*
X123018913Y-96701936D01*
X123142266Y-96865284D01*
X123293536Y-97003185D01*
X123467566Y-97110940D01*
X123467568Y-97110940D01*
X123467573Y-97110944D01*
X123658444Y-97184888D01*
X123859653Y-97222500D01*
X123859655Y-97222500D01*
X124064345Y-97222500D01*
X124064347Y-97222500D01*
X124265556Y-97184888D01*
X124456427Y-97110944D01*
X124630462Y-97003186D01*
X124781732Y-96865285D01*
X124905088Y-96701935D01*
X124996328Y-96518701D01*
X125052345Y-96321821D01*
X125071232Y-96118000D01*
X125052345Y-95914179D01*
X124996328Y-95717299D01*
X124905088Y-95534065D01*
X124864538Y-95480368D01*
X124781733Y-95370715D01*
X124630463Y-95232814D01*
X124456433Y-95125059D01*
X124456428Y-95125057D01*
X124456427Y-95125056D01*
X124265559Y-95051113D01*
X124265560Y-95051113D01*
X124265557Y-95051112D01*
X124265556Y-95051112D01*
X124064347Y-95013500D01*
X123859653Y-95013500D01*
X123658444Y-95051112D01*
X123658439Y-95051113D01*
X123467577Y-95125054D01*
X123467566Y-95125059D01*
X123293536Y-95232814D01*
X123142266Y-95370715D01*
X123018913Y-95534063D01*
X122927671Y-95717301D01*
X122871654Y-95914180D01*
X122852768Y-96117995D01*
X121922500Y-96117995D01*
X121922500Y-93577995D01*
X122852768Y-93577995D01*
X122852768Y-93578004D01*
X122871654Y-93781819D01*
X122893228Y-93857643D01*
X122927672Y-93978701D01*
X123018912Y-94161935D01*
X123018913Y-94161936D01*
X123142266Y-94325284D01*
X123293536Y-94463185D01*
X123467566Y-94570940D01*
X123467568Y-94570940D01*
X123467573Y-94570944D01*
X123658444Y-94644888D01*
X123859653Y-94682500D01*
X123859655Y-94682500D01*
X124064345Y-94682500D01*
X124064347Y-94682500D01*
X124265556Y-94644888D01*
X124456427Y-94570944D01*
X124630462Y-94463186D01*
X124781732Y-94325285D01*
X124905088Y-94161935D01*
X124996328Y-93978701D01*
X125052345Y-93781821D01*
X125071232Y-93578000D01*
X125052345Y-93374179D01*
X124996328Y-93177299D01*
X124905088Y-92994065D01*
X124864538Y-92940368D01*
X124781733Y-92830715D01*
X124630463Y-92692814D01*
X124456433Y-92585059D01*
X124456428Y-92585057D01*
X124456427Y-92585056D01*
X124265559Y-92511113D01*
X124265560Y-92511113D01*
X124265557Y-92511112D01*
X124265556Y-92511112D01*
X124064347Y-92473500D01*
X123859653Y-92473500D01*
X123658444Y-92511112D01*
X123658439Y-92511113D01*
X123467577Y-92585054D01*
X123467566Y-92585059D01*
X123293536Y-92692814D01*
X123142266Y-92830715D01*
X123018913Y-92994063D01*
X122927671Y-93177301D01*
X122871654Y-93374180D01*
X122852768Y-93577995D01*
X121922500Y-93577995D01*
X121922500Y-90162930D01*
X122857500Y-90162930D01*
X122857500Y-91913063D01*
X122857501Y-91913073D01*
X122872265Y-91987300D01*
X122928516Y-92071484D01*
X123012697Y-92127733D01*
X123012699Y-92127734D01*
X123086933Y-92142500D01*
X124837066Y-92142499D01*
X124837069Y-92142498D01*
X124837073Y-92142498D01*
X124886326Y-92132701D01*
X124911301Y-92127734D01*
X124995484Y-92071484D01*
X125051734Y-91987301D01*
X125066500Y-91913067D01*
X125066499Y-90162934D01*
X125066498Y-90162930D01*
X140647500Y-90162930D01*
X140647500Y-91913063D01*
X140647501Y-91913073D01*
X140662265Y-91987300D01*
X140718516Y-92071484D01*
X140802697Y-92127733D01*
X140802699Y-92127734D01*
X140876933Y-92142500D01*
X142627066Y-92142499D01*
X142627069Y-92142498D01*
X142627073Y-92142498D01*
X142676326Y-92132701D01*
X142701301Y-92127734D01*
X142785484Y-92071484D01*
X142841734Y-91987301D01*
X142856500Y-91913067D01*
X142856499Y-90162934D01*
X142856498Y-90162930D01*
X142856498Y-90162926D01*
X142841734Y-90088699D01*
X142785483Y-90004515D01*
X142701302Y-89948266D01*
X142627067Y-89933500D01*
X140876936Y-89933500D01*
X140876926Y-89933501D01*
X140802699Y-89948265D01*
X140718515Y-90004516D01*
X140662266Y-90088697D01*
X140647500Y-90162930D01*
X125066498Y-90162930D01*
X125066498Y-90162926D01*
X125051734Y-90088699D01*
X124995483Y-90004515D01*
X124911302Y-89948266D01*
X124837067Y-89933500D01*
X123086936Y-89933500D01*
X123086926Y-89933501D01*
X123012699Y-89948265D01*
X122928515Y-90004516D01*
X122872266Y-90088697D01*
X122857500Y-90162930D01*
X121922500Y-90162930D01*
X121922500Y-87962499D01*
X121922821Y-87953511D01*
X121927215Y-87892069D01*
X121937120Y-87753577D01*
X121939675Y-87735807D01*
X121981325Y-87544341D01*
X121986390Y-87527097D01*
X122054860Y-87343524D01*
X122062322Y-87327181D01*
X122156229Y-87155204D01*
X122165934Y-87140104D01*
X122283361Y-86983239D01*
X122295123Y-86969667D01*
X122433669Y-86831120D01*
X122447240Y-86819360D01*
X122604097Y-86701938D01*
X122619211Y-86692225D01*
X122791181Y-86598322D01*
X122807518Y-86590861D01*
X122991103Y-86522387D01*
X123008342Y-86517325D01*
X123199808Y-86475675D01*
X123217578Y-86473120D01*
X123417527Y-86458819D01*
X123426512Y-86458499D01*
X123487892Y-86458499D01*
X142216116Y-86458499D01*
X142277507Y-86458499D01*
X142286495Y-86458819D01*
G37*
%TD.AperFunction*%
%TD*%
M02*
