%TF.GenerationSoftware,KiCad,Pcbnew,8.0.8*%
%TF.CreationDate,2025-02-11T20:59:27-05:00*%
%TF.ProjectId,IMU,494d552e-6b69-4636-9164-5f7063625858,rev?*%
%TF.SameCoordinates,Original*%
%TF.FileFunction,Copper,L1,Top*%
%TF.FilePolarity,Positive*%
%FSLAX46Y46*%
G04 Gerber Fmt 4.6, Leading zero omitted, Abs format (unit mm)*
G04 Created by KiCad (PCBNEW 8.0.8) date 2025-02-11 20:59:27*
%MOMM*%
%LPD*%
G01*
G04 APERTURE LIST*
G04 Aperture macros list*
%AMRoundRect*
0 Rectangle with rounded corners*
0 $1 Rounding radius*
0 $2 $3 $4 $5 $6 $7 $8 $9 X,Y pos of 4 corners*
0 Add a 4 corners polygon primitive as box body*
4,1,4,$2,$3,$4,$5,$6,$7,$8,$9,$2,$3,0*
0 Add four circle primitives for the rounded corners*
1,1,$1+$1,$2,$3*
1,1,$1+$1,$4,$5*
1,1,$1+$1,$6,$7*
1,1,$1+$1,$8,$9*
0 Add four rect primitives between the rounded corners*
20,1,$1+$1,$2,$3,$4,$5,0*
20,1,$1+$1,$4,$5,$6,$7,0*
20,1,$1+$1,$6,$7,$8,$9,0*
20,1,$1+$1,$8,$9,$2,$3,0*%
G04 Aperture macros list end*
%TA.AperFunction,SMDPad,CuDef*%
%ADD10C,1.000000*%
%TD*%
%TA.AperFunction,ComponentPad*%
%ADD11R,1.700000X1.700000*%
%TD*%
%TA.AperFunction,ComponentPad*%
%ADD12O,1.700000X1.700000*%
%TD*%
%TA.AperFunction,SMDPad,CuDef*%
%ADD13RoundRect,0.250000X-0.425000X0.537500X-0.425000X-0.537500X0.425000X-0.537500X0.425000X0.537500X0*%
%TD*%
%TA.AperFunction,SMDPad,CuDef*%
%ADD14RoundRect,0.087500X0.225000X0.087500X-0.225000X0.087500X-0.225000X-0.087500X0.225000X-0.087500X0*%
%TD*%
%TA.AperFunction,SMDPad,CuDef*%
%ADD15RoundRect,0.087500X0.087500X0.225000X-0.087500X0.225000X-0.087500X-0.225000X0.087500X-0.225000X0*%
%TD*%
%TA.AperFunction,SMDPad,CuDef*%
%ADD16RoundRect,0.237500X-0.300000X-0.237500X0.300000X-0.237500X0.300000X0.237500X-0.300000X0.237500X0*%
%TD*%
%TA.AperFunction,SMDPad,CuDef*%
%ADD17R,0.950000X0.550000*%
%TD*%
%TA.AperFunction,ViaPad*%
%ADD18C,0.600000*%
%TD*%
%TA.AperFunction,Conductor*%
%ADD19C,0.200000*%
%TD*%
%TA.AperFunction,Conductor*%
%ADD20C,0.355600*%
%TD*%
G04 APERTURE END LIST*
D10*
%TO.P,FID1,*%
%TO.N,*%
X138694000Y-102976000D03*
%TD*%
%TO.P,FID2,*%
%TO.N,*%
X136027000Y-91673000D03*
%TD*%
D11*
%TO.P,J1,1,Pin_1*%
%TO.N,+3.3V*%
X141752000Y-91038000D03*
D12*
%TO.P,J1,2,Pin_2*%
%TO.N,/sensors/imu_miso*%
X141752000Y-93578000D03*
%TO.P,J1,3,Pin_3*%
%TO.N,/sensors/imu_mosi*%
X141752000Y-96118000D03*
%TO.P,J1,4,Pin_4*%
%TO.N,/sensors/imu_sclk*%
X141752000Y-98658000D03*
%TO.P,J1,5,Pin_5*%
%TO.N,/sensors/imu_int1*%
X141752000Y-101198000D03*
%TO.P,J1,6,Pin_6*%
%TO.N,GNDD*%
X141752000Y-103738000D03*
%TD*%
D13*
%TO.P,C2,1*%
%TO.N,+3.3V*%
X129312500Y-99654500D03*
%TO.P,C2,2*%
%TO.N,GNDD*%
X129312500Y-102529500D03*
%TD*%
D14*
%TO.P,U2,1,SDO/SA0*%
%TO.N,/sensors/imu_mosi*%
X133777000Y-102214000D03*
%TO.P,U2,2,SDX*%
%TO.N,GNDD*%
X133777000Y-101714000D03*
%TO.P,U2,3,SCX*%
X133777000Y-101214000D03*
%TO.P,U2,4,INT1*%
%TO.N,/sensors/imu_int1*%
X133777000Y-100714000D03*
D15*
%TO.P,U2,5,VDDIO*%
%TO.N,+3.3V*%
X133114500Y-100551500D03*
%TO.P,U2,6,GND*%
%TO.N,GNDD*%
X132614500Y-100551500D03*
%TO.P,U2,7,GND*%
X132114500Y-100551500D03*
D14*
%TO.P,U2,8,VDD*%
%TO.N,+3.3V*%
X131452000Y-100714000D03*
%TO.P,U2,9,INT2*%
%TO.N,/sensors/imu_int2*%
X131452000Y-101214000D03*
%TO.P,U2,10,NC*%
%TO.N,unconnected-(U2-NC-Pad10)*%
X131452000Y-101714000D03*
%TO.P,U2,11,NC*%
%TO.N,unconnected-(U2-NC-Pad11)*%
X131452000Y-102214000D03*
D15*
%TO.P,U2,12,CS*%
%TO.N,GNDD*%
X132114500Y-102376500D03*
%TO.P,U2,13,SCL*%
%TO.N,/sensors/imu_sclk*%
X132614500Y-102376500D03*
%TO.P,U2,14,SDA*%
%TO.N,/sensors/imu_miso*%
X133114500Y-102376500D03*
%TD*%
D10*
%TO.P,FID3,*%
%TO.N,*%
X127137000Y-98023000D03*
%TD*%
D16*
%TO.P,C1,1*%
%TO.N,+3.3V*%
X132751500Y-96118000D03*
%TO.P,C1,2*%
%TO.N,GNDD*%
X134476500Y-96118000D03*
%TD*%
D17*
%TO.P,U1,1,VDD*%
%TO.N,+3.3V*%
X130693000Y-96098000D03*
%TO.P,U1,2,PS*%
%TO.N,GNDD*%
X130693000Y-94848000D03*
%TO.P,U1,3,GND*%
X130693000Y-93598000D03*
%TO.P,U1,4,CSB*%
X130693000Y-92348000D03*
%TO.P,U1,5,CSB*%
X128543000Y-92348000D03*
%TO.P,U1,6,SDO*%
%TO.N,/sensors/pres_miso*%
X128543000Y-93598000D03*
%TO.P,U1,7,SDI/SDA*%
%TO.N,/sensors/pres_mosi*%
X128543000Y-94848000D03*
%TO.P,U1,8,SCLK*%
%TO.N,/sensors/pres_sclk*%
X128543000Y-96098000D03*
%TD*%
D16*
%TO.P,C3,1*%
%TO.N,+3.3V*%
X133032000Y-98679000D03*
%TO.P,C3,2*%
%TO.N,GNDD*%
X134757000Y-98679000D03*
%TD*%
D11*
%TO.P,J2,1,Pin_1*%
%TO.N,+3.3V*%
X123962000Y-91038000D03*
D12*
%TO.P,J2,2,Pin_2*%
%TO.N,/sensors/pres_miso*%
X123962000Y-93578000D03*
%TO.P,J2,3,Pin_3*%
%TO.N,/sensors/pres_mosi*%
X123962000Y-96118000D03*
%TO.P,J2,4,Pin_4*%
%TO.N,/sensors/pres_sclk*%
X123962000Y-98658000D03*
%TO.P,J2,5,Pin_5*%
%TO.N,/sensors/imu_int2*%
X123962000Y-101198000D03*
%TO.P,J2,6,Pin_6*%
%TO.N,GNDD*%
X123962000Y-103738000D03*
%TD*%
D18*
%TO.N,/sensors/imu_miso*%
X137170000Y-93578000D03*
%TO.N,GNDD*%
X132106500Y-103759000D03*
X135138000Y-99928000D03*
X129312500Y-104140000D03*
X132106500Y-99568000D03*
X131963000Y-92348000D03*
X131963000Y-94848000D03*
X131963000Y-93598000D03*
X134476500Y-94594000D03*
X127088000Y-92348000D03*
X132614500Y-101219000D03*
X135138000Y-101314000D03*
%TO.N,/sensors/imu_miso*%
X134138500Y-103251000D03*
%TO.N,/sensors/imu_sclk*%
X136170500Y-98658000D03*
X134138500Y-104140000D03*
%TO.N,/sensors/imu_mosi*%
X137170000Y-102214000D03*
%TD*%
D19*
%TO.N,/sensors/pres_sclk*%
X128543000Y-96098000D02*
X126590750Y-96098000D01*
X126590750Y-96098000D02*
X124136750Y-98552000D01*
X124136750Y-98552000D02*
X123962000Y-98552000D01*
%TO.N,GNDD*%
X135138000Y-101314000D02*
X135038000Y-101214000D01*
X135038000Y-101214000D02*
X133777000Y-101214000D01*
D20*
X135138000Y-99928000D02*
X134874000Y-99664000D01*
X134874000Y-99664000D02*
X134874000Y-98679000D01*
X134476500Y-94594000D02*
X134476500Y-96118000D01*
D19*
%TO.N,/sensors/imu_miso*%
X137170000Y-93578000D02*
X141752000Y-93578000D01*
%TO.N,/sensors/pres_miso*%
X128523000Y-93578000D02*
X123962000Y-93578000D01*
%TO.N,/sensors/pres_mosi*%
X123962000Y-96118000D02*
X125232000Y-94848000D01*
X125232000Y-94848000D02*
X128543000Y-94848000D01*
%TO.N,/sensors/imu_int2*%
X123962000Y-101198000D02*
X123978000Y-101214000D01*
X123978000Y-101214000D02*
X131452000Y-101214000D01*
%TO.N,+3.3V*%
X130723000Y-96012000D02*
X130693000Y-95982000D01*
X133114500Y-98713500D02*
X133149000Y-98679000D01*
D20*
X131452000Y-100056500D02*
X131050000Y-99654500D01*
X131452000Y-100596000D02*
X131452000Y-100056500D01*
X133114500Y-100433500D02*
X133114500Y-98713500D01*
X131050000Y-99654500D02*
X129312500Y-99654500D01*
D19*
%TO.N,GNDD*%
X132001000Y-92348000D02*
X132041000Y-92308000D01*
X132114500Y-100433500D02*
X132114500Y-99576000D01*
X133777000Y-101596000D02*
X132991500Y-101596000D01*
X131914000Y-92348000D02*
X132001000Y-92348000D01*
X132991500Y-101596000D02*
X132614500Y-101219000D01*
X132114500Y-102258500D02*
X132114500Y-103751000D01*
X132106500Y-103759000D02*
X132114500Y-103751000D01*
D20*
X130693000Y-93598000D02*
X131914000Y-93598000D01*
D19*
X132114500Y-99576000D02*
X132106500Y-99568000D01*
D20*
X130693000Y-94848000D02*
X131914000Y-94848000D01*
X129312500Y-102529500D02*
X129312500Y-104140000D01*
X130693000Y-92348000D02*
X131914000Y-92348000D01*
D19*
X132614500Y-100433500D02*
X132614500Y-101219000D01*
D20*
X128543000Y-92348000D02*
X127088000Y-92348000D01*
D19*
%TO.N,/sensors/pres_miso*%
X128543000Y-93598000D02*
X128523000Y-93578000D01*
X123962000Y-93472000D02*
X124216000Y-93472000D01*
X124216000Y-93472000D02*
X124226000Y-93482000D01*
%TO.N,/sensors/imu_int1*%
X137800500Y-101198000D02*
X137316500Y-100714000D01*
X141752000Y-101198000D02*
X137800500Y-101198000D01*
X137316500Y-100714000D02*
X133777000Y-100714000D01*
%TO.N,/sensors/imu_int2*%
X123966000Y-101096000D02*
X123962000Y-101092000D01*
%TO.N,/sensors/imu_miso*%
X133376500Y-103251000D02*
X134138500Y-103251000D01*
X133114500Y-102258500D02*
X133114500Y-102989000D01*
X133114500Y-102989000D02*
X133376500Y-103251000D01*
%TO.N,/sensors/imu_sclk*%
X133503500Y-104140000D02*
X134138500Y-104140000D01*
X132614500Y-103251000D02*
X133249500Y-103886000D01*
X136170500Y-98658000D02*
X141752000Y-98658000D01*
X133249500Y-103886000D02*
X133503500Y-104140000D01*
X132614500Y-102258500D02*
X132614500Y-103251000D01*
%TO.N,/sensors/imu_mosi*%
X137056500Y-102214000D02*
X137170000Y-102214000D01*
X133777000Y-102214000D02*
X137056500Y-102214000D01*
%TD*%
%TA.AperFunction,Conductor*%
%TO.N,+3.3V*%
G36*
X142286495Y-86458819D02*
G01*
X142486424Y-86473120D01*
X142504216Y-86475679D01*
X142555777Y-86486895D01*
X142695663Y-86517326D01*
X142712902Y-86522388D01*
X142896475Y-86590858D01*
X142912828Y-86598326D01*
X143084786Y-86692223D01*
X143099909Y-86701942D01*
X143256751Y-86819353D01*
X143270338Y-86831126D01*
X143408878Y-86969667D01*
X143420650Y-86983253D01*
X143538059Y-87140094D01*
X143547778Y-87155217D01*
X143641675Y-87327176D01*
X143649142Y-87343524D01*
X143717611Y-87527097D01*
X143722676Y-87544346D01*
X143764323Y-87735796D01*
X143766881Y-87753590D01*
X143776785Y-87892069D01*
X143781190Y-87953647D01*
X143781511Y-87962636D01*
X143781511Y-106813499D01*
X143781190Y-106822488D01*
X143766891Y-107022411D01*
X143764333Y-107040205D01*
X143722686Y-107231653D01*
X143717621Y-107248903D01*
X143649152Y-107432475D01*
X143641684Y-107448827D01*
X143547788Y-107620786D01*
X143538068Y-107635910D01*
X143420658Y-107792752D01*
X143408886Y-107806338D01*
X143270345Y-107944880D01*
X143256758Y-107956653D01*
X143099914Y-108074065D01*
X143084791Y-108083784D01*
X142912838Y-108177679D01*
X142896485Y-108185148D01*
X142712906Y-108253620D01*
X142695657Y-108258684D01*
X142504218Y-108300330D01*
X142486424Y-108302889D01*
X142307165Y-108315711D01*
X142286648Y-108317179D01*
X142277661Y-108317500D01*
X123426501Y-108317500D01*
X123417512Y-108317179D01*
X123217590Y-108302880D01*
X123199796Y-108300322D01*
X123008348Y-108258675D01*
X122991098Y-108253610D01*
X122807526Y-108185141D01*
X122791174Y-108177673D01*
X122619216Y-108083777D01*
X122604092Y-108074057D01*
X122447247Y-107956644D01*
X122433661Y-107944871D01*
X122295128Y-107806338D01*
X122283355Y-107792752D01*
X122165942Y-107635907D01*
X122156222Y-107620783D01*
X122062326Y-107448825D01*
X122054858Y-107432473D01*
X121994091Y-107269552D01*
X121986388Y-107248899D01*
X121981324Y-107231651D01*
X121939675Y-107040193D01*
X121937120Y-107022419D01*
X121922821Y-106822487D01*
X121922500Y-106813499D01*
X121922500Y-103737995D01*
X122852768Y-103737995D01*
X122852768Y-103738004D01*
X122871654Y-103941819D01*
X122899203Y-104038643D01*
X122927672Y-104138701D01*
X123018912Y-104321935D01*
X123018913Y-104321936D01*
X123142266Y-104485284D01*
X123293536Y-104623185D01*
X123467566Y-104730940D01*
X123467568Y-104730940D01*
X123467573Y-104730944D01*
X123658444Y-104804888D01*
X123859653Y-104842500D01*
X123859655Y-104842500D01*
X124064345Y-104842500D01*
X124064347Y-104842500D01*
X124265556Y-104804888D01*
X124456427Y-104730944D01*
X124630462Y-104623186D01*
X124781732Y-104485285D01*
X124905088Y-104321935D01*
X124996328Y-104138701D01*
X125052345Y-103941821D01*
X125066180Y-103792518D01*
X125071232Y-103738004D01*
X125071232Y-103737995D01*
X125052345Y-103534180D01*
X125036747Y-103479358D01*
X124996328Y-103337299D01*
X124905088Y-103154065D01*
X124864538Y-103100368D01*
X124781733Y-102990715D01*
X124630463Y-102852814D01*
X124456433Y-102745059D01*
X124456428Y-102745057D01*
X124456427Y-102745056D01*
X124435952Y-102737124D01*
X124265559Y-102671113D01*
X124265560Y-102671113D01*
X124265557Y-102671112D01*
X124265556Y-102671112D01*
X124064347Y-102633500D01*
X123859653Y-102633500D01*
X123684438Y-102666253D01*
X123658439Y-102671113D01*
X123467577Y-102745054D01*
X123467566Y-102745059D01*
X123293536Y-102852814D01*
X123142266Y-102990715D01*
X123018913Y-103154063D01*
X122927671Y-103337301D01*
X122871654Y-103534180D01*
X122852768Y-103737995D01*
X121922500Y-103737995D01*
X121922500Y-101197995D01*
X122852768Y-101197995D01*
X122852768Y-101198004D01*
X122871654Y-101401819D01*
X122927671Y-101598698D01*
X122927672Y-101598701D01*
X123018912Y-101781935D01*
X123031312Y-101798355D01*
X123142266Y-101945284D01*
X123293536Y-102083185D01*
X123467566Y-102190940D01*
X123467568Y-102190940D01*
X123467573Y-102190944D01*
X123658444Y-102264888D01*
X123859653Y-102302500D01*
X123859655Y-102302500D01*
X124064345Y-102302500D01*
X124064347Y-102302500D01*
X124265556Y-102264888D01*
X124456427Y-102190944D01*
X124630462Y-102083186D01*
X124781732Y-101945285D01*
X124789985Y-101934357D01*
X124822437Y-101891383D01*
X124905088Y-101781935D01*
X124976592Y-101638335D01*
X125024861Y-101586273D01*
X125089382Y-101568500D01*
X128325665Y-101568500D01*
X128393786Y-101588502D01*
X128440279Y-101642158D01*
X128450383Y-101712432D01*
X128441653Y-101738673D01*
X128443307Y-101739290D01*
X128389462Y-101883650D01*
X128389460Y-101883658D01*
X128383000Y-101943737D01*
X128383000Y-103115246D01*
X128383002Y-103115270D01*
X128389459Y-103175339D01*
X128389459Y-103175341D01*
X128440157Y-103311266D01*
X128440158Y-103311267D01*
X128527096Y-103427404D01*
X128643233Y-103514342D01*
X128779151Y-103565038D01*
X128779155Y-103565039D01*
X128779158Y-103565040D01*
X128779160Y-103565040D01*
X128783172Y-103565988D01*
X128785970Y-103567581D01*
X128786543Y-103567795D01*
X128786508Y-103567887D01*
X128844869Y-103601118D01*
X128877778Y-103664026D01*
X128880200Y-103688612D01*
X128880200Y-103749746D01*
X128860198Y-103817867D01*
X128854164Y-103826448D01*
X128828148Y-103860352D01*
X128828146Y-103860356D01*
X128828145Y-103860358D01*
X128810170Y-103903754D01*
X128772271Y-103995247D01*
X128753215Y-104139999D01*
X128753215Y-104140000D01*
X128772271Y-104284752D01*
X128828144Y-104419641D01*
X128828149Y-104419649D01*
X128917025Y-104535474D01*
X129032850Y-104624350D01*
X129032857Y-104624355D01*
X129167746Y-104680228D01*
X129312500Y-104699285D01*
X129457254Y-104680228D01*
X129592143Y-104624355D01*
X129707974Y-104535474D01*
X129796855Y-104419643D01*
X129852728Y-104284754D01*
X129871785Y-104140000D01*
X129852728Y-103995246D01*
X129796855Y-103860358D01*
X129796851Y-103860353D01*
X129796851Y-103860352D01*
X129770836Y-103826448D01*
X129745237Y-103760228D01*
X129744800Y-103749746D01*
X129744800Y-103688612D01*
X129764802Y-103620491D01*
X129818458Y-103573998D01*
X129841825Y-103565989D01*
X129845837Y-103565040D01*
X129845842Y-103565040D01*
X129981767Y-103514342D01*
X130097904Y-103427404D01*
X130184842Y-103311267D01*
X130235540Y-103175342D01*
X130242000Y-103115255D01*
X130241999Y-101943746D01*
X130235540Y-101883658D01*
X130197599Y-101781935D01*
X130181693Y-101739290D01*
X130185073Y-101738028D01*
X130173659Y-101685466D01*
X130198494Y-101618955D01*
X130255345Y-101576429D01*
X130299335Y-101568500D01*
X130759000Y-101568500D01*
X130827121Y-101588502D01*
X130873614Y-101642158D01*
X130885000Y-101694500D01*
X130885000Y-101841580D01*
X130891556Y-101891379D01*
X130891557Y-101891383D01*
X130900589Y-101910752D01*
X130911249Y-101980944D01*
X130900589Y-102017248D01*
X130891557Y-102036616D01*
X130891556Y-102036620D01*
X130885000Y-102086419D01*
X130885000Y-102341580D01*
X130891556Y-102391380D01*
X130942528Y-102500690D01*
X131027809Y-102585971D01*
X131027810Y-102585971D01*
X131027811Y-102585972D01*
X131137118Y-102636943D01*
X131186924Y-102643500D01*
X131588958Y-102643500D01*
X131657079Y-102663502D01*
X131703153Y-102716250D01*
X131747187Y-102810680D01*
X131743689Y-102812310D01*
X131759900Y-102860349D01*
X131760000Y-102865369D01*
X131760000Y-103263810D01*
X131739998Y-103331931D01*
X131716572Y-103357395D01*
X131716864Y-103357687D01*
X131711031Y-103363519D01*
X131622146Y-103479356D01*
X131622145Y-103479358D01*
X131594208Y-103546802D01*
X131566271Y-103614247D01*
X131547215Y-103758999D01*
X131547215Y-103759000D01*
X131566271Y-103903752D01*
X131622144Y-104038641D01*
X131622149Y-104038649D01*
X131711025Y-104154474D01*
X131826850Y-104243350D01*
X131826857Y-104243355D01*
X131961746Y-104299228D01*
X132106500Y-104318285D01*
X132251254Y-104299228D01*
X132386143Y-104243355D01*
X132501974Y-104154474D01*
X132590855Y-104038643D01*
X132609474Y-103993692D01*
X132654021Y-103938412D01*
X132721384Y-103915991D01*
X132790175Y-103933549D01*
X132814977Y-103952816D01*
X132965829Y-104103668D01*
X133285832Y-104423671D01*
X133366668Y-104470341D01*
X133456829Y-104494500D01*
X133550171Y-104494500D01*
X133649861Y-104494500D01*
X133717982Y-104514502D01*
X133738956Y-104531405D01*
X133743024Y-104535473D01*
X133858850Y-104624350D01*
X133858857Y-104624355D01*
X133993746Y-104680228D01*
X134138500Y-104699285D01*
X134283254Y-104680228D01*
X134418143Y-104624355D01*
X134533974Y-104535474D01*
X134622855Y-104419643D01*
X134678728Y-104284754D01*
X134697785Y-104140000D01*
X134678728Y-103995246D01*
X134622855Y-103860358D01*
X134622850Y-103860352D01*
X134622850Y-103860351D01*
X134555212Y-103772204D01*
X134529611Y-103705984D01*
X134543876Y-103636435D01*
X134555206Y-103618803D01*
X134622855Y-103530643D01*
X134678728Y-103395754D01*
X134697785Y-103251000D01*
X134678728Y-103106246D01*
X134622855Y-102971358D01*
X134533974Y-102855526D01*
X134533972Y-102855524D01*
X134533971Y-102855523D01*
X134454395Y-102794462D01*
X134412528Y-102737124D01*
X134408306Y-102666253D01*
X134443070Y-102604350D01*
X134505783Y-102571069D01*
X134531099Y-102568500D01*
X136681361Y-102568500D01*
X136749482Y-102588502D01*
X136770456Y-102605405D01*
X136774524Y-102609473D01*
X136881818Y-102691803D01*
X136890357Y-102698355D01*
X137025246Y-102754228D01*
X137170000Y-102773285D01*
X137314754Y-102754228D01*
X137449643Y-102698355D01*
X137508048Y-102653538D01*
X137574267Y-102627938D01*
X137643816Y-102642202D01*
X137694613Y-102691803D01*
X137710529Y-102760993D01*
X137708331Y-102778085D01*
X137707974Y-102779877D01*
X137688659Y-102975996D01*
X137688659Y-102976003D01*
X137707974Y-103172124D01*
X137707974Y-103172126D01*
X137765186Y-103360728D01*
X137847295Y-103514342D01*
X137858090Y-103534538D01*
X137983117Y-103686883D01*
X138135462Y-103811910D01*
X138309273Y-103904814D01*
X138497868Y-103962024D01*
X138497872Y-103962024D01*
X138497874Y-103962025D01*
X138693997Y-103981341D01*
X138694000Y-103981341D01*
X138694003Y-103981341D01*
X138890124Y-103962025D01*
X138890126Y-103962025D01*
X138890127Y-103962024D01*
X138890132Y-103962024D01*
X139078727Y-103904814D01*
X139252538Y-103811910D01*
X139342603Y-103737995D01*
X140642768Y-103737995D01*
X140642768Y-103738004D01*
X140661654Y-103941819D01*
X140689203Y-104038643D01*
X140717672Y-104138701D01*
X140808912Y-104321935D01*
X140808913Y-104321936D01*
X140932266Y-104485284D01*
X141083536Y-104623185D01*
X141257566Y-104730940D01*
X141257568Y-104730940D01*
X141257573Y-104730944D01*
X141448444Y-104804888D01*
X141649653Y-104842500D01*
X141649655Y-104842500D01*
X141854345Y-104842500D01*
X141854347Y-104842500D01*
X142055556Y-104804888D01*
X142246427Y-104730944D01*
X142420462Y-104623186D01*
X142571732Y-104485285D01*
X142695088Y-104321935D01*
X142786328Y-104138701D01*
X142842345Y-103941821D01*
X142856180Y-103792518D01*
X142861232Y-103738004D01*
X142861232Y-103737995D01*
X142842345Y-103534180D01*
X142826747Y-103479358D01*
X142786328Y-103337299D01*
X142695088Y-103154065D01*
X142654538Y-103100368D01*
X142571733Y-102990715D01*
X142420463Y-102852814D01*
X142246433Y-102745059D01*
X142246428Y-102745057D01*
X142246427Y-102745056D01*
X142225952Y-102737124D01*
X142055559Y-102671113D01*
X142055560Y-102671113D01*
X142055557Y-102671112D01*
X142055556Y-102671112D01*
X141854347Y-102633500D01*
X141649653Y-102633500D01*
X141474438Y-102666253D01*
X141448439Y-102671113D01*
X141257577Y-102745054D01*
X141257566Y-102745059D01*
X141083536Y-102852814D01*
X140932266Y-102990715D01*
X140808913Y-103154063D01*
X140717671Y-103337301D01*
X140661654Y-103534180D01*
X140642768Y-103737995D01*
X139342603Y-103737995D01*
X139404883Y-103686883D01*
X139529910Y-103534538D01*
X139622814Y-103360727D01*
X139680024Y-103172132D01*
X139680025Y-103172124D01*
X139699341Y-102976003D01*
X139699341Y-102975996D01*
X139680025Y-102779875D01*
X139680025Y-102779873D01*
X139680024Y-102779870D01*
X139680024Y-102779868D01*
X139622814Y-102591273D01*
X139529910Y-102417462D01*
X139404883Y-102265117D01*
X139252538Y-102140090D01*
X139078728Y-102047186D01*
X138890125Y-101989974D01*
X138694003Y-101970659D01*
X138693997Y-101970659D01*
X138497875Y-101989974D01*
X138497873Y-101989974D01*
X138309271Y-102047186D01*
X138135461Y-102140090D01*
X137983115Y-102265118D01*
X137952680Y-102302202D01*
X137894002Y-102342169D01*
X137823031Y-102344068D01*
X137762299Y-102307296D01*
X137731090Y-102243527D01*
X137731892Y-102222258D01*
X137729285Y-102222258D01*
X137729285Y-102213999D01*
X137710228Y-102069247D01*
X137701090Y-102047186D01*
X137654355Y-101934358D01*
X137565474Y-101818526D01*
X137565472Y-101818524D01*
X137565471Y-101818523D01*
X137449649Y-101729649D01*
X137449641Y-101729644D01*
X137314752Y-101673771D01*
X137170000Y-101654715D01*
X137025247Y-101673771D01*
X136957802Y-101701708D01*
X136890358Y-101729645D01*
X136890357Y-101729646D01*
X136890356Y-101729646D01*
X136774519Y-101818531D01*
X136770456Y-101822595D01*
X136708144Y-101856621D01*
X136681361Y-101859500D01*
X135673858Y-101859500D01*
X135605737Y-101839498D01*
X135559244Y-101785842D01*
X135549140Y-101715568D01*
X135573896Y-101656796D01*
X135606371Y-101614474D01*
X135622355Y-101593643D01*
X135678228Y-101458754D01*
X135697285Y-101314000D01*
X135683718Y-101210946D01*
X135694657Y-101140797D01*
X135741786Y-101087699D01*
X135808640Y-101068500D01*
X137117470Y-101068500D01*
X137185591Y-101088502D01*
X137206565Y-101105404D01*
X137512423Y-101411261D01*
X137512444Y-101411284D01*
X137582825Y-101481665D01*
X137582830Y-101481669D01*
X137582832Y-101481671D01*
X137582833Y-101481672D01*
X137582835Y-101481673D01*
X137663666Y-101528340D01*
X137663668Y-101528341D01*
X137753829Y-101552500D01*
X140616651Y-101552500D01*
X140684772Y-101572502D01*
X140729440Y-101622335D01*
X140808912Y-101781935D01*
X140821312Y-101798355D01*
X140932266Y-101945284D01*
X141083536Y-102083185D01*
X141257566Y-102190940D01*
X141257568Y-102190940D01*
X141257573Y-102190944D01*
X141448444Y-102264888D01*
X141649653Y-102302500D01*
X141649655Y-102302500D01*
X141854345Y-102302500D01*
X141854347Y-102302500D01*
X142055556Y-102264888D01*
X142246427Y-102190944D01*
X142420462Y-102083186D01*
X142571732Y-101945285D01*
X142579985Y-101934357D01*
X142612437Y-101891383D01*
X142695088Y-101781935D01*
X142786328Y-101598701D01*
X142842345Y-101401821D01*
X142859286Y-101219000D01*
X142861232Y-101198004D01*
X142861232Y-101197995D01*
X142842345Y-100994180D01*
X142826747Y-100939358D01*
X142786328Y-100797299D01*
X142695088Y-100614065D01*
X142636603Y-100536618D01*
X142571733Y-100450715D01*
X142420463Y-100312814D01*
X142246433Y-100205059D01*
X142246428Y-100205057D01*
X142246427Y-100205056D01*
X142246422Y-100205054D01*
X142055559Y-100131113D01*
X142055560Y-100131113D01*
X142055557Y-100131112D01*
X142055556Y-100131112D01*
X141854347Y-100093500D01*
X141649653Y-100093500D01*
X141448444Y-100131112D01*
X141448439Y-100131113D01*
X141257577Y-100205054D01*
X141257566Y-100205059D01*
X141083536Y-100312814D01*
X140932266Y-100450715D01*
X140808913Y-100614063D01*
X140808912Y-100614064D01*
X140808912Y-100614065D01*
X140729440Y-100773664D01*
X140681173Y-100825726D01*
X140616651Y-100843500D01*
X137999529Y-100843500D01*
X137931408Y-100823498D01*
X137910433Y-100806595D01*
X137736469Y-100632631D01*
X137534168Y-100430329D01*
X137534166Y-100430328D01*
X137534164Y-100430326D01*
X137453333Y-100383659D01*
X137363174Y-100359500D01*
X137363171Y-100359500D01*
X135748026Y-100359500D01*
X135679905Y-100339498D01*
X135633412Y-100285842D01*
X135623308Y-100215568D01*
X135631617Y-100185282D01*
X135678228Y-100072754D01*
X135697285Y-99928000D01*
X135678228Y-99783246D01*
X135622355Y-99648358D01*
X135533474Y-99532526D01*
X135526924Y-99527500D01*
X135427040Y-99450855D01*
X135385173Y-99393517D01*
X135380952Y-99322646D01*
X135406068Y-99277429D01*
X135403074Y-99275188D01*
X135446419Y-99217285D01*
X135493258Y-99154715D01*
X135531320Y-99052665D01*
X135573866Y-98995832D01*
X135640386Y-98971021D01*
X135709760Y-98986112D01*
X135749335Y-99019994D01*
X135775026Y-99053474D01*
X135775028Y-99053476D01*
X135890850Y-99142350D01*
X135890857Y-99142355D01*
X136025746Y-99198228D01*
X136170500Y-99217285D01*
X136315254Y-99198228D01*
X136450143Y-99142355D01*
X136565974Y-99053474D01*
X136565975Y-99053473D01*
X136570044Y-99049405D01*
X136632356Y-99015379D01*
X136659139Y-99012500D01*
X140616651Y-99012500D01*
X140684772Y-99032502D01*
X140729440Y-99082335D01*
X140808912Y-99241935D01*
X140808913Y-99241936D01*
X140932266Y-99405284D01*
X141083536Y-99543185D01*
X141257566Y-99650940D01*
X141257568Y-99650940D01*
X141257573Y-99650944D01*
X141448444Y-99724888D01*
X141649653Y-99762500D01*
X141649655Y-99762500D01*
X141854345Y-99762500D01*
X141854347Y-99762500D01*
X142055556Y-99724888D01*
X142246427Y-99650944D01*
X142420462Y-99543186D01*
X142571732Y-99405285D01*
X142574436Y-99401705D01*
X142611734Y-99352314D01*
X142695088Y-99241935D01*
X142786328Y-99058701D01*
X142842345Y-98861821D01*
X142854200Y-98733883D01*
X142861232Y-98658004D01*
X142861232Y-98657995D01*
X142842345Y-98454180D01*
X142842345Y-98454179D01*
X142786328Y-98257299D01*
X142695088Y-98074065D01*
X142643117Y-98005244D01*
X142571733Y-97910715D01*
X142420463Y-97772814D01*
X142246433Y-97665059D01*
X142246428Y-97665057D01*
X142246427Y-97665056D01*
X142218846Y-97654371D01*
X142055559Y-97591113D01*
X142055560Y-97591113D01*
X142055557Y-97591112D01*
X142055556Y-97591112D01*
X141854347Y-97553500D01*
X141649653Y-97553500D01*
X141448444Y-97591112D01*
X141448439Y-97591113D01*
X141257577Y-97665054D01*
X141257566Y-97665059D01*
X141083536Y-97772814D01*
X140932266Y-97910715D01*
X140808913Y-98074063D01*
X140808912Y-98074064D01*
X140808912Y-98074065D01*
X140729440Y-98233664D01*
X140681173Y-98285726D01*
X140616651Y-98303500D01*
X136659139Y-98303500D01*
X136591018Y-98283498D01*
X136570044Y-98266595D01*
X136565975Y-98262526D01*
X136450149Y-98173649D01*
X136450141Y-98173644D01*
X136315252Y-98117771D01*
X136170500Y-98098715D01*
X136025747Y-98117771D01*
X135958302Y-98145708D01*
X135890858Y-98173645D01*
X135890857Y-98173646D01*
X135890856Y-98173646D01*
X135775025Y-98262526D01*
X135738795Y-98309742D01*
X135681456Y-98351609D01*
X135610585Y-98355830D01*
X135548682Y-98321065D01*
X135520780Y-98277073D01*
X135493258Y-98203285D01*
X135493256Y-98203282D01*
X135493256Y-98203281D01*
X135408474Y-98090025D01*
X135295218Y-98005244D01*
X135295214Y-98005241D01*
X135162660Y-97955800D01*
X135162652Y-97955798D01*
X135104060Y-97949500D01*
X134409951Y-97949500D01*
X134409927Y-97949502D01*
X134351348Y-97955798D01*
X134218780Y-98005244D01*
X134105525Y-98090025D01*
X134020744Y-98203281D01*
X134020743Y-98203282D01*
X134012288Y-98225951D01*
X133969740Y-98282786D01*
X133903219Y-98307595D01*
X133833845Y-98292502D01*
X133783644Y-98242299D01*
X133776177Y-98225948D01*
X133767814Y-98203528D01*
X133683116Y-98090383D01*
X133569971Y-98005685D01*
X133437549Y-97956294D01*
X133379015Y-97950000D01*
X133159000Y-97950000D01*
X133159000Y-99408000D01*
X133379004Y-99408000D01*
X133379015Y-99407999D01*
X133437549Y-99401705D01*
X133569971Y-99352314D01*
X133683116Y-99267616D01*
X133767815Y-99154471D01*
X133776177Y-99132052D01*
X133818723Y-99075216D01*
X133885243Y-99050404D01*
X133954617Y-99065495D01*
X134004820Y-99115696D01*
X134012288Y-99132049D01*
X134020742Y-99154715D01*
X134020744Y-99154718D01*
X134105525Y-99267974D01*
X134218781Y-99352755D01*
X134218785Y-99352758D01*
X134358728Y-99404955D01*
X134357595Y-99407991D01*
X134406331Y-99435714D01*
X134439268Y-99498609D01*
X134441700Y-99523247D01*
X134441700Y-99720917D01*
X134471160Y-99830861D01*
X134471161Y-99830864D01*
X134528071Y-99929435D01*
X134528079Y-99929445D01*
X134556365Y-99957731D01*
X134590391Y-100020043D01*
X134592192Y-100030377D01*
X134597772Y-100072752D01*
X134597772Y-100072754D01*
X134639705Y-100173990D01*
X134644383Y-100185282D01*
X134651972Y-100255871D01*
X134620193Y-100319358D01*
X134559135Y-100355586D01*
X134527974Y-100359500D01*
X134265870Y-100359500D01*
X134212511Y-100343832D01*
X134211180Y-100346687D01*
X134091880Y-100291056D01*
X134042080Y-100284500D01*
X134042076Y-100284500D01*
X133639489Y-100284500D01*
X133571368Y-100264498D01*
X133525294Y-100211750D01*
X133486054Y-100127599D01*
X133400900Y-100042445D01*
X133291748Y-99991547D01*
X133242018Y-99985000D01*
X133241500Y-99985000D01*
X133241500Y-100105869D01*
X133221498Y-100173990D01*
X133167842Y-100220483D01*
X133097568Y-100230587D01*
X133032988Y-100201093D01*
X133001305Y-100159119D01*
X132999305Y-100154830D01*
X132987500Y-100101580D01*
X132987500Y-99985000D01*
X132986983Y-99985000D01*
X132937250Y-99991547D01*
X132937249Y-99991548D01*
X132918337Y-100000366D01*
X132848145Y-100011024D01*
X132811844Y-100000365D01*
X132800840Y-99995234D01*
X132791882Y-99991057D01*
X132791880Y-99991056D01*
X132791882Y-99991056D01*
X132742080Y-99984500D01*
X132742076Y-99984500D01*
X132722739Y-99984500D01*
X132654618Y-99964498D01*
X132608125Y-99910842D01*
X132598021Y-99840568D01*
X132606330Y-99810282D01*
X132646728Y-99712754D01*
X132665785Y-99568000D01*
X132663474Y-99550446D01*
X132674413Y-99480298D01*
X132721541Y-99427199D01*
X132788396Y-99408000D01*
X132905000Y-99408000D01*
X132905000Y-98806000D01*
X132240500Y-98806000D01*
X132240500Y-98882715D01*
X132220498Y-98950836D01*
X132166842Y-98997329D01*
X132114500Y-99008715D01*
X132106499Y-99008715D01*
X131961747Y-99027771D01*
X131899692Y-99053476D01*
X131826858Y-99083645D01*
X131826857Y-99083646D01*
X131826856Y-99083646D01*
X131711026Y-99172526D01*
X131622146Y-99288356D01*
X131622145Y-99288358D01*
X131598907Y-99344459D01*
X131566271Y-99423247D01*
X131547215Y-99567999D01*
X131547215Y-99568000D01*
X131566271Y-99712752D01*
X131622144Y-99847641D01*
X131622149Y-99847649D01*
X131711026Y-99963475D01*
X131716865Y-99969314D01*
X131715808Y-99970370D01*
X131752317Y-100020372D01*
X131756537Y-100091243D01*
X131745328Y-100116453D01*
X131747187Y-100117320D01*
X131702920Y-100212250D01*
X131656002Y-100265535D01*
X131588725Y-100285000D01*
X131579000Y-100285000D01*
X131579000Y-100588000D01*
X131558998Y-100656121D01*
X131505342Y-100702614D01*
X131453000Y-100714000D01*
X131451000Y-100714000D01*
X131382879Y-100693998D01*
X131336386Y-100640342D01*
X131325000Y-100588000D01*
X131325000Y-100285000D01*
X131186981Y-100285000D01*
X131137251Y-100291547D01*
X131028099Y-100342445D01*
X130942945Y-100427599D01*
X130892047Y-100536751D01*
X130885500Y-100586481D01*
X130885500Y-100587000D01*
X131006370Y-100587000D01*
X131074491Y-100607002D01*
X131120984Y-100660658D01*
X131131088Y-100730932D01*
X131101594Y-100795512D01*
X131059630Y-100827190D01*
X131055342Y-100829190D01*
X131002082Y-100841000D01*
X130870199Y-100841000D01*
X130841592Y-100856621D01*
X130814809Y-100859500D01*
X130065406Y-100859500D01*
X129997285Y-100839498D01*
X129950792Y-100785842D01*
X129940688Y-100715568D01*
X129970182Y-100650988D01*
X129989898Y-100632631D01*
X130097546Y-100552047D01*
X130184399Y-100436023D01*
X130235046Y-100300238D01*
X130235048Y-100300230D01*
X130241499Y-100240222D01*
X130241500Y-100240205D01*
X130241500Y-99781500D01*
X128383501Y-99781500D01*
X128383501Y-100240202D01*
X128383502Y-100240226D01*
X128389952Y-100300232D01*
X128389952Y-100300234D01*
X128440600Y-100436023D01*
X128527453Y-100552047D01*
X128635102Y-100632631D01*
X128677649Y-100689467D01*
X128682715Y-100760282D01*
X128648690Y-100822595D01*
X128586378Y-100856620D01*
X128559594Y-100859500D01*
X125105316Y-100859500D01*
X125037195Y-100839498D01*
X124992526Y-100789664D01*
X124905088Y-100614065D01*
X124846603Y-100536618D01*
X124781733Y-100450715D01*
X124630463Y-100312814D01*
X124456433Y-100205059D01*
X124456428Y-100205057D01*
X124456427Y-100205056D01*
X124456422Y-100205054D01*
X124265559Y-100131113D01*
X124265560Y-100131113D01*
X124265557Y-100131112D01*
X124265556Y-100131112D01*
X124064347Y-100093500D01*
X123859653Y-100093500D01*
X123658444Y-100131112D01*
X123658439Y-100131113D01*
X123467577Y-100205054D01*
X123467566Y-100205059D01*
X123293536Y-100312814D01*
X123142266Y-100450715D01*
X123018913Y-100614063D01*
X122927671Y-100797301D01*
X122871654Y-100994180D01*
X122852768Y-101197995D01*
X121922500Y-101197995D01*
X121922500Y-93577995D01*
X122852768Y-93577995D01*
X122852768Y-93578004D01*
X122871654Y-93781819D01*
X122926185Y-93973474D01*
X122927672Y-93978701D01*
X123018912Y-94161935D01*
X123018913Y-94161936D01*
X123142266Y-94325284D01*
X123293536Y-94463185D01*
X123467566Y-94570940D01*
X123467568Y-94570940D01*
X123467573Y-94570944D01*
X123658444Y-94644888D01*
X123859653Y-94682500D01*
X123859655Y-94682500D01*
X124064345Y-94682500D01*
X124064347Y-94682500D01*
X124265556Y-94644888D01*
X124456427Y-94570944D01*
X124630462Y-94463186D01*
X124781732Y-94325285D01*
X124789985Y-94314357D01*
X124821000Y-94273286D01*
X124905088Y-94161935D01*
X124984559Y-94002335D01*
X125032827Y-93950274D01*
X125097349Y-93932500D01*
X127734324Y-93932500D01*
X127802445Y-93952502D01*
X127839087Y-93988496D01*
X127884516Y-94056484D01*
X127968699Y-94112734D01*
X127976932Y-94118235D01*
X128022459Y-94172713D01*
X128031306Y-94243156D01*
X128000665Y-94307200D01*
X127976932Y-94327765D01*
X127968699Y-94333265D01*
X127968699Y-94333266D01*
X127956899Y-94341150D01*
X127884515Y-94389516D01*
X127867312Y-94415263D01*
X127852451Y-94437503D01*
X127797976Y-94483030D01*
X127747688Y-94493500D01*
X125185325Y-94493500D01*
X125095166Y-94517659D01*
X125014335Y-94564326D01*
X125014329Y-94564331D01*
X124512446Y-95066213D01*
X124450134Y-95100238D01*
X124379318Y-95095173D01*
X124377835Y-95094609D01*
X124265559Y-95051113D01*
X124265558Y-95051112D01*
X124265556Y-95051112D01*
X124064347Y-95013500D01*
X123859653Y-95013500D01*
X123658444Y-95051112D01*
X123658439Y-95051113D01*
X123467577Y-95125054D01*
X123467566Y-95125059D01*
X123293536Y-95232814D01*
X123142266Y-95370715D01*
X123018913Y-95534063D01*
X122927671Y-95717301D01*
X122871654Y-95914180D01*
X122852768Y-96117995D01*
X122852768Y-96118004D01*
X122871654Y-96321819D01*
X122914415Y-96472107D01*
X122927672Y-96518701D01*
X123018912Y-96701935D01*
X123018913Y-96701936D01*
X123142266Y-96865284D01*
X123293536Y-97003185D01*
X123467566Y-97110940D01*
X123467568Y-97110940D01*
X123467573Y-97110944D01*
X123658444Y-97184888D01*
X123859653Y-97222500D01*
X123859655Y-97222500D01*
X124064345Y-97222500D01*
X124064347Y-97222500D01*
X124265556Y-97184888D01*
X124456427Y-97110944D01*
X124630462Y-97003186D01*
X124781732Y-96865285D01*
X124905088Y-96701935D01*
X124996328Y-96518701D01*
X125052345Y-96321821D01*
X125071232Y-96118000D01*
X125052345Y-95914179D01*
X124996328Y-95717299D01*
X124992761Y-95710136D01*
X124980304Y-95640244D01*
X125007611Y-95574709D01*
X125016458Y-95564880D01*
X125174054Y-95407285D01*
X125341935Y-95239404D01*
X125404247Y-95205379D01*
X125431030Y-95202500D01*
X127747687Y-95202500D01*
X127815808Y-95222502D01*
X127852451Y-95258497D01*
X127884514Y-95306482D01*
X127884515Y-95306482D01*
X127884516Y-95306484D01*
X127968699Y-95362734D01*
X127976932Y-95368235D01*
X128022459Y-95422713D01*
X128031306Y-95493156D01*
X128000665Y-95557200D01*
X127976932Y-95577765D01*
X127884515Y-95639516D01*
X127882503Y-95642528D01*
X127852451Y-95687503D01*
X127797976Y-95733030D01*
X127747688Y-95743500D01*
X126544075Y-95743500D01*
X126453916Y-95767659D01*
X126373085Y-95814326D01*
X126373075Y-95814334D01*
X124561999Y-97625410D01*
X124499687Y-97659436D01*
X124428871Y-97654371D01*
X124427387Y-97653806D01*
X124265559Y-97591113D01*
X124265560Y-97591113D01*
X124265557Y-97591112D01*
X124265556Y-97591112D01*
X124064347Y-97553500D01*
X123859653Y-97553500D01*
X123658444Y-97591112D01*
X123658439Y-97591113D01*
X123467577Y-97665054D01*
X123467566Y-97665059D01*
X123293536Y-97772814D01*
X123142266Y-97910715D01*
X123018913Y-98074063D01*
X122927671Y-98257301D01*
X122871654Y-98454180D01*
X122852768Y-98657995D01*
X122852768Y-98658004D01*
X122871654Y-98861819D01*
X122926185Y-99053474D01*
X122927672Y-99058701D01*
X123018912Y-99241935D01*
X123018913Y-99241936D01*
X123142266Y-99405284D01*
X123293536Y-99543185D01*
X123467566Y-99650940D01*
X123467568Y-99650940D01*
X123467573Y-99650944D01*
X123658444Y-99724888D01*
X123859653Y-99762500D01*
X123859655Y-99762500D01*
X124064345Y-99762500D01*
X124064347Y-99762500D01*
X124265556Y-99724888D01*
X124456427Y-99650944D01*
X124630462Y-99543186D01*
X124781732Y-99405285D01*
X124784436Y-99401705D01*
X124821734Y-99352314D01*
X124905088Y-99241935D01*
X124991311Y-99068777D01*
X128383500Y-99068777D01*
X128383500Y-99527500D01*
X129185500Y-99527500D01*
X129439500Y-99527500D01*
X130241499Y-99527500D01*
X130241499Y-99068797D01*
X130241497Y-99068773D01*
X130235047Y-99008767D01*
X130235047Y-99008765D01*
X130184399Y-98872976D01*
X130097547Y-98756952D01*
X129981523Y-98670100D01*
X129981524Y-98670100D01*
X129845738Y-98619453D01*
X129845730Y-98619451D01*
X129785722Y-98613000D01*
X129439500Y-98613000D01*
X129439500Y-99527500D01*
X129185500Y-99527500D01*
X129185500Y-98613000D01*
X128839297Y-98613000D01*
X128839273Y-98613002D01*
X128779267Y-98619452D01*
X128779265Y-98619452D01*
X128643476Y-98670100D01*
X128527452Y-98756952D01*
X128440600Y-98872976D01*
X128389953Y-99008761D01*
X128389951Y-99008769D01*
X128383500Y-99068777D01*
X124991311Y-99068777D01*
X124996328Y-99058701D01*
X125052345Y-98861821D01*
X125064200Y-98733883D01*
X125071232Y-98658004D01*
X125071232Y-98657995D01*
X125052345Y-98454180D01*
X125039128Y-98407728D01*
X125002517Y-98279051D01*
X125003113Y-98208057D01*
X125034608Y-98155479D01*
X125167091Y-98022996D01*
X126131659Y-98022996D01*
X126131659Y-98023003D01*
X126150974Y-98219124D01*
X126150974Y-98219126D01*
X126208186Y-98407728D01*
X126264587Y-98513246D01*
X126301090Y-98581538D01*
X126426117Y-98733883D01*
X126578462Y-98858910D01*
X126752273Y-98951814D01*
X126940868Y-99009024D01*
X126940872Y-99009024D01*
X126940874Y-99009025D01*
X127136997Y-99028341D01*
X127137000Y-99028341D01*
X127137003Y-99028341D01*
X127333124Y-99009025D01*
X127333126Y-99009025D01*
X127333127Y-99009024D01*
X127333132Y-99009024D01*
X127521727Y-98951814D01*
X127695538Y-98858910D01*
X127847883Y-98733883D01*
X127972910Y-98581538D01*
X128065814Y-98407727D01*
X128069831Y-98394484D01*
X132240500Y-98394484D01*
X132240500Y-98552000D01*
X132905000Y-98552000D01*
X132905000Y-97950000D01*
X132684984Y-97950000D01*
X132626450Y-97956294D01*
X132494028Y-98005685D01*
X132380883Y-98090383D01*
X132296185Y-98203528D01*
X132246794Y-98335950D01*
X132240500Y-98394484D01*
X128069831Y-98394484D01*
X128123024Y-98219132D01*
X128134884Y-98098715D01*
X128142341Y-98023003D01*
X128142341Y-98022996D01*
X128123025Y-97826875D01*
X128123025Y-97826873D01*
X128123024Y-97826870D01*
X128123024Y-97826868D01*
X128065814Y-97638273D01*
X127972910Y-97464462D01*
X127847883Y-97312117D01*
X127695538Y-97187090D01*
X127691415Y-97184886D01*
X127521728Y-97094186D01*
X127333125Y-97036974D01*
X127137003Y-97017659D01*
X127136997Y-97017659D01*
X126940875Y-97036974D01*
X126940873Y-97036974D01*
X126752271Y-97094186D01*
X126578461Y-97187090D01*
X126426117Y-97312117D01*
X126301090Y-97464461D01*
X126208186Y-97638271D01*
X126150974Y-97826873D01*
X126150974Y-97826875D01*
X126131659Y-98022996D01*
X125167091Y-98022996D01*
X126700686Y-96489402D01*
X126762996Y-96455379D01*
X126789779Y-96452500D01*
X127747687Y-96452500D01*
X127815808Y-96472502D01*
X127852451Y-96508497D01*
X127884515Y-96556484D01*
X127968697Y-96612733D01*
X127968699Y-96612734D01*
X128042933Y-96627500D01*
X129043066Y-96627499D01*
X129043069Y-96627498D01*
X129043073Y-96627498D01*
X129092326Y-96617701D01*
X129117301Y-96612734D01*
X129201484Y-96556484D01*
X129257734Y-96472301D01*
X129272500Y-96398067D01*
X129272500Y-96398022D01*
X129964001Y-96398022D01*
X129978737Y-96472105D01*
X129978737Y-96472107D01*
X130034875Y-96556124D01*
X130118893Y-96612262D01*
X130118894Y-96612263D01*
X130192980Y-96626999D01*
X130566000Y-96626999D01*
X130820000Y-96626999D01*
X131193014Y-96626999D01*
X131193022Y-96626998D01*
X131267105Y-96612262D01*
X131267107Y-96612262D01*
X131351124Y-96556124D01*
X131407262Y-96472106D01*
X131407263Y-96472105D01*
X131421105Y-96402515D01*
X131960000Y-96402515D01*
X131966294Y-96461049D01*
X132015685Y-96593471D01*
X132100383Y-96706616D01*
X132213528Y-96791314D01*
X132345950Y-96840705D01*
X132404484Y-96846999D01*
X132404496Y-96847000D01*
X132624500Y-96847000D01*
X132624500Y-96245000D01*
X131960000Y-96245000D01*
X131960000Y-96402515D01*
X131421105Y-96402515D01*
X131421999Y-96398022D01*
X131422000Y-96398015D01*
X131422000Y-96225000D01*
X130820000Y-96225000D01*
X130820000Y-96626999D01*
X130566000Y-96626999D01*
X130566000Y-96225000D01*
X129964001Y-96225000D01*
X129964001Y-96398022D01*
X129272500Y-96398022D01*
X129272499Y-95797934D01*
X129272498Y-95797931D01*
X129272498Y-95797926D01*
X129257734Y-95723699D01*
X129248673Y-95710139D01*
X129201484Y-95639516D01*
X129201483Y-95639515D01*
X129109067Y-95577763D01*
X129063540Y-95523286D01*
X129054693Y-95452843D01*
X129085334Y-95388799D01*
X129109068Y-95368234D01*
X129117298Y-95362734D01*
X129117301Y-95362734D01*
X129201484Y-95306484D01*
X129257734Y-95222301D01*
X129272500Y-95148067D01*
X129272499Y-94547934D01*
X129272498Y-94547930D01*
X129272498Y-94547926D01*
X129257734Y-94473699D01*
X129241395Y-94449246D01*
X129201484Y-94389516D01*
X129201483Y-94389515D01*
X129109067Y-94327763D01*
X129063540Y-94273286D01*
X129054693Y-94202843D01*
X129085334Y-94138799D01*
X129109068Y-94118234D01*
X129117298Y-94112734D01*
X129117301Y-94112734D01*
X129201484Y-94056484D01*
X129257734Y-93972301D01*
X129272500Y-93898067D01*
X129272499Y-93297934D01*
X129272498Y-93297930D01*
X129272498Y-93297926D01*
X129257734Y-93223699D01*
X129243584Y-93202523D01*
X129201484Y-93139516D01*
X129201483Y-93139515D01*
X129109067Y-93077763D01*
X129063540Y-93023286D01*
X129054693Y-92952843D01*
X129085334Y-92888799D01*
X129109068Y-92868234D01*
X129117298Y-92862734D01*
X129117301Y-92862734D01*
X129201484Y-92806484D01*
X129257734Y-92722301D01*
X129272500Y-92648067D01*
X129272499Y-92047934D01*
X129272498Y-92047930D01*
X129963500Y-92047930D01*
X129963500Y-92648063D01*
X129963501Y-92648073D01*
X129978265Y-92722300D01*
X130006198Y-92764103D01*
X130034516Y-92806484D01*
X130118699Y-92862734D01*
X130126932Y-92868235D01*
X130172459Y-92922713D01*
X130181306Y-92993156D01*
X130150665Y-93057200D01*
X130126932Y-93077765D01*
X130118699Y-93083265D01*
X130118699Y-93083266D01*
X130103160Y-93093649D01*
X130034514Y-93139517D01*
X129978266Y-93223697D01*
X129963500Y-93297930D01*
X129963500Y-93898063D01*
X129963501Y-93898073D01*
X129978265Y-93972300D01*
X129998336Y-94002337D01*
X130034516Y-94056484D01*
X130118699Y-94112734D01*
X130126932Y-94118235D01*
X130172459Y-94172713D01*
X130181306Y-94243156D01*
X130150665Y-94307200D01*
X130126932Y-94327765D01*
X130118699Y-94333265D01*
X130118699Y-94333266D01*
X130094148Y-94349670D01*
X130034514Y-94389517D01*
X129978266Y-94473697D01*
X129963500Y-94547930D01*
X129963500Y-95148063D01*
X129963501Y-95148073D01*
X129978265Y-95222300D01*
X130034515Y-95306482D01*
X130034516Y-95306484D01*
X130118699Y-95362734D01*
X130127381Y-95368535D01*
X130172909Y-95423012D01*
X130181756Y-95493455D01*
X130151115Y-95557499D01*
X130127381Y-95578065D01*
X130034875Y-95639875D01*
X129978737Y-95723893D01*
X129978736Y-95723894D01*
X129964000Y-95797977D01*
X129964000Y-95971000D01*
X131421999Y-95971000D01*
X131421999Y-95797986D01*
X131421998Y-95797977D01*
X131407262Y-95723894D01*
X131407262Y-95723892D01*
X131351124Y-95639875D01*
X131258618Y-95578065D01*
X131213090Y-95523588D01*
X131204242Y-95453145D01*
X131234884Y-95389101D01*
X131258618Y-95368535D01*
X131267299Y-95362734D01*
X131267301Y-95362734D01*
X131351484Y-95306484D01*
X131351484Y-95306483D01*
X131358890Y-95301535D01*
X131426643Y-95280320D01*
X131428892Y-95280300D01*
X131572747Y-95280300D01*
X131640868Y-95300302D01*
X131649442Y-95306331D01*
X131683357Y-95332355D01*
X131818246Y-95388228D01*
X131957832Y-95406604D01*
X132022758Y-95435326D01*
X132061850Y-95494591D01*
X132062695Y-95565583D01*
X132042254Y-95607033D01*
X132015686Y-95642523D01*
X131966294Y-95774950D01*
X131960000Y-95833484D01*
X131960000Y-95991000D01*
X132624500Y-95991000D01*
X132624500Y-95389000D01*
X132878500Y-95389000D01*
X132878500Y-96847000D01*
X133098504Y-96847000D01*
X133098515Y-96846999D01*
X133157049Y-96840705D01*
X133289471Y-96791314D01*
X133402616Y-96706616D01*
X133487315Y-96593471D01*
X133495677Y-96571052D01*
X133538223Y-96514216D01*
X133604743Y-96489404D01*
X133674117Y-96504495D01*
X133724320Y-96554696D01*
X133731788Y-96571049D01*
X133740242Y-96593715D01*
X133740244Y-96593718D01*
X133825025Y-96706974D01*
X133938281Y-96791755D01*
X133938285Y-96791758D01*
X134070839Y-96841199D01*
X134070847Y-96841201D01*
X134100143Y-96844350D01*
X134129443Y-96847500D01*
X134823556Y-96847499D01*
X134849408Y-96844720D01*
X134882151Y-96841201D01*
X134882152Y-96841200D01*
X134882157Y-96841200D01*
X135014715Y-96791758D01*
X135127974Y-96706974D01*
X135212758Y-96593715D01*
X135251664Y-96489404D01*
X135262199Y-96461160D01*
X135262201Y-96461152D01*
X135268499Y-96402568D01*
X135268499Y-96402566D01*
X135268500Y-96402557D01*
X135268499Y-96117995D01*
X140642768Y-96117995D01*
X140642768Y-96118004D01*
X140661654Y-96321819D01*
X140704415Y-96472107D01*
X140717672Y-96518701D01*
X140808912Y-96701935D01*
X140808913Y-96701936D01*
X140932266Y-96865284D01*
X141083536Y-97003185D01*
X141257566Y-97110940D01*
X141257568Y-97110940D01*
X141257573Y-97110944D01*
X141448444Y-97184888D01*
X141649653Y-97222500D01*
X141649655Y-97222500D01*
X141854345Y-97222500D01*
X141854347Y-97222500D01*
X142055556Y-97184888D01*
X142246427Y-97110944D01*
X142420462Y-97003186D01*
X142571732Y-96865285D01*
X142695088Y-96701935D01*
X142786328Y-96518701D01*
X142842345Y-96321821D01*
X142861232Y-96118000D01*
X142842345Y-95914179D01*
X142786328Y-95717299D01*
X142695088Y-95534065D01*
X142633752Y-95452843D01*
X142571733Y-95370715D01*
X142420463Y-95232814D01*
X142246433Y-95125059D01*
X142246428Y-95125057D01*
X142246427Y-95125056D01*
X142182365Y-95100238D01*
X142055559Y-95051113D01*
X142055560Y-95051113D01*
X142055557Y-95051112D01*
X142055556Y-95051112D01*
X141854347Y-95013500D01*
X141649653Y-95013500D01*
X141448444Y-95051112D01*
X141448439Y-95051113D01*
X141257577Y-95125054D01*
X141257566Y-95125059D01*
X141083536Y-95232814D01*
X140932266Y-95370715D01*
X140808913Y-95534063D01*
X140717671Y-95717301D01*
X140661654Y-95914180D01*
X140642768Y-96117995D01*
X135268499Y-96117995D01*
X135268499Y-95833444D01*
X135262200Y-95774843D01*
X135212758Y-95642285D01*
X135212755Y-95642281D01*
X135212755Y-95642280D01*
X135127974Y-95529025D01*
X135014718Y-95444244D01*
X135014717Y-95444243D01*
X135014715Y-95444242D01*
X134990764Y-95435308D01*
X134933930Y-95392761D01*
X134909121Y-95326240D01*
X134908800Y-95317254D01*
X134908800Y-94984252D01*
X134928802Y-94916131D01*
X134934830Y-94907558D01*
X134960855Y-94873643D01*
X135016728Y-94738754D01*
X135035785Y-94594000D01*
X135016728Y-94449246D01*
X134960855Y-94314358D01*
X134871974Y-94198526D01*
X134871972Y-94198524D01*
X134871971Y-94198523D01*
X134756149Y-94109649D01*
X134756141Y-94109644D01*
X134621252Y-94053771D01*
X134476500Y-94034715D01*
X134331747Y-94053771D01*
X134264302Y-94081708D01*
X134196858Y-94109645D01*
X134196857Y-94109646D01*
X134196856Y-94109646D01*
X134081026Y-94198526D01*
X133992146Y-94314356D01*
X133992145Y-94314358D01*
X133971729Y-94363646D01*
X133936271Y-94449247D01*
X133917215Y-94593999D01*
X133917215Y-94594000D01*
X133936271Y-94738752D01*
X133936272Y-94738754D01*
X133992145Y-94873643D01*
X134018161Y-94907548D01*
X134043763Y-94973766D01*
X134044200Y-94984252D01*
X134044200Y-95317254D01*
X134024198Y-95385375D01*
X133970542Y-95431868D01*
X133962235Y-95435309D01*
X133938282Y-95444243D01*
X133938281Y-95444244D01*
X133825025Y-95529025D01*
X133740244Y-95642281D01*
X133740243Y-95642282D01*
X133731788Y-95664951D01*
X133689240Y-95721786D01*
X133622719Y-95746595D01*
X133553345Y-95731502D01*
X133503144Y-95681299D01*
X133495677Y-95664948D01*
X133487314Y-95642528D01*
X133402616Y-95529383D01*
X133289471Y-95444685D01*
X133157049Y-95395294D01*
X133098515Y-95389000D01*
X132878500Y-95389000D01*
X132624500Y-95389000D01*
X132502311Y-95389000D01*
X132434190Y-95368998D01*
X132387697Y-95315342D01*
X132377593Y-95245068D01*
X132402349Y-95186296D01*
X132447350Y-95127649D01*
X132447355Y-95127643D01*
X132503228Y-94992754D01*
X132522285Y-94848000D01*
X132503228Y-94703246D01*
X132447355Y-94568358D01*
X132358474Y-94452526D01*
X132358472Y-94452524D01*
X132358471Y-94452523D01*
X132242649Y-94363649D01*
X132242641Y-94363644D01*
X132228283Y-94357697D01*
X132184129Y-94339407D01*
X132128850Y-94294861D01*
X132106429Y-94227497D01*
X132123987Y-94158706D01*
X132175949Y-94110328D01*
X132184118Y-94106596D01*
X132242643Y-94082355D01*
X132358474Y-93993474D01*
X132447355Y-93877643D01*
X132503228Y-93742754D01*
X132522285Y-93598000D01*
X132519652Y-93577999D01*
X136610715Y-93577999D01*
X136610715Y-93578000D01*
X136629771Y-93722752D01*
X136685644Y-93857641D01*
X136685649Y-93857649D01*
X136774525Y-93973474D01*
X136890350Y-94062350D01*
X136890357Y-94062355D01*
X137025246Y-94118228D01*
X137170000Y-94137285D01*
X137314754Y-94118228D01*
X137449643Y-94062355D01*
X137565474Y-93973474D01*
X137565475Y-93973473D01*
X137569544Y-93969405D01*
X137631856Y-93935379D01*
X137658639Y-93932500D01*
X140616651Y-93932500D01*
X140684772Y-93952502D01*
X140729440Y-94002335D01*
X140808912Y-94161935D01*
X140808913Y-94161936D01*
X140932266Y-94325284D01*
X141083536Y-94463185D01*
X141257566Y-94570940D01*
X141257568Y-94570940D01*
X141257573Y-94570944D01*
X141448444Y-94644888D01*
X141649653Y-94682500D01*
X141649655Y-94682500D01*
X141854345Y-94682500D01*
X141854347Y-94682500D01*
X142055556Y-94644888D01*
X142246427Y-94570944D01*
X142420462Y-94463186D01*
X142571732Y-94325285D01*
X142579985Y-94314357D01*
X142611000Y-94273286D01*
X142695088Y-94161935D01*
X142786328Y-93978701D01*
X142842345Y-93781821D01*
X142861232Y-93578000D01*
X142842345Y-93374179D01*
X142786328Y-93177299D01*
X142695088Y-92994065D01*
X142615164Y-92888228D01*
X142571733Y-92830715D01*
X142420463Y-92692814D01*
X142246433Y-92585059D01*
X142246428Y-92585057D01*
X142246427Y-92585056D01*
X142055559Y-92511113D01*
X142055560Y-92511113D01*
X142055557Y-92511112D01*
X142055556Y-92511112D01*
X141854347Y-92473500D01*
X141649653Y-92473500D01*
X141460224Y-92508910D01*
X141448439Y-92511113D01*
X141257577Y-92585054D01*
X141257566Y-92585059D01*
X141083536Y-92692814D01*
X140932266Y-92830715D01*
X140808913Y-92994063D01*
X140808912Y-92994064D01*
X140808912Y-92994065D01*
X140729440Y-93153664D01*
X140681173Y-93205726D01*
X140616651Y-93223500D01*
X137658639Y-93223500D01*
X137590518Y-93203498D01*
X137569544Y-93186595D01*
X137565475Y-93182526D01*
X137449649Y-93093649D01*
X137449641Y-93093644D01*
X137314752Y-93037771D01*
X137170000Y-93018715D01*
X137025247Y-93037771D01*
X136978343Y-93057200D01*
X136890358Y-93093645D01*
X136890357Y-93093646D01*
X136890356Y-93093646D01*
X136774526Y-93182526D01*
X136685646Y-93298356D01*
X136685645Y-93298358D01*
X136677361Y-93318357D01*
X136629771Y-93433247D01*
X136610715Y-93577999D01*
X132519652Y-93577999D01*
X132503228Y-93453246D01*
X132447355Y-93318358D01*
X132358474Y-93202526D01*
X132358472Y-93202524D01*
X132358471Y-93202523D01*
X132242649Y-93113649D01*
X132242641Y-93113644D01*
X132228283Y-93107697D01*
X132184129Y-93089407D01*
X132128850Y-93044861D01*
X132106429Y-92977497D01*
X132123987Y-92908706D01*
X132175949Y-92860328D01*
X132184118Y-92856596D01*
X132242643Y-92832355D01*
X132358474Y-92743474D01*
X132447355Y-92627643D01*
X132503228Y-92492754D01*
X132522285Y-92348000D01*
X132503228Y-92203246D01*
X132447355Y-92068358D01*
X132358474Y-91952526D01*
X132358472Y-91952524D01*
X132358471Y-91952523D01*
X132242649Y-91863649D01*
X132242641Y-91863644D01*
X132107752Y-91807771D01*
X131963000Y-91788715D01*
X131818247Y-91807771D01*
X131756701Y-91833265D01*
X131683358Y-91863645D01*
X131683357Y-91863646D01*
X131683355Y-91863647D01*
X131676218Y-91869124D01*
X131649451Y-91889662D01*
X131583233Y-91915263D01*
X131572748Y-91915700D01*
X131428892Y-91915700D01*
X131360771Y-91895698D01*
X131358889Y-91894464D01*
X131351482Y-91889515D01*
X131312769Y-91863647D01*
X131267302Y-91833266D01*
X131193067Y-91818500D01*
X130192936Y-91818500D01*
X130192926Y-91818501D01*
X130118699Y-91833265D01*
X130034515Y-91889516D01*
X129978266Y-91973697D01*
X129963500Y-92047930D01*
X129272498Y-92047930D01*
X129272498Y-92047926D01*
X129257734Y-91973699D01*
X129217190Y-91913022D01*
X129201484Y-91889516D01*
X129170966Y-91869124D01*
X129117302Y-91833266D01*
X129043067Y-91818500D01*
X128042936Y-91818500D01*
X128042926Y-91818501D01*
X127968700Y-91833265D01*
X127968699Y-91833266D01*
X127884516Y-91889516D01*
X127884514Y-91889517D01*
X127877111Y-91894465D01*
X127809358Y-91915680D01*
X127807108Y-91915700D01*
X127478253Y-91915700D01*
X127410132Y-91895698D01*
X127401557Y-91889668D01*
X127367643Y-91863645D01*
X127294300Y-91833265D01*
X127232752Y-91807771D01*
X127088000Y-91788715D01*
X126943247Y-91807771D01*
X126881701Y-91833265D01*
X126808358Y-91863645D01*
X126808357Y-91863646D01*
X126808356Y-91863646D01*
X126692526Y-91952526D01*
X126603646Y-92068356D01*
X126603645Y-92068358D01*
X126579246Y-92127262D01*
X126547771Y-92203247D01*
X126528715Y-92347999D01*
X126528715Y-92348000D01*
X126547771Y-92492752D01*
X126603644Y-92627641D01*
X126603649Y-92627649D01*
X126692525Y-92743474D01*
X126808350Y-92832350D01*
X126808357Y-92832355D01*
X126943246Y-92888228D01*
X127088000Y-92907285D01*
X127232754Y-92888228D01*
X127367643Y-92832355D01*
X127401549Y-92806337D01*
X127467768Y-92780737D01*
X127478253Y-92780300D01*
X127807108Y-92780300D01*
X127875229Y-92800302D01*
X127877111Y-92801536D01*
X127976932Y-92868236D01*
X128022459Y-92922713D01*
X128031306Y-92993156D01*
X128000664Y-93057200D01*
X127976932Y-93077765D01*
X127968699Y-93083265D01*
X127968699Y-93083266D01*
X127884516Y-93139516D01*
X127865814Y-93167504D01*
X127811338Y-93213030D01*
X127761051Y-93223500D01*
X125097349Y-93223500D01*
X125029228Y-93203498D01*
X124984559Y-93153664D01*
X124905088Y-92994065D01*
X124825164Y-92888228D01*
X124781733Y-92830715D01*
X124630463Y-92692814D01*
X124456433Y-92585059D01*
X124456428Y-92585057D01*
X124456427Y-92585056D01*
X124265559Y-92511113D01*
X124265560Y-92511113D01*
X124265557Y-92511112D01*
X124265556Y-92511112D01*
X124064347Y-92473500D01*
X123859653Y-92473500D01*
X123670224Y-92508910D01*
X123658439Y-92511113D01*
X123467577Y-92585054D01*
X123467566Y-92585059D01*
X123293536Y-92692814D01*
X123142266Y-92830715D01*
X123018913Y-92994063D01*
X122927671Y-93177301D01*
X122871654Y-93374180D01*
X122852768Y-93577995D01*
X121922500Y-93577995D01*
X121922500Y-90162977D01*
X122858000Y-90162977D01*
X122858000Y-90911000D01*
X123478392Y-90911000D01*
X123462000Y-90972174D01*
X123462000Y-91103826D01*
X123478392Y-91165000D01*
X122858001Y-91165000D01*
X122858001Y-91913022D01*
X122872737Y-91987105D01*
X122872737Y-91987107D01*
X122928875Y-92071124D01*
X123012893Y-92127262D01*
X123012894Y-92127263D01*
X123086980Y-92141999D01*
X123835000Y-92141999D01*
X123835000Y-91521608D01*
X123896174Y-91538000D01*
X124027826Y-91538000D01*
X124089000Y-91521608D01*
X124089000Y-92141999D01*
X124837014Y-92141999D01*
X124837022Y-92141998D01*
X124911105Y-92127262D01*
X124911107Y-92127262D01*
X124995124Y-92071124D01*
X125051262Y-91987106D01*
X125051263Y-91987105D01*
X125065999Y-91913022D01*
X125066000Y-91913015D01*
X125066000Y-91672996D01*
X135021659Y-91672996D01*
X135021659Y-91673003D01*
X135040974Y-91869124D01*
X135040974Y-91869126D01*
X135098186Y-92057728D01*
X135143230Y-92141998D01*
X135191090Y-92231538D01*
X135316117Y-92383883D01*
X135468462Y-92508910D01*
X135642273Y-92601814D01*
X135830868Y-92659024D01*
X135830872Y-92659024D01*
X135830874Y-92659025D01*
X136026997Y-92678341D01*
X136027000Y-92678341D01*
X136027003Y-92678341D01*
X136223124Y-92659025D01*
X136223126Y-92659025D01*
X136223127Y-92659024D01*
X136223132Y-92659024D01*
X136411727Y-92601814D01*
X136585538Y-92508910D01*
X136737883Y-92383883D01*
X136862910Y-92231538D01*
X136955814Y-92057727D01*
X137013024Y-91869132D01*
X137013564Y-91863647D01*
X137032341Y-91673003D01*
X137032341Y-91672996D01*
X137013025Y-91476875D01*
X137013025Y-91476873D01*
X137013024Y-91476870D01*
X137013024Y-91476868D01*
X136955814Y-91288273D01*
X136862910Y-91114462D01*
X136737883Y-90962117D01*
X136585538Y-90837090D01*
X136411728Y-90744186D01*
X136223125Y-90686974D01*
X136027003Y-90667659D01*
X136026997Y-90667659D01*
X135830875Y-90686974D01*
X135830873Y-90686974D01*
X135642271Y-90744186D01*
X135468461Y-90837090D01*
X135316117Y-90962117D01*
X135191090Y-91114461D01*
X135098186Y-91288271D01*
X135040974Y-91476873D01*
X135040974Y-91476875D01*
X135021659Y-91672996D01*
X125066000Y-91672996D01*
X125066000Y-91165000D01*
X124445608Y-91165000D01*
X124462000Y-91103826D01*
X124462000Y-90972174D01*
X124445608Y-90911000D01*
X125065999Y-90911000D01*
X125065999Y-90162986D01*
X125065998Y-90162977D01*
X140648000Y-90162977D01*
X140648000Y-90911000D01*
X141268392Y-90911000D01*
X141252000Y-90972174D01*
X141252000Y-91103826D01*
X141268392Y-91165000D01*
X140648001Y-91165000D01*
X140648001Y-91913022D01*
X140662737Y-91987105D01*
X140662737Y-91987107D01*
X140718875Y-92071124D01*
X140802893Y-92127262D01*
X140802894Y-92127263D01*
X140876980Y-92141999D01*
X141625000Y-92141999D01*
X141625000Y-91521608D01*
X141686174Y-91538000D01*
X141817826Y-91538000D01*
X141879000Y-91521608D01*
X141879000Y-92141999D01*
X142627014Y-92141999D01*
X142627022Y-92141998D01*
X142701105Y-92127262D01*
X142701107Y-92127262D01*
X142785124Y-92071124D01*
X142841262Y-91987106D01*
X142841263Y-91987105D01*
X142855999Y-91913022D01*
X142856000Y-91913015D01*
X142856000Y-91165000D01*
X142235608Y-91165000D01*
X142252000Y-91103826D01*
X142252000Y-90972174D01*
X142235608Y-90911000D01*
X142855999Y-90911000D01*
X142855999Y-90162986D01*
X142855998Y-90162977D01*
X142841262Y-90088894D01*
X142841262Y-90088892D01*
X142785124Y-90004875D01*
X142701106Y-89948737D01*
X142701105Y-89948736D01*
X142627022Y-89934000D01*
X141879000Y-89934000D01*
X141879000Y-90554391D01*
X141817826Y-90538000D01*
X141686174Y-90538000D01*
X141625000Y-90554391D01*
X141625000Y-89934000D01*
X140876986Y-89934000D01*
X140876976Y-89934001D01*
X140802894Y-89948737D01*
X140802892Y-89948737D01*
X140718875Y-90004875D01*
X140662737Y-90088893D01*
X140662736Y-90088894D01*
X140648000Y-90162977D01*
X125065998Y-90162977D01*
X125051262Y-90088894D01*
X125051262Y-90088892D01*
X124995124Y-90004875D01*
X124911106Y-89948737D01*
X124911105Y-89948736D01*
X124837022Y-89934000D01*
X124089000Y-89934000D01*
X124089000Y-90554391D01*
X124027826Y-90538000D01*
X123896174Y-90538000D01*
X123835000Y-90554391D01*
X123835000Y-89934000D01*
X123086986Y-89934000D01*
X123086976Y-89934001D01*
X123012894Y-89948737D01*
X123012892Y-89948737D01*
X122928875Y-90004875D01*
X122872737Y-90088893D01*
X122872736Y-90088894D01*
X122858000Y-90162977D01*
X121922500Y-90162977D01*
X121922500Y-87962499D01*
X121922821Y-87953511D01*
X121927215Y-87892069D01*
X121937120Y-87753577D01*
X121939675Y-87735807D01*
X121981325Y-87544341D01*
X121986390Y-87527097D01*
X122054860Y-87343524D01*
X122062322Y-87327181D01*
X122156229Y-87155204D01*
X122165934Y-87140104D01*
X122283361Y-86983239D01*
X122295123Y-86969667D01*
X122433669Y-86831120D01*
X122447240Y-86819360D01*
X122604097Y-86701938D01*
X122619211Y-86692225D01*
X122791181Y-86598322D01*
X122807518Y-86590861D01*
X122991103Y-86522387D01*
X123008342Y-86517325D01*
X123199808Y-86475675D01*
X123217578Y-86473120D01*
X123417527Y-86458819D01*
X123426512Y-86458499D01*
X123487892Y-86458499D01*
X142216116Y-86458499D01*
X142277507Y-86458499D01*
X142286495Y-86458819D01*
G37*
%TD.AperFunction*%
%TD*%
M02*
