%TF.GenerationSoftware,KiCad,Pcbnew,8.0.8*%
%TF.CreationDate,2025-02-11T20:59:27-05:00*%
%TF.ProjectId,IMU,494d552e-6b69-4636-9164-5f7063625858,rev?*%
%TF.SameCoordinates,Original*%
%TF.FileFunction,Soldermask,Top*%
%TF.FilePolarity,Negative*%
%FSLAX46Y46*%
G04 Gerber Fmt 4.6, Leading zero omitted, Abs format (unit mm)*
G04 Created by KiCad (PCBNEW 8.0.8) date 2025-02-11 20:59:27*
%MOMM*%
%LPD*%
G01*
G04 APERTURE LIST*
G04 Aperture macros list*
%AMRoundRect*
0 Rectangle with rounded corners*
0 $1 Rounding radius*
0 $2 $3 $4 $5 $6 $7 $8 $9 X,Y pos of 4 corners*
0 Add a 4 corners polygon primitive as box body*
4,1,4,$2,$3,$4,$5,$6,$7,$8,$9,$2,$3,0*
0 Add four circle primitives for the rounded corners*
1,1,$1+$1,$2,$3*
1,1,$1+$1,$4,$5*
1,1,$1+$1,$6,$7*
1,1,$1+$1,$8,$9*
0 Add four rect primitives between the rounded corners*
20,1,$1+$1,$2,$3,$4,$5,0*
20,1,$1+$1,$4,$5,$6,$7,0*
20,1,$1+$1,$6,$7,$8,$9,0*
20,1,$1+$1,$8,$9,$2,$3,0*%
G04 Aperture macros list end*
%ADD10C,2.000000*%
%ADD11R,1.700000X1.700000*%
%ADD12O,1.700000X1.700000*%
%ADD13RoundRect,0.250000X-0.425000X0.537500X-0.425000X-0.537500X0.425000X-0.537500X0.425000X0.537500X0*%
%ADD14RoundRect,0.087500X0.225000X0.087500X-0.225000X0.087500X-0.225000X-0.087500X0.225000X-0.087500X0*%
%ADD15RoundRect,0.087500X0.087500X0.225000X-0.087500X0.225000X-0.087500X-0.225000X0.087500X-0.225000X0*%
%ADD16RoundRect,0.237500X-0.300000X-0.237500X0.300000X-0.237500X0.300000X0.237500X-0.300000X0.237500X0*%
%ADD17R,0.950000X0.550000*%
G04 APERTURE END LIST*
D10*
%TO.C,FID1*%
X138694000Y-102976000D03*
%TD*%
%TO.C,FID2*%
X136027000Y-91673000D03*
%TD*%
D11*
%TO.C,J1*%
X141752000Y-91038000D03*
D12*
X141752000Y-93578000D03*
X141752000Y-96118000D03*
X141752000Y-98658000D03*
X141752000Y-101198000D03*
X141752000Y-103738000D03*
%TD*%
D13*
%TO.C,C2*%
X129312500Y-99654500D03*
X129312500Y-102529500D03*
%TD*%
D14*
%TO.C,U2*%
X133777000Y-102214000D03*
X133777000Y-101714000D03*
X133777000Y-101214000D03*
X133777000Y-100714000D03*
D15*
X133114500Y-100551500D03*
X132614500Y-100551500D03*
X132114500Y-100551500D03*
D14*
X131452000Y-100714000D03*
X131452000Y-101214000D03*
X131452000Y-101714000D03*
X131452000Y-102214000D03*
D15*
X132114500Y-102376500D03*
X132614500Y-102376500D03*
X133114500Y-102376500D03*
%TD*%
D10*
%TO.C,FID3*%
X127137000Y-98023000D03*
%TD*%
D16*
%TO.C,C1*%
X132751500Y-96118000D03*
X134476500Y-96118000D03*
%TD*%
D17*
%TO.C,U1*%
X130693000Y-96098000D03*
X130693000Y-94848000D03*
X130693000Y-93598000D03*
X130693000Y-92348000D03*
X128543000Y-92348000D03*
X128543000Y-93598000D03*
X128543000Y-94848000D03*
X128543000Y-96098000D03*
%TD*%
D16*
%TO.C,C3*%
X133032000Y-98679000D03*
X134757000Y-98679000D03*
%TD*%
D11*
%TO.C,J2*%
X123962000Y-91038000D03*
D12*
X123962000Y-93578000D03*
X123962000Y-96118000D03*
X123962000Y-98658000D03*
X123962000Y-101198000D03*
X123962000Y-103738000D03*
%TD*%
M02*
