%TF.GenerationSoftware,KiCad,Pcbnew,8.0.6*%
%TF.CreationDate,2024-10-29T20:24:22-04:00*%
%TF.ProjectId,Pyro-Controller,5079726f-2d43-46f6-9e74-726f6c6c6572,rev?*%
%TF.SameCoordinates,Original*%
%TF.FileFunction,Legend,Bot*%
%TF.FilePolarity,Positive*%
%FSLAX46Y46*%
G04 Gerber Fmt 4.6, Leading zero omitted, Abs format (unit mm)*
G04 Created by KiCad (PCBNEW 8.0.6) date 2024-10-29 20:24:22*
%MOMM*%
%LPD*%
G01*
G04 APERTURE LIST*
%ADD10C,0.200000*%
%ADD11C,0.000000*%
G04 APERTURE END LIST*
D10*
X42543405Y-40929275D02*
X42543405Y-39929275D01*
X42543405Y-39929275D02*
X42162453Y-39929275D01*
X42162453Y-39929275D02*
X42067215Y-39976894D01*
X42067215Y-39976894D02*
X42019596Y-40024513D01*
X42019596Y-40024513D02*
X41971977Y-40119751D01*
X41971977Y-40119751D02*
X41971977Y-40262608D01*
X41971977Y-40262608D02*
X42019596Y-40357846D01*
X42019596Y-40357846D02*
X42067215Y-40405465D01*
X42067215Y-40405465D02*
X42162453Y-40453084D01*
X42162453Y-40453084D02*
X42543405Y-40453084D01*
X41638643Y-40262608D02*
X41400548Y-40929275D01*
X41162453Y-40262608D02*
X41400548Y-40929275D01*
X41400548Y-40929275D02*
X41495786Y-41167370D01*
X41495786Y-41167370D02*
X41543405Y-41214989D01*
X41543405Y-41214989D02*
X41638643Y-41262608D01*
X40781500Y-40929275D02*
X40781500Y-40262608D01*
X40781500Y-40453084D02*
X40733881Y-40357846D01*
X40733881Y-40357846D02*
X40686262Y-40310227D01*
X40686262Y-40310227D02*
X40591024Y-40262608D01*
X40591024Y-40262608D02*
X40495786Y-40262608D01*
X40019595Y-40929275D02*
X40114833Y-40881656D01*
X40114833Y-40881656D02*
X40162452Y-40834036D01*
X40162452Y-40834036D02*
X40210071Y-40738798D01*
X40210071Y-40738798D02*
X40210071Y-40453084D01*
X40210071Y-40453084D02*
X40162452Y-40357846D01*
X40162452Y-40357846D02*
X40114833Y-40310227D01*
X40114833Y-40310227D02*
X40019595Y-40262608D01*
X40019595Y-40262608D02*
X39876738Y-40262608D01*
X39876738Y-40262608D02*
X39781500Y-40310227D01*
X39781500Y-40310227D02*
X39733881Y-40357846D01*
X39733881Y-40357846D02*
X39686262Y-40453084D01*
X39686262Y-40453084D02*
X39686262Y-40738798D01*
X39686262Y-40738798D02*
X39733881Y-40834036D01*
X39733881Y-40834036D02*
X39781500Y-40881656D01*
X39781500Y-40881656D02*
X39876738Y-40929275D01*
X39876738Y-40929275D02*
X40019595Y-40929275D01*
X37924357Y-40834036D02*
X37971976Y-40881656D01*
X37971976Y-40881656D02*
X38114833Y-40929275D01*
X38114833Y-40929275D02*
X38210071Y-40929275D01*
X38210071Y-40929275D02*
X38352928Y-40881656D01*
X38352928Y-40881656D02*
X38448166Y-40786417D01*
X38448166Y-40786417D02*
X38495785Y-40691179D01*
X38495785Y-40691179D02*
X38543404Y-40500703D01*
X38543404Y-40500703D02*
X38543404Y-40357846D01*
X38543404Y-40357846D02*
X38495785Y-40167370D01*
X38495785Y-40167370D02*
X38448166Y-40072132D01*
X38448166Y-40072132D02*
X38352928Y-39976894D01*
X38352928Y-39976894D02*
X38210071Y-39929275D01*
X38210071Y-39929275D02*
X38114833Y-39929275D01*
X38114833Y-39929275D02*
X37971976Y-39976894D01*
X37971976Y-39976894D02*
X37924357Y-40024513D01*
X37352928Y-40929275D02*
X37448166Y-40881656D01*
X37448166Y-40881656D02*
X37495785Y-40834036D01*
X37495785Y-40834036D02*
X37543404Y-40738798D01*
X37543404Y-40738798D02*
X37543404Y-40453084D01*
X37543404Y-40453084D02*
X37495785Y-40357846D01*
X37495785Y-40357846D02*
X37448166Y-40310227D01*
X37448166Y-40310227D02*
X37352928Y-40262608D01*
X37352928Y-40262608D02*
X37210071Y-40262608D01*
X37210071Y-40262608D02*
X37114833Y-40310227D01*
X37114833Y-40310227D02*
X37067214Y-40357846D01*
X37067214Y-40357846D02*
X37019595Y-40453084D01*
X37019595Y-40453084D02*
X37019595Y-40738798D01*
X37019595Y-40738798D02*
X37067214Y-40834036D01*
X37067214Y-40834036D02*
X37114833Y-40881656D01*
X37114833Y-40881656D02*
X37210071Y-40929275D01*
X37210071Y-40929275D02*
X37352928Y-40929275D01*
X36591023Y-40262608D02*
X36591023Y-40929275D01*
X36591023Y-40357846D02*
X36543404Y-40310227D01*
X36543404Y-40310227D02*
X36448166Y-40262608D01*
X36448166Y-40262608D02*
X36305309Y-40262608D01*
X36305309Y-40262608D02*
X36210071Y-40310227D01*
X36210071Y-40310227D02*
X36162452Y-40405465D01*
X36162452Y-40405465D02*
X36162452Y-40929275D01*
X35829118Y-40262608D02*
X35448166Y-40262608D01*
X35686261Y-39929275D02*
X35686261Y-40786417D01*
X35686261Y-40786417D02*
X35638642Y-40881656D01*
X35638642Y-40881656D02*
X35543404Y-40929275D01*
X35543404Y-40929275D02*
X35448166Y-40929275D01*
X35114832Y-40929275D02*
X35114832Y-40262608D01*
X35114832Y-40453084D02*
X35067213Y-40357846D01*
X35067213Y-40357846D02*
X35019594Y-40310227D01*
X35019594Y-40310227D02*
X34924356Y-40262608D01*
X34924356Y-40262608D02*
X34829118Y-40262608D01*
X34352927Y-40929275D02*
X34448165Y-40881656D01*
X34448165Y-40881656D02*
X34495784Y-40834036D01*
X34495784Y-40834036D02*
X34543403Y-40738798D01*
X34543403Y-40738798D02*
X34543403Y-40453084D01*
X34543403Y-40453084D02*
X34495784Y-40357846D01*
X34495784Y-40357846D02*
X34448165Y-40310227D01*
X34448165Y-40310227D02*
X34352927Y-40262608D01*
X34352927Y-40262608D02*
X34210070Y-40262608D01*
X34210070Y-40262608D02*
X34114832Y-40310227D01*
X34114832Y-40310227D02*
X34067213Y-40357846D01*
X34067213Y-40357846D02*
X34019594Y-40453084D01*
X34019594Y-40453084D02*
X34019594Y-40738798D01*
X34019594Y-40738798D02*
X34067213Y-40834036D01*
X34067213Y-40834036D02*
X34114832Y-40881656D01*
X34114832Y-40881656D02*
X34210070Y-40929275D01*
X34210070Y-40929275D02*
X34352927Y-40929275D01*
X33448165Y-40929275D02*
X33543403Y-40881656D01*
X33543403Y-40881656D02*
X33591022Y-40786417D01*
X33591022Y-40786417D02*
X33591022Y-39929275D01*
X32924355Y-40929275D02*
X33019593Y-40881656D01*
X33019593Y-40881656D02*
X33067212Y-40786417D01*
X33067212Y-40786417D02*
X33067212Y-39929275D01*
X32162450Y-40881656D02*
X32257688Y-40929275D01*
X32257688Y-40929275D02*
X32448164Y-40929275D01*
X32448164Y-40929275D02*
X32543402Y-40881656D01*
X32543402Y-40881656D02*
X32591021Y-40786417D01*
X32591021Y-40786417D02*
X32591021Y-40405465D01*
X32591021Y-40405465D02*
X32543402Y-40310227D01*
X32543402Y-40310227D02*
X32448164Y-40262608D01*
X32448164Y-40262608D02*
X32257688Y-40262608D01*
X32257688Y-40262608D02*
X32162450Y-40310227D01*
X32162450Y-40310227D02*
X32114831Y-40405465D01*
X32114831Y-40405465D02*
X32114831Y-40500703D01*
X32114831Y-40500703D02*
X32591021Y-40595941D01*
X31686259Y-40929275D02*
X31686259Y-40262608D01*
X31686259Y-40453084D02*
X31638640Y-40357846D01*
X31638640Y-40357846D02*
X31591021Y-40310227D01*
X31591021Y-40310227D02*
X31495783Y-40262608D01*
X31495783Y-40262608D02*
X31400545Y-40262608D01*
X38638642Y-42539219D02*
X38971975Y-42063028D01*
X39210070Y-42539219D02*
X39210070Y-41539219D01*
X39210070Y-41539219D02*
X38829118Y-41539219D01*
X38829118Y-41539219D02*
X38733880Y-41586838D01*
X38733880Y-41586838D02*
X38686261Y-41634457D01*
X38686261Y-41634457D02*
X38638642Y-41729695D01*
X38638642Y-41729695D02*
X38638642Y-41872552D01*
X38638642Y-41872552D02*
X38686261Y-41967790D01*
X38686261Y-41967790D02*
X38733880Y-42015409D01*
X38733880Y-42015409D02*
X38829118Y-42063028D01*
X38829118Y-42063028D02*
X39210070Y-42063028D01*
X37829118Y-42491600D02*
X37924356Y-42539219D01*
X37924356Y-42539219D02*
X38114832Y-42539219D01*
X38114832Y-42539219D02*
X38210070Y-42491600D01*
X38210070Y-42491600D02*
X38257689Y-42396361D01*
X38257689Y-42396361D02*
X38257689Y-42015409D01*
X38257689Y-42015409D02*
X38210070Y-41920171D01*
X38210070Y-41920171D02*
X38114832Y-41872552D01*
X38114832Y-41872552D02*
X37924356Y-41872552D01*
X37924356Y-41872552D02*
X37829118Y-41920171D01*
X37829118Y-41920171D02*
X37781499Y-42015409D01*
X37781499Y-42015409D02*
X37781499Y-42110647D01*
X37781499Y-42110647D02*
X38257689Y-42205885D01*
X37448165Y-41872552D02*
X37210070Y-42539219D01*
X37210070Y-42539219D02*
X36971975Y-41872552D01*
X36591022Y-42443980D02*
X36543403Y-42491600D01*
X36543403Y-42491600D02*
X36591022Y-42539219D01*
X36591022Y-42539219D02*
X36638641Y-42491600D01*
X36638641Y-42491600D02*
X36591022Y-42443980D01*
X36591022Y-42443980D02*
X36591022Y-42539219D01*
X34829118Y-42539219D02*
X35400546Y-42539219D01*
X35114832Y-42539219D02*
X35114832Y-41539219D01*
X35114832Y-41539219D02*
X35210070Y-41682076D01*
X35210070Y-41682076D02*
X35305308Y-41777314D01*
X35305308Y-41777314D02*
X35400546Y-41824933D01*
D11*
%TO.C,G\u002A\u002A\u002A*%
G36*
X33002402Y-33552751D02*
G01*
X33007577Y-33561819D01*
X33016356Y-33579274D01*
X33027811Y-33603243D01*
X33041015Y-33631849D01*
X33047364Y-33645951D01*
X33059103Y-33672829D01*
X33068034Y-33694406D01*
X33073377Y-33708760D01*
X33074350Y-33713967D01*
X33073930Y-33713726D01*
X33069372Y-33706470D01*
X33061406Y-33690898D01*
X33051119Y-33669425D01*
X33039596Y-33644466D01*
X33027925Y-33618436D01*
X33017191Y-33593752D01*
X33008481Y-33572828D01*
X33002881Y-33558080D01*
X33001476Y-33551923D01*
X33002402Y-33552751D01*
G37*
G36*
X40146397Y-34005000D02*
G01*
X40175373Y-34035036D01*
X40211216Y-34072284D01*
X40241149Y-34103586D01*
X40266703Y-34130613D01*
X40289410Y-34155033D01*
X40310801Y-34178514D01*
X40332407Y-34202725D01*
X40355761Y-34229336D01*
X40382392Y-34260016D01*
X40413834Y-34296432D01*
X40418686Y-34302060D01*
X40443705Y-34331146D01*
X40464890Y-34355992D01*
X40483640Y-34378344D01*
X40501357Y-34399949D01*
X40519440Y-34422554D01*
X40539291Y-34447905D01*
X40562309Y-34477749D01*
X40589896Y-34513834D01*
X40623450Y-34557906D01*
X40710515Y-34672362D01*
X40607706Y-34672362D01*
X40504898Y-34672362D01*
X40436096Y-34580916D01*
X40427789Y-34569911D01*
X40368233Y-34493039D01*
X40305034Y-34415020D01*
X40237045Y-34334520D01*
X40163121Y-34250202D01*
X40082116Y-34160733D01*
X39992882Y-34064777D01*
X39984015Y-34055337D01*
X39961562Y-34031135D01*
X39946313Y-34013896D01*
X39937298Y-34002247D01*
X39933546Y-33994815D01*
X39934085Y-33990226D01*
X39937943Y-33987107D01*
X39941691Y-33984916D01*
X39965660Y-33964277D01*
X39986193Y-33935588D01*
X40000620Y-33902456D01*
X40011916Y-33865660D01*
X40146397Y-34005000D01*
G37*
G36*
X39165505Y-35069142D02*
G01*
X39165505Y-35630737D01*
X39055627Y-35630737D01*
X38945750Y-35630737D01*
X38945456Y-35497969D01*
X38945162Y-35365200D01*
X38898040Y-35314715D01*
X38850918Y-35264230D01*
X38750305Y-35447299D01*
X38649691Y-35630369D01*
X38531969Y-35630553D01*
X38526394Y-35630561D01*
X38487179Y-35630539D01*
X38458481Y-35630260D01*
X38438795Y-35629581D01*
X38426613Y-35628363D01*
X38420429Y-35626463D01*
X38418737Y-35623741D01*
X38420029Y-35620055D01*
X38423435Y-35613995D01*
X38432442Y-35598138D01*
X38446326Y-35573765D01*
X38464459Y-35541976D01*
X38486212Y-35503871D01*
X38510959Y-35460551D01*
X38538071Y-35413116D01*
X38566919Y-35362666D01*
X38593219Y-35316545D01*
X38619992Y-35269286D01*
X38644209Y-35226215D01*
X38665282Y-35188397D01*
X38682621Y-35156897D01*
X38695635Y-35132781D01*
X38703734Y-35117114D01*
X38706329Y-35110960D01*
X38704441Y-35108436D01*
X38695272Y-35097827D01*
X38679397Y-35080068D01*
X38657807Y-35056250D01*
X38631493Y-35027466D01*
X38601445Y-34994805D01*
X38568657Y-34959360D01*
X38432684Y-34812761D01*
X38566927Y-34812761D01*
X38701170Y-34812761D01*
X38821934Y-34951085D01*
X38942698Y-35089409D01*
X38944283Y-34798478D01*
X38945868Y-34507546D01*
X39055686Y-34507546D01*
X39165505Y-34507546D01*
X39165505Y-35069142D01*
G37*
G36*
X37504942Y-33043327D02*
G01*
X37559592Y-33051167D01*
X37609015Y-33068124D01*
X37655621Y-33095174D01*
X37701818Y-33133291D01*
X37743202Y-33172183D01*
X37743202Y-33116504D01*
X37743202Y-33060826D01*
X37843923Y-33060826D01*
X37944644Y-33060826D01*
X37944644Y-33469815D01*
X37944644Y-33878803D01*
X37835170Y-33878803D01*
X37725695Y-33878803D01*
X37723468Y-33611740D01*
X37722941Y-33552855D01*
X37722332Y-33497493D01*
X37721652Y-33452134D01*
X37720852Y-33415613D01*
X37719880Y-33386765D01*
X37718687Y-33364427D01*
X37717221Y-33347432D01*
X37715433Y-33334617D01*
X37713271Y-33324816D01*
X37710686Y-33316865D01*
X37699308Y-33292685D01*
X37673118Y-33258321D01*
X37639283Y-33232610D01*
X37599231Y-33216521D01*
X37554390Y-33211019D01*
X37531670Y-33211901D01*
X37506960Y-33216761D01*
X37485920Y-33227526D01*
X37463763Y-33246047D01*
X37463654Y-33246151D01*
X37454930Y-33254832D01*
X37447585Y-33263689D01*
X37441487Y-33273816D01*
X37436505Y-33286306D01*
X37432510Y-33302254D01*
X37429370Y-33322753D01*
X37426955Y-33348898D01*
X37425134Y-33381781D01*
X37423777Y-33422497D01*
X37422752Y-33472141D01*
X37421930Y-33531805D01*
X37421179Y-33602583D01*
X37418446Y-33878803D01*
X37312235Y-33878803D01*
X37206024Y-33878803D01*
X37206024Y-33577761D01*
X37206166Y-33500952D01*
X37206596Y-33431808D01*
X37207304Y-33372262D01*
X37208279Y-33322837D01*
X37209511Y-33284054D01*
X37210990Y-33256434D01*
X37212705Y-33240498D01*
X37222168Y-33203711D01*
X37244055Y-33156379D01*
X37275043Y-33116618D01*
X37314516Y-33084889D01*
X37361855Y-33061655D01*
X37416444Y-33047376D01*
X37477665Y-33042513D01*
X37504942Y-33043327D01*
G37*
G36*
X37198118Y-34525983D02*
G01*
X37206214Y-34530089D01*
X37222831Y-34539321D01*
X37246332Y-34552744D01*
X37275076Y-34569425D01*
X37307425Y-34588428D01*
X37413335Y-34650997D01*
X37413453Y-34731879D01*
X37413570Y-34812761D01*
X37462404Y-34812761D01*
X37511239Y-34812761D01*
X37511239Y-34895169D01*
X37511239Y-34977577D01*
X37462404Y-34977577D01*
X37413570Y-34977577D01*
X37413570Y-35220916D01*
X37413570Y-35221417D01*
X37413410Y-35279336D01*
X37412957Y-35333397D01*
X37412241Y-35382210D01*
X37411295Y-35424382D01*
X37410148Y-35458522D01*
X37408833Y-35483237D01*
X37407380Y-35497136D01*
X37402775Y-35517702D01*
X37386924Y-35559800D01*
X37363431Y-35593061D01*
X37331330Y-35618637D01*
X37289654Y-35637683D01*
X37262972Y-35644256D01*
X37223371Y-35648454D01*
X37179257Y-35648591D01*
X37134448Y-35644687D01*
X37092766Y-35636758D01*
X37086457Y-35635109D01*
X37064202Y-35628695D01*
X37047334Y-35622918D01*
X37039099Y-35618862D01*
X37037655Y-35613240D01*
X37037249Y-35597932D01*
X37038102Y-35575892D01*
X37039955Y-35549826D01*
X37042545Y-35522435D01*
X37045611Y-35496425D01*
X37048892Y-35474498D01*
X37052127Y-35459360D01*
X37055054Y-35453713D01*
X37061705Y-35454758D01*
X37077250Y-35458199D01*
X37097455Y-35463208D01*
X37114953Y-35467109D01*
X37143584Y-35469179D01*
X37165189Y-35463362D01*
X37181532Y-35449369D01*
X37182072Y-35448675D01*
X37185143Y-35444138D01*
X37187627Y-35438500D01*
X37189585Y-35430527D01*
X37191081Y-35418985D01*
X37192175Y-35402639D01*
X37192932Y-35380256D01*
X37193411Y-35350602D01*
X37193677Y-35312441D01*
X37193791Y-35264540D01*
X37193815Y-35205665D01*
X37193815Y-34977577D01*
X37120564Y-34977577D01*
X37047312Y-34977577D01*
X37047312Y-34895169D01*
X37047312Y-34812761D01*
X37120564Y-34812761D01*
X37193815Y-34812761D01*
X37193815Y-34669310D01*
X37193879Y-34643343D01*
X37194219Y-34605544D01*
X37194813Y-34573210D01*
X37195615Y-34548028D01*
X37196581Y-34531682D01*
X37197665Y-34525859D01*
X37198118Y-34525983D01*
G37*
G36*
X41022059Y-33520998D02*
G01*
X41017496Y-33568765D01*
X41009285Y-33610428D01*
X40996831Y-33648975D01*
X40979536Y-33687393D01*
X40972415Y-33700730D01*
X40935731Y-33753832D01*
X40889787Y-33799942D01*
X40835710Y-33838229D01*
X40774629Y-33867858D01*
X40707671Y-33887999D01*
X40706655Y-33888217D01*
X40671574Y-33893307D01*
X40629436Y-33895879D01*
X40584971Y-33895923D01*
X40542910Y-33893431D01*
X40507982Y-33888393D01*
X40463667Y-33876084D01*
X40403173Y-33849084D01*
X40348040Y-33812186D01*
X40299333Y-33766442D01*
X40258120Y-33712906D01*
X40225467Y-33652632D01*
X40202441Y-33586672D01*
X40194814Y-33545855D01*
X40190634Y-33497658D01*
X40190341Y-33473185D01*
X40412699Y-33473185D01*
X40417425Y-33529154D01*
X40429514Y-33582663D01*
X40444412Y-33616856D01*
X40468801Y-33651727D01*
X40498933Y-33680786D01*
X40532032Y-33700836D01*
X40562842Y-33711356D01*
X40608653Y-33717334D01*
X40652838Y-33712163D01*
X40693953Y-33696463D01*
X40730557Y-33670853D01*
X40761205Y-33635954D01*
X40784456Y-33592385D01*
X40787518Y-33584392D01*
X40792125Y-33569540D01*
X40795181Y-33553381D01*
X40796990Y-33533189D01*
X40797853Y-33506242D01*
X40798073Y-33469815D01*
X40797424Y-33429919D01*
X40794517Y-33390769D01*
X40788631Y-33359154D01*
X40779065Y-33332583D01*
X40765121Y-33308564D01*
X40746098Y-33284604D01*
X40716625Y-33257548D01*
X40677894Y-33235782D01*
X40636007Y-33224266D01*
X40592863Y-33223025D01*
X40550365Y-33232081D01*
X40510412Y-33251459D01*
X40474905Y-33281183D01*
X40461899Y-33296542D01*
X40445964Y-33319108D01*
X40434970Y-33339108D01*
X40425033Y-33367510D01*
X40415261Y-33418167D01*
X40412699Y-33473185D01*
X40190341Y-33473185D01*
X40190028Y-33447003D01*
X40193051Y-33398531D01*
X40199756Y-33356885D01*
X40206100Y-33333216D01*
X40230553Y-33271480D01*
X40264644Y-33214124D01*
X40306985Y-33162929D01*
X40356186Y-33119676D01*
X40410858Y-33086148D01*
X40447059Y-33070057D01*
X40496887Y-33054303D01*
X40549772Y-33045450D01*
X40609722Y-33042619D01*
X40645089Y-33043723D01*
X40716911Y-33053915D01*
X40782597Y-33074579D01*
X40841803Y-33105468D01*
X40894185Y-33146338D01*
X40939397Y-33196941D01*
X40977095Y-33257031D01*
X41006935Y-33326363D01*
X41007556Y-33328145D01*
X41014068Y-33347819D01*
X41018576Y-33364924D01*
X41021429Y-33382417D01*
X41022977Y-33403251D01*
X41023572Y-33430381D01*
X41023561Y-33466762D01*
X41023476Y-33469815D01*
X41022059Y-33520998D01*
G37*
G36*
X41022059Y-35272933D02*
G01*
X41017496Y-35320700D01*
X41009285Y-35362362D01*
X40996831Y-35400909D01*
X40979536Y-35439328D01*
X40972415Y-35452664D01*
X40935731Y-35505766D01*
X40889787Y-35551877D01*
X40835710Y-35590163D01*
X40774629Y-35619793D01*
X40707671Y-35639934D01*
X40706655Y-35640152D01*
X40671574Y-35645241D01*
X40629436Y-35647813D01*
X40584971Y-35647858D01*
X40542910Y-35645366D01*
X40507982Y-35640328D01*
X40463667Y-35628019D01*
X40403173Y-35601019D01*
X40348040Y-35564120D01*
X40299333Y-35518377D01*
X40258120Y-35464841D01*
X40225467Y-35404567D01*
X40202441Y-35338607D01*
X40194814Y-35297790D01*
X40190634Y-35249593D01*
X40190341Y-35225119D01*
X40412699Y-35225119D01*
X40417425Y-35281088D01*
X40429514Y-35334597D01*
X40444412Y-35368790D01*
X40468801Y-35403661D01*
X40498933Y-35432721D01*
X40532032Y-35452771D01*
X40562842Y-35463290D01*
X40608653Y-35469269D01*
X40652838Y-35464098D01*
X40693953Y-35448398D01*
X40730557Y-35422788D01*
X40761205Y-35387888D01*
X40784456Y-35344320D01*
X40787518Y-35336326D01*
X40792125Y-35321475D01*
X40795181Y-35305315D01*
X40796990Y-35285124D01*
X40797853Y-35258176D01*
X40798073Y-35221749D01*
X40797424Y-35181853D01*
X40794517Y-35142704D01*
X40788631Y-35111089D01*
X40779065Y-35084518D01*
X40765121Y-35060498D01*
X40746098Y-35036539D01*
X40716625Y-35009483D01*
X40677894Y-34987717D01*
X40636007Y-34976201D01*
X40592863Y-34974959D01*
X40550365Y-34984015D01*
X40510412Y-35003394D01*
X40474905Y-35033118D01*
X40461899Y-35048476D01*
X40445964Y-35071043D01*
X40434970Y-35091043D01*
X40425033Y-35119445D01*
X40415261Y-35170101D01*
X40412699Y-35225119D01*
X40190341Y-35225119D01*
X40190028Y-35198938D01*
X40193051Y-35150466D01*
X40199756Y-35108820D01*
X40206100Y-35085150D01*
X40230553Y-35023415D01*
X40264644Y-34966059D01*
X40306985Y-34914863D01*
X40356186Y-34871611D01*
X40410858Y-34838083D01*
X40447059Y-34821991D01*
X40496887Y-34806238D01*
X40549772Y-34797385D01*
X40609722Y-34794554D01*
X40645089Y-34795658D01*
X40716911Y-34805849D01*
X40782597Y-34826513D01*
X40841803Y-34857403D01*
X40894185Y-34898272D01*
X40939397Y-34948875D01*
X40977095Y-35008966D01*
X41006935Y-35078298D01*
X41007556Y-35080080D01*
X41014068Y-35099753D01*
X41018576Y-35116859D01*
X41021429Y-35134351D01*
X41022977Y-35155185D01*
X41023572Y-35182315D01*
X41023561Y-35218697D01*
X41023476Y-35221749D01*
X41022059Y-35272933D01*
G37*
G36*
X42107778Y-33316780D02*
G01*
X42107778Y-33878803D01*
X41991796Y-33878803D01*
X41875815Y-33878803D01*
X41875815Y-33642869D01*
X41875815Y-33406936D01*
X41807915Y-33411060D01*
X41793309Y-33412057D01*
X41753222Y-33416622D01*
X41721479Y-33424161D01*
X41695196Y-33435847D01*
X41671490Y-33452855D01*
X41647477Y-33476357D01*
X41638809Y-33486675D01*
X41622941Y-33507391D01*
X41602235Y-33535665D01*
X41577723Y-33570046D01*
X41550437Y-33609085D01*
X41521410Y-33651331D01*
X41491674Y-33695333D01*
X41368743Y-33878803D01*
X41231904Y-33878803D01*
X41095064Y-33878803D01*
X41178034Y-33746034D01*
X41184319Y-33735985D01*
X41223979Y-33673081D01*
X41258430Y-33619569D01*
X41288468Y-33574427D01*
X41314888Y-33536635D01*
X41338487Y-33505169D01*
X41360058Y-33479009D01*
X41380398Y-33457133D01*
X41400302Y-33438518D01*
X41420566Y-33422143D01*
X41441985Y-33406986D01*
X41457390Y-33395832D01*
X41466809Y-33386625D01*
X41466402Y-33382236D01*
X41457696Y-33379829D01*
X41440384Y-33375218D01*
X41419018Y-33369631D01*
X41390212Y-33360984D01*
X41333638Y-33335735D01*
X41285727Y-33302028D01*
X41246839Y-33260297D01*
X41217335Y-33210976D01*
X41197575Y-33154498D01*
X41189018Y-33098488D01*
X41424735Y-33098488D01*
X41430117Y-33134078D01*
X41440001Y-33157705D01*
X41461449Y-33185218D01*
X41489981Y-33206673D01*
X41522749Y-33219443D01*
X41534190Y-33221162D01*
X41557642Y-33223305D01*
X41589564Y-33225386D01*
X41627899Y-33227290D01*
X41670589Y-33228904D01*
X41715577Y-33230113D01*
X41875815Y-33233531D01*
X41875815Y-33089188D01*
X41875815Y-32944845D01*
X41736942Y-32945113D01*
X41717406Y-32945175D01*
X41657088Y-32945821D01*
X41607314Y-32947336D01*
X41566801Y-32949981D01*
X41534265Y-32954016D01*
X41508424Y-32959702D01*
X41487994Y-32967301D01*
X41471693Y-32977072D01*
X41458237Y-32989277D01*
X41446343Y-33004177D01*
X41434325Y-33028065D01*
X41426312Y-33061756D01*
X41424735Y-33098488D01*
X41189018Y-33098488D01*
X41187919Y-33091298D01*
X41187183Y-33072612D01*
X41191624Y-33014133D01*
X41205732Y-32958428D01*
X41228655Y-32907132D01*
X41259542Y-32861879D01*
X41297541Y-32824302D01*
X41341801Y-32796036D01*
X41355714Y-32789367D01*
X41370561Y-32782864D01*
X41385509Y-32777380D01*
X41401660Y-32772817D01*
X41420114Y-32769080D01*
X41441971Y-32766070D01*
X41468333Y-32763691D01*
X41500299Y-32761847D01*
X41538971Y-32760440D01*
X41585449Y-32759373D01*
X41640833Y-32758551D01*
X41706225Y-32757876D01*
X41782724Y-32757250D01*
X42107778Y-32754757D01*
X42107778Y-33089188D01*
X42107778Y-33316780D01*
G37*
G36*
X42107778Y-35068714D02*
G01*
X42107778Y-35630737D01*
X41991796Y-35630737D01*
X41875815Y-35630737D01*
X41875815Y-35394804D01*
X41875815Y-35158871D01*
X41807915Y-35162995D01*
X41793309Y-35163992D01*
X41753222Y-35168557D01*
X41721479Y-35176096D01*
X41695196Y-35187782D01*
X41671490Y-35204790D01*
X41647477Y-35228292D01*
X41638809Y-35238610D01*
X41622941Y-35259325D01*
X41602235Y-35287599D01*
X41577723Y-35321981D01*
X41550437Y-35361020D01*
X41521410Y-35403266D01*
X41491674Y-35447268D01*
X41368743Y-35630737D01*
X41231904Y-35630737D01*
X41095064Y-35630737D01*
X41178034Y-35497969D01*
X41184319Y-35487920D01*
X41223979Y-35425015D01*
X41258430Y-35371503D01*
X41288468Y-35326362D01*
X41314888Y-35288570D01*
X41338487Y-35257104D01*
X41360058Y-35230944D01*
X41380398Y-35209067D01*
X41400302Y-35190452D01*
X41420566Y-35174078D01*
X41441985Y-35158921D01*
X41457390Y-35147767D01*
X41466809Y-35138560D01*
X41466402Y-35134170D01*
X41457696Y-35131763D01*
X41440384Y-35127153D01*
X41419018Y-35121566D01*
X41390212Y-35112918D01*
X41333638Y-35087670D01*
X41285727Y-35053963D01*
X41246839Y-35012232D01*
X41217335Y-34962911D01*
X41197575Y-34906433D01*
X41189018Y-34850423D01*
X41424735Y-34850423D01*
X41430117Y-34886013D01*
X41440001Y-34909640D01*
X41461449Y-34937153D01*
X41489981Y-34958607D01*
X41522749Y-34971378D01*
X41534190Y-34973096D01*
X41557642Y-34975240D01*
X41589564Y-34977321D01*
X41627899Y-34979225D01*
X41670589Y-34980839D01*
X41715577Y-34982048D01*
X41875815Y-34985465D01*
X41875815Y-34841122D01*
X41875815Y-34696779D01*
X41736942Y-34697047D01*
X41717406Y-34697109D01*
X41657088Y-34697755D01*
X41607314Y-34699270D01*
X41566801Y-34701915D01*
X41534265Y-34705950D01*
X41508424Y-34711637D01*
X41487994Y-34719235D01*
X41471693Y-34729007D01*
X41458237Y-34741212D01*
X41446343Y-34756111D01*
X41434325Y-34780000D01*
X41426312Y-34813690D01*
X41424735Y-34850423D01*
X41189018Y-34850423D01*
X41187919Y-34843233D01*
X41187183Y-34824547D01*
X41191624Y-34766068D01*
X41205732Y-34710363D01*
X41228655Y-34659067D01*
X41259542Y-34613813D01*
X41297541Y-34576237D01*
X41341801Y-34547971D01*
X41355714Y-34541301D01*
X41370561Y-34534799D01*
X41385509Y-34529315D01*
X41401660Y-34524752D01*
X41420114Y-34521014D01*
X41441971Y-34518004D01*
X41468333Y-34515626D01*
X41500299Y-34513781D01*
X41538971Y-34512374D01*
X41585449Y-34511308D01*
X41640833Y-34510486D01*
X41706225Y-34509810D01*
X41782724Y-34509185D01*
X42107778Y-34506691D01*
X42107778Y-34841122D01*
X42107778Y-35068714D01*
G37*
G36*
X38351308Y-35175230D02*
G01*
X38351679Y-35252271D01*
X38351208Y-35262832D01*
X38347842Y-35310337D01*
X38342236Y-35350053D01*
X38333542Y-35385623D01*
X38320909Y-35420689D01*
X38303487Y-35458893D01*
X38281390Y-35497753D01*
X38242459Y-35546329D01*
X38195371Y-35585848D01*
X38140252Y-35616212D01*
X38077229Y-35637321D01*
X38072103Y-35638512D01*
X38033477Y-35644557D01*
X37988179Y-35647790D01*
X37940726Y-35648156D01*
X37895638Y-35645598D01*
X37857433Y-35640060D01*
X37811149Y-35626564D01*
X37755552Y-35599588D01*
X37705842Y-35562859D01*
X37663484Y-35517503D01*
X37629938Y-35464648D01*
X37629771Y-35464319D01*
X37617517Y-35438228D01*
X37611501Y-35420567D01*
X37612012Y-35412186D01*
X37616170Y-35410324D01*
X37630824Y-35406423D01*
X37653315Y-35401615D01*
X37681167Y-35396313D01*
X37711905Y-35390927D01*
X37743052Y-35385871D01*
X37772131Y-35381557D01*
X37796667Y-35378397D01*
X37814183Y-35376804D01*
X37822203Y-35377189D01*
X37824128Y-35378726D01*
X37828663Y-35388783D01*
X37830087Y-35393986D01*
X37836621Y-35407631D01*
X37846660Y-35424763D01*
X37861728Y-35444645D01*
X37887475Y-35465115D01*
X37919607Y-35476756D01*
X37959905Y-35480441D01*
X37991956Y-35477726D01*
X38032825Y-35464847D01*
X38067475Y-35442020D01*
X38095162Y-35409954D01*
X38115145Y-35369359D01*
X38126681Y-35320944D01*
X38131857Y-35282792D01*
X37863468Y-35282792D01*
X37595079Y-35282792D01*
X37598331Y-35204962D01*
X37603464Y-35148498D01*
X37808777Y-35148498D01*
X37968275Y-35148498D01*
X38127773Y-35148498D01*
X38127773Y-35131515D01*
X38127302Y-35124049D01*
X38124338Y-35104484D01*
X38119549Y-35082828D01*
X38118055Y-35077395D01*
X38100720Y-35036924D01*
X38075534Y-35004458D01*
X38044111Y-34980674D01*
X38008068Y-34966249D01*
X37969020Y-34961861D01*
X37928582Y-34968188D01*
X37888371Y-34985906D01*
X37879067Y-34991722D01*
X37862458Y-35004869D01*
X37849501Y-35021132D01*
X37836457Y-35044749D01*
X37826732Y-35067048D01*
X37817692Y-35093890D01*
X37812716Y-35116450D01*
X37808777Y-35148498D01*
X37603464Y-35148498D01*
X37605336Y-35127913D01*
X37619986Y-35058625D01*
X37642507Y-34997624D01*
X37673175Y-34944162D01*
X37712268Y-34897490D01*
X37739182Y-34872942D01*
X37790032Y-34838229D01*
X37846278Y-34813819D01*
X37908734Y-34799396D01*
X37978218Y-34794644D01*
X37996228Y-34794993D01*
X38063506Y-34803109D01*
X38125235Y-34821790D01*
X38180907Y-34850786D01*
X38230013Y-34889848D01*
X38272042Y-34938727D01*
X38302060Y-34987082D01*
X38326890Y-35044178D01*
X38343176Y-35106380D01*
X38346145Y-35131515D01*
X38351308Y-35175230D01*
G37*
G36*
X39743241Y-34798749D02*
G01*
X39810820Y-34813285D01*
X39871852Y-34837696D01*
X39925812Y-34871573D01*
X39972175Y-34914507D01*
X40010417Y-34966089D01*
X40040014Y-35025909D01*
X40060440Y-35093559D01*
X40066027Y-35129170D01*
X40069467Y-35173285D01*
X40070653Y-35221425D01*
X40069582Y-35269584D01*
X40066249Y-35313757D01*
X40060653Y-35349940D01*
X40043406Y-35408026D01*
X40015039Y-35467425D01*
X39978016Y-35520200D01*
X39933357Y-35565341D01*
X39882077Y-35601839D01*
X39825194Y-35628682D01*
X39763726Y-35644859D01*
X39755195Y-35645717D01*
X39735759Y-35646777D01*
X39709867Y-35647655D01*
X39680769Y-35648219D01*
X39666593Y-35648239D01*
X39600932Y-35643545D01*
X39541270Y-35630437D01*
X39484718Y-35608328D01*
X39462717Y-35595544D01*
X39430639Y-35570672D01*
X39399174Y-35540168D01*
X39371528Y-35507227D01*
X39350910Y-35475044D01*
X39339028Y-35450213D01*
X39328008Y-35423538D01*
X39318726Y-35397646D01*
X39312033Y-35375111D01*
X39308776Y-35358506D01*
X39309804Y-35350404D01*
X39315517Y-35348443D01*
X39331080Y-35344839D01*
X39353951Y-35340199D01*
X39381720Y-35334947D01*
X39411977Y-35329504D01*
X39442308Y-35324294D01*
X39470304Y-35319738D01*
X39493552Y-35316261D01*
X39509642Y-35314284D01*
X39516162Y-35314230D01*
X39517877Y-35318306D01*
X39522174Y-35331387D01*
X39527718Y-35349940D01*
X39527823Y-35350303D01*
X39544719Y-35394185D01*
X39567306Y-35427459D01*
X39596201Y-35450623D01*
X39632020Y-35464171D01*
X39675382Y-35468602D01*
X39690232Y-35468391D01*
X39712102Y-35466225D01*
X39730661Y-35460557D01*
X39751686Y-35449977D01*
X39757945Y-35446266D01*
X39789951Y-35419836D01*
X39815309Y-35386093D01*
X39831240Y-35348578D01*
X39837336Y-35322969D01*
X39846011Y-35265948D01*
X39848948Y-35207793D01*
X39846223Y-35151519D01*
X39837908Y-35100142D01*
X39824077Y-35056678D01*
X39808385Y-35028519D01*
X39782502Y-35000090D01*
X39751420Y-34979387D01*
X39716952Y-34966432D01*
X39680908Y-34961252D01*
X39645099Y-34963871D01*
X39611336Y-34974313D01*
X39581429Y-34992602D01*
X39557191Y-35018764D01*
X39540431Y-35052824D01*
X39536190Y-35065511D01*
X39531011Y-35080053D01*
X39528208Y-35086625D01*
X39523176Y-35086741D01*
X39508233Y-35085027D01*
X39485808Y-35081734D01*
X39458311Y-35077289D01*
X39428152Y-35072117D01*
X39397743Y-35066643D01*
X39369495Y-35061291D01*
X39345817Y-35056488D01*
X39329121Y-35052657D01*
X39321816Y-35050225D01*
X39320249Y-35042462D01*
X39323898Y-35026312D01*
X39332117Y-35004463D01*
X39343879Y-34979310D01*
X39358156Y-34953253D01*
X39373920Y-34928689D01*
X39399225Y-34896809D01*
X39440345Y-34859043D01*
X39487904Y-34830267D01*
X39542677Y-34810138D01*
X39605440Y-34798313D01*
X39676968Y-34794448D01*
X39743241Y-34798749D01*
G37*
G36*
X39143074Y-33089822D02*
G01*
X39143481Y-33091205D01*
X39147625Y-33105439D01*
X39154641Y-33129670D01*
X39164104Y-33162426D01*
X39175589Y-33202235D01*
X39188672Y-33247624D01*
X39202927Y-33297122D01*
X39217931Y-33349255D01*
X39222100Y-33363726D01*
X39236542Y-33413495D01*
X39249916Y-33459050D01*
X39261843Y-33499135D01*
X39271944Y-33532497D01*
X39279841Y-33557880D01*
X39285154Y-33574030D01*
X39287506Y-33579692D01*
X39288606Y-33577132D01*
X39292492Y-33564193D01*
X39298776Y-33541402D01*
X39307145Y-33509964D01*
X39317282Y-33471080D01*
X39328872Y-33425954D01*
X39341599Y-33375788D01*
X39355149Y-33321785D01*
X39419509Y-33063878D01*
X39525859Y-33063878D01*
X39632208Y-33063878D01*
X39699273Y-33321785D01*
X39708861Y-33358527D01*
X39722414Y-33410009D01*
X39734888Y-33456855D01*
X39745954Y-33497867D01*
X39755286Y-33531845D01*
X39762557Y-33557594D01*
X39767441Y-33573914D01*
X39769611Y-33579608D01*
X39770930Y-33576653D01*
X39775342Y-33563260D01*
X39782433Y-33540142D01*
X39791854Y-33508484D01*
X39803257Y-33469473D01*
X39816292Y-33424293D01*
X39830612Y-33374132D01*
X39845867Y-33320175D01*
X39918851Y-33060826D01*
X40024829Y-33060826D01*
X40051691Y-33060859D01*
X40082731Y-33061105D01*
X40104257Y-33061739D01*
X40117886Y-33062929D01*
X40125231Y-33064842D01*
X40127908Y-33067646D01*
X40127533Y-33071509D01*
X40125919Y-33076738D01*
X40120341Y-33094682D01*
X40111865Y-33121849D01*
X40100856Y-33157080D01*
X40087676Y-33199215D01*
X40072690Y-33247096D01*
X40056261Y-33299561D01*
X40038753Y-33355451D01*
X40020530Y-33413607D01*
X40001954Y-33472869D01*
X39983390Y-33532077D01*
X39965200Y-33590072D01*
X39947750Y-33645693D01*
X39931402Y-33697781D01*
X39916519Y-33745176D01*
X39903467Y-33786719D01*
X39892607Y-33821250D01*
X39884304Y-33847609D01*
X39878921Y-33864636D01*
X39876822Y-33871172D01*
X39876772Y-33871296D01*
X39872067Y-33874229D01*
X39860092Y-33876360D01*
X39839614Y-33877775D01*
X39809402Y-33878560D01*
X39768223Y-33878803D01*
X39662459Y-33878803D01*
X39595749Y-33622562D01*
X39586232Y-33586235D01*
X39572709Y-33535437D01*
X39560233Y-33489528D01*
X39549133Y-33449666D01*
X39539738Y-33417006D01*
X39532377Y-33392706D01*
X39527377Y-33377923D01*
X39525068Y-33373812D01*
X39524211Y-33376208D01*
X39520377Y-33389149D01*
X39513963Y-33411976D01*
X39505314Y-33443422D01*
X39494775Y-33482219D01*
X39482692Y-33527102D01*
X39469409Y-33576802D01*
X39455272Y-33630052D01*
X39389447Y-33878803D01*
X39284600Y-33878803D01*
X39179753Y-33878803D01*
X39052776Y-33480497D01*
X39040085Y-33440682D01*
X39019234Y-33375232D01*
X38999617Y-33313616D01*
X38981543Y-33256808D01*
X38965323Y-33205782D01*
X38951265Y-33161514D01*
X38939679Y-33124978D01*
X38930876Y-33097148D01*
X38925164Y-33079000D01*
X38922853Y-33071509D01*
X38922438Y-33068692D01*
X38924147Y-33065601D01*
X38930009Y-33063442D01*
X38941636Y-33062051D01*
X38960637Y-33061260D01*
X38988625Y-33060907D01*
X39027209Y-33060826D01*
X39134510Y-33060826D01*
X39143074Y-33089822D01*
G37*
G36*
X33361633Y-34902410D02*
G01*
X33402022Y-34908374D01*
X33451878Y-34919841D01*
X33468439Y-34924224D01*
X33495563Y-34931919D01*
X33522143Y-34940292D01*
X33549029Y-34949769D01*
X33577071Y-34960776D01*
X33607118Y-34973741D01*
X33640022Y-34989088D01*
X33676631Y-35007243D01*
X33717797Y-35028634D01*
X33764369Y-35053686D01*
X33817197Y-35082825D01*
X33877131Y-35116477D01*
X33945022Y-35155069D01*
X34021719Y-35199026D01*
X34108072Y-35248775D01*
X34147705Y-35271624D01*
X34221072Y-35313760D01*
X34284624Y-35350013D01*
X34338813Y-35380629D01*
X34384088Y-35405856D01*
X34420901Y-35425942D01*
X34449703Y-35441133D01*
X34470943Y-35451678D01*
X34485074Y-35457823D01*
X34492545Y-35459817D01*
X34504526Y-35459193D01*
X34526263Y-35457289D01*
X34553959Y-35454413D01*
X34584408Y-35450875D01*
X34604668Y-35448404D01*
X34667476Y-35440867D01*
X34719139Y-35434898D01*
X34760396Y-35430423D01*
X34791983Y-35427371D01*
X34814640Y-35425667D01*
X34829103Y-35425240D01*
X34836111Y-35426016D01*
X34843495Y-35429823D01*
X34859325Y-35438951D01*
X34880814Y-35451835D01*
X34905508Y-35467023D01*
X34915262Y-35473117D01*
X34938150Y-35487861D01*
X34952882Y-35498606D01*
X34961229Y-35507004D01*
X34964959Y-35514708D01*
X34965843Y-35523370D01*
X34965851Y-35524499D01*
X34966296Y-35544278D01*
X34967273Y-35572313D01*
X34968626Y-35605195D01*
X34970200Y-35639514D01*
X34971838Y-35671860D01*
X34973386Y-35698825D01*
X34974688Y-35716997D01*
X34975182Y-35725502D01*
X34974575Y-35734746D01*
X34972051Y-35745131D01*
X34966900Y-35758223D01*
X34958414Y-35775586D01*
X34945884Y-35798787D01*
X34928600Y-35829391D01*
X34905854Y-35868964D01*
X34834502Y-35992663D01*
X34730729Y-36046618D01*
X34729026Y-36047503D01*
X34696338Y-36064268D01*
X34667135Y-36078849D01*
X34643245Y-36090364D01*
X34626493Y-36097931D01*
X34618706Y-36100671D01*
X34610816Y-36098148D01*
X34594463Y-36090838D01*
X34572209Y-36079889D01*
X34546491Y-36066458D01*
X34482525Y-36032147D01*
X34462863Y-35988628D01*
X34461826Y-35986325D01*
X34452669Y-35965680D01*
X34439980Y-35936706D01*
X34424848Y-35901913D01*
X34408367Y-35863810D01*
X34391627Y-35824905D01*
X34340054Y-35704700D01*
X34221020Y-35636000D01*
X34207116Y-35627975D01*
X34112225Y-35573205D01*
X34027183Y-35524102D01*
X33951351Y-35480283D01*
X33884092Y-35441366D01*
X33824768Y-35406968D01*
X33772740Y-35376707D01*
X33727372Y-35350200D01*
X33688025Y-35327065D01*
X33654061Y-35306919D01*
X33624843Y-35289379D01*
X33599733Y-35274063D01*
X33578093Y-35260589D01*
X33559285Y-35248574D01*
X33542671Y-35237636D01*
X33527614Y-35227391D01*
X33513475Y-35217457D01*
X33499616Y-35207453D01*
X33485401Y-35196994D01*
X33470191Y-35185700D01*
X33454660Y-35173651D01*
X33425562Y-35149051D01*
X33394908Y-35121058D01*
X33364528Y-35091531D01*
X33336255Y-35062326D01*
X33311920Y-35035301D01*
X33293353Y-35012314D01*
X33282387Y-34995221D01*
X33277512Y-34984390D01*
X33269347Y-34955390D01*
X33271527Y-34932713D01*
X33284111Y-34916140D01*
X33307160Y-34905454D01*
X33329353Y-34901812D01*
X33361633Y-34902410D01*
G37*
G36*
X38862931Y-33628786D02*
G01*
X38863179Y-33659048D01*
X38862933Y-33683158D01*
X38861758Y-33706684D01*
X38859049Y-33724406D01*
X38854189Y-33739950D01*
X38846563Y-33756944D01*
X38820987Y-33799030D01*
X38784429Y-33838020D01*
X38740304Y-33867662D01*
X38689369Y-33887330D01*
X38663152Y-33892390D01*
X38624267Y-33895816D01*
X38582444Y-33896195D01*
X38542574Y-33893517D01*
X38509546Y-33887769D01*
X38498916Y-33884732D01*
X38456196Y-33868059D01*
X38414286Y-33845535D01*
X38378884Y-33820110D01*
X38369672Y-33812557D01*
X38356633Y-33803130D01*
X38349154Y-33799447D01*
X38344883Y-33804398D01*
X38338591Y-33818143D01*
X38331811Y-33837599D01*
X38320059Y-33875751D01*
X38211864Y-33877417D01*
X38103670Y-33879083D01*
X38115573Y-33851315D01*
X38119363Y-33842404D01*
X38126101Y-33825756D01*
X38131692Y-33809894D01*
X38136267Y-33793520D01*
X38139955Y-33775333D01*
X38142887Y-33754034D01*
X38145192Y-33728324D01*
X38147000Y-33696904D01*
X38148440Y-33658473D01*
X38149643Y-33611733D01*
X38150739Y-33555384D01*
X38151185Y-33528545D01*
X38365533Y-33528545D01*
X38365903Y-33552532D01*
X38366919Y-33578102D01*
X38368489Y-33602374D01*
X38370522Y-33622465D01*
X38372925Y-33635495D01*
X38376807Y-33646064D01*
X38394944Y-33675702D01*
X38421305Y-33702244D01*
X38452985Y-33722531D01*
X38461229Y-33726243D01*
X38497468Y-33737484D01*
X38534148Y-33741854D01*
X38566533Y-33738681D01*
X38595271Y-33727008D01*
X38619447Y-33707415D01*
X38636312Y-33682613D01*
X38645499Y-33654743D01*
X38646638Y-33625946D01*
X38639361Y-33598365D01*
X38623299Y-33574142D01*
X38598083Y-33555417D01*
X38593364Y-33553446D01*
X38576954Y-33547972D01*
X38552689Y-33540700D01*
X38523014Y-33532283D01*
X38490378Y-33523373D01*
X38457228Y-33514620D01*
X38426010Y-33506678D01*
X38399171Y-33500198D01*
X38379159Y-33495832D01*
X38368420Y-33494232D01*
X38367099Y-33496845D01*
X38365901Y-33509022D01*
X38365533Y-33528545D01*
X38151185Y-33528545D01*
X38151856Y-33488127D01*
X38151943Y-33482724D01*
X38153017Y-33418712D01*
X38154032Y-33365611D01*
X38155052Y-33322216D01*
X38156140Y-33287322D01*
X38157361Y-33259725D01*
X38158777Y-33238219D01*
X38160453Y-33221600D01*
X38162452Y-33208663D01*
X38164838Y-33198203D01*
X38167675Y-33189017D01*
X38181440Y-33159906D01*
X38208769Y-33125364D01*
X38245491Y-33095457D01*
X38290183Y-33071291D01*
X38341424Y-33053971D01*
X38354046Y-33051477D01*
X38383522Y-33048118D01*
X38420232Y-33045963D01*
X38461406Y-33044984D01*
X38504272Y-33045155D01*
X38546058Y-33046450D01*
X38583993Y-33048841D01*
X38615305Y-33052303D01*
X38637222Y-33056808D01*
X38687593Y-33075763D01*
X38728783Y-33099241D01*
X38763332Y-33128704D01*
X38770376Y-33136452D01*
X38788727Y-33160713D01*
X38806441Y-33189041D01*
X38821699Y-33218096D01*
X38832682Y-33244537D01*
X38837569Y-33265022D01*
X38838924Y-33283037D01*
X38756516Y-33296606D01*
X38731151Y-33300792D01*
X38699683Y-33305823D01*
X38677293Y-33308754D01*
X38662149Y-33309431D01*
X38652420Y-33307697D01*
X38646271Y-33303396D01*
X38641870Y-33296373D01*
X38637386Y-33286471D01*
X38620147Y-33257936D01*
X38592362Y-33232536D01*
X38556889Y-33216358D01*
X38514050Y-33209540D01*
X38464169Y-33212223D01*
X38430650Y-33219423D01*
X38400540Y-33233397D01*
X38380328Y-33253870D01*
X38369422Y-33281482D01*
X38367233Y-33316869D01*
X38368893Y-33350105D01*
X38405519Y-33361004D01*
X38409572Y-33362172D01*
X38431718Y-33367959D01*
X38461550Y-33375147D01*
X38495664Y-33382934D01*
X38530657Y-33390516D01*
X38574181Y-33399867D01*
X38622524Y-33410965D01*
X38661612Y-33420982D01*
X38693048Y-33430368D01*
X38718435Y-33439572D01*
X38739376Y-33449044D01*
X38745440Y-33452235D01*
X38786470Y-33480592D01*
X38820802Y-33516382D01*
X38845764Y-33556897D01*
X38852954Y-33573306D01*
X38858464Y-33589704D01*
X38861575Y-33606934D01*
X38862755Y-33625946D01*
X38862931Y-33628786D01*
G37*
G36*
X36580918Y-34799862D02*
G01*
X36614522Y-34814306D01*
X36649111Y-34841042D01*
X36683033Y-34879774D01*
X36711575Y-34917744D01*
X36711575Y-34865252D01*
X36711575Y-34812761D01*
X36812296Y-34812761D01*
X36913017Y-34812761D01*
X36913017Y-35221749D01*
X36913017Y-35630737D01*
X36806192Y-35630737D01*
X36699367Y-35630737D01*
X36699345Y-35476604D01*
X36698951Y-35397998D01*
X36697512Y-35320874D01*
X36694872Y-35254349D01*
X36690877Y-35197593D01*
X36685373Y-35149774D01*
X36678206Y-35110061D01*
X36669224Y-35077623D01*
X36658272Y-35051627D01*
X36645197Y-35031243D01*
X36629846Y-35015638D01*
X36612065Y-35003983D01*
X36587671Y-34995823D01*
X36554529Y-34993444D01*
X36519594Y-34998197D01*
X36487035Y-35009884D01*
X36454780Y-35026116D01*
X36448447Y-35009477D01*
X36446181Y-35003377D01*
X36439718Y-34985497D01*
X36431169Y-34961502D01*
X36421769Y-34934847D01*
X36416493Y-34919871D01*
X36407220Y-34893851D01*
X36399383Y-34872217D01*
X36394269Y-34858543D01*
X36393398Y-34856597D01*
X36391641Y-34854592D01*
X36389326Y-34855027D01*
X36386144Y-34858652D01*
X36381785Y-34866216D01*
X36375937Y-34878470D01*
X36368292Y-34896161D01*
X36358538Y-34920041D01*
X36346367Y-34950857D01*
X36331466Y-34989361D01*
X36313528Y-35036300D01*
X36292240Y-35092426D01*
X36267294Y-35158486D01*
X36238378Y-35235231D01*
X36214053Y-35299753D01*
X36188058Y-35368647D01*
X36165854Y-35427696D01*
X36147216Y-35477790D01*
X36131920Y-35519819D01*
X36119742Y-35554671D01*
X36110456Y-35583237D01*
X36103839Y-35606405D01*
X36099667Y-35625066D01*
X36097714Y-35640107D01*
X36097757Y-35652419D01*
X36099571Y-35662892D01*
X36102931Y-35672414D01*
X36107613Y-35681874D01*
X36113394Y-35692163D01*
X36120047Y-35704170D01*
X36123313Y-35710127D01*
X36147004Y-35744093D01*
X36174664Y-35767858D01*
X36207676Y-35782052D01*
X36247418Y-35787306D01*
X36295272Y-35784252D01*
X36300430Y-35783575D01*
X36321878Y-35781055D01*
X36337363Y-35779709D01*
X36343824Y-35779817D01*
X36343993Y-35784958D01*
X36342899Y-35799821D01*
X36340747Y-35821671D01*
X36337863Y-35847789D01*
X36334571Y-35875459D01*
X36331196Y-35901960D01*
X36328062Y-35924576D01*
X36325495Y-35940587D01*
X36323819Y-35947277D01*
X36322996Y-35947823D01*
X36313569Y-35950975D01*
X36298076Y-35954513D01*
X36287946Y-35955895D01*
X36265826Y-35957642D01*
X36237850Y-35958970D01*
X36207727Y-35959668D01*
X36182350Y-35959451D01*
X36121151Y-35953909D01*
X36068610Y-35940679D01*
X36023690Y-35919173D01*
X35985352Y-35888804D01*
X35952558Y-35848983D01*
X35924271Y-35799122D01*
X35923894Y-35798314D01*
X35918735Y-35785849D01*
X35909863Y-35763131D01*
X35897675Y-35731243D01*
X35882571Y-35691266D01*
X35864948Y-35644284D01*
X35845205Y-35591379D01*
X35823740Y-35533635D01*
X35800951Y-35472134D01*
X35777237Y-35407959D01*
X35752995Y-35342193D01*
X35728624Y-35275919D01*
X35704523Y-35210220D01*
X35681088Y-35146177D01*
X35658720Y-35084875D01*
X35637815Y-35027396D01*
X35618773Y-34974823D01*
X35601991Y-34928238D01*
X35587867Y-34888725D01*
X35576801Y-34857367D01*
X35569189Y-34835245D01*
X35565432Y-34823443D01*
X35565100Y-34820139D01*
X35567320Y-34817241D01*
X35573850Y-34815218D01*
X35586269Y-34813915D01*
X35606157Y-34813178D01*
X35635093Y-34812852D01*
X35674658Y-34812784D01*
X35786774Y-34812806D01*
X35877481Y-35092055D01*
X35878254Y-35094435D01*
X35896429Y-35150213D01*
X35913533Y-35202391D01*
X35929183Y-35249823D01*
X35942996Y-35291365D01*
X35954590Y-35325869D01*
X35963582Y-35352192D01*
X35969589Y-35369187D01*
X35972229Y-35375709D01*
X35972381Y-35375721D01*
X35975545Y-35369456D01*
X35982083Y-35352832D01*
X35991610Y-35326937D01*
X36003744Y-35292857D01*
X36018101Y-35251680D01*
X36034299Y-35204492D01*
X36051953Y-35152383D01*
X36070681Y-35096437D01*
X36165093Y-34812761D01*
X36279622Y-34812761D01*
X36286659Y-34812764D01*
X36325758Y-34812943D01*
X36354382Y-34813484D01*
X36374033Y-34814502D01*
X36386211Y-34816114D01*
X36392416Y-34818435D01*
X36394152Y-34821580D01*
X36394358Y-34823250D01*
X36398505Y-34825594D01*
X36409453Y-34822771D01*
X36429130Y-34814385D01*
X36434917Y-34811897D01*
X36469739Y-34801541D01*
X36509034Y-34795762D01*
X36547771Y-34795042D01*
X36580918Y-34799862D01*
G37*
G36*
X41090872Y-35750528D02*
G01*
X41116253Y-35750973D01*
X41144786Y-35751632D01*
X41173935Y-35752437D01*
X41201164Y-35753322D01*
X41223936Y-35754220D01*
X41239716Y-35755064D01*
X41245967Y-35755788D01*
X41246206Y-35756170D01*
X41249057Y-35764450D01*
X41253845Y-35780957D01*
X41259675Y-35802634D01*
X41279206Y-35887433D01*
X41297918Y-35998694D01*
X41309736Y-36111709D01*
X41314471Y-36223662D01*
X41311935Y-36331735D01*
X41301938Y-36433110D01*
X41301778Y-36434236D01*
X41279312Y-36551921D01*
X41246115Y-36667920D01*
X41202996Y-36779810D01*
X41150764Y-36885171D01*
X41134316Y-36914052D01*
X41109502Y-36954747D01*
X41084409Y-36991642D01*
X41057216Y-37027059D01*
X41026101Y-37063320D01*
X40989243Y-37102745D01*
X40944820Y-37147656D01*
X40940673Y-37151757D01*
X40863077Y-37223116D01*
X40782514Y-37286747D01*
X40696699Y-37344186D01*
X40603348Y-37396968D01*
X40500176Y-37446630D01*
X40427287Y-37477825D01*
X40347786Y-37508453D01*
X40267810Y-37535413D01*
X40185689Y-37559106D01*
X40099750Y-37579934D01*
X40008320Y-37598299D01*
X39909729Y-37614603D01*
X39802303Y-37629246D01*
X39684370Y-37642632D01*
X39673480Y-37643522D01*
X39649041Y-37644935D01*
X39616160Y-37646433D01*
X39577055Y-37647926D01*
X39533940Y-37649325D01*
X39489033Y-37650539D01*
X39470240Y-37650948D01*
X39412940Y-37651705D01*
X39352947Y-37651859D01*
X39292391Y-37651450D01*
X39233398Y-37650519D01*
X39178097Y-37649105D01*
X39128616Y-37647249D01*
X39087084Y-37644991D01*
X39055627Y-37642371D01*
X39039201Y-37640735D01*
X39012110Y-37638283D01*
X38980194Y-37635569D01*
X38947405Y-37632937D01*
X38895697Y-37628399D01*
X38795479Y-37617130D01*
X38684250Y-37601750D01*
X38562304Y-37582300D01*
X38429936Y-37558823D01*
X38392894Y-37551736D01*
X38324429Y-37537747D01*
X38249721Y-37521557D01*
X38171378Y-37503786D01*
X38092009Y-37485055D01*
X38014223Y-37465985D01*
X37940629Y-37447194D01*
X37873836Y-37429305D01*
X37816454Y-37412938D01*
X37780394Y-37402252D01*
X37740098Y-37390370D01*
X37701640Y-37379082D01*
X37669951Y-37369837D01*
X37664765Y-37368321D01*
X37625926Y-37356476D01*
X37578616Y-37341397D01*
X37525409Y-37323954D01*
X37468878Y-37305015D01*
X37411594Y-37285449D01*
X37356132Y-37266127D01*
X37305064Y-37247916D01*
X37260962Y-37231685D01*
X37256161Y-37229881D01*
X37216632Y-37215133D01*
X37174089Y-37199405D01*
X37133342Y-37184470D01*
X37099198Y-37172097D01*
X37073904Y-37162813D01*
X37034386Y-37147751D01*
X36995159Y-37132263D01*
X36961852Y-37118545D01*
X36934762Y-37107058D01*
X36897001Y-37091102D01*
X36857519Y-37074465D01*
X36821453Y-37059316D01*
X36808466Y-37053854D01*
X36770052Y-37037507D01*
X36730797Y-37020560D01*
X36692426Y-37003779D01*
X36656666Y-36987934D01*
X36625241Y-36973793D01*
X36599876Y-36962122D01*
X36582297Y-36953691D01*
X36574228Y-36949267D01*
X36572262Y-36948058D01*
X36560641Y-36942148D01*
X36540916Y-36932737D01*
X36515227Y-36920835D01*
X36485716Y-36907456D01*
X36477680Y-36903826D01*
X36440724Y-36886687D01*
X36398559Y-36866539D01*
X36352532Y-36844076D01*
X36303994Y-36819995D01*
X36254294Y-36794989D01*
X36204781Y-36769756D01*
X36156804Y-36744991D01*
X36111712Y-36721387D01*
X36070856Y-36699642D01*
X36035583Y-36680451D01*
X36007244Y-36664508D01*
X35987188Y-36652510D01*
X35976763Y-36645151D01*
X35958689Y-36623612D01*
X35942861Y-36589888D01*
X35936254Y-36552550D01*
X35939298Y-36514538D01*
X35952422Y-36478789D01*
X35956787Y-36471359D01*
X35981974Y-36441906D01*
X36013947Y-36420713D01*
X36050187Y-36409088D01*
X36088173Y-36408339D01*
X36090018Y-36408625D01*
X36110431Y-36414331D01*
X36138857Y-36425343D01*
X36173181Y-36440673D01*
X36211287Y-36459334D01*
X36251058Y-36480337D01*
X36290378Y-36502697D01*
X36304613Y-36510835D01*
X36334330Y-36526984D01*
X36372521Y-36547072D01*
X36417642Y-36570333D01*
X36468147Y-36596003D01*
X36522490Y-36623317D01*
X36579127Y-36651511D01*
X36636511Y-36679820D01*
X36693097Y-36707479D01*
X36747340Y-36733724D01*
X36797693Y-36757789D01*
X36842612Y-36778911D01*
X36880551Y-36796324D01*
X36909965Y-36809263D01*
X36911236Y-36809805D01*
X36923266Y-36814993D01*
X36943473Y-36823750D01*
X36969372Y-36834998D01*
X36998477Y-36847660D01*
X37104074Y-36892517D01*
X37246927Y-36950151D01*
X37394996Y-37006740D01*
X37544415Y-37060814D01*
X37691316Y-37110905D01*
X37730977Y-37123854D01*
X37812047Y-37149587D01*
X37894895Y-37174991D01*
X37977625Y-37199527D01*
X38058340Y-37222657D01*
X38135143Y-37243841D01*
X38206137Y-37262542D01*
X38269425Y-37278220D01*
X38323111Y-37290336D01*
X38335953Y-37293040D01*
X38367301Y-37299646D01*
X38405002Y-37307595D01*
X38445410Y-37316118D01*
X38484875Y-37324446D01*
X38525759Y-37332804D01*
X38599943Y-37346902D01*
X38677751Y-37360552D01*
X38754038Y-37372865D01*
X38823664Y-37382954D01*
X38849430Y-37386439D01*
X38881539Y-37390824D01*
X38909124Y-37394631D01*
X38909790Y-37394724D01*
X38931842Y-37397424D01*
X38962020Y-37400668D01*
X38996438Y-37404057D01*
X39031210Y-37407191D01*
X39066342Y-37410224D01*
X39104028Y-37413538D01*
X39138589Y-37416633D01*
X39165505Y-37419108D01*
X39191213Y-37420856D01*
X39227809Y-37422318D01*
X39272486Y-37423425D01*
X39323146Y-37424175D01*
X39377691Y-37424569D01*
X39434024Y-37424604D01*
X39490049Y-37424279D01*
X39543667Y-37423594D01*
X39592781Y-37422548D01*
X39635295Y-37421139D01*
X39669110Y-37419366D01*
X39800432Y-37407713D01*
X39955067Y-37386206D01*
X40100770Y-37356831D01*
X40237821Y-37319520D01*
X40366500Y-37274204D01*
X40487086Y-37220816D01*
X40497247Y-37215778D01*
X40573330Y-37175472D01*
X40641361Y-37134070D01*
X40703967Y-37089573D01*
X40763777Y-37039978D01*
X40823418Y-36983287D01*
X40885518Y-36917497D01*
X40911789Y-36885422D01*
X40943582Y-36839911D01*
X40975567Y-36787802D01*
X41006149Y-36731870D01*
X41033732Y-36674889D01*
X41056723Y-36619634D01*
X41060758Y-36608369D01*
X41070009Y-36579611D01*
X41079995Y-36545586D01*
X41089812Y-36509668D01*
X41098552Y-36475231D01*
X41105309Y-36445649D01*
X41109178Y-36424297D01*
X41110052Y-36417926D01*
X41113263Y-36397298D01*
X41116229Y-36381567D01*
X41117244Y-36373883D01*
X41118723Y-36354980D01*
X41120286Y-36328051D01*
X41121799Y-36295437D01*
X41123130Y-36259480D01*
X41123318Y-36253426D01*
X41123806Y-36167221D01*
X41119717Y-36085158D01*
X41110653Y-36003568D01*
X41096212Y-35918782D01*
X41075995Y-35827133D01*
X41075048Y-35823209D01*
X41068329Y-35795269D01*
X41062859Y-35772377D01*
X41059179Y-35756807D01*
X41057830Y-35750830D01*
X41059713Y-35750546D01*
X41071180Y-35750364D01*
X41090872Y-35750528D01*
G37*
G36*
X35343781Y-35592546D02*
G01*
X35349591Y-35596334D01*
X35343717Y-35602860D01*
X35326270Y-35612251D01*
X35320026Y-35615304D01*
X35291151Y-35633676D01*
X35271064Y-35654314D01*
X35261452Y-35675570D01*
X35260437Y-35683515D01*
X35263533Y-35690333D01*
X35275505Y-35691780D01*
X35277515Y-35691742D01*
X35289286Y-35690233D01*
X35305151Y-35686104D01*
X35326875Y-35678768D01*
X35356223Y-35667641D01*
X35394960Y-35652136D01*
X35399159Y-35650475D01*
X35441139Y-35639378D01*
X35479434Y-35639696D01*
X35513728Y-35651432D01*
X35519458Y-35654330D01*
X35538354Y-35662683D01*
X35559265Y-35670800D01*
X35569670Y-35674908D01*
X35581811Y-35681230D01*
X35585378Y-35685601D01*
X35584780Y-35686123D01*
X35575553Y-35688864D01*
X35557994Y-35691792D01*
X35535258Y-35694357D01*
X35505046Y-35698358D01*
X35476148Y-35705430D01*
X35456165Y-35714112D01*
X35445551Y-35723524D01*
X35444763Y-35732789D01*
X35454255Y-35741030D01*
X35474484Y-35747367D01*
X35505905Y-35750924D01*
X35544404Y-35755498D01*
X35585001Y-35768197D01*
X35593500Y-35772040D01*
X35611332Y-35781177D01*
X35617673Y-35786692D01*
X35612488Y-35788523D01*
X35595740Y-35786609D01*
X35587670Y-35785557D01*
X35565126Y-35786511D01*
X35549015Y-35792948D01*
X35540778Y-35803374D01*
X35541857Y-35816293D01*
X35553693Y-35830210D01*
X35557369Y-35833173D01*
X35560878Y-35837103D01*
X35558912Y-35839513D01*
X35549789Y-35840774D01*
X35531823Y-35841257D01*
X35503333Y-35841336D01*
X35491253Y-35841383D01*
X35462432Y-35842240D01*
X35440579Y-35844616D01*
X35421800Y-35849084D01*
X35402203Y-35856218D01*
X35384102Y-35863952D01*
X35349352Y-35882176D01*
X35325582Y-35900786D01*
X35311943Y-35920555D01*
X35307586Y-35942257D01*
X35308044Y-35945315D01*
X35316428Y-35957612D01*
X35333504Y-35970875D01*
X35356833Y-35983464D01*
X35383977Y-35993733D01*
X35387426Y-35994675D01*
X35411346Y-35998404D01*
X35443418Y-36000357D01*
X35480365Y-36000574D01*
X35518911Y-35999096D01*
X35555779Y-35995963D01*
X35587691Y-35991215D01*
X35600362Y-35988926D01*
X35620849Y-35985951D01*
X35635140Y-35984787D01*
X35644501Y-35985366D01*
X35646039Y-35989352D01*
X35639689Y-36000078D01*
X35636837Y-36004668D01*
X35633090Y-36015606D01*
X35637295Y-36024557D01*
X35642395Y-36028712D01*
X35659333Y-36036603D01*
X35683482Y-36044274D01*
X35711653Y-36050909D01*
X35740654Y-36055693D01*
X35767295Y-36057808D01*
X35772445Y-36058211D01*
X35776797Y-36060863D01*
X35772023Y-36064979D01*
X35759997Y-36069410D01*
X35742592Y-36073001D01*
X35715258Y-36077976D01*
X35684435Y-36085783D01*
X35656532Y-36094943D01*
X35634604Y-36104439D01*
X35621709Y-36113252D01*
X35620063Y-36115086D01*
X35614065Y-36123620D01*
X35614425Y-36132016D01*
X35621029Y-36145620D01*
X35631640Y-36160373D01*
X35656219Y-36179116D01*
X35688303Y-36191141D01*
X35725659Y-36195385D01*
X35743796Y-36195900D01*
X35756997Y-36197878D01*
X35758999Y-36201184D01*
X35755111Y-36209537D01*
X35753200Y-36224183D01*
X35754875Y-36232838D01*
X35765159Y-36250950D01*
X35782913Y-36270335D01*
X35805934Y-36288315D01*
X35811692Y-36292752D01*
X35809097Y-36294174D01*
X35795930Y-36292675D01*
X35794968Y-36292533D01*
X35777190Y-36289417D01*
X35763745Y-36286276D01*
X35751520Y-36285111D01*
X35734750Y-36286980D01*
X35723501Y-36291289D01*
X35716649Y-36301311D01*
X35719557Y-36316449D01*
X35732383Y-36337025D01*
X35755286Y-36363360D01*
X35788424Y-36395777D01*
X35799654Y-36406716D01*
X35809233Y-36417416D01*
X35811908Y-36422562D01*
X35807582Y-36422371D01*
X35794672Y-36418616D01*
X35776684Y-36411883D01*
X35757812Y-36404239D01*
X35728196Y-36392445D01*
X35706461Y-36384208D01*
X35690377Y-36378741D01*
X35677714Y-36375260D01*
X35666240Y-36372979D01*
X35654756Y-36372533D01*
X35641169Y-36379137D01*
X35635149Y-36394312D01*
X35636904Y-36417261D01*
X35646646Y-36447188D01*
X35647771Y-36449951D01*
X35651651Y-36462952D01*
X35649018Y-36465781D01*
X35640020Y-36458478D01*
X35624801Y-36441083D01*
X35614061Y-36428091D01*
X35585319Y-36395858D01*
X35560157Y-36372447D01*
X35536725Y-36356518D01*
X35513176Y-36346735D01*
X35487663Y-36341760D01*
X35478280Y-36342740D01*
X35465477Y-36351735D01*
X35460193Y-36366383D01*
X35460347Y-36368432D01*
X35464483Y-36382968D01*
X35472913Y-36403247D01*
X35483821Y-36425507D01*
X35495392Y-36445986D01*
X35505811Y-36460922D01*
X35512159Y-36469334D01*
X35519927Y-36482553D01*
X35524043Y-36493185D01*
X35522799Y-36497548D01*
X35520062Y-36496457D01*
X35510022Y-36489131D01*
X35496641Y-36477185D01*
X35492654Y-36473462D01*
X35469286Y-36454826D01*
X35444322Y-36439143D01*
X35421148Y-36428328D01*
X35403152Y-36424297D01*
X35389573Y-36427584D01*
X35373411Y-36439766D01*
X35359961Y-36455235D01*
X35351860Y-36413822D01*
X35349402Y-36403295D01*
X35340877Y-36375674D01*
X35329246Y-36344570D01*
X35316283Y-36314920D01*
X35303706Y-36289595D01*
X35277973Y-36244568D01*
X35253239Y-36211087D01*
X35229132Y-36188767D01*
X35205279Y-36177224D01*
X35181305Y-36176075D01*
X35167785Y-36179417D01*
X35147185Y-36192070D01*
X35135140Y-36212914D01*
X35131523Y-36242241D01*
X35136210Y-36280342D01*
X35136262Y-36280593D01*
X35143273Y-36305134D01*
X35154830Y-36336229D01*
X35169300Y-36370234D01*
X35185046Y-36403507D01*
X35200436Y-36432407D01*
X35213833Y-36453292D01*
X35217480Y-36458348D01*
X35223558Y-36468921D01*
X35223394Y-36473131D01*
X35217036Y-36471194D01*
X35202140Y-36462543D01*
X35182720Y-36448766D01*
X35161272Y-36431858D01*
X35140295Y-36413816D01*
X35122286Y-36396636D01*
X35109744Y-36382313D01*
X35100308Y-36370339D01*
X35082615Y-36353146D01*
X35067681Y-36345963D01*
X35056506Y-36349407D01*
X35055714Y-36350732D01*
X35055775Y-36361914D01*
X35060068Y-36380749D01*
X35067593Y-36404653D01*
X35077349Y-36431042D01*
X35088333Y-36457331D01*
X35099544Y-36480937D01*
X35109981Y-36499273D01*
X35118643Y-36509757D01*
X35122884Y-36514917D01*
X35129862Y-36526544D01*
X35131188Y-36529145D01*
X35134319Y-36538835D01*
X35129697Y-36539281D01*
X35117427Y-36530553D01*
X35097613Y-36512722D01*
X35070361Y-36485861D01*
X35046243Y-36462223D01*
X35026073Y-36444784D01*
X35012547Y-36436635D01*
X35005175Y-36437624D01*
X35003466Y-36447601D01*
X35006928Y-36466416D01*
X35008453Y-36473078D01*
X35010158Y-36486221D01*
X35008676Y-36491444D01*
X35008391Y-36491421D01*
X35002002Y-36485440D01*
X34992918Y-36470671D01*
X34982356Y-36449698D01*
X34971536Y-36425108D01*
X34961676Y-36399487D01*
X34953994Y-36375419D01*
X34951620Y-36366955D01*
X34939122Y-36326617D01*
X34926575Y-36292589D01*
X34914737Y-36266771D01*
X34904366Y-36251059D01*
X34903985Y-36250653D01*
X34896413Y-36243807D01*
X34891297Y-36245577D01*
X34884781Y-36257164D01*
X34880543Y-36268970D01*
X34876331Y-36294806D01*
X34875255Y-36325754D01*
X34877378Y-36357696D01*
X34882766Y-36386515D01*
X34886228Y-36399626D01*
X34888545Y-36411173D01*
X34887281Y-36414394D01*
X34882406Y-36411315D01*
X34877737Y-36406101D01*
X34868050Y-36391659D01*
X34857794Y-36373241D01*
X34850321Y-36357333D01*
X34832934Y-36307596D01*
X34821840Y-36254352D01*
X34817380Y-36200855D01*
X34819897Y-36150357D01*
X34829732Y-36106113D01*
X34834418Y-36094858D01*
X34845301Y-36072634D01*
X34860822Y-36043041D01*
X34880009Y-36007774D01*
X34901888Y-35968528D01*
X34925485Y-35926998D01*
X34949829Y-35884878D01*
X34973944Y-35843865D01*
X34996860Y-35805653D01*
X35017601Y-35771937D01*
X35035196Y-35744413D01*
X35048670Y-35724774D01*
X35069601Y-35698147D01*
X35107107Y-35660113D01*
X35147877Y-35631449D01*
X35193824Y-35611179D01*
X35246863Y-35598326D01*
X35308906Y-35591912D01*
X35326179Y-35591368D01*
X35343781Y-35592546D01*
G37*
G36*
X34729907Y-31434795D02*
G01*
X34791771Y-31435417D01*
X34850399Y-31436469D01*
X34903815Y-31437951D01*
X34950044Y-31439863D01*
X34987110Y-31442204D01*
X34999370Y-31443207D01*
X35063294Y-31448947D01*
X35130906Y-31455764D01*
X35199030Y-31463292D01*
X35264493Y-31471171D01*
X35324119Y-31479036D01*
X35374733Y-31486525D01*
X35402331Y-31490894D01*
X35441171Y-31496973D01*
X35478493Y-31502746D01*
X35509028Y-31507394D01*
X35518139Y-31508828D01*
X35549608Y-31514325D01*
X35590100Y-31521952D01*
X35637525Y-31531275D01*
X35689796Y-31541864D01*
X35744824Y-31553286D01*
X35800519Y-31565111D01*
X35854793Y-31576905D01*
X35905557Y-31588239D01*
X35950723Y-31598679D01*
X36022622Y-31616556D01*
X36106869Y-31639169D01*
X36198307Y-31665128D01*
X36294844Y-31693766D01*
X36394383Y-31724416D01*
X36494833Y-31756409D01*
X36594098Y-31789080D01*
X36690084Y-31821759D01*
X36780699Y-31853780D01*
X36863847Y-31884475D01*
X36937434Y-31913178D01*
X36982185Y-31931252D01*
X37036286Y-31953158D01*
X37081026Y-31971346D01*
X37115911Y-31985615D01*
X37140446Y-31995762D01*
X37154137Y-32001586D01*
X37181197Y-32013555D01*
X37214383Y-32028072D01*
X37247160Y-32042167D01*
X37285380Y-32058373D01*
X37328252Y-32076756D01*
X37382329Y-32100731D01*
X37440503Y-32127381D01*
X37504439Y-32157483D01*
X37575802Y-32191812D01*
X37656254Y-32231144D01*
X37667695Y-32236768D01*
X37707663Y-32256349D01*
X37743643Y-32273874D01*
X37774245Y-32288672D01*
X37798078Y-32300072D01*
X37813748Y-32307404D01*
X37819866Y-32309997D01*
X37825793Y-32312668D01*
X37840193Y-32320297D01*
X37860815Y-32331687D01*
X37885449Y-32345639D01*
X37902164Y-32355082D01*
X37938647Y-32375110D01*
X37976513Y-32395297D01*
X38009820Y-32412451D01*
X38038260Y-32427149D01*
X38074308Y-32446504D01*
X38111758Y-32467199D01*
X38145935Y-32486686D01*
X38155264Y-32492101D01*
X38181060Y-32506909D01*
X38202300Y-32518860D01*
X38216994Y-32526844D01*
X38223152Y-32529752D01*
X38223775Y-32529933D01*
X38232304Y-32534303D01*
X38249113Y-32543741D01*
X38272464Y-32557217D01*
X38300623Y-32573702D01*
X38331854Y-32592166D01*
X38364421Y-32611580D01*
X38396588Y-32630914D01*
X38426621Y-32649139D01*
X38452784Y-32665225D01*
X38473340Y-32678144D01*
X38497432Y-32693575D01*
X38530637Y-32714913D01*
X38556585Y-32731712D01*
X38577188Y-32745219D01*
X38594360Y-32756683D01*
X38610013Y-32767352D01*
X38622521Y-32775810D01*
X38644803Y-32790588D01*
X38671269Y-32807930D01*
X38698526Y-32825603D01*
X38728202Y-32844859D01*
X38767248Y-32870612D01*
X38801846Y-32893919D01*
X38830823Y-32913965D01*
X38853005Y-32929932D01*
X38867216Y-32941006D01*
X38872284Y-32946371D01*
X38872160Y-32947456D01*
X38866394Y-32950949D01*
X38861596Y-32953204D01*
X38850072Y-32962161D01*
X38835630Y-32975609D01*
X38810970Y-33000269D01*
X38794425Y-32988615D01*
X38763289Y-32969752D01*
X38722210Y-32951892D01*
X38671688Y-32936180D01*
X38661166Y-32933266D01*
X38635291Y-32924773D01*
X38611648Y-32914298D01*
X38586326Y-32899948D01*
X38555413Y-32879826D01*
X38509204Y-32848783D01*
X38464571Y-32819221D01*
X38422087Y-32791630D01*
X38379625Y-32764675D01*
X38335057Y-32737023D01*
X38286257Y-32707339D01*
X38231098Y-32674290D01*
X38167451Y-32636541D01*
X38156099Y-32629830D01*
X38116605Y-32606454D01*
X38077439Y-32583234D01*
X38041148Y-32561682D01*
X38010277Y-32543310D01*
X37987374Y-32529630D01*
X37967902Y-32518177D01*
X37944623Y-32505065D01*
X37926094Y-32495286D01*
X37915136Y-32490374D01*
X37909642Y-32488154D01*
X37893679Y-32480289D01*
X37872106Y-32468693D01*
X37847989Y-32454983D01*
X37847134Y-32454485D01*
X37826411Y-32442936D01*
X37796437Y-32426890D01*
X37758835Y-32407167D01*
X37715227Y-32384593D01*
X37667237Y-32359988D01*
X37616488Y-32334176D01*
X37564603Y-32307979D01*
X37513205Y-32282221D01*
X37463918Y-32257723D01*
X37418365Y-32235309D01*
X37378168Y-32215801D01*
X37344951Y-32200022D01*
X37289380Y-32174079D01*
X37238417Y-32150366D01*
X37196766Y-32131087D01*
X37163528Y-32115831D01*
X37137805Y-32104185D01*
X37118696Y-32095737D01*
X37105303Y-32090074D01*
X37104113Y-32089588D01*
X37092145Y-32084625D01*
X37071931Y-32076195D01*
X37045977Y-32065343D01*
X37016790Y-32053118D01*
X37013548Y-32051759D01*
X36982570Y-32038869D01*
X36953389Y-32026868D01*
X36929155Y-32017045D01*
X36913017Y-32010687D01*
X36906487Y-32008168D01*
X36884876Y-31999604D01*
X36858143Y-31988802D01*
X36830609Y-31977502D01*
X36817289Y-31972026D01*
X36792724Y-31962122D01*
X36772634Y-31954268D01*
X36760410Y-31949802D01*
X36759958Y-31949654D01*
X36746242Y-31944859D01*
X36725635Y-31937331D01*
X36702419Y-31928633D01*
X36690785Y-31924232D01*
X36566570Y-31878753D01*
X36438113Y-31834314D01*
X36307309Y-31791470D01*
X36176052Y-31750777D01*
X36046234Y-31712791D01*
X35919749Y-31678067D01*
X35798490Y-31647161D01*
X35684352Y-31620629D01*
X35579227Y-31599027D01*
X35557820Y-31594945D01*
X35525140Y-31588666D01*
X35489016Y-31581689D01*
X35454089Y-31574908D01*
X35423522Y-31569162D01*
X35390656Y-31563392D01*
X35361892Y-31558742D01*
X35341160Y-31555876D01*
X35324422Y-31553785D01*
X35308460Y-31551334D01*
X35300878Y-31549542D01*
X35295654Y-31548300D01*
X35279701Y-31545774D01*
X35255012Y-31542360D01*
X35223469Y-31538284D01*
X35186952Y-31533769D01*
X35147345Y-31529039D01*
X35106528Y-31524318D01*
X35066383Y-31519831D01*
X35028792Y-31515801D01*
X34995636Y-31512452D01*
X34968797Y-31510008D01*
X34920077Y-31506213D01*
X34722294Y-31496282D01*
X34532078Y-31495765D01*
X34349482Y-31504660D01*
X34174561Y-31522965D01*
X34007370Y-31550677D01*
X33998245Y-31552540D01*
X33962516Y-31560518D01*
X33921384Y-31570511D01*
X33877735Y-31581744D01*
X33834458Y-31593442D01*
X33794440Y-31604830D01*
X33760567Y-31615133D01*
X33735728Y-31623577D01*
X33711916Y-31632338D01*
X33681998Y-31643031D01*
X33656372Y-31651880D01*
X33653837Y-31652741D01*
X33610294Y-31669817D01*
X33559952Y-31693117D01*
X33505289Y-31721214D01*
X33448783Y-31752679D01*
X33392912Y-31786087D01*
X33340155Y-31820009D01*
X33292989Y-31853018D01*
X33253893Y-31883687D01*
X33231432Y-31903554D01*
X33196224Y-31937047D01*
X33159958Y-31973788D01*
X33126171Y-32010160D01*
X33098401Y-32042550D01*
X33042896Y-32116989D01*
X32982772Y-32215003D01*
X32933518Y-32317945D01*
X32895072Y-32426032D01*
X32867371Y-32539484D01*
X32850351Y-32658520D01*
X32843951Y-32783358D01*
X32848107Y-32914217D01*
X32853983Y-32978487D01*
X32870920Y-33093124D01*
X32896602Y-33212526D01*
X32931257Y-33337689D01*
X32975114Y-33469609D01*
X32975493Y-33470668D01*
X32985085Y-33497733D01*
X32992927Y-33520314D01*
X32998218Y-33536078D01*
X33000160Y-33542693D01*
X32998370Y-33543671D01*
X32993272Y-33536113D01*
X32986144Y-33522132D01*
X32978276Y-33504271D01*
X32970957Y-33485075D01*
X32967257Y-33474515D01*
X32957937Y-33448255D01*
X32946975Y-33417664D01*
X32936037Y-33387406D01*
X32928262Y-33365627D01*
X32887200Y-33234398D01*
X32856015Y-33103570D01*
X32834757Y-32974039D01*
X32823476Y-32846700D01*
X32822223Y-32722446D01*
X32831048Y-32602172D01*
X32850002Y-32486773D01*
X32879134Y-32377145D01*
X32879921Y-32374706D01*
X32902718Y-32309838D01*
X32927943Y-32247892D01*
X32954528Y-32191154D01*
X32981403Y-32141912D01*
X33007501Y-32102451D01*
X33014481Y-32093045D01*
X33027470Y-32075348D01*
X33041600Y-32055944D01*
X33101956Y-31979519D01*
X33176421Y-31900700D01*
X33259214Y-31827978D01*
X33350996Y-31760872D01*
X33452430Y-31698905D01*
X33564175Y-31641598D01*
X33686894Y-31588471D01*
X33692189Y-31586403D01*
X33720201Y-31576283D01*
X33755424Y-31564472D01*
X33794739Y-31551929D01*
X33835024Y-31539612D01*
X33873158Y-31528482D01*
X33906021Y-31519496D01*
X33930492Y-31513613D01*
X33937694Y-31512107D01*
X33966771Y-31505969D01*
X34000094Y-31498874D01*
X34031787Y-31492071D01*
X34063453Y-31485806D01*
X34107979Y-31478065D01*
X34159331Y-31469959D01*
X34214694Y-31461897D01*
X34271250Y-31454288D01*
X34326185Y-31447539D01*
X34376680Y-31442059D01*
X34401375Y-31440132D01*
X34441175Y-31438161D01*
X34489592Y-31436623D01*
X34544649Y-31435518D01*
X34604370Y-31434845D01*
X34666782Y-31434605D01*
X34729907Y-31434795D01*
G37*
%TD*%
M02*
