%TF.GenerationSoftware,KiCad,Pcbnew,8.0.6*%
%TF.CreationDate,2024-10-29T20:24:10-04:00*%
%TF.ProjectId,Pyro-Controller,5079726f-2d43-46f6-9e74-726f6c6c6572,rev?*%
%TF.SameCoordinates,Original*%
%TF.FileFunction,Copper,L1,Top*%
%TF.FilePolarity,Positive*%
%FSLAX46Y46*%
G04 Gerber Fmt 4.6, Leading zero omitted, Abs format (unit mm)*
G04 Created by KiCad (PCBNEW 8.0.6) date 2024-10-29 20:24:10*
%MOMM*%
%LPD*%
G01*
G04 APERTURE LIST*
G04 Aperture macros list*
%AMRoundRect*
0 Rectangle with rounded corners*
0 $1 Rounding radius*
0 $2 $3 $4 $5 $6 $7 $8 $9 X,Y pos of 4 corners*
0 Add a 4 corners polygon primitive as box body*
4,1,4,$2,$3,$4,$5,$6,$7,$8,$9,$2,$3,0*
0 Add four circle primitives for the rounded corners*
1,1,$1+$1,$2,$3*
1,1,$1+$1,$4,$5*
1,1,$1+$1,$6,$7*
1,1,$1+$1,$8,$9*
0 Add four rect primitives between the rounded corners*
20,1,$1+$1,$2,$3,$4,$5,0*
20,1,$1+$1,$4,$5,$6,$7,0*
20,1,$1+$1,$6,$7,$8,$9,0*
20,1,$1+$1,$8,$9,$2,$3,0*%
%AMFreePoly0*
4,1,21,1.372500,0.787500,0.862500,0.787500,0.862500,0.532500,1.372500,0.532500,1.372500,0.127500,0.862500,0.127500,0.862500,-0.127500,1.372500,-0.127500,1.372500,-0.532500,0.862500,-0.532500,0.862500,-0.787500,1.372500,-0.787500,1.372500,-1.195000,0.612500,-1.195000,0.612500,-1.117500,-0.862500,-1.117500,-0.862500,1.117500,0.612500,1.117500,0.612500,1.195000,1.372500,1.195000,
1.372500,0.787500,1.372500,0.787500,$1*%
G04 Aperture macros list end*
%TA.AperFunction,SMDPad,CuDef*%
%ADD10C,1.000000*%
%TD*%
%TA.AperFunction,ComponentPad*%
%ADD11C,3.000000*%
%TD*%
%TA.AperFunction,SMDPad,CuDef*%
%ADD12RoundRect,0.237500X0.250000X0.237500X-0.250000X0.237500X-0.250000X-0.237500X0.250000X-0.237500X0*%
%TD*%
%TA.AperFunction,ComponentPad*%
%ADD13R,2.400000X2.400000*%
%TD*%
%TA.AperFunction,ComponentPad*%
%ADD14C,2.400000*%
%TD*%
%TA.AperFunction,ComponentPad*%
%ADD15R,1.350000X1.350000*%
%TD*%
%TA.AperFunction,ComponentPad*%
%ADD16O,1.350000X1.350000*%
%TD*%
%TA.AperFunction,SMDPad,CuDef*%
%ADD17R,0.990000X0.405000*%
%TD*%
%TA.AperFunction,SMDPad,CuDef*%
%ADD18FreePoly0,0.000000*%
%TD*%
%TA.AperFunction,SMDPad,CuDef*%
%ADD19RoundRect,0.237500X-0.250000X-0.237500X0.250000X-0.237500X0.250000X0.237500X-0.250000X0.237500X0*%
%TD*%
%TA.AperFunction,Conductor*%
%ADD20C,1.016000*%
%TD*%
%TA.AperFunction,Conductor*%
%ADD21C,0.200000*%
%TD*%
%TA.AperFunction,Conductor*%
%ADD22C,0.508000*%
%TD*%
G04 APERTURE END LIST*
D10*
%TO.P,FID3,*%
%TO.N,*%
X42799000Y-37846000D03*
%TD*%
%TO.P,FID2,*%
%TO.N,*%
X29210000Y-27813000D03*
%TD*%
%TO.P,FID1,*%
%TO.N,*%
X30607000Y-37973000D03*
%TD*%
D11*
%TO.P,TP3,1,1*%
%TO.N,GNDD*%
X45466000Y-25273000D03*
%TD*%
D12*
%TO.P,R3,1*%
%TO.N,/PyroController/Output*%
X37361500Y-26670000D03*
%TO.P,R3,2*%
%TO.N,Net-(R3-Pad2)*%
X35536500Y-26670000D03*
%TD*%
D13*
%TO.P,J1,1,Pin_1*%
%TO.N,+3.3V*%
X45466000Y-33599000D03*
D14*
%TO.P,J1,2,Pin_2*%
%TO.N,/PyroController/Output*%
X45466000Y-30099000D03*
%TD*%
D11*
%TO.P,TP2,1,1*%
%TO.N,/PyroController/Output*%
X41402000Y-25273000D03*
%TD*%
%TO.P,TP1,1,1*%
%TO.N,/PyroController/Input*%
X31877000Y-25333000D03*
%TD*%
D15*
%TO.P,J2,1,Pin_1*%
%TO.N,GNDD*%
X25654000Y-29623000D03*
D16*
%TO.P,J2,2,Pin_2*%
%TO.N,/PyroController/Input*%
X25654000Y-31623000D03*
%TO.P,J2,3,Pin_3*%
%TO.N,+3.3V*%
X25654000Y-33623000D03*
%TD*%
D12*
%TO.P,R4,1*%
%TO.N,GNDD*%
X37285500Y-24333000D03*
%TO.P,R4,2*%
%TO.N,Net-(R3-Pad2)*%
X35460500Y-24333000D03*
%TD*%
D17*
%TO.P,Q1,1,S*%
%TO.N,GNDD*%
X35433000Y-29897000D03*
%TO.P,Q1,2,S*%
X35433000Y-30557000D03*
%TO.P,Q1,3,S*%
X35433000Y-31217000D03*
%TO.P,Q1,4,G*%
%TO.N,Net-(Q1-G)*%
X35433000Y-31877000D03*
D18*
%TO.P,Q1,5,D*%
%TO.N,/PyroController/Output*%
X37425500Y-30887000D03*
%TD*%
D12*
%TO.P,R1,1*%
%TO.N,GNDD*%
X33678500Y-29845000D03*
%TO.P,R1,2*%
%TO.N,/PyroController/Input*%
X31853500Y-29845000D03*
%TD*%
D19*
%TO.P,R2,1*%
%TO.N,/PyroController/Input*%
X31853500Y-31877000D03*
%TO.P,R2,2*%
%TO.N,Net-(Q1-G)*%
X33678500Y-31877000D03*
%TD*%
D20*
%TO.N,+3.3V*%
X45466000Y-33599000D02*
X25964000Y-33599000D01*
X25964000Y-33599000D02*
X25908000Y-33655000D01*
X45373000Y-34333000D02*
X45466000Y-34240000D01*
X45466000Y-34240000D02*
X45466000Y-33599000D01*
D21*
%TO.N,Net-(Q1-G)*%
X33678500Y-31877000D02*
X35433000Y-31877000D01*
%TO.N,GNDD*%
X25642000Y-29833000D02*
X25654000Y-29845000D01*
X33730500Y-29897000D02*
X33678500Y-29845000D01*
D20*
%TO.N,/PyroController/Output*%
X40995000Y-30887000D02*
X37425500Y-30887000D01*
D22*
X41373000Y-25333000D02*
X40036000Y-26670000D01*
D21*
X45466000Y-30099000D02*
X45373000Y-30192000D01*
D22*
X37361500Y-26670000D02*
X37361500Y-30823000D01*
D21*
X45373000Y-30192000D02*
X45373000Y-30833000D01*
D20*
X45466000Y-30099000D02*
X41783000Y-30099000D01*
X41783000Y-30099000D02*
X40995000Y-30887000D01*
D22*
X40036000Y-26670000D02*
X37361500Y-26670000D01*
D21*
X37361500Y-30823000D02*
X37425500Y-30887000D01*
%TO.N,/PyroController/Input*%
X31853500Y-26313500D02*
X31853500Y-29845000D01*
X28829000Y-31496000D02*
X25781000Y-31496000D01*
X31853500Y-31877000D02*
X29210000Y-31877000D01*
X29210000Y-31877000D02*
X28829000Y-31496000D01*
X25781000Y-31496000D02*
X25654000Y-31623000D01*
X30873000Y-25333000D02*
X31853500Y-26313500D01*
X31853500Y-31877000D02*
X31853500Y-29845000D01*
%TO.N,Net-(R3-Pad2)*%
X35460500Y-26594000D02*
X35536500Y-26670000D01*
X35460500Y-24333000D02*
X35460500Y-26594000D01*
%TD*%
%TA.AperFunction,Conductor*%
%TO.N,GNDD*%
G36*
X47486373Y-18020243D02*
G01*
X47548516Y-18020242D01*
X47556002Y-18020468D01*
X47846065Y-18038009D01*
X47860923Y-18039813D01*
X48143062Y-18091514D01*
X48157587Y-18095094D01*
X48385470Y-18166103D01*
X48431439Y-18180427D01*
X48445440Y-18185737D01*
X48590736Y-18251128D01*
X48707013Y-18303459D01*
X48720250Y-18310406D01*
X48965734Y-18458805D01*
X48978048Y-18467305D01*
X49203843Y-18644203D01*
X49215051Y-18654133D01*
X49417866Y-18856948D01*
X49427796Y-18868156D01*
X49604694Y-19093951D01*
X49613196Y-19106269D01*
X49761589Y-19351743D01*
X49768542Y-19364991D01*
X49886262Y-19626559D01*
X49891572Y-19640560D01*
X49976903Y-19914405D01*
X49980486Y-19928944D01*
X50032185Y-20211073D01*
X50033990Y-20225938D01*
X50051531Y-20515997D01*
X50051757Y-20523482D01*
X50051757Y-20595614D01*
X50051758Y-20595627D01*
X50051758Y-41446249D01*
X50051532Y-41453736D01*
X50033986Y-41743792D01*
X50032181Y-41758657D01*
X49980478Y-42040790D01*
X49976894Y-42055329D01*
X49891562Y-42329167D01*
X49886252Y-42343168D01*
X49768534Y-42604723D01*
X49761576Y-42617981D01*
X49613185Y-42863447D01*
X49604678Y-42875771D01*
X49427787Y-43101552D01*
X49417858Y-43112760D01*
X49215031Y-43315585D01*
X49203822Y-43325514D01*
X48978041Y-43502399D01*
X48965718Y-43510905D01*
X48720256Y-43659289D01*
X48706997Y-43666248D01*
X48445437Y-43783963D01*
X48431436Y-43789273D01*
X48157589Y-43874604D01*
X48143050Y-43878187D01*
X47860923Y-43929885D01*
X47846058Y-43931690D01*
X47555309Y-43949273D01*
X47547824Y-43949499D01*
X47478779Y-43949499D01*
X47478763Y-43949500D01*
X26625751Y-43949500D01*
X26618264Y-43949274D01*
X26328205Y-43931728D01*
X26313340Y-43929923D01*
X26031201Y-43878219D01*
X26016663Y-43874635D01*
X25742832Y-43789306D01*
X25728831Y-43783997D01*
X25467263Y-43666275D01*
X25454004Y-43659316D01*
X25208540Y-43510928D01*
X25196217Y-43502422D01*
X24970426Y-43325526D01*
X24959218Y-43315596D01*
X24756403Y-43112781D01*
X24746473Y-43101573D01*
X24677592Y-43013653D01*
X24569569Y-42875771D01*
X24561075Y-42863465D01*
X24412680Y-42617989D01*
X24405727Y-42604743D01*
X24288000Y-42343163D01*
X24282693Y-42329167D01*
X24197364Y-42055336D01*
X24193780Y-42040798D01*
X24142076Y-41758659D01*
X24140271Y-41743794D01*
X24138777Y-41719103D01*
X24122726Y-41453736D01*
X24122613Y-41449995D01*
X24816451Y-41449995D01*
X24816451Y-41450004D01*
X24836616Y-41719101D01*
X24892570Y-41964250D01*
X24896666Y-41982195D01*
X24995257Y-42233398D01*
X25130185Y-42467102D01*
X25250519Y-42617995D01*
X25298442Y-42678089D01*
X25359385Y-42734635D01*
X25496259Y-42861635D01*
X25719226Y-43013651D01*
X25962359Y-43130738D01*
X26220228Y-43210280D01*
X26220229Y-43210280D01*
X26220232Y-43210281D01*
X26487063Y-43250499D01*
X26487068Y-43250499D01*
X26487071Y-43250500D01*
X26487072Y-43250500D01*
X26756928Y-43250500D01*
X26756929Y-43250500D01*
X26756936Y-43250499D01*
X27023767Y-43210281D01*
X27023768Y-43210280D01*
X27023772Y-43210280D01*
X27281641Y-43130738D01*
X27524775Y-43013651D01*
X27747741Y-42861635D01*
X27945561Y-42678085D01*
X28113815Y-42467102D01*
X28248743Y-42233398D01*
X28347334Y-41982195D01*
X28407383Y-41719103D01*
X28416900Y-41592101D01*
X28427549Y-41450004D01*
X28427549Y-41449995D01*
X28418032Y-41322995D01*
X45867451Y-41322995D01*
X45867451Y-41323004D01*
X45887616Y-41592101D01*
X45947664Y-41855188D01*
X45947666Y-41855195D01*
X46020510Y-42040798D01*
X46046257Y-42106398D01*
X46181185Y-42340102D01*
X46282464Y-42467101D01*
X46349442Y-42551089D01*
X46486317Y-42678089D01*
X46547259Y-42734635D01*
X46770226Y-42886651D01*
X47013359Y-43003738D01*
X47271228Y-43083280D01*
X47271229Y-43083280D01*
X47271232Y-43083281D01*
X47538063Y-43123499D01*
X47538068Y-43123499D01*
X47538071Y-43123500D01*
X47538072Y-43123500D01*
X47807928Y-43123500D01*
X47807929Y-43123500D01*
X47807936Y-43123499D01*
X48074767Y-43083281D01*
X48074768Y-43083280D01*
X48074772Y-43083280D01*
X48332641Y-43003738D01*
X48575775Y-42886651D01*
X48798741Y-42734635D01*
X48996561Y-42551085D01*
X49164815Y-42340102D01*
X49299743Y-42106398D01*
X49398334Y-41855195D01*
X49458383Y-41592103D01*
X49478549Y-41323000D01*
X49474734Y-41272095D01*
X49458383Y-41053898D01*
X49458383Y-41053897D01*
X49398334Y-40790805D01*
X49299743Y-40539602D01*
X49164815Y-40305898D01*
X48996561Y-40094915D01*
X48996560Y-40094914D01*
X48996557Y-40094910D01*
X48798741Y-39911365D01*
X48762042Y-39886344D01*
X48575775Y-39759349D01*
X48575769Y-39759346D01*
X48575768Y-39759345D01*
X48575767Y-39759344D01*
X48332643Y-39642263D01*
X48332645Y-39642263D01*
X48074773Y-39562720D01*
X48074767Y-39562718D01*
X47807936Y-39522500D01*
X47807929Y-39522500D01*
X47538071Y-39522500D01*
X47538063Y-39522500D01*
X47271232Y-39562718D01*
X47271226Y-39562720D01*
X47013358Y-39642262D01*
X46770230Y-39759346D01*
X46547258Y-39911365D01*
X46349442Y-40094910D01*
X46181185Y-40305898D01*
X46046258Y-40539599D01*
X46046256Y-40539603D01*
X45947666Y-40790804D01*
X45947664Y-40790811D01*
X45887616Y-41053898D01*
X45867451Y-41322995D01*
X28418032Y-41322995D01*
X28407383Y-41180898D01*
X28399211Y-41145095D01*
X28347334Y-40917805D01*
X28248743Y-40666602D01*
X28113815Y-40432898D01*
X27945561Y-40221915D01*
X27945560Y-40221914D01*
X27945557Y-40221910D01*
X27747741Y-40038365D01*
X27524775Y-39886349D01*
X27524769Y-39886346D01*
X27524768Y-39886345D01*
X27524767Y-39886344D01*
X27281643Y-39769263D01*
X27281645Y-39769263D01*
X27023773Y-39689720D01*
X27023767Y-39689718D01*
X26756936Y-39649500D01*
X26756929Y-39649500D01*
X26487071Y-39649500D01*
X26487063Y-39649500D01*
X26220232Y-39689718D01*
X26220226Y-39689720D01*
X25962358Y-39769262D01*
X25719230Y-39886346D01*
X25496258Y-40038365D01*
X25298442Y-40221910D01*
X25130185Y-40432898D01*
X24995258Y-40666599D01*
X24995256Y-40666603D01*
X24896666Y-40917804D01*
X24896664Y-40917811D01*
X24836616Y-41180898D01*
X24816451Y-41449995D01*
X24122613Y-41449995D01*
X24122500Y-41446249D01*
X24122500Y-37973000D01*
X29601659Y-37973000D01*
X29620975Y-38169129D01*
X29678188Y-38357733D01*
X29771086Y-38531532D01*
X29771090Y-38531539D01*
X29896116Y-38683883D01*
X30048460Y-38808909D01*
X30048467Y-38808913D01*
X30222266Y-38901811D01*
X30222269Y-38901811D01*
X30222273Y-38901814D01*
X30410868Y-38959024D01*
X30607000Y-38978341D01*
X30803132Y-38959024D01*
X30991727Y-38901814D01*
X31165538Y-38808910D01*
X31317883Y-38683883D01*
X31442910Y-38531538D01*
X31489362Y-38444632D01*
X31535811Y-38357733D01*
X31535811Y-38357732D01*
X31535814Y-38357727D01*
X31593024Y-38169132D01*
X31612341Y-37973000D01*
X31599833Y-37846000D01*
X41793659Y-37846000D01*
X41812975Y-38042129D01*
X41870188Y-38230733D01*
X41963086Y-38404532D01*
X41963090Y-38404539D01*
X42088116Y-38556883D01*
X42240460Y-38681909D01*
X42240467Y-38681913D01*
X42414266Y-38774811D01*
X42414269Y-38774811D01*
X42414273Y-38774814D01*
X42602868Y-38832024D01*
X42799000Y-38851341D01*
X42995132Y-38832024D01*
X43183727Y-38774814D01*
X43357538Y-38681910D01*
X43509883Y-38556883D01*
X43634910Y-38404538D01*
X43727814Y-38230727D01*
X43785024Y-38042132D01*
X43804341Y-37846000D01*
X43785024Y-37649868D01*
X43727814Y-37461273D01*
X43727811Y-37461269D01*
X43727811Y-37461266D01*
X43634913Y-37287467D01*
X43634909Y-37287460D01*
X43509883Y-37135116D01*
X43357539Y-37010090D01*
X43357532Y-37010086D01*
X43183733Y-36917188D01*
X43183727Y-36917186D01*
X42995132Y-36859976D01*
X42995129Y-36859975D01*
X42799000Y-36840659D01*
X42602870Y-36859975D01*
X42414266Y-36917188D01*
X42240467Y-37010086D01*
X42240460Y-37010090D01*
X42088116Y-37135116D01*
X41963090Y-37287460D01*
X41963086Y-37287467D01*
X41870188Y-37461266D01*
X41812975Y-37649870D01*
X41793659Y-37846000D01*
X31599833Y-37846000D01*
X31593024Y-37776868D01*
X31535814Y-37588273D01*
X31535811Y-37588269D01*
X31535811Y-37588266D01*
X31442913Y-37414467D01*
X31442909Y-37414460D01*
X31317883Y-37262116D01*
X31165539Y-37137090D01*
X31165532Y-37137086D01*
X30991733Y-37044188D01*
X30991727Y-37044186D01*
X30803132Y-36986976D01*
X30803129Y-36986975D01*
X30607000Y-36967659D01*
X30410870Y-36986975D01*
X30222266Y-37044188D01*
X30048467Y-37137086D01*
X30048460Y-37137090D01*
X29896116Y-37262116D01*
X29771090Y-37414460D01*
X29771086Y-37414467D01*
X29678188Y-37588266D01*
X29620975Y-37776870D01*
X29601659Y-37973000D01*
X24122500Y-37973000D01*
X24122500Y-31622999D01*
X24473464Y-31622999D01*
X24473464Y-31623000D01*
X24493564Y-31839918D01*
X24493564Y-31839920D01*
X24493565Y-31839923D01*
X24550906Y-32041455D01*
X24553184Y-32049462D01*
X24650288Y-32244472D01*
X24781574Y-32418324D01*
X24905572Y-32531363D01*
X24941854Y-32591074D01*
X24940093Y-32660922D01*
X24905572Y-32714637D01*
X24781574Y-32827675D01*
X24650288Y-33001527D01*
X24553184Y-33196537D01*
X24493564Y-33406081D01*
X24473464Y-33622999D01*
X24473464Y-33623000D01*
X24493564Y-33839918D01*
X24493564Y-33839920D01*
X24493565Y-33839923D01*
X24553183Y-34049459D01*
X24650288Y-34244472D01*
X24781573Y-34418322D01*
X24942568Y-34565088D01*
X24942575Y-34565092D01*
X24942576Y-34565093D01*
X25127786Y-34679770D01*
X25127792Y-34679773D01*
X25128350Y-34679989D01*
X25330931Y-34758470D01*
X25545074Y-34798500D01*
X25545076Y-34798500D01*
X25762924Y-34798500D01*
X25762926Y-34798500D01*
X25977069Y-34758470D01*
X26180210Y-34679772D01*
X26266938Y-34626072D01*
X26332214Y-34607500D01*
X43641501Y-34607500D01*
X43708540Y-34627185D01*
X43754295Y-34679989D01*
X43765501Y-34731500D01*
X43765501Y-34846876D01*
X43771908Y-34906483D01*
X43822202Y-35041328D01*
X43822206Y-35041335D01*
X43908452Y-35156544D01*
X43908455Y-35156547D01*
X44023664Y-35242793D01*
X44023671Y-35242797D01*
X44158517Y-35293091D01*
X44158516Y-35293091D01*
X44165444Y-35293835D01*
X44218127Y-35299500D01*
X45050304Y-35299499D01*
X45074495Y-35301882D01*
X45273666Y-35341499D01*
X45273669Y-35341500D01*
X45273671Y-35341500D01*
X45472331Y-35341500D01*
X45472332Y-35341499D01*
X45518073Y-35332400D01*
X45671505Y-35301882D01*
X45695696Y-35299499D01*
X46713871Y-35299499D01*
X46713872Y-35299499D01*
X46773483Y-35293091D01*
X46908331Y-35242796D01*
X47023546Y-35156546D01*
X47109796Y-35041331D01*
X47160091Y-34906483D01*
X47166500Y-34846873D01*
X47166499Y-32351128D01*
X47160091Y-32291517D01*
X47143008Y-32245716D01*
X47109797Y-32156671D01*
X47109793Y-32156664D01*
X47023547Y-32041455D01*
X47023544Y-32041452D01*
X46908335Y-31955206D01*
X46908328Y-31955202D01*
X46773482Y-31904908D01*
X46773483Y-31904908D01*
X46713883Y-31898501D01*
X46713881Y-31898500D01*
X46713873Y-31898500D01*
X46713865Y-31898500D01*
X46191829Y-31898500D01*
X46124790Y-31878815D01*
X46079035Y-31826011D01*
X46069091Y-31756853D01*
X46098116Y-31693297D01*
X46138027Y-31662780D01*
X46318634Y-31575805D01*
X46529217Y-31432232D01*
X46716050Y-31258877D01*
X46874959Y-31059612D01*
X47002393Y-30838888D01*
X47095508Y-30601637D01*
X47152222Y-30353157D01*
X47168819Y-30131677D01*
X47171268Y-30099004D01*
X47171268Y-30098995D01*
X47152222Y-29844845D01*
X47143358Y-29806011D01*
X47095508Y-29596363D01*
X47002393Y-29359112D01*
X46874959Y-29138388D01*
X46716050Y-28939123D01*
X46529217Y-28765768D01*
X46318634Y-28622195D01*
X46318630Y-28622193D01*
X46318627Y-28622191D01*
X46318626Y-28622190D01*
X46089006Y-28511612D01*
X46089008Y-28511612D01*
X45845466Y-28436489D01*
X45845462Y-28436488D01*
X45845458Y-28436487D01*
X45724231Y-28418214D01*
X45593440Y-28398500D01*
X45593435Y-28398500D01*
X45338565Y-28398500D01*
X45338559Y-28398500D01*
X45181609Y-28422157D01*
X45086542Y-28436487D01*
X45086539Y-28436488D01*
X45086533Y-28436489D01*
X44842992Y-28511612D01*
X44613373Y-28622190D01*
X44613372Y-28622191D01*
X44402782Y-28765768D01*
X44257929Y-28900172D01*
X44215950Y-28939123D01*
X44147738Y-29024659D01*
X44132463Y-29043813D01*
X44075275Y-29083953D01*
X44035516Y-29090500D01*
X41683666Y-29090500D01*
X41488838Y-29129254D01*
X41488830Y-29129256D01*
X41305298Y-29205277D01*
X41305289Y-29205282D01*
X41140119Y-29315646D01*
X41140115Y-29315649D01*
X40613585Y-29842181D01*
X40552262Y-29875666D01*
X40525904Y-29878500D01*
X39427500Y-29878500D01*
X39360461Y-29858815D01*
X39314706Y-29806011D01*
X39303500Y-29754500D01*
X39303500Y-29692000D01*
X39298355Y-29620060D01*
X39257819Y-29482008D01*
X39197061Y-29387467D01*
X39180032Y-29360969D01*
X39180028Y-29360965D01*
X39071299Y-29266750D01*
X39071297Y-29266748D01*
X39071294Y-29266746D01*
X39071290Y-29266744D01*
X38940419Y-29206976D01*
X38940414Y-29206975D01*
X38798000Y-29186500D01*
X38240000Y-29186500D01*
X38172961Y-29166815D01*
X38127206Y-29114011D01*
X38116000Y-29062500D01*
X38116000Y-27548500D01*
X38135685Y-27481461D01*
X38188489Y-27435706D01*
X38240000Y-27424500D01*
X39955554Y-27424500D01*
X39955574Y-27424501D01*
X39961688Y-27424501D01*
X40110314Y-27424501D01*
X40231894Y-27400315D01*
X40231894Y-27400316D01*
X40231900Y-27400313D01*
X40256080Y-27395505D01*
X40321638Y-27368350D01*
X40393389Y-27338630D01*
X40516966Y-27256059D01*
X40590289Y-27182734D01*
X40651611Y-27149249D01*
X40721302Y-27154232D01*
X40836954Y-27197369D01*
X40836960Y-27197370D01*
X40836962Y-27197371D01*
X41116566Y-27258195D01*
X41116568Y-27258195D01*
X41116572Y-27258196D01*
X41370220Y-27276337D01*
X41401999Y-27278610D01*
X41402000Y-27278610D01*
X41402001Y-27278610D01*
X41430595Y-27276564D01*
X41687428Y-27258196D01*
X41697266Y-27256056D01*
X41967037Y-27197371D01*
X41967037Y-27197370D01*
X41967046Y-27197369D01*
X42235161Y-27097367D01*
X42486315Y-26960226D01*
X42715395Y-26788739D01*
X42917739Y-26586395D01*
X43089226Y-26357315D01*
X43226367Y-26106161D01*
X43318086Y-25860251D01*
X43359955Y-25804321D01*
X43425419Y-25779904D01*
X43493692Y-25794756D01*
X43543098Y-25844161D01*
X43550448Y-25860254D01*
X43642091Y-26105957D01*
X43779191Y-26357038D01*
X43779196Y-26357046D01*
X43885882Y-26499561D01*
X43885883Y-26499562D01*
X44788421Y-25597024D01*
X44801359Y-25628258D01*
X44883437Y-25751097D01*
X44987903Y-25855563D01*
X45110742Y-25937641D01*
X45141974Y-25950578D01*
X44239436Y-26853115D01*
X44381960Y-26959807D01*
X44381961Y-26959808D01*
X44633042Y-27096908D01*
X44633041Y-27096908D01*
X44901104Y-27196890D01*
X45180637Y-27257699D01*
X45465999Y-27278109D01*
X45466001Y-27278109D01*
X45751362Y-27257699D01*
X46030895Y-27196890D01*
X46298958Y-27096908D01*
X46550047Y-26959803D01*
X46692561Y-26853116D01*
X46692562Y-26853115D01*
X45790025Y-25950577D01*
X45821258Y-25937641D01*
X45944097Y-25855563D01*
X46048563Y-25751097D01*
X46130641Y-25628258D01*
X46143578Y-25597025D01*
X47046115Y-26499562D01*
X47046116Y-26499561D01*
X47152803Y-26357047D01*
X47289908Y-26105958D01*
X47389890Y-25837895D01*
X47450699Y-25558362D01*
X47471109Y-25273001D01*
X47471109Y-25272998D01*
X47450699Y-24987637D01*
X47389890Y-24708104D01*
X47289908Y-24440041D01*
X47152808Y-24188961D01*
X47152807Y-24188960D01*
X47046115Y-24046436D01*
X46143577Y-24948973D01*
X46130641Y-24917742D01*
X46048563Y-24794903D01*
X45944097Y-24690437D01*
X45821258Y-24608359D01*
X45790024Y-24595421D01*
X46692562Y-23692883D01*
X46692561Y-23692882D01*
X46550046Y-23586196D01*
X46550038Y-23586191D01*
X46298957Y-23449091D01*
X46298958Y-23449091D01*
X46030895Y-23349109D01*
X45751362Y-23288300D01*
X45466001Y-23267891D01*
X45465999Y-23267891D01*
X45180637Y-23288300D01*
X44901104Y-23349109D01*
X44633041Y-23449091D01*
X44381961Y-23586191D01*
X44381953Y-23586196D01*
X44239437Y-23692882D01*
X44239436Y-23692883D01*
X45141975Y-24595421D01*
X45110742Y-24608359D01*
X44987903Y-24690437D01*
X44883437Y-24794903D01*
X44801359Y-24917742D01*
X44788421Y-24948974D01*
X43885883Y-24046436D01*
X43885882Y-24046437D01*
X43779196Y-24188953D01*
X43779191Y-24188961D01*
X43642091Y-24440042D01*
X43550448Y-24685745D01*
X43508576Y-24741678D01*
X43443112Y-24766095D01*
X43374839Y-24751243D01*
X43325434Y-24701837D01*
X43318089Y-24685756D01*
X43226367Y-24439839D01*
X43121991Y-24248690D01*
X43089229Y-24188690D01*
X43089224Y-24188682D01*
X42917745Y-23959612D01*
X42917729Y-23959594D01*
X42715405Y-23757270D01*
X42715387Y-23757254D01*
X42486317Y-23585775D01*
X42486309Y-23585770D01*
X42235166Y-23448635D01*
X42235167Y-23448635D01*
X42019831Y-23368319D01*
X41967046Y-23348631D01*
X41967043Y-23348630D01*
X41967037Y-23348628D01*
X41687433Y-23287804D01*
X41402001Y-23267390D01*
X41401999Y-23267390D01*
X41116566Y-23287804D01*
X40836962Y-23348628D01*
X40568833Y-23448635D01*
X40317690Y-23585770D01*
X40317682Y-23585775D01*
X40088612Y-23757254D01*
X40088594Y-23757270D01*
X39886270Y-23959594D01*
X39886254Y-23959612D01*
X39714775Y-24188682D01*
X39714770Y-24188690D01*
X39577635Y-24439833D01*
X39477628Y-24707962D01*
X39416804Y-24987566D01*
X39396390Y-25272998D01*
X39396390Y-25273001D01*
X39416804Y-25558433D01*
X39461771Y-25765142D01*
X39456787Y-25834834D01*
X39414915Y-25890767D01*
X39349451Y-25915184D01*
X39340605Y-25915500D01*
X38189552Y-25915500D01*
X38122513Y-25895815D01*
X38101871Y-25879181D01*
X38072351Y-25849661D01*
X38072350Y-25849660D01*
X37959258Y-25779904D01*
X37925518Y-25759093D01*
X37925513Y-25759091D01*
X37885998Y-25745997D01*
X37761753Y-25704826D01*
X37761751Y-25704825D01*
X37660678Y-25694500D01*
X37062330Y-25694500D01*
X37062312Y-25694501D01*
X36961247Y-25704825D01*
X36797484Y-25759092D01*
X36797481Y-25759093D01*
X36650648Y-25849661D01*
X36536681Y-25963629D01*
X36475358Y-25997114D01*
X36405666Y-25992130D01*
X36361319Y-25963629D01*
X36247350Y-25849660D01*
X36247346Y-25849657D01*
X36119903Y-25771049D01*
X36073178Y-25719101D01*
X36061000Y-25665511D01*
X36061000Y-25290610D01*
X36080685Y-25223571D01*
X36119901Y-25185073D01*
X36171350Y-25153340D01*
X36285675Y-25039014D01*
X36346994Y-25005532D01*
X36416686Y-25010516D01*
X36461034Y-25039017D01*
X36574961Y-25152944D01*
X36574965Y-25152947D01*
X36721688Y-25243448D01*
X36721699Y-25243453D01*
X36885347Y-25297680D01*
X36986351Y-25307999D01*
X37535500Y-25307999D01*
X37584640Y-25307999D01*
X37584654Y-25307998D01*
X37685652Y-25297680D01*
X37849300Y-25243453D01*
X37849311Y-25243448D01*
X37996034Y-25152947D01*
X37996038Y-25152944D01*
X38117944Y-25031038D01*
X38117947Y-25031034D01*
X38208448Y-24884311D01*
X38208453Y-24884300D01*
X38262680Y-24720652D01*
X38272999Y-24619654D01*
X38273000Y-24619641D01*
X38273000Y-24583000D01*
X37535500Y-24583000D01*
X37535500Y-25307999D01*
X36986351Y-25307999D01*
X37035499Y-25307998D01*
X37035500Y-25307998D01*
X37035500Y-24083000D01*
X37535500Y-24083000D01*
X38272999Y-24083000D01*
X38272999Y-24046360D01*
X38272998Y-24046345D01*
X38262680Y-23945347D01*
X38208453Y-23781699D01*
X38208448Y-23781688D01*
X38117947Y-23634965D01*
X38117944Y-23634961D01*
X37996038Y-23513055D01*
X37996034Y-23513052D01*
X37849311Y-23422551D01*
X37849300Y-23422546D01*
X37685652Y-23368319D01*
X37584654Y-23358000D01*
X37535500Y-23358000D01*
X37535500Y-24083000D01*
X37035500Y-24083000D01*
X37035500Y-23358000D01*
X37035499Y-23357999D01*
X36986361Y-23358000D01*
X36986343Y-23358001D01*
X36885347Y-23368319D01*
X36721699Y-23422546D01*
X36721688Y-23422551D01*
X36574965Y-23513052D01*
X36461034Y-23626983D01*
X36399711Y-23660467D01*
X36330019Y-23655483D01*
X36285672Y-23626982D01*
X36171351Y-23512661D01*
X36171350Y-23512660D01*
X36067546Y-23448633D01*
X36024518Y-23422093D01*
X36024513Y-23422091D01*
X36023069Y-23421612D01*
X35860753Y-23367826D01*
X35860751Y-23367825D01*
X35759678Y-23357500D01*
X35161330Y-23357500D01*
X35161312Y-23357501D01*
X35060247Y-23367825D01*
X34896484Y-23422092D01*
X34896481Y-23422093D01*
X34749648Y-23512661D01*
X34627661Y-23634648D01*
X34537093Y-23781481D01*
X34537091Y-23781486D01*
X34509719Y-23864088D01*
X34482826Y-23945247D01*
X34482826Y-23945248D01*
X34482825Y-23945248D01*
X34472500Y-24046315D01*
X34472500Y-24619669D01*
X34472501Y-24619687D01*
X34482825Y-24720752D01*
X34507397Y-24794903D01*
X34537092Y-24884516D01*
X34627660Y-25031350D01*
X34749650Y-25153340D01*
X34801097Y-25185072D01*
X34847821Y-25237017D01*
X34860000Y-25290610D01*
X34860000Y-25763947D01*
X34840315Y-25830986D01*
X34823682Y-25851628D01*
X34703659Y-25971651D01*
X34613093Y-26118481D01*
X34613092Y-26118484D01*
X34558826Y-26282247D01*
X34558826Y-26282248D01*
X34558825Y-26282248D01*
X34548500Y-26383315D01*
X34548500Y-26956669D01*
X34548501Y-26956687D01*
X34558825Y-27057752D01*
X34589145Y-27149249D01*
X34605090Y-27197369D01*
X34613092Y-27221515D01*
X34613093Y-27221518D01*
X34685560Y-27339005D01*
X34703660Y-27368350D01*
X34825650Y-27490340D01*
X34972484Y-27580908D01*
X35136247Y-27635174D01*
X35237323Y-27645500D01*
X35835676Y-27645499D01*
X35835684Y-27645498D01*
X35835687Y-27645498D01*
X35891030Y-27639844D01*
X35936753Y-27635174D01*
X36100516Y-27580908D01*
X36247350Y-27490340D01*
X36361319Y-27376371D01*
X36422642Y-27342886D01*
X36492334Y-27347870D01*
X36536681Y-27376371D01*
X36570681Y-27410371D01*
X36604166Y-27471694D01*
X36607000Y-27498052D01*
X36607000Y-29145404D01*
X36587315Y-29212443D01*
X36534511Y-29258198D01*
X36497538Y-29267636D01*
X36497598Y-29267965D01*
X36493010Y-29268792D01*
X36491857Y-29269087D01*
X36491063Y-29269143D01*
X36353005Y-29309682D01*
X36231969Y-29387467D01*
X36231965Y-29387471D01*
X36137750Y-29496200D01*
X36137744Y-29496209D01*
X36077976Y-29627080D01*
X36077975Y-29627085D01*
X36057500Y-29769499D01*
X36057500Y-31050000D01*
X36037815Y-31117039D01*
X35985011Y-31162794D01*
X35933500Y-31174000D01*
X34890129Y-31174000D01*
X34890123Y-31174001D01*
X34830516Y-31180408D01*
X34695672Y-31230702D01*
X34687891Y-31234952D01*
X34686518Y-31232438D01*
X34634662Y-31251768D01*
X34566392Y-31236902D01*
X34520302Y-31193180D01*
X34511340Y-31178650D01*
X34389350Y-31056660D01*
X34242763Y-30966244D01*
X34196039Y-30914297D01*
X34184818Y-30845334D01*
X34212661Y-30781252D01*
X34242764Y-30755167D01*
X34389039Y-30664943D01*
X34510944Y-30543038D01*
X34510947Y-30543034D01*
X34601448Y-30396311D01*
X34601453Y-30396300D01*
X34655680Y-30232652D01*
X34665999Y-30131654D01*
X34666000Y-30131641D01*
X34666000Y-30095000D01*
X33552500Y-30095000D01*
X33485461Y-30075315D01*
X33439706Y-30022511D01*
X33428500Y-29971000D01*
X33428500Y-29595000D01*
X33928500Y-29595000D01*
X34665999Y-29595000D01*
X34665999Y-29558360D01*
X34665998Y-29558345D01*
X34655680Y-29457347D01*
X34601453Y-29293699D01*
X34601448Y-29293688D01*
X34510947Y-29146965D01*
X34510944Y-29146961D01*
X34389038Y-29025055D01*
X34389034Y-29025052D01*
X34242311Y-28934551D01*
X34242300Y-28934546D01*
X34078652Y-28880319D01*
X33977654Y-28870000D01*
X33928500Y-28870000D01*
X33928500Y-29595000D01*
X33428500Y-29595000D01*
X33428500Y-28870000D01*
X33428499Y-28869999D01*
X33379361Y-28870000D01*
X33379343Y-28870001D01*
X33278347Y-28880319D01*
X33114699Y-28934546D01*
X33114688Y-28934551D01*
X32967965Y-29025052D01*
X32854034Y-29138983D01*
X32792711Y-29172467D01*
X32723019Y-29167483D01*
X32678672Y-29138982D01*
X32564349Y-29024659D01*
X32512902Y-28992926D01*
X32466178Y-28940978D01*
X32454000Y-28887388D01*
X32454000Y-27339005D01*
X32473685Y-27271966D01*
X32526489Y-27226211D01*
X32534666Y-27222823D01*
X32538165Y-27221518D01*
X32710161Y-27157367D01*
X32961315Y-27020226D01*
X33190395Y-26848739D01*
X33392739Y-26646395D01*
X33564226Y-26417315D01*
X33701367Y-26166161D01*
X33801369Y-25898046D01*
X33811467Y-25851628D01*
X33862195Y-25618433D01*
X33862195Y-25618432D01*
X33862196Y-25618428D01*
X33882610Y-25333000D01*
X33862196Y-25047572D01*
X33858667Y-25031351D01*
X33801371Y-24767962D01*
X33801370Y-24767960D01*
X33801369Y-24767954D01*
X33701367Y-24499839D01*
X33668715Y-24440042D01*
X33564229Y-24248690D01*
X33564224Y-24248682D01*
X33392745Y-24019612D01*
X33392729Y-24019594D01*
X33190405Y-23817270D01*
X33190387Y-23817254D01*
X32961317Y-23645775D01*
X32961309Y-23645770D01*
X32710166Y-23508635D01*
X32710167Y-23508635D01*
X32550523Y-23449091D01*
X32442046Y-23408631D01*
X32442043Y-23408630D01*
X32442037Y-23408628D01*
X32162433Y-23347804D01*
X31877001Y-23327390D01*
X31876999Y-23327390D01*
X31591566Y-23347804D01*
X31311962Y-23408628D01*
X31043833Y-23508635D01*
X30792690Y-23645770D01*
X30792682Y-23645775D01*
X30563612Y-23817254D01*
X30563594Y-23817270D01*
X30361270Y-24019594D01*
X30361254Y-24019612D01*
X30189775Y-24248682D01*
X30189770Y-24248690D01*
X30052635Y-24499833D01*
X29952628Y-24767962D01*
X29891804Y-25047566D01*
X29871390Y-25332998D01*
X29871390Y-25333001D01*
X29891804Y-25618433D01*
X29952628Y-25898037D01*
X29952630Y-25898043D01*
X29952631Y-25898046D01*
X30034851Y-26118486D01*
X30052635Y-26166166D01*
X30189770Y-26417309D01*
X30189775Y-26417317D01*
X30361254Y-26646387D01*
X30361270Y-26646405D01*
X30563594Y-26848729D01*
X30563612Y-26848745D01*
X30792682Y-27020224D01*
X30792690Y-27020229D01*
X31043833Y-27157364D01*
X31043837Y-27157366D01*
X31043839Y-27157367D01*
X31172335Y-27205293D01*
X31228267Y-27247163D01*
X31252684Y-27312627D01*
X31253000Y-27321474D01*
X31253000Y-28887388D01*
X31233315Y-28954427D01*
X31194098Y-28992926D01*
X31142650Y-29024659D01*
X31020661Y-29146648D01*
X30930093Y-29293481D01*
X30930091Y-29293486D01*
X30903743Y-29373000D01*
X30875826Y-29457247D01*
X30875826Y-29457248D01*
X30875825Y-29457248D01*
X30865500Y-29558315D01*
X30865500Y-30131669D01*
X30865501Y-30131687D01*
X30875825Y-30232752D01*
X30912109Y-30342249D01*
X30930092Y-30396516D01*
X31020660Y-30543350D01*
X31142650Y-30665340D01*
X31194097Y-30697072D01*
X31240821Y-30749017D01*
X31253000Y-30802610D01*
X31253000Y-30919388D01*
X31233315Y-30986427D01*
X31194098Y-31024926D01*
X31142650Y-31056659D01*
X31020659Y-31178650D01*
X30996638Y-31217596D01*
X30944690Y-31264321D01*
X30891099Y-31276500D01*
X29510097Y-31276500D01*
X29443058Y-31256815D01*
X29422416Y-31240181D01*
X29316590Y-31134355D01*
X29316588Y-31134352D01*
X29197717Y-31015481D01*
X29197712Y-31015477D01*
X29064233Y-30938414D01*
X29060785Y-30936423D01*
X29060784Y-30936422D01*
X29060783Y-30936422D01*
X29004881Y-30921443D01*
X28908057Y-30895499D01*
X28749943Y-30895499D01*
X28742347Y-30895499D01*
X28742331Y-30895500D01*
X26737731Y-30895500D01*
X26670692Y-30875815D01*
X26624937Y-30823011D01*
X26614993Y-30753853D01*
X26644018Y-30690297D01*
X26663420Y-30672233D01*
X26686191Y-30655186D01*
X26772350Y-30540093D01*
X26772354Y-30540086D01*
X26822596Y-30405379D01*
X26822598Y-30405372D01*
X26828999Y-30345844D01*
X26829000Y-30345827D01*
X26829000Y-29873000D01*
X25969686Y-29873000D01*
X25974080Y-29868606D01*
X26026741Y-29777394D01*
X26054000Y-29675661D01*
X26054000Y-29570339D01*
X26026741Y-29468606D01*
X25974080Y-29377394D01*
X25969686Y-29373000D01*
X26829000Y-29373000D01*
X26829000Y-28900172D01*
X26828999Y-28900155D01*
X26822598Y-28840627D01*
X26822596Y-28840620D01*
X26772354Y-28705913D01*
X26772350Y-28705906D01*
X26686190Y-28590812D01*
X26686187Y-28590809D01*
X26571093Y-28504649D01*
X26571086Y-28504645D01*
X26436379Y-28454403D01*
X26436372Y-28454401D01*
X26376844Y-28448000D01*
X25904000Y-28448000D01*
X25904000Y-29307314D01*
X25899606Y-29302920D01*
X25808394Y-29250259D01*
X25706661Y-29223000D01*
X25601339Y-29223000D01*
X25499606Y-29250259D01*
X25408394Y-29302920D01*
X25404000Y-29307314D01*
X25404000Y-28448000D01*
X24931155Y-28448000D01*
X24871627Y-28454401D01*
X24871620Y-28454403D01*
X24736913Y-28504645D01*
X24736906Y-28504649D01*
X24621812Y-28590809D01*
X24621809Y-28590812D01*
X24535649Y-28705906D01*
X24535645Y-28705913D01*
X24485403Y-28840620D01*
X24485401Y-28840627D01*
X24479000Y-28900155D01*
X24479000Y-29373000D01*
X25338314Y-29373000D01*
X25333920Y-29377394D01*
X25281259Y-29468606D01*
X25254000Y-29570339D01*
X25254000Y-29675661D01*
X25281259Y-29777394D01*
X25333920Y-29868606D01*
X25338314Y-29873000D01*
X24479000Y-29873000D01*
X24479000Y-30345844D01*
X24485401Y-30405372D01*
X24485403Y-30405379D01*
X24535645Y-30540086D01*
X24535649Y-30540093D01*
X24621809Y-30655186D01*
X24707405Y-30719264D01*
X24749276Y-30775198D01*
X24754260Y-30844890D01*
X24732049Y-30893257D01*
X24650288Y-31001528D01*
X24553184Y-31196537D01*
X24493564Y-31406081D01*
X24473464Y-31622999D01*
X24122500Y-31622999D01*
X24122500Y-27813000D01*
X28204659Y-27813000D01*
X28223975Y-28009129D01*
X28281188Y-28197733D01*
X28374086Y-28371532D01*
X28374090Y-28371539D01*
X28499116Y-28523883D01*
X28651460Y-28648909D01*
X28651467Y-28648913D01*
X28825266Y-28741811D01*
X28825269Y-28741811D01*
X28825273Y-28741814D01*
X29013868Y-28799024D01*
X29210000Y-28818341D01*
X29406132Y-28799024D01*
X29594727Y-28741814D01*
X29768538Y-28648910D01*
X29920883Y-28523883D01*
X30045910Y-28371538D01*
X30138814Y-28197727D01*
X30196024Y-28009132D01*
X30215341Y-27813000D01*
X30196024Y-27616868D01*
X30138814Y-27428273D01*
X30138811Y-27428269D01*
X30138811Y-27428266D01*
X30045913Y-27254467D01*
X30045909Y-27254460D01*
X29920883Y-27102116D01*
X29768539Y-26977090D01*
X29768532Y-26977086D01*
X29594733Y-26884188D01*
X29594727Y-26884186D01*
X29406132Y-26826976D01*
X29406129Y-26826975D01*
X29210000Y-26807659D01*
X29013870Y-26826975D01*
X28825266Y-26884188D01*
X28651467Y-26977086D01*
X28651460Y-26977090D01*
X28499116Y-27102116D01*
X28374090Y-27254460D01*
X28374086Y-27254467D01*
X28281188Y-27428266D01*
X28223975Y-27616870D01*
X28204659Y-27813000D01*
X24122500Y-27813000D01*
X24122500Y-20523485D01*
X24122613Y-20519737D01*
X24816451Y-20519737D01*
X24816451Y-20519746D01*
X24836616Y-20788843D01*
X24896664Y-21051930D01*
X24896666Y-21051937D01*
X24995257Y-21303140D01*
X25130185Y-21536844D01*
X25266080Y-21707251D01*
X25298442Y-21747831D01*
X25485183Y-21921100D01*
X25496259Y-21931377D01*
X25719226Y-22083393D01*
X25962359Y-22200480D01*
X26220228Y-22280022D01*
X26220229Y-22280022D01*
X26220232Y-22280023D01*
X26487063Y-22320241D01*
X26487068Y-22320241D01*
X26487071Y-22320242D01*
X26487072Y-22320242D01*
X26756928Y-22320242D01*
X26756929Y-22320242D01*
X26756936Y-22320241D01*
X27023767Y-22280023D01*
X27023768Y-22280022D01*
X27023772Y-22280022D01*
X27281641Y-22200480D01*
X27524775Y-22083393D01*
X27747741Y-21931377D01*
X27945561Y-21747827D01*
X28113815Y-21536844D01*
X28248743Y-21303140D01*
X28347334Y-21051937D01*
X28407383Y-20788845D01*
X28414217Y-20697647D01*
X28427549Y-20519746D01*
X28427549Y-20519737D01*
X45746709Y-20519737D01*
X45746709Y-20519746D01*
X45766874Y-20788843D01*
X45826922Y-21051930D01*
X45826924Y-21051937D01*
X45925515Y-21303140D01*
X46060443Y-21536844D01*
X46196338Y-21707251D01*
X46228700Y-21747831D01*
X46415441Y-21921100D01*
X46426517Y-21931377D01*
X46649484Y-22083393D01*
X46892617Y-22200480D01*
X47150486Y-22280022D01*
X47150487Y-22280022D01*
X47150490Y-22280023D01*
X47417321Y-22320241D01*
X47417326Y-22320241D01*
X47417329Y-22320242D01*
X47417330Y-22320242D01*
X47687186Y-22320242D01*
X47687187Y-22320242D01*
X47687194Y-22320241D01*
X47954025Y-22280023D01*
X47954026Y-22280022D01*
X47954030Y-22280022D01*
X48211899Y-22200480D01*
X48455033Y-22083393D01*
X48677999Y-21931377D01*
X48875819Y-21747827D01*
X49044073Y-21536844D01*
X49179001Y-21303140D01*
X49277592Y-21051937D01*
X49337641Y-20788845D01*
X49344475Y-20697647D01*
X49357807Y-20519746D01*
X49357807Y-20519737D01*
X49337641Y-20250640D01*
X49328610Y-20211073D01*
X49277592Y-19987547D01*
X49179001Y-19736344D01*
X49044073Y-19502640D01*
X48875819Y-19291657D01*
X48875818Y-19291656D01*
X48875815Y-19291652D01*
X48677999Y-19108107D01*
X48550647Y-19021280D01*
X48455033Y-18956091D01*
X48455027Y-18956088D01*
X48455026Y-18956087D01*
X48455025Y-18956086D01*
X48211901Y-18839005D01*
X48211903Y-18839005D01*
X47954031Y-18759462D01*
X47954025Y-18759460D01*
X47687194Y-18719242D01*
X47687187Y-18719242D01*
X47417329Y-18719242D01*
X47417321Y-18719242D01*
X47150490Y-18759460D01*
X47150484Y-18759462D01*
X46892616Y-18839004D01*
X46649488Y-18956088D01*
X46426516Y-19108107D01*
X46228700Y-19291652D01*
X46060443Y-19502640D01*
X45925516Y-19736341D01*
X45925514Y-19736345D01*
X45826924Y-19987546D01*
X45826922Y-19987553D01*
X45766874Y-20250640D01*
X45746709Y-20519737D01*
X28427549Y-20519737D01*
X28407383Y-20250640D01*
X28398352Y-20211073D01*
X28347334Y-19987547D01*
X28248743Y-19736344D01*
X28113815Y-19502640D01*
X27945561Y-19291657D01*
X27945560Y-19291656D01*
X27945557Y-19291652D01*
X27747741Y-19108107D01*
X27620389Y-19021280D01*
X27524775Y-18956091D01*
X27524769Y-18956088D01*
X27524768Y-18956087D01*
X27524767Y-18956086D01*
X27281643Y-18839005D01*
X27281645Y-18839005D01*
X27023773Y-18759462D01*
X27023767Y-18759460D01*
X26756936Y-18719242D01*
X26756929Y-18719242D01*
X26487071Y-18719242D01*
X26487063Y-18719242D01*
X26220232Y-18759460D01*
X26220226Y-18759462D01*
X25962358Y-18839004D01*
X25719230Y-18956088D01*
X25496258Y-19108107D01*
X25298442Y-19291652D01*
X25130185Y-19502640D01*
X24995258Y-19736341D01*
X24995256Y-19736345D01*
X24896666Y-19987546D01*
X24896664Y-19987553D01*
X24836616Y-20250640D01*
X24816451Y-20519737D01*
X24122613Y-20519737D01*
X24122726Y-20515998D01*
X24126485Y-20453850D01*
X24140272Y-20225938D01*
X24142076Y-20211081D01*
X24193780Y-19928939D01*
X24197357Y-19914425D01*
X24282698Y-19640552D01*
X24287999Y-19626577D01*
X24405730Y-19364990D01*
X24412675Y-19351757D01*
X24561079Y-19106267D01*
X24569566Y-19093971D01*
X24746480Y-18868158D01*
X24756395Y-18856967D01*
X24959229Y-18654133D01*
X24970416Y-18644221D01*
X25196234Y-18467305D01*
X25208526Y-18458820D01*
X25454016Y-18310416D01*
X25467249Y-18303471D01*
X25728844Y-18185737D01*
X25742822Y-18180436D01*
X26016668Y-18095102D01*
X26031197Y-18091520D01*
X26313343Y-18039815D01*
X26328200Y-18038011D01*
X26618231Y-18020468D01*
X26625718Y-18020242D01*
X26687892Y-18020242D01*
X47486369Y-18020242D01*
X47486373Y-18020243D01*
G37*
%TD.AperFunction*%
%TD*%
M02*
