%TF.GenerationSoftware,KiCad,Pcbnew,9.0.0*%
%TF.CreationDate,2025-03-06T17:29:06-05:00*%
%TF.ProjectId,USB-C-PD-Controller,5553422d-432d-4504-942d-436f6e74726f,rev?*%
%TF.SameCoordinates,Original*%
%TF.FileFunction,Legend,Top*%
%TF.FilePolarity,Positive*%
%FSLAX46Y46*%
G04 Gerber Fmt 4.6, Leading zero omitted, Abs format (unit mm)*
G04 Created by KiCad (PCBNEW 9.0.0) date 2025-03-06 17:29:06*
%MOMM*%
%LPD*%
G01*
G04 APERTURE LIST*
%ADD10C,0.076200*%
%ADD11C,0.120000*%
G04 APERTURE END LIST*
D10*
X138358666Y-108181349D02*
X138382857Y-108205540D01*
X138382857Y-108205540D02*
X138407047Y-108278111D01*
X138407047Y-108278111D02*
X138407047Y-108326492D01*
X138407047Y-108326492D02*
X138382857Y-108399064D01*
X138382857Y-108399064D02*
X138334476Y-108447445D01*
X138334476Y-108447445D02*
X138286095Y-108471635D01*
X138286095Y-108471635D02*
X138189333Y-108495826D01*
X138189333Y-108495826D02*
X138116761Y-108495826D01*
X138116761Y-108495826D02*
X138019999Y-108471635D01*
X138019999Y-108471635D02*
X137971618Y-108447445D01*
X137971618Y-108447445D02*
X137923237Y-108399064D01*
X137923237Y-108399064D02*
X137899047Y-108326492D01*
X137899047Y-108326492D02*
X137899047Y-108278111D01*
X137899047Y-108278111D02*
X137923237Y-108205540D01*
X137923237Y-108205540D02*
X137947428Y-108181349D01*
X137947428Y-107987826D02*
X137923237Y-107963635D01*
X137923237Y-107963635D02*
X137899047Y-107915254D01*
X137899047Y-107915254D02*
X137899047Y-107794302D01*
X137899047Y-107794302D02*
X137923237Y-107745921D01*
X137923237Y-107745921D02*
X137947428Y-107721730D01*
X137947428Y-107721730D02*
X137995809Y-107697540D01*
X137995809Y-107697540D02*
X138044190Y-107697540D01*
X138044190Y-107697540D02*
X138116761Y-107721730D01*
X138116761Y-107721730D02*
X138407047Y-108012016D01*
X138407047Y-108012016D02*
X138407047Y-107697540D01*
X137899047Y-107383063D02*
X137899047Y-107334682D01*
X137899047Y-107334682D02*
X137923237Y-107286301D01*
X137923237Y-107286301D02*
X137947428Y-107262111D01*
X137947428Y-107262111D02*
X137995809Y-107237920D01*
X137995809Y-107237920D02*
X138092571Y-107213730D01*
X138092571Y-107213730D02*
X138213523Y-107213730D01*
X138213523Y-107213730D02*
X138310285Y-107237920D01*
X138310285Y-107237920D02*
X138358666Y-107262111D01*
X138358666Y-107262111D02*
X138382857Y-107286301D01*
X138382857Y-107286301D02*
X138407047Y-107334682D01*
X138407047Y-107334682D02*
X138407047Y-107383063D01*
X138407047Y-107383063D02*
X138382857Y-107431444D01*
X138382857Y-107431444D02*
X138358666Y-107455635D01*
X138358666Y-107455635D02*
X138310285Y-107479825D01*
X138310285Y-107479825D02*
X138213523Y-107504016D01*
X138213523Y-107504016D02*
X138092571Y-107504016D01*
X138092571Y-107504016D02*
X137995809Y-107479825D01*
X137995809Y-107479825D02*
X137947428Y-107455635D01*
X137947428Y-107455635D02*
X137923237Y-107431444D01*
X137923237Y-107431444D02*
X137899047Y-107383063D01*
X137899047Y-106754110D02*
X137899047Y-106996015D01*
X137899047Y-106996015D02*
X138140952Y-107020206D01*
X138140952Y-107020206D02*
X138116761Y-106996015D01*
X138116761Y-106996015D02*
X138092571Y-106947634D01*
X138092571Y-106947634D02*
X138092571Y-106826682D01*
X138092571Y-106826682D02*
X138116761Y-106778301D01*
X138116761Y-106778301D02*
X138140952Y-106754110D01*
X138140952Y-106754110D02*
X138189333Y-106729920D01*
X138189333Y-106729920D02*
X138310285Y-106729920D01*
X138310285Y-106729920D02*
X138358666Y-106754110D01*
X138358666Y-106754110D02*
X138382857Y-106778301D01*
X138382857Y-106778301D02*
X138407047Y-106826682D01*
X138407047Y-106826682D02*
X138407047Y-106947634D01*
X138407047Y-106947634D02*
X138382857Y-106996015D01*
X138382857Y-106996015D02*
X138358666Y-107020206D01*
X126685523Y-118130920D02*
X126516189Y-117889015D01*
X126395237Y-118130920D02*
X126395237Y-117622920D01*
X126395237Y-117622920D02*
X126588761Y-117622920D01*
X126588761Y-117622920D02*
X126637142Y-117647110D01*
X126637142Y-117647110D02*
X126661332Y-117671301D01*
X126661332Y-117671301D02*
X126685523Y-117719682D01*
X126685523Y-117719682D02*
X126685523Y-117792253D01*
X126685523Y-117792253D02*
X126661332Y-117840634D01*
X126661332Y-117840634D02*
X126637142Y-117864825D01*
X126637142Y-117864825D02*
X126588761Y-117889015D01*
X126588761Y-117889015D02*
X126395237Y-117889015D01*
X126879046Y-117671301D02*
X126903237Y-117647110D01*
X126903237Y-117647110D02*
X126951618Y-117622920D01*
X126951618Y-117622920D02*
X127072570Y-117622920D01*
X127072570Y-117622920D02*
X127120951Y-117647110D01*
X127120951Y-117647110D02*
X127145142Y-117671301D01*
X127145142Y-117671301D02*
X127169332Y-117719682D01*
X127169332Y-117719682D02*
X127169332Y-117768063D01*
X127169332Y-117768063D02*
X127145142Y-117840634D01*
X127145142Y-117840634D02*
X126854856Y-118130920D01*
X126854856Y-118130920D02*
X127169332Y-118130920D01*
X127483809Y-117622920D02*
X127532190Y-117622920D01*
X127532190Y-117622920D02*
X127580571Y-117647110D01*
X127580571Y-117647110D02*
X127604761Y-117671301D01*
X127604761Y-117671301D02*
X127628952Y-117719682D01*
X127628952Y-117719682D02*
X127653142Y-117816444D01*
X127653142Y-117816444D02*
X127653142Y-117937396D01*
X127653142Y-117937396D02*
X127628952Y-118034158D01*
X127628952Y-118034158D02*
X127604761Y-118082539D01*
X127604761Y-118082539D02*
X127580571Y-118106730D01*
X127580571Y-118106730D02*
X127532190Y-118130920D01*
X127532190Y-118130920D02*
X127483809Y-118130920D01*
X127483809Y-118130920D02*
X127435428Y-118106730D01*
X127435428Y-118106730D02*
X127411237Y-118082539D01*
X127411237Y-118082539D02*
X127387047Y-118034158D01*
X127387047Y-118034158D02*
X127362856Y-117937396D01*
X127362856Y-117937396D02*
X127362856Y-117816444D01*
X127362856Y-117816444D02*
X127387047Y-117719682D01*
X127387047Y-117719682D02*
X127411237Y-117671301D01*
X127411237Y-117671301D02*
X127435428Y-117647110D01*
X127435428Y-117647110D02*
X127483809Y-117622920D01*
X127943428Y-117840634D02*
X127895047Y-117816444D01*
X127895047Y-117816444D02*
X127870857Y-117792253D01*
X127870857Y-117792253D02*
X127846666Y-117743872D01*
X127846666Y-117743872D02*
X127846666Y-117719682D01*
X127846666Y-117719682D02*
X127870857Y-117671301D01*
X127870857Y-117671301D02*
X127895047Y-117647110D01*
X127895047Y-117647110D02*
X127943428Y-117622920D01*
X127943428Y-117622920D02*
X128040190Y-117622920D01*
X128040190Y-117622920D02*
X128088571Y-117647110D01*
X128088571Y-117647110D02*
X128112762Y-117671301D01*
X128112762Y-117671301D02*
X128136952Y-117719682D01*
X128136952Y-117719682D02*
X128136952Y-117743872D01*
X128136952Y-117743872D02*
X128112762Y-117792253D01*
X128112762Y-117792253D02*
X128088571Y-117816444D01*
X128088571Y-117816444D02*
X128040190Y-117840634D01*
X128040190Y-117840634D02*
X127943428Y-117840634D01*
X127943428Y-117840634D02*
X127895047Y-117864825D01*
X127895047Y-117864825D02*
X127870857Y-117889015D01*
X127870857Y-117889015D02*
X127846666Y-117937396D01*
X127846666Y-117937396D02*
X127846666Y-118034158D01*
X127846666Y-118034158D02*
X127870857Y-118082539D01*
X127870857Y-118082539D02*
X127895047Y-118106730D01*
X127895047Y-118106730D02*
X127943428Y-118130920D01*
X127943428Y-118130920D02*
X128040190Y-118130920D01*
X128040190Y-118130920D02*
X128088571Y-118106730D01*
X128088571Y-118106730D02*
X128112762Y-118082539D01*
X128112762Y-118082539D02*
X128136952Y-118034158D01*
X128136952Y-118034158D02*
X128136952Y-117937396D01*
X128136952Y-117937396D02*
X128112762Y-117889015D01*
X128112762Y-117889015D02*
X128088571Y-117864825D01*
X128088571Y-117864825D02*
X128040190Y-117840634D01*
X136375047Y-123929349D02*
X136133142Y-124098683D01*
X136375047Y-124219635D02*
X135867047Y-124219635D01*
X135867047Y-124219635D02*
X135867047Y-124026111D01*
X135867047Y-124026111D02*
X135891237Y-123977730D01*
X135891237Y-123977730D02*
X135915428Y-123953540D01*
X135915428Y-123953540D02*
X135963809Y-123929349D01*
X135963809Y-123929349D02*
X136036380Y-123929349D01*
X136036380Y-123929349D02*
X136084761Y-123953540D01*
X136084761Y-123953540D02*
X136108952Y-123977730D01*
X136108952Y-123977730D02*
X136133142Y-124026111D01*
X136133142Y-124026111D02*
X136133142Y-124219635D01*
X135915428Y-123735826D02*
X135891237Y-123711635D01*
X135891237Y-123711635D02*
X135867047Y-123663254D01*
X135867047Y-123663254D02*
X135867047Y-123542302D01*
X135867047Y-123542302D02*
X135891237Y-123493921D01*
X135891237Y-123493921D02*
X135915428Y-123469730D01*
X135915428Y-123469730D02*
X135963809Y-123445540D01*
X135963809Y-123445540D02*
X136012190Y-123445540D01*
X136012190Y-123445540D02*
X136084761Y-123469730D01*
X136084761Y-123469730D02*
X136375047Y-123760016D01*
X136375047Y-123760016D02*
X136375047Y-123445540D01*
X136375047Y-122961730D02*
X136375047Y-123252016D01*
X136375047Y-123106873D02*
X135867047Y-123106873D01*
X135867047Y-123106873D02*
X135939618Y-123155254D01*
X135939618Y-123155254D02*
X135987999Y-123203635D01*
X135987999Y-123203635D02*
X136012190Y-123252016D01*
X136375047Y-122477920D02*
X136375047Y-122768206D01*
X136375047Y-122623063D02*
X135867047Y-122623063D01*
X135867047Y-122623063D02*
X135939618Y-122671444D01*
X135939618Y-122671444D02*
X135987999Y-122719825D01*
X135987999Y-122719825D02*
X136012190Y-122768206D01*
X145396856Y-113030547D02*
X145396856Y-113393404D01*
X145396856Y-113393404D02*
X145372665Y-113465976D01*
X145372665Y-113465976D02*
X145324284Y-113514357D01*
X145324284Y-113514357D02*
X145251713Y-113538547D01*
X145251713Y-113538547D02*
X145203332Y-113538547D01*
X145614570Y-113078928D02*
X145638761Y-113054737D01*
X145638761Y-113054737D02*
X145687142Y-113030547D01*
X145687142Y-113030547D02*
X145808094Y-113030547D01*
X145808094Y-113030547D02*
X145856475Y-113054737D01*
X145856475Y-113054737D02*
X145880666Y-113078928D01*
X145880666Y-113078928D02*
X145904856Y-113127309D01*
X145904856Y-113127309D02*
X145904856Y-113175690D01*
X145904856Y-113175690D02*
X145880666Y-113248261D01*
X145880666Y-113248261D02*
X145590380Y-113538547D01*
X145590380Y-113538547D02*
X145904856Y-113538547D01*
X146219333Y-113030547D02*
X146267714Y-113030547D01*
X146267714Y-113030547D02*
X146316095Y-113054737D01*
X146316095Y-113054737D02*
X146340285Y-113078928D01*
X146340285Y-113078928D02*
X146364476Y-113127309D01*
X146364476Y-113127309D02*
X146388666Y-113224071D01*
X146388666Y-113224071D02*
X146388666Y-113345023D01*
X146388666Y-113345023D02*
X146364476Y-113441785D01*
X146364476Y-113441785D02*
X146340285Y-113490166D01*
X146340285Y-113490166D02*
X146316095Y-113514357D01*
X146316095Y-113514357D02*
X146267714Y-113538547D01*
X146267714Y-113538547D02*
X146219333Y-113538547D01*
X146219333Y-113538547D02*
X146170952Y-113514357D01*
X146170952Y-113514357D02*
X146146761Y-113490166D01*
X146146761Y-113490166D02*
X146122571Y-113441785D01*
X146122571Y-113441785D02*
X146098380Y-113345023D01*
X146098380Y-113345023D02*
X146098380Y-113224071D01*
X146098380Y-113224071D02*
X146122571Y-113127309D01*
X146122571Y-113127309D02*
X146146761Y-113078928D01*
X146146761Y-113078928D02*
X146170952Y-113054737D01*
X146170952Y-113054737D02*
X146219333Y-113030547D01*
X146872476Y-113538547D02*
X146582190Y-113538547D01*
X146727333Y-113538547D02*
X146727333Y-113030547D01*
X146727333Y-113030547D02*
X146678952Y-113103118D01*
X146678952Y-113103118D02*
X146630571Y-113151499D01*
X146630571Y-113151499D02*
X146582190Y-113175690D01*
X133073047Y-124056349D02*
X132831142Y-124225683D01*
X133073047Y-124346635D02*
X132565047Y-124346635D01*
X132565047Y-124346635D02*
X132565047Y-124153111D01*
X132565047Y-124153111D02*
X132589237Y-124104730D01*
X132589237Y-124104730D02*
X132613428Y-124080540D01*
X132613428Y-124080540D02*
X132661809Y-124056349D01*
X132661809Y-124056349D02*
X132734380Y-124056349D01*
X132734380Y-124056349D02*
X132782761Y-124080540D01*
X132782761Y-124080540D02*
X132806952Y-124104730D01*
X132806952Y-124104730D02*
X132831142Y-124153111D01*
X132831142Y-124153111D02*
X132831142Y-124346635D01*
X132613428Y-123862826D02*
X132589237Y-123838635D01*
X132589237Y-123838635D02*
X132565047Y-123790254D01*
X132565047Y-123790254D02*
X132565047Y-123669302D01*
X132565047Y-123669302D02*
X132589237Y-123620921D01*
X132589237Y-123620921D02*
X132613428Y-123596730D01*
X132613428Y-123596730D02*
X132661809Y-123572540D01*
X132661809Y-123572540D02*
X132710190Y-123572540D01*
X132710190Y-123572540D02*
X132782761Y-123596730D01*
X132782761Y-123596730D02*
X133073047Y-123887016D01*
X133073047Y-123887016D02*
X133073047Y-123572540D01*
X132565047Y-123258063D02*
X132565047Y-123209682D01*
X132565047Y-123209682D02*
X132589237Y-123161301D01*
X132589237Y-123161301D02*
X132613428Y-123137111D01*
X132613428Y-123137111D02*
X132661809Y-123112920D01*
X132661809Y-123112920D02*
X132758571Y-123088730D01*
X132758571Y-123088730D02*
X132879523Y-123088730D01*
X132879523Y-123088730D02*
X132976285Y-123112920D01*
X132976285Y-123112920D02*
X133024666Y-123137111D01*
X133024666Y-123137111D02*
X133048857Y-123161301D01*
X133048857Y-123161301D02*
X133073047Y-123209682D01*
X133073047Y-123209682D02*
X133073047Y-123258063D01*
X133073047Y-123258063D02*
X133048857Y-123306444D01*
X133048857Y-123306444D02*
X133024666Y-123330635D01*
X133024666Y-123330635D02*
X132976285Y-123354825D01*
X132976285Y-123354825D02*
X132879523Y-123379016D01*
X132879523Y-123379016D02*
X132758571Y-123379016D01*
X132758571Y-123379016D02*
X132661809Y-123354825D01*
X132661809Y-123354825D02*
X132613428Y-123330635D01*
X132613428Y-123330635D02*
X132589237Y-123306444D01*
X132589237Y-123306444D02*
X132565047Y-123258063D01*
X132565047Y-122629110D02*
X132565047Y-122871015D01*
X132565047Y-122871015D02*
X132806952Y-122895206D01*
X132806952Y-122895206D02*
X132782761Y-122871015D01*
X132782761Y-122871015D02*
X132758571Y-122822634D01*
X132758571Y-122822634D02*
X132758571Y-122701682D01*
X132758571Y-122701682D02*
X132782761Y-122653301D01*
X132782761Y-122653301D02*
X132806952Y-122629110D01*
X132806952Y-122629110D02*
X132855333Y-122604920D01*
X132855333Y-122604920D02*
X132976285Y-122604920D01*
X132976285Y-122604920D02*
X133024666Y-122629110D01*
X133024666Y-122629110D02*
X133048857Y-122653301D01*
X133048857Y-122653301D02*
X133073047Y-122701682D01*
X133073047Y-122701682D02*
X133073047Y-122822634D01*
X133073047Y-122822634D02*
X133048857Y-122871015D01*
X133048857Y-122871015D02*
X133024666Y-122895206D01*
X125492141Y-125730547D02*
X125782427Y-125730547D01*
X125637284Y-126238547D02*
X125637284Y-125730547D01*
X125951761Y-126238547D02*
X125951761Y-125730547D01*
X125951761Y-125730547D02*
X126145285Y-125730547D01*
X126145285Y-125730547D02*
X126193666Y-125754737D01*
X126193666Y-125754737D02*
X126217856Y-125778928D01*
X126217856Y-125778928D02*
X126242047Y-125827309D01*
X126242047Y-125827309D02*
X126242047Y-125899880D01*
X126242047Y-125899880D02*
X126217856Y-125948261D01*
X126217856Y-125948261D02*
X126193666Y-125972452D01*
X126193666Y-125972452D02*
X126145285Y-125996642D01*
X126145285Y-125996642D02*
X125951761Y-125996642D01*
X126435570Y-125778928D02*
X126459761Y-125754737D01*
X126459761Y-125754737D02*
X126508142Y-125730547D01*
X126508142Y-125730547D02*
X126629094Y-125730547D01*
X126629094Y-125730547D02*
X126677475Y-125754737D01*
X126677475Y-125754737D02*
X126701666Y-125778928D01*
X126701666Y-125778928D02*
X126725856Y-125827309D01*
X126725856Y-125827309D02*
X126725856Y-125875690D01*
X126725856Y-125875690D02*
X126701666Y-125948261D01*
X126701666Y-125948261D02*
X126411380Y-126238547D01*
X126411380Y-126238547D02*
X126725856Y-126238547D01*
X127040333Y-125730547D02*
X127088714Y-125730547D01*
X127088714Y-125730547D02*
X127137095Y-125754737D01*
X127137095Y-125754737D02*
X127161285Y-125778928D01*
X127161285Y-125778928D02*
X127185476Y-125827309D01*
X127185476Y-125827309D02*
X127209666Y-125924071D01*
X127209666Y-125924071D02*
X127209666Y-126045023D01*
X127209666Y-126045023D02*
X127185476Y-126141785D01*
X127185476Y-126141785D02*
X127161285Y-126190166D01*
X127161285Y-126190166D02*
X127137095Y-126214357D01*
X127137095Y-126214357D02*
X127088714Y-126238547D01*
X127088714Y-126238547D02*
X127040333Y-126238547D01*
X127040333Y-126238547D02*
X126991952Y-126214357D01*
X126991952Y-126214357D02*
X126967761Y-126190166D01*
X126967761Y-126190166D02*
X126943571Y-126141785D01*
X126943571Y-126141785D02*
X126919380Y-126045023D01*
X126919380Y-126045023D02*
X126919380Y-125924071D01*
X126919380Y-125924071D02*
X126943571Y-125827309D01*
X126943571Y-125827309D02*
X126967761Y-125778928D01*
X126967761Y-125778928D02*
X126991952Y-125754737D01*
X126991952Y-125754737D02*
X127040333Y-125730547D01*
X127693476Y-126238547D02*
X127403190Y-126238547D01*
X127548333Y-126238547D02*
X127548333Y-125730547D01*
X127548333Y-125730547D02*
X127499952Y-125803118D01*
X127499952Y-125803118D02*
X127451571Y-125851499D01*
X127451571Y-125851499D02*
X127403190Y-125875690D01*
X131422047Y-124056349D02*
X131180142Y-124225683D01*
X131422047Y-124346635D02*
X130914047Y-124346635D01*
X130914047Y-124346635D02*
X130914047Y-124153111D01*
X130914047Y-124153111D02*
X130938237Y-124104730D01*
X130938237Y-124104730D02*
X130962428Y-124080540D01*
X130962428Y-124080540D02*
X131010809Y-124056349D01*
X131010809Y-124056349D02*
X131083380Y-124056349D01*
X131083380Y-124056349D02*
X131131761Y-124080540D01*
X131131761Y-124080540D02*
X131155952Y-124104730D01*
X131155952Y-124104730D02*
X131180142Y-124153111D01*
X131180142Y-124153111D02*
X131180142Y-124346635D01*
X130962428Y-123862826D02*
X130938237Y-123838635D01*
X130938237Y-123838635D02*
X130914047Y-123790254D01*
X130914047Y-123790254D02*
X130914047Y-123669302D01*
X130914047Y-123669302D02*
X130938237Y-123620921D01*
X130938237Y-123620921D02*
X130962428Y-123596730D01*
X130962428Y-123596730D02*
X131010809Y-123572540D01*
X131010809Y-123572540D02*
X131059190Y-123572540D01*
X131059190Y-123572540D02*
X131131761Y-123596730D01*
X131131761Y-123596730D02*
X131422047Y-123887016D01*
X131422047Y-123887016D02*
X131422047Y-123572540D01*
X130914047Y-123258063D02*
X130914047Y-123209682D01*
X130914047Y-123209682D02*
X130938237Y-123161301D01*
X130938237Y-123161301D02*
X130962428Y-123137111D01*
X130962428Y-123137111D02*
X131010809Y-123112920D01*
X131010809Y-123112920D02*
X131107571Y-123088730D01*
X131107571Y-123088730D02*
X131228523Y-123088730D01*
X131228523Y-123088730D02*
X131325285Y-123112920D01*
X131325285Y-123112920D02*
X131373666Y-123137111D01*
X131373666Y-123137111D02*
X131397857Y-123161301D01*
X131397857Y-123161301D02*
X131422047Y-123209682D01*
X131422047Y-123209682D02*
X131422047Y-123258063D01*
X131422047Y-123258063D02*
X131397857Y-123306444D01*
X131397857Y-123306444D02*
X131373666Y-123330635D01*
X131373666Y-123330635D02*
X131325285Y-123354825D01*
X131325285Y-123354825D02*
X131228523Y-123379016D01*
X131228523Y-123379016D02*
X131107571Y-123379016D01*
X131107571Y-123379016D02*
X131010809Y-123354825D01*
X131010809Y-123354825D02*
X130962428Y-123330635D01*
X130962428Y-123330635D02*
X130938237Y-123306444D01*
X130938237Y-123306444D02*
X130914047Y-123258063D01*
X131422047Y-122846825D02*
X131422047Y-122750063D01*
X131422047Y-122750063D02*
X131397857Y-122701682D01*
X131397857Y-122701682D02*
X131373666Y-122677491D01*
X131373666Y-122677491D02*
X131301095Y-122629110D01*
X131301095Y-122629110D02*
X131204333Y-122604920D01*
X131204333Y-122604920D02*
X131010809Y-122604920D01*
X131010809Y-122604920D02*
X130962428Y-122629110D01*
X130962428Y-122629110D02*
X130938237Y-122653301D01*
X130938237Y-122653301D02*
X130914047Y-122701682D01*
X130914047Y-122701682D02*
X130914047Y-122798444D01*
X130914047Y-122798444D02*
X130938237Y-122846825D01*
X130938237Y-122846825D02*
X130962428Y-122871015D01*
X130962428Y-122871015D02*
X131010809Y-122895206D01*
X131010809Y-122895206D02*
X131131761Y-122895206D01*
X131131761Y-122895206D02*
X131180142Y-122871015D01*
X131180142Y-122871015D02*
X131204333Y-122846825D01*
X131204333Y-122846825D02*
X131228523Y-122798444D01*
X131228523Y-122798444D02*
X131228523Y-122701682D01*
X131228523Y-122701682D02*
X131204333Y-122653301D01*
X131204333Y-122653301D02*
X131180142Y-122629110D01*
X131180142Y-122629110D02*
X131131761Y-122604920D01*
X110889141Y-125603547D02*
X111179427Y-125603547D01*
X111034284Y-126111547D02*
X111034284Y-125603547D01*
X111348761Y-126111547D02*
X111348761Y-125603547D01*
X111348761Y-125603547D02*
X111542285Y-125603547D01*
X111542285Y-125603547D02*
X111590666Y-125627737D01*
X111590666Y-125627737D02*
X111614856Y-125651928D01*
X111614856Y-125651928D02*
X111639047Y-125700309D01*
X111639047Y-125700309D02*
X111639047Y-125772880D01*
X111639047Y-125772880D02*
X111614856Y-125821261D01*
X111614856Y-125821261D02*
X111590666Y-125845452D01*
X111590666Y-125845452D02*
X111542285Y-125869642D01*
X111542285Y-125869642D02*
X111348761Y-125869642D01*
X111832570Y-125651928D02*
X111856761Y-125627737D01*
X111856761Y-125627737D02*
X111905142Y-125603547D01*
X111905142Y-125603547D02*
X112026094Y-125603547D01*
X112026094Y-125603547D02*
X112074475Y-125627737D01*
X112074475Y-125627737D02*
X112098666Y-125651928D01*
X112098666Y-125651928D02*
X112122856Y-125700309D01*
X112122856Y-125700309D02*
X112122856Y-125748690D01*
X112122856Y-125748690D02*
X112098666Y-125821261D01*
X112098666Y-125821261D02*
X111808380Y-126111547D01*
X111808380Y-126111547D02*
X112122856Y-126111547D01*
X112437333Y-125603547D02*
X112485714Y-125603547D01*
X112485714Y-125603547D02*
X112534095Y-125627737D01*
X112534095Y-125627737D02*
X112558285Y-125651928D01*
X112558285Y-125651928D02*
X112582476Y-125700309D01*
X112582476Y-125700309D02*
X112606666Y-125797071D01*
X112606666Y-125797071D02*
X112606666Y-125918023D01*
X112606666Y-125918023D02*
X112582476Y-126014785D01*
X112582476Y-126014785D02*
X112558285Y-126063166D01*
X112558285Y-126063166D02*
X112534095Y-126087357D01*
X112534095Y-126087357D02*
X112485714Y-126111547D01*
X112485714Y-126111547D02*
X112437333Y-126111547D01*
X112437333Y-126111547D02*
X112388952Y-126087357D01*
X112388952Y-126087357D02*
X112364761Y-126063166D01*
X112364761Y-126063166D02*
X112340571Y-126014785D01*
X112340571Y-126014785D02*
X112316380Y-125918023D01*
X112316380Y-125918023D02*
X112316380Y-125797071D01*
X112316380Y-125797071D02*
X112340571Y-125700309D01*
X112340571Y-125700309D02*
X112364761Y-125651928D01*
X112364761Y-125651928D02*
X112388952Y-125627737D01*
X112388952Y-125627737D02*
X112437333Y-125603547D01*
X112776000Y-125603547D02*
X113090476Y-125603547D01*
X113090476Y-125603547D02*
X112921143Y-125797071D01*
X112921143Y-125797071D02*
X112993714Y-125797071D01*
X112993714Y-125797071D02*
X113042095Y-125821261D01*
X113042095Y-125821261D02*
X113066286Y-125845452D01*
X113066286Y-125845452D02*
X113090476Y-125893833D01*
X113090476Y-125893833D02*
X113090476Y-126014785D01*
X113090476Y-126014785D02*
X113066286Y-126063166D01*
X113066286Y-126063166D02*
X113042095Y-126087357D01*
X113042095Y-126087357D02*
X112993714Y-126111547D01*
X112993714Y-126111547D02*
X112848571Y-126111547D01*
X112848571Y-126111547D02*
X112800190Y-126087357D01*
X112800190Y-126087357D02*
X112776000Y-126063166D01*
X128415141Y-107188547D02*
X128705427Y-107188547D01*
X128560284Y-107696547D02*
X128560284Y-107188547D01*
X128874761Y-107696547D02*
X128874761Y-107188547D01*
X128874761Y-107188547D02*
X129068285Y-107188547D01*
X129068285Y-107188547D02*
X129116666Y-107212737D01*
X129116666Y-107212737D02*
X129140856Y-107236928D01*
X129140856Y-107236928D02*
X129165047Y-107285309D01*
X129165047Y-107285309D02*
X129165047Y-107357880D01*
X129165047Y-107357880D02*
X129140856Y-107406261D01*
X129140856Y-107406261D02*
X129116666Y-107430452D01*
X129116666Y-107430452D02*
X129068285Y-107454642D01*
X129068285Y-107454642D02*
X128874761Y-107454642D01*
X129358570Y-107236928D02*
X129382761Y-107212737D01*
X129382761Y-107212737D02*
X129431142Y-107188547D01*
X129431142Y-107188547D02*
X129552094Y-107188547D01*
X129552094Y-107188547D02*
X129600475Y-107212737D01*
X129600475Y-107212737D02*
X129624666Y-107236928D01*
X129624666Y-107236928D02*
X129648856Y-107285309D01*
X129648856Y-107285309D02*
X129648856Y-107333690D01*
X129648856Y-107333690D02*
X129624666Y-107406261D01*
X129624666Y-107406261D02*
X129334380Y-107696547D01*
X129334380Y-107696547D02*
X129648856Y-107696547D01*
X129963333Y-107188547D02*
X130011714Y-107188547D01*
X130011714Y-107188547D02*
X130060095Y-107212737D01*
X130060095Y-107212737D02*
X130084285Y-107236928D01*
X130084285Y-107236928D02*
X130108476Y-107285309D01*
X130108476Y-107285309D02*
X130132666Y-107382071D01*
X130132666Y-107382071D02*
X130132666Y-107503023D01*
X130132666Y-107503023D02*
X130108476Y-107599785D01*
X130108476Y-107599785D02*
X130084285Y-107648166D01*
X130084285Y-107648166D02*
X130060095Y-107672357D01*
X130060095Y-107672357D02*
X130011714Y-107696547D01*
X130011714Y-107696547D02*
X129963333Y-107696547D01*
X129963333Y-107696547D02*
X129914952Y-107672357D01*
X129914952Y-107672357D02*
X129890761Y-107648166D01*
X129890761Y-107648166D02*
X129866571Y-107599785D01*
X129866571Y-107599785D02*
X129842380Y-107503023D01*
X129842380Y-107503023D02*
X129842380Y-107382071D01*
X129842380Y-107382071D02*
X129866571Y-107285309D01*
X129866571Y-107285309D02*
X129890761Y-107236928D01*
X129890761Y-107236928D02*
X129914952Y-107212737D01*
X129914952Y-107212737D02*
X129963333Y-107188547D01*
X130326190Y-107236928D02*
X130350381Y-107212737D01*
X130350381Y-107212737D02*
X130398762Y-107188547D01*
X130398762Y-107188547D02*
X130519714Y-107188547D01*
X130519714Y-107188547D02*
X130568095Y-107212737D01*
X130568095Y-107212737D02*
X130592286Y-107236928D01*
X130592286Y-107236928D02*
X130616476Y-107285309D01*
X130616476Y-107285309D02*
X130616476Y-107333690D01*
X130616476Y-107333690D02*
X130592286Y-107406261D01*
X130592286Y-107406261D02*
X130302000Y-107696547D01*
X130302000Y-107696547D02*
X130616476Y-107696547D01*
X143868047Y-125235635D02*
X143360047Y-125235635D01*
X143360047Y-125235635D02*
X143360047Y-125114683D01*
X143360047Y-125114683D02*
X143384237Y-125042111D01*
X143384237Y-125042111D02*
X143432618Y-124993730D01*
X143432618Y-124993730D02*
X143480999Y-124969540D01*
X143480999Y-124969540D02*
X143577761Y-124945349D01*
X143577761Y-124945349D02*
X143650333Y-124945349D01*
X143650333Y-124945349D02*
X143747095Y-124969540D01*
X143747095Y-124969540D02*
X143795476Y-124993730D01*
X143795476Y-124993730D02*
X143843857Y-125042111D01*
X143843857Y-125042111D02*
X143868047Y-125114683D01*
X143868047Y-125114683D02*
X143868047Y-125235635D01*
X143408428Y-124751826D02*
X143384237Y-124727635D01*
X143384237Y-124727635D02*
X143360047Y-124679254D01*
X143360047Y-124679254D02*
X143360047Y-124558302D01*
X143360047Y-124558302D02*
X143384237Y-124509921D01*
X143384237Y-124509921D02*
X143408428Y-124485730D01*
X143408428Y-124485730D02*
X143456809Y-124461540D01*
X143456809Y-124461540D02*
X143505190Y-124461540D01*
X143505190Y-124461540D02*
X143577761Y-124485730D01*
X143577761Y-124485730D02*
X143868047Y-124776016D01*
X143868047Y-124776016D02*
X143868047Y-124461540D01*
X143360047Y-124147063D02*
X143360047Y-124098682D01*
X143360047Y-124098682D02*
X143384237Y-124050301D01*
X143384237Y-124050301D02*
X143408428Y-124026111D01*
X143408428Y-124026111D02*
X143456809Y-124001920D01*
X143456809Y-124001920D02*
X143553571Y-123977730D01*
X143553571Y-123977730D02*
X143674523Y-123977730D01*
X143674523Y-123977730D02*
X143771285Y-124001920D01*
X143771285Y-124001920D02*
X143819666Y-124026111D01*
X143819666Y-124026111D02*
X143843857Y-124050301D01*
X143843857Y-124050301D02*
X143868047Y-124098682D01*
X143868047Y-124098682D02*
X143868047Y-124147063D01*
X143868047Y-124147063D02*
X143843857Y-124195444D01*
X143843857Y-124195444D02*
X143819666Y-124219635D01*
X143819666Y-124219635D02*
X143771285Y-124243825D01*
X143771285Y-124243825D02*
X143674523Y-124268016D01*
X143674523Y-124268016D02*
X143553571Y-124268016D01*
X143553571Y-124268016D02*
X143456809Y-124243825D01*
X143456809Y-124243825D02*
X143408428Y-124219635D01*
X143408428Y-124219635D02*
X143384237Y-124195444D01*
X143384237Y-124195444D02*
X143360047Y-124147063D01*
X143408428Y-123784206D02*
X143384237Y-123760015D01*
X143384237Y-123760015D02*
X143360047Y-123711634D01*
X143360047Y-123711634D02*
X143360047Y-123590682D01*
X143360047Y-123590682D02*
X143384237Y-123542301D01*
X143384237Y-123542301D02*
X143408428Y-123518110D01*
X143408428Y-123518110D02*
X143456809Y-123493920D01*
X143456809Y-123493920D02*
X143505190Y-123493920D01*
X143505190Y-123493920D02*
X143577761Y-123518110D01*
X143577761Y-123518110D02*
X143868047Y-123808396D01*
X143868047Y-123808396D02*
X143868047Y-123493920D01*
X138532809Y-118814301D02*
X138484428Y-118790110D01*
X138484428Y-118790110D02*
X138436047Y-118741730D01*
X138436047Y-118741730D02*
X138363475Y-118669158D01*
X138363475Y-118669158D02*
X138315094Y-118644968D01*
X138315094Y-118644968D02*
X138266713Y-118644968D01*
X138290904Y-118765920D02*
X138242523Y-118741730D01*
X138242523Y-118741730D02*
X138194142Y-118693349D01*
X138194142Y-118693349D02*
X138169951Y-118596587D01*
X138169951Y-118596587D02*
X138169951Y-118427253D01*
X138169951Y-118427253D02*
X138194142Y-118330491D01*
X138194142Y-118330491D02*
X138242523Y-118282110D01*
X138242523Y-118282110D02*
X138290904Y-118257920D01*
X138290904Y-118257920D02*
X138387666Y-118257920D01*
X138387666Y-118257920D02*
X138436047Y-118282110D01*
X138436047Y-118282110D02*
X138484428Y-118330491D01*
X138484428Y-118330491D02*
X138508618Y-118427253D01*
X138508618Y-118427253D02*
X138508618Y-118596587D01*
X138508618Y-118596587D02*
X138484428Y-118693349D01*
X138484428Y-118693349D02*
X138436047Y-118741730D01*
X138436047Y-118741730D02*
X138387666Y-118765920D01*
X138387666Y-118765920D02*
X138290904Y-118765920D01*
X138702141Y-118306301D02*
X138726332Y-118282110D01*
X138726332Y-118282110D02*
X138774713Y-118257920D01*
X138774713Y-118257920D02*
X138895665Y-118257920D01*
X138895665Y-118257920D02*
X138944046Y-118282110D01*
X138944046Y-118282110D02*
X138968237Y-118306301D01*
X138968237Y-118306301D02*
X138992427Y-118354682D01*
X138992427Y-118354682D02*
X138992427Y-118403063D01*
X138992427Y-118403063D02*
X138968237Y-118475634D01*
X138968237Y-118475634D02*
X138677951Y-118765920D01*
X138677951Y-118765920D02*
X138992427Y-118765920D01*
X139306904Y-118257920D02*
X139355285Y-118257920D01*
X139355285Y-118257920D02*
X139403666Y-118282110D01*
X139403666Y-118282110D02*
X139427856Y-118306301D01*
X139427856Y-118306301D02*
X139452047Y-118354682D01*
X139452047Y-118354682D02*
X139476237Y-118451444D01*
X139476237Y-118451444D02*
X139476237Y-118572396D01*
X139476237Y-118572396D02*
X139452047Y-118669158D01*
X139452047Y-118669158D02*
X139427856Y-118717539D01*
X139427856Y-118717539D02*
X139403666Y-118741730D01*
X139403666Y-118741730D02*
X139355285Y-118765920D01*
X139355285Y-118765920D02*
X139306904Y-118765920D01*
X139306904Y-118765920D02*
X139258523Y-118741730D01*
X139258523Y-118741730D02*
X139234332Y-118717539D01*
X139234332Y-118717539D02*
X139210142Y-118669158D01*
X139210142Y-118669158D02*
X139185951Y-118572396D01*
X139185951Y-118572396D02*
X139185951Y-118451444D01*
X139185951Y-118451444D02*
X139210142Y-118354682D01*
X139210142Y-118354682D02*
X139234332Y-118306301D01*
X139234332Y-118306301D02*
X139258523Y-118282110D01*
X139258523Y-118282110D02*
X139306904Y-118257920D01*
X139669761Y-118306301D02*
X139693952Y-118282110D01*
X139693952Y-118282110D02*
X139742333Y-118257920D01*
X139742333Y-118257920D02*
X139863285Y-118257920D01*
X139863285Y-118257920D02*
X139911666Y-118282110D01*
X139911666Y-118282110D02*
X139935857Y-118306301D01*
X139935857Y-118306301D02*
X139960047Y-118354682D01*
X139960047Y-118354682D02*
X139960047Y-118403063D01*
X139960047Y-118403063D02*
X139935857Y-118475634D01*
X139935857Y-118475634D02*
X139645571Y-118765920D01*
X139645571Y-118765920D02*
X139960047Y-118765920D01*
X134638142Y-112415920D02*
X134638142Y-112827158D01*
X134638142Y-112827158D02*
X134662332Y-112875539D01*
X134662332Y-112875539D02*
X134686523Y-112899730D01*
X134686523Y-112899730D02*
X134734904Y-112923920D01*
X134734904Y-112923920D02*
X134831666Y-112923920D01*
X134831666Y-112923920D02*
X134880047Y-112899730D01*
X134880047Y-112899730D02*
X134904237Y-112875539D01*
X134904237Y-112875539D02*
X134928428Y-112827158D01*
X134928428Y-112827158D02*
X134928428Y-112415920D01*
X135146141Y-112464301D02*
X135170332Y-112440110D01*
X135170332Y-112440110D02*
X135218713Y-112415920D01*
X135218713Y-112415920D02*
X135339665Y-112415920D01*
X135339665Y-112415920D02*
X135388046Y-112440110D01*
X135388046Y-112440110D02*
X135412237Y-112464301D01*
X135412237Y-112464301D02*
X135436427Y-112512682D01*
X135436427Y-112512682D02*
X135436427Y-112561063D01*
X135436427Y-112561063D02*
X135412237Y-112633634D01*
X135412237Y-112633634D02*
X135121951Y-112923920D01*
X135121951Y-112923920D02*
X135436427Y-112923920D01*
X135750904Y-112415920D02*
X135799285Y-112415920D01*
X135799285Y-112415920D02*
X135847666Y-112440110D01*
X135847666Y-112440110D02*
X135871856Y-112464301D01*
X135871856Y-112464301D02*
X135896047Y-112512682D01*
X135896047Y-112512682D02*
X135920237Y-112609444D01*
X135920237Y-112609444D02*
X135920237Y-112730396D01*
X135920237Y-112730396D02*
X135896047Y-112827158D01*
X135896047Y-112827158D02*
X135871856Y-112875539D01*
X135871856Y-112875539D02*
X135847666Y-112899730D01*
X135847666Y-112899730D02*
X135799285Y-112923920D01*
X135799285Y-112923920D02*
X135750904Y-112923920D01*
X135750904Y-112923920D02*
X135702523Y-112899730D01*
X135702523Y-112899730D02*
X135678332Y-112875539D01*
X135678332Y-112875539D02*
X135654142Y-112827158D01*
X135654142Y-112827158D02*
X135629951Y-112730396D01*
X135629951Y-112730396D02*
X135629951Y-112609444D01*
X135629951Y-112609444D02*
X135654142Y-112512682D01*
X135654142Y-112512682D02*
X135678332Y-112464301D01*
X135678332Y-112464301D02*
X135702523Y-112440110D01*
X135702523Y-112440110D02*
X135750904Y-112415920D01*
X136113761Y-112464301D02*
X136137952Y-112440110D01*
X136137952Y-112440110D02*
X136186333Y-112415920D01*
X136186333Y-112415920D02*
X136307285Y-112415920D01*
X136307285Y-112415920D02*
X136355666Y-112440110D01*
X136355666Y-112440110D02*
X136379857Y-112464301D01*
X136379857Y-112464301D02*
X136404047Y-112512682D01*
X136404047Y-112512682D02*
X136404047Y-112561063D01*
X136404047Y-112561063D02*
X136379857Y-112633634D01*
X136379857Y-112633634D02*
X136089571Y-112923920D01*
X136089571Y-112923920D02*
X136404047Y-112923920D01*
X156101141Y-126492547D02*
X156391427Y-126492547D01*
X156246284Y-127000547D02*
X156246284Y-126492547D01*
X156560761Y-127000547D02*
X156560761Y-126492547D01*
X156560761Y-126492547D02*
X156754285Y-126492547D01*
X156754285Y-126492547D02*
X156802666Y-126516737D01*
X156802666Y-126516737D02*
X156826856Y-126540928D01*
X156826856Y-126540928D02*
X156851047Y-126589309D01*
X156851047Y-126589309D02*
X156851047Y-126661880D01*
X156851047Y-126661880D02*
X156826856Y-126710261D01*
X156826856Y-126710261D02*
X156802666Y-126734452D01*
X156802666Y-126734452D02*
X156754285Y-126758642D01*
X156754285Y-126758642D02*
X156560761Y-126758642D01*
X157044570Y-126540928D02*
X157068761Y-126516737D01*
X157068761Y-126516737D02*
X157117142Y-126492547D01*
X157117142Y-126492547D02*
X157238094Y-126492547D01*
X157238094Y-126492547D02*
X157286475Y-126516737D01*
X157286475Y-126516737D02*
X157310666Y-126540928D01*
X157310666Y-126540928D02*
X157334856Y-126589309D01*
X157334856Y-126589309D02*
X157334856Y-126637690D01*
X157334856Y-126637690D02*
X157310666Y-126710261D01*
X157310666Y-126710261D02*
X157020380Y-127000547D01*
X157020380Y-127000547D02*
X157334856Y-127000547D01*
X157649333Y-126492547D02*
X157697714Y-126492547D01*
X157697714Y-126492547D02*
X157746095Y-126516737D01*
X157746095Y-126516737D02*
X157770285Y-126540928D01*
X157770285Y-126540928D02*
X157794476Y-126589309D01*
X157794476Y-126589309D02*
X157818666Y-126686071D01*
X157818666Y-126686071D02*
X157818666Y-126807023D01*
X157818666Y-126807023D02*
X157794476Y-126903785D01*
X157794476Y-126903785D02*
X157770285Y-126952166D01*
X157770285Y-126952166D02*
X157746095Y-126976357D01*
X157746095Y-126976357D02*
X157697714Y-127000547D01*
X157697714Y-127000547D02*
X157649333Y-127000547D01*
X157649333Y-127000547D02*
X157600952Y-126976357D01*
X157600952Y-126976357D02*
X157576761Y-126952166D01*
X157576761Y-126952166D02*
X157552571Y-126903785D01*
X157552571Y-126903785D02*
X157528380Y-126807023D01*
X157528380Y-126807023D02*
X157528380Y-126686071D01*
X157528380Y-126686071D02*
X157552571Y-126589309D01*
X157552571Y-126589309D02*
X157576761Y-126540928D01*
X157576761Y-126540928D02*
X157600952Y-126516737D01*
X157600952Y-126516737D02*
X157649333Y-126492547D01*
X158254095Y-126661880D02*
X158254095Y-127000547D01*
X158133143Y-126468357D02*
X158012190Y-126831214D01*
X158012190Y-126831214D02*
X158326667Y-126831214D01*
X150942523Y-120370047D02*
X150773189Y-120128142D01*
X150652237Y-120370047D02*
X150652237Y-119862047D01*
X150652237Y-119862047D02*
X150845761Y-119862047D01*
X150845761Y-119862047D02*
X150894142Y-119886237D01*
X150894142Y-119886237D02*
X150918332Y-119910428D01*
X150918332Y-119910428D02*
X150942523Y-119958809D01*
X150942523Y-119958809D02*
X150942523Y-120031380D01*
X150942523Y-120031380D02*
X150918332Y-120079761D01*
X150918332Y-120079761D02*
X150894142Y-120103952D01*
X150894142Y-120103952D02*
X150845761Y-120128142D01*
X150845761Y-120128142D02*
X150652237Y-120128142D01*
X151136046Y-119910428D02*
X151160237Y-119886237D01*
X151160237Y-119886237D02*
X151208618Y-119862047D01*
X151208618Y-119862047D02*
X151329570Y-119862047D01*
X151329570Y-119862047D02*
X151377951Y-119886237D01*
X151377951Y-119886237D02*
X151402142Y-119910428D01*
X151402142Y-119910428D02*
X151426332Y-119958809D01*
X151426332Y-119958809D02*
X151426332Y-120007190D01*
X151426332Y-120007190D02*
X151402142Y-120079761D01*
X151402142Y-120079761D02*
X151111856Y-120370047D01*
X151111856Y-120370047D02*
X151426332Y-120370047D01*
X151910142Y-120370047D02*
X151619856Y-120370047D01*
X151764999Y-120370047D02*
X151764999Y-119862047D01*
X151764999Y-119862047D02*
X151716618Y-119934618D01*
X151716618Y-119934618D02*
X151668237Y-119982999D01*
X151668237Y-119982999D02*
X151619856Y-120007190D01*
X152079476Y-119862047D02*
X152393952Y-119862047D01*
X152393952Y-119862047D02*
X152224619Y-120055571D01*
X152224619Y-120055571D02*
X152297190Y-120055571D01*
X152297190Y-120055571D02*
X152345571Y-120079761D01*
X152345571Y-120079761D02*
X152369762Y-120103952D01*
X152369762Y-120103952D02*
X152393952Y-120152333D01*
X152393952Y-120152333D02*
X152393952Y-120273285D01*
X152393952Y-120273285D02*
X152369762Y-120321666D01*
X152369762Y-120321666D02*
X152345571Y-120345857D01*
X152345571Y-120345857D02*
X152297190Y-120370047D01*
X152297190Y-120370047D02*
X152152047Y-120370047D01*
X152152047Y-120370047D02*
X152103666Y-120345857D01*
X152103666Y-120345857D02*
X152079476Y-120321666D01*
X115346237Y-111506547D02*
X115346237Y-110998547D01*
X115346237Y-110998547D02*
X115467189Y-110998547D01*
X115467189Y-110998547D02*
X115539761Y-111022737D01*
X115539761Y-111022737D02*
X115588142Y-111071118D01*
X115588142Y-111071118D02*
X115612332Y-111119499D01*
X115612332Y-111119499D02*
X115636523Y-111216261D01*
X115636523Y-111216261D02*
X115636523Y-111288833D01*
X115636523Y-111288833D02*
X115612332Y-111385595D01*
X115612332Y-111385595D02*
X115588142Y-111433976D01*
X115588142Y-111433976D02*
X115539761Y-111482357D01*
X115539761Y-111482357D02*
X115467189Y-111506547D01*
X115467189Y-111506547D02*
X115346237Y-111506547D01*
X115830046Y-111046928D02*
X115854237Y-111022737D01*
X115854237Y-111022737D02*
X115902618Y-110998547D01*
X115902618Y-110998547D02*
X116023570Y-110998547D01*
X116023570Y-110998547D02*
X116071951Y-111022737D01*
X116071951Y-111022737D02*
X116096142Y-111046928D01*
X116096142Y-111046928D02*
X116120332Y-111095309D01*
X116120332Y-111095309D02*
X116120332Y-111143690D01*
X116120332Y-111143690D02*
X116096142Y-111216261D01*
X116096142Y-111216261D02*
X115805856Y-111506547D01*
X115805856Y-111506547D02*
X116120332Y-111506547D01*
X116434809Y-110998547D02*
X116483190Y-110998547D01*
X116483190Y-110998547D02*
X116531571Y-111022737D01*
X116531571Y-111022737D02*
X116555761Y-111046928D01*
X116555761Y-111046928D02*
X116579952Y-111095309D01*
X116579952Y-111095309D02*
X116604142Y-111192071D01*
X116604142Y-111192071D02*
X116604142Y-111313023D01*
X116604142Y-111313023D02*
X116579952Y-111409785D01*
X116579952Y-111409785D02*
X116555761Y-111458166D01*
X116555761Y-111458166D02*
X116531571Y-111482357D01*
X116531571Y-111482357D02*
X116483190Y-111506547D01*
X116483190Y-111506547D02*
X116434809Y-111506547D01*
X116434809Y-111506547D02*
X116386428Y-111482357D01*
X116386428Y-111482357D02*
X116362237Y-111458166D01*
X116362237Y-111458166D02*
X116338047Y-111409785D01*
X116338047Y-111409785D02*
X116313856Y-111313023D01*
X116313856Y-111313023D02*
X116313856Y-111192071D01*
X116313856Y-111192071D02*
X116338047Y-111095309D01*
X116338047Y-111095309D02*
X116362237Y-111046928D01*
X116362237Y-111046928D02*
X116386428Y-111022737D01*
X116386428Y-111022737D02*
X116434809Y-110998547D01*
X117087952Y-111506547D02*
X116797666Y-111506547D01*
X116942809Y-111506547D02*
X116942809Y-110998547D01*
X116942809Y-110998547D02*
X116894428Y-111071118D01*
X116894428Y-111071118D02*
X116846047Y-111119499D01*
X116846047Y-111119499D02*
X116797666Y-111143690D01*
X151105809Y-116103428D02*
X151057428Y-116079237D01*
X151057428Y-116079237D02*
X151009047Y-116030857D01*
X151009047Y-116030857D02*
X150936475Y-115958285D01*
X150936475Y-115958285D02*
X150888094Y-115934095D01*
X150888094Y-115934095D02*
X150839713Y-115934095D01*
X150863904Y-116055047D02*
X150815523Y-116030857D01*
X150815523Y-116030857D02*
X150767142Y-115982476D01*
X150767142Y-115982476D02*
X150742951Y-115885714D01*
X150742951Y-115885714D02*
X150742951Y-115716380D01*
X150742951Y-115716380D02*
X150767142Y-115619618D01*
X150767142Y-115619618D02*
X150815523Y-115571237D01*
X150815523Y-115571237D02*
X150863904Y-115547047D01*
X150863904Y-115547047D02*
X150960666Y-115547047D01*
X150960666Y-115547047D02*
X151009047Y-115571237D01*
X151009047Y-115571237D02*
X151057428Y-115619618D01*
X151057428Y-115619618D02*
X151081618Y-115716380D01*
X151081618Y-115716380D02*
X151081618Y-115885714D01*
X151081618Y-115885714D02*
X151057428Y-115982476D01*
X151057428Y-115982476D02*
X151009047Y-116030857D01*
X151009047Y-116030857D02*
X150960666Y-116055047D01*
X150960666Y-116055047D02*
X150863904Y-116055047D01*
X151275141Y-115595428D02*
X151299332Y-115571237D01*
X151299332Y-115571237D02*
X151347713Y-115547047D01*
X151347713Y-115547047D02*
X151468665Y-115547047D01*
X151468665Y-115547047D02*
X151517046Y-115571237D01*
X151517046Y-115571237D02*
X151541237Y-115595428D01*
X151541237Y-115595428D02*
X151565427Y-115643809D01*
X151565427Y-115643809D02*
X151565427Y-115692190D01*
X151565427Y-115692190D02*
X151541237Y-115764761D01*
X151541237Y-115764761D02*
X151250951Y-116055047D01*
X151250951Y-116055047D02*
X151565427Y-116055047D01*
X151879904Y-115547047D02*
X151928285Y-115547047D01*
X151928285Y-115547047D02*
X151976666Y-115571237D01*
X151976666Y-115571237D02*
X152000856Y-115595428D01*
X152000856Y-115595428D02*
X152025047Y-115643809D01*
X152025047Y-115643809D02*
X152049237Y-115740571D01*
X152049237Y-115740571D02*
X152049237Y-115861523D01*
X152049237Y-115861523D02*
X152025047Y-115958285D01*
X152025047Y-115958285D02*
X152000856Y-116006666D01*
X152000856Y-116006666D02*
X151976666Y-116030857D01*
X151976666Y-116030857D02*
X151928285Y-116055047D01*
X151928285Y-116055047D02*
X151879904Y-116055047D01*
X151879904Y-116055047D02*
X151831523Y-116030857D01*
X151831523Y-116030857D02*
X151807332Y-116006666D01*
X151807332Y-116006666D02*
X151783142Y-115958285D01*
X151783142Y-115958285D02*
X151758951Y-115861523D01*
X151758951Y-115861523D02*
X151758951Y-115740571D01*
X151758951Y-115740571D02*
X151783142Y-115643809D01*
X151783142Y-115643809D02*
X151807332Y-115595428D01*
X151807332Y-115595428D02*
X151831523Y-115571237D01*
X151831523Y-115571237D02*
X151879904Y-115547047D01*
X152218571Y-115547047D02*
X152533047Y-115547047D01*
X152533047Y-115547047D02*
X152363714Y-115740571D01*
X152363714Y-115740571D02*
X152436285Y-115740571D01*
X152436285Y-115740571D02*
X152484666Y-115764761D01*
X152484666Y-115764761D02*
X152508857Y-115788952D01*
X152508857Y-115788952D02*
X152533047Y-115837333D01*
X152533047Y-115837333D02*
X152533047Y-115958285D01*
X152533047Y-115958285D02*
X152508857Y-116006666D01*
X152508857Y-116006666D02*
X152484666Y-116030857D01*
X152484666Y-116030857D02*
X152436285Y-116055047D01*
X152436285Y-116055047D02*
X152291142Y-116055047D01*
X152291142Y-116055047D02*
X152242761Y-116030857D01*
X152242761Y-116030857D02*
X152218571Y-116006666D01*
X149672523Y-113617166D02*
X149648332Y-113641357D01*
X149648332Y-113641357D02*
X149575761Y-113665547D01*
X149575761Y-113665547D02*
X149527380Y-113665547D01*
X149527380Y-113665547D02*
X149454808Y-113641357D01*
X149454808Y-113641357D02*
X149406427Y-113592976D01*
X149406427Y-113592976D02*
X149382237Y-113544595D01*
X149382237Y-113544595D02*
X149358046Y-113447833D01*
X149358046Y-113447833D02*
X149358046Y-113375261D01*
X149358046Y-113375261D02*
X149382237Y-113278499D01*
X149382237Y-113278499D02*
X149406427Y-113230118D01*
X149406427Y-113230118D02*
X149454808Y-113181737D01*
X149454808Y-113181737D02*
X149527380Y-113157547D01*
X149527380Y-113157547D02*
X149575761Y-113157547D01*
X149575761Y-113157547D02*
X149648332Y-113181737D01*
X149648332Y-113181737D02*
X149672523Y-113205928D01*
X149866046Y-113205928D02*
X149890237Y-113181737D01*
X149890237Y-113181737D02*
X149938618Y-113157547D01*
X149938618Y-113157547D02*
X150059570Y-113157547D01*
X150059570Y-113157547D02*
X150107951Y-113181737D01*
X150107951Y-113181737D02*
X150132142Y-113205928D01*
X150132142Y-113205928D02*
X150156332Y-113254309D01*
X150156332Y-113254309D02*
X150156332Y-113302690D01*
X150156332Y-113302690D02*
X150132142Y-113375261D01*
X150132142Y-113375261D02*
X149841856Y-113665547D01*
X149841856Y-113665547D02*
X150156332Y-113665547D01*
X150470809Y-113157547D02*
X150519190Y-113157547D01*
X150519190Y-113157547D02*
X150567571Y-113181737D01*
X150567571Y-113181737D02*
X150591761Y-113205928D01*
X150591761Y-113205928D02*
X150615952Y-113254309D01*
X150615952Y-113254309D02*
X150640142Y-113351071D01*
X150640142Y-113351071D02*
X150640142Y-113472023D01*
X150640142Y-113472023D02*
X150615952Y-113568785D01*
X150615952Y-113568785D02*
X150591761Y-113617166D01*
X150591761Y-113617166D02*
X150567571Y-113641357D01*
X150567571Y-113641357D02*
X150519190Y-113665547D01*
X150519190Y-113665547D02*
X150470809Y-113665547D01*
X150470809Y-113665547D02*
X150422428Y-113641357D01*
X150422428Y-113641357D02*
X150398237Y-113617166D01*
X150398237Y-113617166D02*
X150374047Y-113568785D01*
X150374047Y-113568785D02*
X150349856Y-113472023D01*
X150349856Y-113472023D02*
X150349856Y-113351071D01*
X150349856Y-113351071D02*
X150374047Y-113254309D01*
X150374047Y-113254309D02*
X150398237Y-113205928D01*
X150398237Y-113205928D02*
X150422428Y-113181737D01*
X150422428Y-113181737D02*
X150470809Y-113157547D01*
X151075571Y-113326880D02*
X151075571Y-113665547D01*
X150954619Y-113133357D02*
X150833666Y-113496214D01*
X150833666Y-113496214D02*
X151148143Y-113496214D01*
X115636523Y-109474547D02*
X115467189Y-109232642D01*
X115346237Y-109474547D02*
X115346237Y-108966547D01*
X115346237Y-108966547D02*
X115539761Y-108966547D01*
X115539761Y-108966547D02*
X115588142Y-108990737D01*
X115588142Y-108990737D02*
X115612332Y-109014928D01*
X115612332Y-109014928D02*
X115636523Y-109063309D01*
X115636523Y-109063309D02*
X115636523Y-109135880D01*
X115636523Y-109135880D02*
X115612332Y-109184261D01*
X115612332Y-109184261D02*
X115588142Y-109208452D01*
X115588142Y-109208452D02*
X115539761Y-109232642D01*
X115539761Y-109232642D02*
X115346237Y-109232642D01*
X115830046Y-109014928D02*
X115854237Y-108990737D01*
X115854237Y-108990737D02*
X115902618Y-108966547D01*
X115902618Y-108966547D02*
X116023570Y-108966547D01*
X116023570Y-108966547D02*
X116071951Y-108990737D01*
X116071951Y-108990737D02*
X116096142Y-109014928D01*
X116096142Y-109014928D02*
X116120332Y-109063309D01*
X116120332Y-109063309D02*
X116120332Y-109111690D01*
X116120332Y-109111690D02*
X116096142Y-109184261D01*
X116096142Y-109184261D02*
X115805856Y-109474547D01*
X115805856Y-109474547D02*
X116120332Y-109474547D01*
X116604142Y-109474547D02*
X116313856Y-109474547D01*
X116458999Y-109474547D02*
X116458999Y-108966547D01*
X116458999Y-108966547D02*
X116410618Y-109039118D01*
X116410618Y-109039118D02*
X116362237Y-109087499D01*
X116362237Y-109087499D02*
X116313856Y-109111690D01*
X116797666Y-109014928D02*
X116821857Y-108990737D01*
X116821857Y-108990737D02*
X116870238Y-108966547D01*
X116870238Y-108966547D02*
X116991190Y-108966547D01*
X116991190Y-108966547D02*
X117039571Y-108990737D01*
X117039571Y-108990737D02*
X117063762Y-109014928D01*
X117063762Y-109014928D02*
X117087952Y-109063309D01*
X117087952Y-109063309D02*
X117087952Y-109111690D01*
X117087952Y-109111690D02*
X117063762Y-109184261D01*
X117063762Y-109184261D02*
X116773476Y-109474547D01*
X116773476Y-109474547D02*
X117087952Y-109474547D01*
X133405666Y-108181349D02*
X133429857Y-108205540D01*
X133429857Y-108205540D02*
X133454047Y-108278111D01*
X133454047Y-108278111D02*
X133454047Y-108326492D01*
X133454047Y-108326492D02*
X133429857Y-108399064D01*
X133429857Y-108399064D02*
X133381476Y-108447445D01*
X133381476Y-108447445D02*
X133333095Y-108471635D01*
X133333095Y-108471635D02*
X133236333Y-108495826D01*
X133236333Y-108495826D02*
X133163761Y-108495826D01*
X133163761Y-108495826D02*
X133066999Y-108471635D01*
X133066999Y-108471635D02*
X133018618Y-108447445D01*
X133018618Y-108447445D02*
X132970237Y-108399064D01*
X132970237Y-108399064D02*
X132946047Y-108326492D01*
X132946047Y-108326492D02*
X132946047Y-108278111D01*
X132946047Y-108278111D02*
X132970237Y-108205540D01*
X132970237Y-108205540D02*
X132994428Y-108181349D01*
X132994428Y-107987826D02*
X132970237Y-107963635D01*
X132970237Y-107963635D02*
X132946047Y-107915254D01*
X132946047Y-107915254D02*
X132946047Y-107794302D01*
X132946047Y-107794302D02*
X132970237Y-107745921D01*
X132970237Y-107745921D02*
X132994428Y-107721730D01*
X132994428Y-107721730D02*
X133042809Y-107697540D01*
X133042809Y-107697540D02*
X133091190Y-107697540D01*
X133091190Y-107697540D02*
X133163761Y-107721730D01*
X133163761Y-107721730D02*
X133454047Y-108012016D01*
X133454047Y-108012016D02*
X133454047Y-107697540D01*
X132946047Y-107383063D02*
X132946047Y-107334682D01*
X132946047Y-107334682D02*
X132970237Y-107286301D01*
X132970237Y-107286301D02*
X132994428Y-107262111D01*
X132994428Y-107262111D02*
X133042809Y-107237920D01*
X133042809Y-107237920D02*
X133139571Y-107213730D01*
X133139571Y-107213730D02*
X133260523Y-107213730D01*
X133260523Y-107213730D02*
X133357285Y-107237920D01*
X133357285Y-107237920D02*
X133405666Y-107262111D01*
X133405666Y-107262111D02*
X133429857Y-107286301D01*
X133429857Y-107286301D02*
X133454047Y-107334682D01*
X133454047Y-107334682D02*
X133454047Y-107383063D01*
X133454047Y-107383063D02*
X133429857Y-107431444D01*
X133429857Y-107431444D02*
X133405666Y-107455635D01*
X133405666Y-107455635D02*
X133357285Y-107479825D01*
X133357285Y-107479825D02*
X133260523Y-107504016D01*
X133260523Y-107504016D02*
X133139571Y-107504016D01*
X133139571Y-107504016D02*
X133042809Y-107479825D01*
X133042809Y-107479825D02*
X132994428Y-107455635D01*
X132994428Y-107455635D02*
X132970237Y-107431444D01*
X132970237Y-107431444D02*
X132946047Y-107383063D01*
X133454047Y-106729920D02*
X133454047Y-107020206D01*
X133454047Y-106875063D02*
X132946047Y-106875063D01*
X132946047Y-106875063D02*
X133018618Y-106923444D01*
X133018618Y-106923444D02*
X133066999Y-106971825D01*
X133066999Y-106971825D02*
X133091190Y-107020206D01*
X138242523Y-124861920D02*
X138073189Y-124620015D01*
X137952237Y-124861920D02*
X137952237Y-124353920D01*
X137952237Y-124353920D02*
X138145761Y-124353920D01*
X138145761Y-124353920D02*
X138194142Y-124378110D01*
X138194142Y-124378110D02*
X138218332Y-124402301D01*
X138218332Y-124402301D02*
X138242523Y-124450682D01*
X138242523Y-124450682D02*
X138242523Y-124523253D01*
X138242523Y-124523253D02*
X138218332Y-124571634D01*
X138218332Y-124571634D02*
X138194142Y-124595825D01*
X138194142Y-124595825D02*
X138145761Y-124620015D01*
X138145761Y-124620015D02*
X137952237Y-124620015D01*
X138436046Y-124402301D02*
X138460237Y-124378110D01*
X138460237Y-124378110D02*
X138508618Y-124353920D01*
X138508618Y-124353920D02*
X138629570Y-124353920D01*
X138629570Y-124353920D02*
X138677951Y-124378110D01*
X138677951Y-124378110D02*
X138702142Y-124402301D01*
X138702142Y-124402301D02*
X138726332Y-124450682D01*
X138726332Y-124450682D02*
X138726332Y-124499063D01*
X138726332Y-124499063D02*
X138702142Y-124571634D01*
X138702142Y-124571634D02*
X138411856Y-124861920D01*
X138411856Y-124861920D02*
X138726332Y-124861920D01*
X139040809Y-124353920D02*
X139089190Y-124353920D01*
X139089190Y-124353920D02*
X139137571Y-124378110D01*
X139137571Y-124378110D02*
X139161761Y-124402301D01*
X139161761Y-124402301D02*
X139185952Y-124450682D01*
X139185952Y-124450682D02*
X139210142Y-124547444D01*
X139210142Y-124547444D02*
X139210142Y-124668396D01*
X139210142Y-124668396D02*
X139185952Y-124765158D01*
X139185952Y-124765158D02*
X139161761Y-124813539D01*
X139161761Y-124813539D02*
X139137571Y-124837730D01*
X139137571Y-124837730D02*
X139089190Y-124861920D01*
X139089190Y-124861920D02*
X139040809Y-124861920D01*
X139040809Y-124861920D02*
X138992428Y-124837730D01*
X138992428Y-124837730D02*
X138968237Y-124813539D01*
X138968237Y-124813539D02*
X138944047Y-124765158D01*
X138944047Y-124765158D02*
X138919856Y-124668396D01*
X138919856Y-124668396D02*
X138919856Y-124547444D01*
X138919856Y-124547444D02*
X138944047Y-124450682D01*
X138944047Y-124450682D02*
X138968237Y-124402301D01*
X138968237Y-124402301D02*
X138992428Y-124378110D01*
X138992428Y-124378110D02*
X139040809Y-124353920D01*
X139379476Y-124353920D02*
X139718143Y-124353920D01*
X139718143Y-124353920D02*
X139500428Y-124861920D01*
X119355809Y-120190928D02*
X119307428Y-120166737D01*
X119307428Y-120166737D02*
X119259047Y-120118357D01*
X119259047Y-120118357D02*
X119186475Y-120045785D01*
X119186475Y-120045785D02*
X119138094Y-120021595D01*
X119138094Y-120021595D02*
X119089713Y-120021595D01*
X119113904Y-120142547D02*
X119065523Y-120118357D01*
X119065523Y-120118357D02*
X119017142Y-120069976D01*
X119017142Y-120069976D02*
X118992951Y-119973214D01*
X118992951Y-119973214D02*
X118992951Y-119803880D01*
X118992951Y-119803880D02*
X119017142Y-119707118D01*
X119017142Y-119707118D02*
X119065523Y-119658737D01*
X119065523Y-119658737D02*
X119113904Y-119634547D01*
X119113904Y-119634547D02*
X119210666Y-119634547D01*
X119210666Y-119634547D02*
X119259047Y-119658737D01*
X119259047Y-119658737D02*
X119307428Y-119707118D01*
X119307428Y-119707118D02*
X119331618Y-119803880D01*
X119331618Y-119803880D02*
X119331618Y-119973214D01*
X119331618Y-119973214D02*
X119307428Y-120069976D01*
X119307428Y-120069976D02*
X119259047Y-120118357D01*
X119259047Y-120118357D02*
X119210666Y-120142547D01*
X119210666Y-120142547D02*
X119113904Y-120142547D01*
X119525141Y-119682928D02*
X119549332Y-119658737D01*
X119549332Y-119658737D02*
X119597713Y-119634547D01*
X119597713Y-119634547D02*
X119718665Y-119634547D01*
X119718665Y-119634547D02*
X119767046Y-119658737D01*
X119767046Y-119658737D02*
X119791237Y-119682928D01*
X119791237Y-119682928D02*
X119815427Y-119731309D01*
X119815427Y-119731309D02*
X119815427Y-119779690D01*
X119815427Y-119779690D02*
X119791237Y-119852261D01*
X119791237Y-119852261D02*
X119500951Y-120142547D01*
X119500951Y-120142547D02*
X119815427Y-120142547D01*
X120129904Y-119634547D02*
X120178285Y-119634547D01*
X120178285Y-119634547D02*
X120226666Y-119658737D01*
X120226666Y-119658737D02*
X120250856Y-119682928D01*
X120250856Y-119682928D02*
X120275047Y-119731309D01*
X120275047Y-119731309D02*
X120299237Y-119828071D01*
X120299237Y-119828071D02*
X120299237Y-119949023D01*
X120299237Y-119949023D02*
X120275047Y-120045785D01*
X120275047Y-120045785D02*
X120250856Y-120094166D01*
X120250856Y-120094166D02*
X120226666Y-120118357D01*
X120226666Y-120118357D02*
X120178285Y-120142547D01*
X120178285Y-120142547D02*
X120129904Y-120142547D01*
X120129904Y-120142547D02*
X120081523Y-120118357D01*
X120081523Y-120118357D02*
X120057332Y-120094166D01*
X120057332Y-120094166D02*
X120033142Y-120045785D01*
X120033142Y-120045785D02*
X120008951Y-119949023D01*
X120008951Y-119949023D02*
X120008951Y-119828071D01*
X120008951Y-119828071D02*
X120033142Y-119731309D01*
X120033142Y-119731309D02*
X120057332Y-119682928D01*
X120057332Y-119682928D02*
X120081523Y-119658737D01*
X120081523Y-119658737D02*
X120129904Y-119634547D01*
X120783047Y-120142547D02*
X120492761Y-120142547D01*
X120637904Y-120142547D02*
X120637904Y-119634547D01*
X120637904Y-119634547D02*
X120589523Y-119707118D01*
X120589523Y-119707118D02*
X120541142Y-119755499D01*
X120541142Y-119755499D02*
X120492761Y-119779690D01*
X126670523Y-113212920D02*
X126501189Y-112971015D01*
X126380237Y-113212920D02*
X126380237Y-112704920D01*
X126380237Y-112704920D02*
X126573761Y-112704920D01*
X126573761Y-112704920D02*
X126622142Y-112729110D01*
X126622142Y-112729110D02*
X126646332Y-112753301D01*
X126646332Y-112753301D02*
X126670523Y-112801682D01*
X126670523Y-112801682D02*
X126670523Y-112874253D01*
X126670523Y-112874253D02*
X126646332Y-112922634D01*
X126646332Y-112922634D02*
X126622142Y-112946825D01*
X126622142Y-112946825D02*
X126573761Y-112971015D01*
X126573761Y-112971015D02*
X126380237Y-112971015D01*
X126864046Y-112753301D02*
X126888237Y-112729110D01*
X126888237Y-112729110D02*
X126936618Y-112704920D01*
X126936618Y-112704920D02*
X127057570Y-112704920D01*
X127057570Y-112704920D02*
X127105951Y-112729110D01*
X127105951Y-112729110D02*
X127130142Y-112753301D01*
X127130142Y-112753301D02*
X127154332Y-112801682D01*
X127154332Y-112801682D02*
X127154332Y-112850063D01*
X127154332Y-112850063D02*
X127130142Y-112922634D01*
X127130142Y-112922634D02*
X126839856Y-113212920D01*
X126839856Y-113212920D02*
X127154332Y-113212920D01*
X127468809Y-112704920D02*
X127517190Y-112704920D01*
X127517190Y-112704920D02*
X127565571Y-112729110D01*
X127565571Y-112729110D02*
X127589761Y-112753301D01*
X127589761Y-112753301D02*
X127613952Y-112801682D01*
X127613952Y-112801682D02*
X127638142Y-112898444D01*
X127638142Y-112898444D02*
X127638142Y-113019396D01*
X127638142Y-113019396D02*
X127613952Y-113116158D01*
X127613952Y-113116158D02*
X127589761Y-113164539D01*
X127589761Y-113164539D02*
X127565571Y-113188730D01*
X127565571Y-113188730D02*
X127517190Y-113212920D01*
X127517190Y-113212920D02*
X127468809Y-113212920D01*
X127468809Y-113212920D02*
X127420428Y-113188730D01*
X127420428Y-113188730D02*
X127396237Y-113164539D01*
X127396237Y-113164539D02*
X127372047Y-113116158D01*
X127372047Y-113116158D02*
X127347856Y-113019396D01*
X127347856Y-113019396D02*
X127347856Y-112898444D01*
X127347856Y-112898444D02*
X127372047Y-112801682D01*
X127372047Y-112801682D02*
X127396237Y-112753301D01*
X127396237Y-112753301D02*
X127420428Y-112729110D01*
X127420428Y-112729110D02*
X127468809Y-112704920D01*
X127807476Y-112704920D02*
X128121952Y-112704920D01*
X128121952Y-112704920D02*
X127952619Y-112898444D01*
X127952619Y-112898444D02*
X128025190Y-112898444D01*
X128025190Y-112898444D02*
X128073571Y-112922634D01*
X128073571Y-112922634D02*
X128097762Y-112946825D01*
X128097762Y-112946825D02*
X128121952Y-112995206D01*
X128121952Y-112995206D02*
X128121952Y-113116158D01*
X128121952Y-113116158D02*
X128097762Y-113164539D01*
X128097762Y-113164539D02*
X128073571Y-113188730D01*
X128073571Y-113188730D02*
X128025190Y-113212920D01*
X128025190Y-113212920D02*
X127880047Y-113212920D01*
X127880047Y-113212920D02*
X127831666Y-113188730D01*
X127831666Y-113188730D02*
X127807476Y-113164539D01*
X116525523Y-113617166D02*
X116501332Y-113641357D01*
X116501332Y-113641357D02*
X116428761Y-113665547D01*
X116428761Y-113665547D02*
X116380380Y-113665547D01*
X116380380Y-113665547D02*
X116307808Y-113641357D01*
X116307808Y-113641357D02*
X116259427Y-113592976D01*
X116259427Y-113592976D02*
X116235237Y-113544595D01*
X116235237Y-113544595D02*
X116211046Y-113447833D01*
X116211046Y-113447833D02*
X116211046Y-113375261D01*
X116211046Y-113375261D02*
X116235237Y-113278499D01*
X116235237Y-113278499D02*
X116259427Y-113230118D01*
X116259427Y-113230118D02*
X116307808Y-113181737D01*
X116307808Y-113181737D02*
X116380380Y-113157547D01*
X116380380Y-113157547D02*
X116428761Y-113157547D01*
X116428761Y-113157547D02*
X116501332Y-113181737D01*
X116501332Y-113181737D02*
X116525523Y-113205928D01*
X116719046Y-113205928D02*
X116743237Y-113181737D01*
X116743237Y-113181737D02*
X116791618Y-113157547D01*
X116791618Y-113157547D02*
X116912570Y-113157547D01*
X116912570Y-113157547D02*
X116960951Y-113181737D01*
X116960951Y-113181737D02*
X116985142Y-113205928D01*
X116985142Y-113205928D02*
X117009332Y-113254309D01*
X117009332Y-113254309D02*
X117009332Y-113302690D01*
X117009332Y-113302690D02*
X116985142Y-113375261D01*
X116985142Y-113375261D02*
X116694856Y-113665547D01*
X116694856Y-113665547D02*
X117009332Y-113665547D01*
X117323809Y-113157547D02*
X117372190Y-113157547D01*
X117372190Y-113157547D02*
X117420571Y-113181737D01*
X117420571Y-113181737D02*
X117444761Y-113205928D01*
X117444761Y-113205928D02*
X117468952Y-113254309D01*
X117468952Y-113254309D02*
X117493142Y-113351071D01*
X117493142Y-113351071D02*
X117493142Y-113472023D01*
X117493142Y-113472023D02*
X117468952Y-113568785D01*
X117468952Y-113568785D02*
X117444761Y-113617166D01*
X117444761Y-113617166D02*
X117420571Y-113641357D01*
X117420571Y-113641357D02*
X117372190Y-113665547D01*
X117372190Y-113665547D02*
X117323809Y-113665547D01*
X117323809Y-113665547D02*
X117275428Y-113641357D01*
X117275428Y-113641357D02*
X117251237Y-113617166D01*
X117251237Y-113617166D02*
X117227047Y-113568785D01*
X117227047Y-113568785D02*
X117202856Y-113472023D01*
X117202856Y-113472023D02*
X117202856Y-113351071D01*
X117202856Y-113351071D02*
X117227047Y-113254309D01*
X117227047Y-113254309D02*
X117251237Y-113205928D01*
X117251237Y-113205928D02*
X117275428Y-113181737D01*
X117275428Y-113181737D02*
X117323809Y-113157547D01*
X117686666Y-113205928D02*
X117710857Y-113181737D01*
X117710857Y-113181737D02*
X117759238Y-113157547D01*
X117759238Y-113157547D02*
X117880190Y-113157547D01*
X117880190Y-113157547D02*
X117928571Y-113181737D01*
X117928571Y-113181737D02*
X117952762Y-113205928D01*
X117952762Y-113205928D02*
X117976952Y-113254309D01*
X117976952Y-113254309D02*
X117976952Y-113302690D01*
X117976952Y-113302690D02*
X117952762Y-113375261D01*
X117952762Y-113375261D02*
X117662476Y-113665547D01*
X117662476Y-113665547D02*
X117976952Y-113665547D01*
X126668523Y-116514920D02*
X126499189Y-116273015D01*
X126378237Y-116514920D02*
X126378237Y-116006920D01*
X126378237Y-116006920D02*
X126571761Y-116006920D01*
X126571761Y-116006920D02*
X126620142Y-116031110D01*
X126620142Y-116031110D02*
X126644332Y-116055301D01*
X126644332Y-116055301D02*
X126668523Y-116103682D01*
X126668523Y-116103682D02*
X126668523Y-116176253D01*
X126668523Y-116176253D02*
X126644332Y-116224634D01*
X126644332Y-116224634D02*
X126620142Y-116248825D01*
X126620142Y-116248825D02*
X126571761Y-116273015D01*
X126571761Y-116273015D02*
X126378237Y-116273015D01*
X126862046Y-116055301D02*
X126886237Y-116031110D01*
X126886237Y-116031110D02*
X126934618Y-116006920D01*
X126934618Y-116006920D02*
X127055570Y-116006920D01*
X127055570Y-116006920D02*
X127103951Y-116031110D01*
X127103951Y-116031110D02*
X127128142Y-116055301D01*
X127128142Y-116055301D02*
X127152332Y-116103682D01*
X127152332Y-116103682D02*
X127152332Y-116152063D01*
X127152332Y-116152063D02*
X127128142Y-116224634D01*
X127128142Y-116224634D02*
X126837856Y-116514920D01*
X126837856Y-116514920D02*
X127152332Y-116514920D01*
X127466809Y-116006920D02*
X127515190Y-116006920D01*
X127515190Y-116006920D02*
X127563571Y-116031110D01*
X127563571Y-116031110D02*
X127587761Y-116055301D01*
X127587761Y-116055301D02*
X127611952Y-116103682D01*
X127611952Y-116103682D02*
X127636142Y-116200444D01*
X127636142Y-116200444D02*
X127636142Y-116321396D01*
X127636142Y-116321396D02*
X127611952Y-116418158D01*
X127611952Y-116418158D02*
X127587761Y-116466539D01*
X127587761Y-116466539D02*
X127563571Y-116490730D01*
X127563571Y-116490730D02*
X127515190Y-116514920D01*
X127515190Y-116514920D02*
X127466809Y-116514920D01*
X127466809Y-116514920D02*
X127418428Y-116490730D01*
X127418428Y-116490730D02*
X127394237Y-116466539D01*
X127394237Y-116466539D02*
X127370047Y-116418158D01*
X127370047Y-116418158D02*
X127345856Y-116321396D01*
X127345856Y-116321396D02*
X127345856Y-116200444D01*
X127345856Y-116200444D02*
X127370047Y-116103682D01*
X127370047Y-116103682D02*
X127394237Y-116055301D01*
X127394237Y-116055301D02*
X127418428Y-116031110D01*
X127418428Y-116031110D02*
X127466809Y-116006920D01*
X127829666Y-116055301D02*
X127853857Y-116031110D01*
X127853857Y-116031110D02*
X127902238Y-116006920D01*
X127902238Y-116006920D02*
X128023190Y-116006920D01*
X128023190Y-116006920D02*
X128071571Y-116031110D01*
X128071571Y-116031110D02*
X128095762Y-116055301D01*
X128095762Y-116055301D02*
X128119952Y-116103682D01*
X128119952Y-116103682D02*
X128119952Y-116152063D01*
X128119952Y-116152063D02*
X128095762Y-116224634D01*
X128095762Y-116224634D02*
X127805476Y-116514920D01*
X127805476Y-116514920D02*
X128119952Y-116514920D01*
X143360047Y-116718357D02*
X143771285Y-116718357D01*
X143771285Y-116718357D02*
X143819666Y-116694167D01*
X143819666Y-116694167D02*
X143843857Y-116669976D01*
X143843857Y-116669976D02*
X143868047Y-116621595D01*
X143868047Y-116621595D02*
X143868047Y-116524833D01*
X143868047Y-116524833D02*
X143843857Y-116476452D01*
X143843857Y-116476452D02*
X143819666Y-116452262D01*
X143819666Y-116452262D02*
X143771285Y-116428071D01*
X143771285Y-116428071D02*
X143360047Y-116428071D01*
X143408428Y-116210358D02*
X143384237Y-116186167D01*
X143384237Y-116186167D02*
X143360047Y-116137786D01*
X143360047Y-116137786D02*
X143360047Y-116016834D01*
X143360047Y-116016834D02*
X143384237Y-115968453D01*
X143384237Y-115968453D02*
X143408428Y-115944262D01*
X143408428Y-115944262D02*
X143456809Y-115920072D01*
X143456809Y-115920072D02*
X143505190Y-115920072D01*
X143505190Y-115920072D02*
X143577761Y-115944262D01*
X143577761Y-115944262D02*
X143868047Y-116234548D01*
X143868047Y-116234548D02*
X143868047Y-115920072D01*
X143360047Y-115605595D02*
X143360047Y-115557214D01*
X143360047Y-115557214D02*
X143384237Y-115508833D01*
X143384237Y-115508833D02*
X143408428Y-115484643D01*
X143408428Y-115484643D02*
X143456809Y-115460452D01*
X143456809Y-115460452D02*
X143553571Y-115436262D01*
X143553571Y-115436262D02*
X143674523Y-115436262D01*
X143674523Y-115436262D02*
X143771285Y-115460452D01*
X143771285Y-115460452D02*
X143819666Y-115484643D01*
X143819666Y-115484643D02*
X143843857Y-115508833D01*
X143843857Y-115508833D02*
X143868047Y-115557214D01*
X143868047Y-115557214D02*
X143868047Y-115605595D01*
X143868047Y-115605595D02*
X143843857Y-115653976D01*
X143843857Y-115653976D02*
X143819666Y-115678167D01*
X143819666Y-115678167D02*
X143771285Y-115702357D01*
X143771285Y-115702357D02*
X143674523Y-115726548D01*
X143674523Y-115726548D02*
X143553571Y-115726548D01*
X143553571Y-115726548D02*
X143456809Y-115702357D01*
X143456809Y-115702357D02*
X143408428Y-115678167D01*
X143408428Y-115678167D02*
X143384237Y-115653976D01*
X143384237Y-115653976D02*
X143360047Y-115605595D01*
X143868047Y-114952452D02*
X143868047Y-115242738D01*
X143868047Y-115097595D02*
X143360047Y-115097595D01*
X143360047Y-115097595D02*
X143432618Y-115145976D01*
X143432618Y-115145976D02*
X143480999Y-115194357D01*
X143480999Y-115194357D02*
X143505190Y-115242738D01*
X134724047Y-124056349D02*
X134482142Y-124225683D01*
X134724047Y-124346635D02*
X134216047Y-124346635D01*
X134216047Y-124346635D02*
X134216047Y-124153111D01*
X134216047Y-124153111D02*
X134240237Y-124104730D01*
X134240237Y-124104730D02*
X134264428Y-124080540D01*
X134264428Y-124080540D02*
X134312809Y-124056349D01*
X134312809Y-124056349D02*
X134385380Y-124056349D01*
X134385380Y-124056349D02*
X134433761Y-124080540D01*
X134433761Y-124080540D02*
X134457952Y-124104730D01*
X134457952Y-124104730D02*
X134482142Y-124153111D01*
X134482142Y-124153111D02*
X134482142Y-124346635D01*
X134264428Y-123862826D02*
X134240237Y-123838635D01*
X134240237Y-123838635D02*
X134216047Y-123790254D01*
X134216047Y-123790254D02*
X134216047Y-123669302D01*
X134216047Y-123669302D02*
X134240237Y-123620921D01*
X134240237Y-123620921D02*
X134264428Y-123596730D01*
X134264428Y-123596730D02*
X134312809Y-123572540D01*
X134312809Y-123572540D02*
X134361190Y-123572540D01*
X134361190Y-123572540D02*
X134433761Y-123596730D01*
X134433761Y-123596730D02*
X134724047Y-123887016D01*
X134724047Y-123887016D02*
X134724047Y-123572540D01*
X134216047Y-123258063D02*
X134216047Y-123209682D01*
X134216047Y-123209682D02*
X134240237Y-123161301D01*
X134240237Y-123161301D02*
X134264428Y-123137111D01*
X134264428Y-123137111D02*
X134312809Y-123112920D01*
X134312809Y-123112920D02*
X134409571Y-123088730D01*
X134409571Y-123088730D02*
X134530523Y-123088730D01*
X134530523Y-123088730D02*
X134627285Y-123112920D01*
X134627285Y-123112920D02*
X134675666Y-123137111D01*
X134675666Y-123137111D02*
X134699857Y-123161301D01*
X134699857Y-123161301D02*
X134724047Y-123209682D01*
X134724047Y-123209682D02*
X134724047Y-123258063D01*
X134724047Y-123258063D02*
X134699857Y-123306444D01*
X134699857Y-123306444D02*
X134675666Y-123330635D01*
X134675666Y-123330635D02*
X134627285Y-123354825D01*
X134627285Y-123354825D02*
X134530523Y-123379016D01*
X134530523Y-123379016D02*
X134409571Y-123379016D01*
X134409571Y-123379016D02*
X134312809Y-123354825D01*
X134312809Y-123354825D02*
X134264428Y-123330635D01*
X134264428Y-123330635D02*
X134240237Y-123306444D01*
X134240237Y-123306444D02*
X134216047Y-123258063D01*
X134216047Y-122653301D02*
X134216047Y-122750063D01*
X134216047Y-122750063D02*
X134240237Y-122798444D01*
X134240237Y-122798444D02*
X134264428Y-122822634D01*
X134264428Y-122822634D02*
X134336999Y-122871015D01*
X134336999Y-122871015D02*
X134433761Y-122895206D01*
X134433761Y-122895206D02*
X134627285Y-122895206D01*
X134627285Y-122895206D02*
X134675666Y-122871015D01*
X134675666Y-122871015D02*
X134699857Y-122846825D01*
X134699857Y-122846825D02*
X134724047Y-122798444D01*
X134724047Y-122798444D02*
X134724047Y-122701682D01*
X134724047Y-122701682D02*
X134699857Y-122653301D01*
X134699857Y-122653301D02*
X134675666Y-122629110D01*
X134675666Y-122629110D02*
X134627285Y-122604920D01*
X134627285Y-122604920D02*
X134506333Y-122604920D01*
X134506333Y-122604920D02*
X134457952Y-122629110D01*
X134457952Y-122629110D02*
X134433761Y-122653301D01*
X134433761Y-122653301D02*
X134409571Y-122701682D01*
X134409571Y-122701682D02*
X134409571Y-122798444D01*
X134409571Y-122798444D02*
X134433761Y-122846825D01*
X134433761Y-122846825D02*
X134457952Y-122871015D01*
X134457952Y-122871015D02*
X134506333Y-122895206D01*
X126668523Y-114863920D02*
X126499189Y-114622015D01*
X126378237Y-114863920D02*
X126378237Y-114355920D01*
X126378237Y-114355920D02*
X126571761Y-114355920D01*
X126571761Y-114355920D02*
X126620142Y-114380110D01*
X126620142Y-114380110D02*
X126644332Y-114404301D01*
X126644332Y-114404301D02*
X126668523Y-114452682D01*
X126668523Y-114452682D02*
X126668523Y-114525253D01*
X126668523Y-114525253D02*
X126644332Y-114573634D01*
X126644332Y-114573634D02*
X126620142Y-114597825D01*
X126620142Y-114597825D02*
X126571761Y-114622015D01*
X126571761Y-114622015D02*
X126378237Y-114622015D01*
X126862046Y-114404301D02*
X126886237Y-114380110D01*
X126886237Y-114380110D02*
X126934618Y-114355920D01*
X126934618Y-114355920D02*
X127055570Y-114355920D01*
X127055570Y-114355920D02*
X127103951Y-114380110D01*
X127103951Y-114380110D02*
X127128142Y-114404301D01*
X127128142Y-114404301D02*
X127152332Y-114452682D01*
X127152332Y-114452682D02*
X127152332Y-114501063D01*
X127152332Y-114501063D02*
X127128142Y-114573634D01*
X127128142Y-114573634D02*
X126837856Y-114863920D01*
X126837856Y-114863920D02*
X127152332Y-114863920D01*
X127466809Y-114355920D02*
X127515190Y-114355920D01*
X127515190Y-114355920D02*
X127563571Y-114380110D01*
X127563571Y-114380110D02*
X127587761Y-114404301D01*
X127587761Y-114404301D02*
X127611952Y-114452682D01*
X127611952Y-114452682D02*
X127636142Y-114549444D01*
X127636142Y-114549444D02*
X127636142Y-114670396D01*
X127636142Y-114670396D02*
X127611952Y-114767158D01*
X127611952Y-114767158D02*
X127587761Y-114815539D01*
X127587761Y-114815539D02*
X127563571Y-114839730D01*
X127563571Y-114839730D02*
X127515190Y-114863920D01*
X127515190Y-114863920D02*
X127466809Y-114863920D01*
X127466809Y-114863920D02*
X127418428Y-114839730D01*
X127418428Y-114839730D02*
X127394237Y-114815539D01*
X127394237Y-114815539D02*
X127370047Y-114767158D01*
X127370047Y-114767158D02*
X127345856Y-114670396D01*
X127345856Y-114670396D02*
X127345856Y-114549444D01*
X127345856Y-114549444D02*
X127370047Y-114452682D01*
X127370047Y-114452682D02*
X127394237Y-114404301D01*
X127394237Y-114404301D02*
X127418428Y-114380110D01*
X127418428Y-114380110D02*
X127466809Y-114355920D01*
X128119952Y-114863920D02*
X127829666Y-114863920D01*
X127974809Y-114863920D02*
X127974809Y-114355920D01*
X127974809Y-114355920D02*
X127926428Y-114428491D01*
X127926428Y-114428491D02*
X127878047Y-114476872D01*
X127878047Y-114476872D02*
X127829666Y-114501063D01*
X122025023Y-122814166D02*
X122000832Y-122838357D01*
X122000832Y-122838357D02*
X121928261Y-122862547D01*
X121928261Y-122862547D02*
X121879880Y-122862547D01*
X121879880Y-122862547D02*
X121807308Y-122838357D01*
X121807308Y-122838357D02*
X121758927Y-122789976D01*
X121758927Y-122789976D02*
X121734737Y-122741595D01*
X121734737Y-122741595D02*
X121710546Y-122644833D01*
X121710546Y-122644833D02*
X121710546Y-122572261D01*
X121710546Y-122572261D02*
X121734737Y-122475499D01*
X121734737Y-122475499D02*
X121758927Y-122427118D01*
X121758927Y-122427118D02*
X121807308Y-122378737D01*
X121807308Y-122378737D02*
X121879880Y-122354547D01*
X121879880Y-122354547D02*
X121928261Y-122354547D01*
X121928261Y-122354547D02*
X122000832Y-122378737D01*
X122000832Y-122378737D02*
X122025023Y-122402928D01*
X122218546Y-122402928D02*
X122242737Y-122378737D01*
X122242737Y-122378737D02*
X122291118Y-122354547D01*
X122291118Y-122354547D02*
X122412070Y-122354547D01*
X122412070Y-122354547D02*
X122460451Y-122378737D01*
X122460451Y-122378737D02*
X122484642Y-122402928D01*
X122484642Y-122402928D02*
X122508832Y-122451309D01*
X122508832Y-122451309D02*
X122508832Y-122499690D01*
X122508832Y-122499690D02*
X122484642Y-122572261D01*
X122484642Y-122572261D02*
X122194356Y-122862547D01*
X122194356Y-122862547D02*
X122508832Y-122862547D01*
X122823309Y-122354547D02*
X122871690Y-122354547D01*
X122871690Y-122354547D02*
X122920071Y-122378737D01*
X122920071Y-122378737D02*
X122944261Y-122402928D01*
X122944261Y-122402928D02*
X122968452Y-122451309D01*
X122968452Y-122451309D02*
X122992642Y-122548071D01*
X122992642Y-122548071D02*
X122992642Y-122669023D01*
X122992642Y-122669023D02*
X122968452Y-122765785D01*
X122968452Y-122765785D02*
X122944261Y-122814166D01*
X122944261Y-122814166D02*
X122920071Y-122838357D01*
X122920071Y-122838357D02*
X122871690Y-122862547D01*
X122871690Y-122862547D02*
X122823309Y-122862547D01*
X122823309Y-122862547D02*
X122774928Y-122838357D01*
X122774928Y-122838357D02*
X122750737Y-122814166D01*
X122750737Y-122814166D02*
X122726547Y-122765785D01*
X122726547Y-122765785D02*
X122702356Y-122669023D01*
X122702356Y-122669023D02*
X122702356Y-122548071D01*
X122702356Y-122548071D02*
X122726547Y-122451309D01*
X122726547Y-122451309D02*
X122750737Y-122402928D01*
X122750737Y-122402928D02*
X122774928Y-122378737D01*
X122774928Y-122378737D02*
X122823309Y-122354547D01*
X123161976Y-122354547D02*
X123476452Y-122354547D01*
X123476452Y-122354547D02*
X123307119Y-122548071D01*
X123307119Y-122548071D02*
X123379690Y-122548071D01*
X123379690Y-122548071D02*
X123428071Y-122572261D01*
X123428071Y-122572261D02*
X123452262Y-122596452D01*
X123452262Y-122596452D02*
X123476452Y-122644833D01*
X123476452Y-122644833D02*
X123476452Y-122765785D01*
X123476452Y-122765785D02*
X123452262Y-122814166D01*
X123452262Y-122814166D02*
X123428071Y-122838357D01*
X123428071Y-122838357D02*
X123379690Y-122862547D01*
X123379690Y-122862547D02*
X123234547Y-122862547D01*
X123234547Y-122862547D02*
X123186166Y-122838357D01*
X123186166Y-122838357D02*
X123161976Y-122814166D01*
X136707666Y-108181349D02*
X136731857Y-108205540D01*
X136731857Y-108205540D02*
X136756047Y-108278111D01*
X136756047Y-108278111D02*
X136756047Y-108326492D01*
X136756047Y-108326492D02*
X136731857Y-108399064D01*
X136731857Y-108399064D02*
X136683476Y-108447445D01*
X136683476Y-108447445D02*
X136635095Y-108471635D01*
X136635095Y-108471635D02*
X136538333Y-108495826D01*
X136538333Y-108495826D02*
X136465761Y-108495826D01*
X136465761Y-108495826D02*
X136368999Y-108471635D01*
X136368999Y-108471635D02*
X136320618Y-108447445D01*
X136320618Y-108447445D02*
X136272237Y-108399064D01*
X136272237Y-108399064D02*
X136248047Y-108326492D01*
X136248047Y-108326492D02*
X136248047Y-108278111D01*
X136248047Y-108278111D02*
X136272237Y-108205540D01*
X136272237Y-108205540D02*
X136296428Y-108181349D01*
X136296428Y-107987826D02*
X136272237Y-107963635D01*
X136272237Y-107963635D02*
X136248047Y-107915254D01*
X136248047Y-107915254D02*
X136248047Y-107794302D01*
X136248047Y-107794302D02*
X136272237Y-107745921D01*
X136272237Y-107745921D02*
X136296428Y-107721730D01*
X136296428Y-107721730D02*
X136344809Y-107697540D01*
X136344809Y-107697540D02*
X136393190Y-107697540D01*
X136393190Y-107697540D02*
X136465761Y-107721730D01*
X136465761Y-107721730D02*
X136756047Y-108012016D01*
X136756047Y-108012016D02*
X136756047Y-107697540D01*
X136248047Y-107383063D02*
X136248047Y-107334682D01*
X136248047Y-107334682D02*
X136272237Y-107286301D01*
X136272237Y-107286301D02*
X136296428Y-107262111D01*
X136296428Y-107262111D02*
X136344809Y-107237920D01*
X136344809Y-107237920D02*
X136441571Y-107213730D01*
X136441571Y-107213730D02*
X136562523Y-107213730D01*
X136562523Y-107213730D02*
X136659285Y-107237920D01*
X136659285Y-107237920D02*
X136707666Y-107262111D01*
X136707666Y-107262111D02*
X136731857Y-107286301D01*
X136731857Y-107286301D02*
X136756047Y-107334682D01*
X136756047Y-107334682D02*
X136756047Y-107383063D01*
X136756047Y-107383063D02*
X136731857Y-107431444D01*
X136731857Y-107431444D02*
X136707666Y-107455635D01*
X136707666Y-107455635D02*
X136659285Y-107479825D01*
X136659285Y-107479825D02*
X136562523Y-107504016D01*
X136562523Y-107504016D02*
X136441571Y-107504016D01*
X136441571Y-107504016D02*
X136344809Y-107479825D01*
X136344809Y-107479825D02*
X136296428Y-107455635D01*
X136296428Y-107455635D02*
X136272237Y-107431444D01*
X136272237Y-107431444D02*
X136248047Y-107383063D01*
X136248047Y-106778301D02*
X136248047Y-106875063D01*
X136248047Y-106875063D02*
X136272237Y-106923444D01*
X136272237Y-106923444D02*
X136296428Y-106947634D01*
X136296428Y-106947634D02*
X136368999Y-106996015D01*
X136368999Y-106996015D02*
X136465761Y-107020206D01*
X136465761Y-107020206D02*
X136659285Y-107020206D01*
X136659285Y-107020206D02*
X136707666Y-106996015D01*
X136707666Y-106996015D02*
X136731857Y-106971825D01*
X136731857Y-106971825D02*
X136756047Y-106923444D01*
X136756047Y-106923444D02*
X136756047Y-106826682D01*
X136756047Y-106826682D02*
X136731857Y-106778301D01*
X136731857Y-106778301D02*
X136707666Y-106754110D01*
X136707666Y-106754110D02*
X136659285Y-106729920D01*
X136659285Y-106729920D02*
X136538333Y-106729920D01*
X136538333Y-106729920D02*
X136489952Y-106754110D01*
X136489952Y-106754110D02*
X136465761Y-106778301D01*
X136465761Y-106778301D02*
X136441571Y-106826682D01*
X136441571Y-106826682D02*
X136441571Y-106923444D01*
X136441571Y-106923444D02*
X136465761Y-106971825D01*
X136465761Y-106971825D02*
X136489952Y-106996015D01*
X136489952Y-106996015D02*
X136538333Y-107020206D01*
X135056666Y-108181349D02*
X135080857Y-108205540D01*
X135080857Y-108205540D02*
X135105047Y-108278111D01*
X135105047Y-108278111D02*
X135105047Y-108326492D01*
X135105047Y-108326492D02*
X135080857Y-108399064D01*
X135080857Y-108399064D02*
X135032476Y-108447445D01*
X135032476Y-108447445D02*
X134984095Y-108471635D01*
X134984095Y-108471635D02*
X134887333Y-108495826D01*
X134887333Y-108495826D02*
X134814761Y-108495826D01*
X134814761Y-108495826D02*
X134717999Y-108471635D01*
X134717999Y-108471635D02*
X134669618Y-108447445D01*
X134669618Y-108447445D02*
X134621237Y-108399064D01*
X134621237Y-108399064D02*
X134597047Y-108326492D01*
X134597047Y-108326492D02*
X134597047Y-108278111D01*
X134597047Y-108278111D02*
X134621237Y-108205540D01*
X134621237Y-108205540D02*
X134645428Y-108181349D01*
X134645428Y-107987826D02*
X134621237Y-107963635D01*
X134621237Y-107963635D02*
X134597047Y-107915254D01*
X134597047Y-107915254D02*
X134597047Y-107794302D01*
X134597047Y-107794302D02*
X134621237Y-107745921D01*
X134621237Y-107745921D02*
X134645428Y-107721730D01*
X134645428Y-107721730D02*
X134693809Y-107697540D01*
X134693809Y-107697540D02*
X134742190Y-107697540D01*
X134742190Y-107697540D02*
X134814761Y-107721730D01*
X134814761Y-107721730D02*
X135105047Y-108012016D01*
X135105047Y-108012016D02*
X135105047Y-107697540D01*
X134597047Y-107383063D02*
X134597047Y-107334682D01*
X134597047Y-107334682D02*
X134621237Y-107286301D01*
X134621237Y-107286301D02*
X134645428Y-107262111D01*
X134645428Y-107262111D02*
X134693809Y-107237920D01*
X134693809Y-107237920D02*
X134790571Y-107213730D01*
X134790571Y-107213730D02*
X134911523Y-107213730D01*
X134911523Y-107213730D02*
X135008285Y-107237920D01*
X135008285Y-107237920D02*
X135056666Y-107262111D01*
X135056666Y-107262111D02*
X135080857Y-107286301D01*
X135080857Y-107286301D02*
X135105047Y-107334682D01*
X135105047Y-107334682D02*
X135105047Y-107383063D01*
X135105047Y-107383063D02*
X135080857Y-107431444D01*
X135080857Y-107431444D02*
X135056666Y-107455635D01*
X135056666Y-107455635D02*
X135008285Y-107479825D01*
X135008285Y-107479825D02*
X134911523Y-107504016D01*
X134911523Y-107504016D02*
X134790571Y-107504016D01*
X134790571Y-107504016D02*
X134693809Y-107479825D01*
X134693809Y-107479825D02*
X134645428Y-107455635D01*
X134645428Y-107455635D02*
X134621237Y-107431444D01*
X134621237Y-107431444D02*
X134597047Y-107383063D01*
X134597047Y-107044396D02*
X134597047Y-106705729D01*
X134597047Y-106705729D02*
X135105047Y-106923444D01*
X142217047Y-124945349D02*
X141975142Y-125114683D01*
X142217047Y-125235635D02*
X141709047Y-125235635D01*
X141709047Y-125235635D02*
X141709047Y-125042111D01*
X141709047Y-125042111D02*
X141733237Y-124993730D01*
X141733237Y-124993730D02*
X141757428Y-124969540D01*
X141757428Y-124969540D02*
X141805809Y-124945349D01*
X141805809Y-124945349D02*
X141878380Y-124945349D01*
X141878380Y-124945349D02*
X141926761Y-124969540D01*
X141926761Y-124969540D02*
X141950952Y-124993730D01*
X141950952Y-124993730D02*
X141975142Y-125042111D01*
X141975142Y-125042111D02*
X141975142Y-125235635D01*
X141757428Y-124751826D02*
X141733237Y-124727635D01*
X141733237Y-124727635D02*
X141709047Y-124679254D01*
X141709047Y-124679254D02*
X141709047Y-124558302D01*
X141709047Y-124558302D02*
X141733237Y-124509921D01*
X141733237Y-124509921D02*
X141757428Y-124485730D01*
X141757428Y-124485730D02*
X141805809Y-124461540D01*
X141805809Y-124461540D02*
X141854190Y-124461540D01*
X141854190Y-124461540D02*
X141926761Y-124485730D01*
X141926761Y-124485730D02*
X142217047Y-124776016D01*
X142217047Y-124776016D02*
X142217047Y-124461540D01*
X142217047Y-123977730D02*
X142217047Y-124268016D01*
X142217047Y-124122873D02*
X141709047Y-124122873D01*
X141709047Y-124122873D02*
X141781618Y-124171254D01*
X141781618Y-124171254D02*
X141829999Y-124219635D01*
X141829999Y-124219635D02*
X141854190Y-124268016D01*
X141878380Y-123542301D02*
X142217047Y-123542301D01*
X141684857Y-123663253D02*
X142047714Y-123784206D01*
X142047714Y-123784206D02*
X142047714Y-123469729D01*
X122028023Y-121338547D02*
X121858689Y-121096642D01*
X121737737Y-121338547D02*
X121737737Y-120830547D01*
X121737737Y-120830547D02*
X121931261Y-120830547D01*
X121931261Y-120830547D02*
X121979642Y-120854737D01*
X121979642Y-120854737D02*
X122003832Y-120878928D01*
X122003832Y-120878928D02*
X122028023Y-120927309D01*
X122028023Y-120927309D02*
X122028023Y-120999880D01*
X122028023Y-120999880D02*
X122003832Y-121048261D01*
X122003832Y-121048261D02*
X121979642Y-121072452D01*
X121979642Y-121072452D02*
X121931261Y-121096642D01*
X121931261Y-121096642D02*
X121737737Y-121096642D01*
X122221546Y-120878928D02*
X122245737Y-120854737D01*
X122245737Y-120854737D02*
X122294118Y-120830547D01*
X122294118Y-120830547D02*
X122415070Y-120830547D01*
X122415070Y-120830547D02*
X122463451Y-120854737D01*
X122463451Y-120854737D02*
X122487642Y-120878928D01*
X122487642Y-120878928D02*
X122511832Y-120927309D01*
X122511832Y-120927309D02*
X122511832Y-120975690D01*
X122511832Y-120975690D02*
X122487642Y-121048261D01*
X122487642Y-121048261D02*
X122197356Y-121338547D01*
X122197356Y-121338547D02*
X122511832Y-121338547D01*
X122995642Y-121338547D02*
X122705356Y-121338547D01*
X122850499Y-121338547D02*
X122850499Y-120830547D01*
X122850499Y-120830547D02*
X122802118Y-120903118D01*
X122802118Y-120903118D02*
X122753737Y-120951499D01*
X122753737Y-120951499D02*
X122705356Y-120975690D01*
X123310119Y-120830547D02*
X123358500Y-120830547D01*
X123358500Y-120830547D02*
X123406881Y-120854737D01*
X123406881Y-120854737D02*
X123431071Y-120878928D01*
X123431071Y-120878928D02*
X123455262Y-120927309D01*
X123455262Y-120927309D02*
X123479452Y-121024071D01*
X123479452Y-121024071D02*
X123479452Y-121145023D01*
X123479452Y-121145023D02*
X123455262Y-121241785D01*
X123455262Y-121241785D02*
X123431071Y-121290166D01*
X123431071Y-121290166D02*
X123406881Y-121314357D01*
X123406881Y-121314357D02*
X123358500Y-121338547D01*
X123358500Y-121338547D02*
X123310119Y-121338547D01*
X123310119Y-121338547D02*
X123261738Y-121314357D01*
X123261738Y-121314357D02*
X123237547Y-121290166D01*
X123237547Y-121290166D02*
X123213357Y-121241785D01*
X123213357Y-121241785D02*
X123189166Y-121145023D01*
X123189166Y-121145023D02*
X123189166Y-121024071D01*
X123189166Y-121024071D02*
X123213357Y-120927309D01*
X123213357Y-120927309D02*
X123237547Y-120878928D01*
X123237547Y-120878928D02*
X123261738Y-120854737D01*
X123261738Y-120854737D02*
X123310119Y-120830547D01*
X126694023Y-111561920D02*
X126524689Y-111320015D01*
X126403737Y-111561920D02*
X126403737Y-111053920D01*
X126403737Y-111053920D02*
X126597261Y-111053920D01*
X126597261Y-111053920D02*
X126645642Y-111078110D01*
X126645642Y-111078110D02*
X126669832Y-111102301D01*
X126669832Y-111102301D02*
X126694023Y-111150682D01*
X126694023Y-111150682D02*
X126694023Y-111223253D01*
X126694023Y-111223253D02*
X126669832Y-111271634D01*
X126669832Y-111271634D02*
X126645642Y-111295825D01*
X126645642Y-111295825D02*
X126597261Y-111320015D01*
X126597261Y-111320015D02*
X126403737Y-111320015D01*
X126887546Y-111102301D02*
X126911737Y-111078110D01*
X126911737Y-111078110D02*
X126960118Y-111053920D01*
X126960118Y-111053920D02*
X127081070Y-111053920D01*
X127081070Y-111053920D02*
X127129451Y-111078110D01*
X127129451Y-111078110D02*
X127153642Y-111102301D01*
X127153642Y-111102301D02*
X127177832Y-111150682D01*
X127177832Y-111150682D02*
X127177832Y-111199063D01*
X127177832Y-111199063D02*
X127153642Y-111271634D01*
X127153642Y-111271634D02*
X126863356Y-111561920D01*
X126863356Y-111561920D02*
X127177832Y-111561920D01*
X127492309Y-111053920D02*
X127540690Y-111053920D01*
X127540690Y-111053920D02*
X127589071Y-111078110D01*
X127589071Y-111078110D02*
X127613261Y-111102301D01*
X127613261Y-111102301D02*
X127637452Y-111150682D01*
X127637452Y-111150682D02*
X127661642Y-111247444D01*
X127661642Y-111247444D02*
X127661642Y-111368396D01*
X127661642Y-111368396D02*
X127637452Y-111465158D01*
X127637452Y-111465158D02*
X127613261Y-111513539D01*
X127613261Y-111513539D02*
X127589071Y-111537730D01*
X127589071Y-111537730D02*
X127540690Y-111561920D01*
X127540690Y-111561920D02*
X127492309Y-111561920D01*
X127492309Y-111561920D02*
X127443928Y-111537730D01*
X127443928Y-111537730D02*
X127419737Y-111513539D01*
X127419737Y-111513539D02*
X127395547Y-111465158D01*
X127395547Y-111465158D02*
X127371356Y-111368396D01*
X127371356Y-111368396D02*
X127371356Y-111247444D01*
X127371356Y-111247444D02*
X127395547Y-111150682D01*
X127395547Y-111150682D02*
X127419737Y-111102301D01*
X127419737Y-111102301D02*
X127443928Y-111078110D01*
X127443928Y-111078110D02*
X127492309Y-111053920D01*
X128097071Y-111223253D02*
X128097071Y-111561920D01*
X127976119Y-111029730D02*
X127855166Y-111392587D01*
X127855166Y-111392587D02*
X128169643Y-111392587D01*
D11*
%TO.C,C205*%
X137651000Y-110195106D02*
X137651000Y-110487640D01*
X138671000Y-110195106D02*
X138671000Y-110487640D01*
%TO.C,R208*%
X130279224Y-117342373D02*
X129769776Y-117342373D01*
X130279224Y-118387373D02*
X129769776Y-118387373D01*
%TO.C,R211*%
X135621500Y-120415649D02*
X135621500Y-120925097D01*
X136666500Y-120415649D02*
X136666500Y-120925097D01*
%TO.C,J201*%
X141380000Y-108073500D02*
X141380000Y-109773500D01*
X150720000Y-108073500D02*
X150720000Y-109773500D01*
%TO.C,R205*%
X132319500Y-120948597D02*
X132319500Y-120439149D01*
X133364500Y-120948597D02*
X133364500Y-120439149D01*
%TO.C,TP201*%
X128317000Y-123467500D02*
G75*
G02*
X124917000Y-123467500I-1700000J0D01*
G01*
X124917000Y-123467500D02*
G75*
G02*
X128317000Y-123467500I1700000J0D01*
G01*
%TO.C,R209*%
X130668500Y-120948597D02*
X130668500Y-120439149D01*
X131713500Y-120948597D02*
X131713500Y-120439149D01*
%TO.C,TP203*%
X113714000Y-123467500D02*
G75*
G02*
X110314000Y-123467500I-1700000J0D01*
G01*
X110314000Y-123467500D02*
G75*
G02*
X113714000Y-123467500I1700000J0D01*
G01*
%TO.C,TP202*%
X128319000Y-108608500D02*
G75*
G02*
X124919000Y-108608500I-1700000J0D01*
G01*
X124919000Y-108608500D02*
G75*
G02*
X128319000Y-108608500I1700000J0D01*
G01*
%TO.C,D202*%
X142902000Y-120900373D02*
X142902000Y-123360373D01*
X142902000Y-123360373D02*
X144372000Y-123360373D01*
X144372000Y-123360373D02*
X144372000Y-120900373D01*
%TO.C,Q202*%
X139113500Y-119171373D02*
X138463500Y-119171373D01*
X139113500Y-119171373D02*
X139763500Y-119171373D01*
X139113500Y-122291373D02*
X138463500Y-122291373D01*
X139113500Y-122291373D02*
X139763500Y-122291373D01*
X137951000Y-119221373D02*
X137711000Y-118891373D01*
X138191000Y-118891373D01*
X137951000Y-119221373D01*
G36*
X137951000Y-119221373D02*
G01*
X137711000Y-118891373D01*
X138191000Y-118891373D01*
X137951000Y-119221373D01*
G37*
%TO.C,U202*%
X133454000Y-114160873D02*
X133454000Y-113925873D01*
X133454000Y-117905873D02*
X133454000Y-117430873D01*
X133929000Y-113685873D02*
X133754000Y-113685873D01*
X133929000Y-117905873D02*
X133454000Y-117905873D01*
X137199000Y-113685873D02*
X137674000Y-113685873D01*
X137199000Y-117905873D02*
X137674000Y-117905873D01*
X137674000Y-113685873D02*
X137674000Y-114160873D01*
X137674000Y-117905873D02*
X137674000Y-117430873D01*
X133454000Y-113685873D02*
X133214000Y-113355873D01*
X133694000Y-113355873D01*
X133454000Y-113685873D01*
G36*
X133454000Y-113685873D02*
G01*
X133214000Y-113355873D01*
X133694000Y-113355873D01*
X133454000Y-113685873D01*
G37*
%TO.C,TP204*%
X158799000Y-124102500D02*
G75*
G02*
X155399000Y-124102500I-1700000J0D01*
G01*
X155399000Y-124102500D02*
G75*
G02*
X158799000Y-124102500I1700000J0D01*
G01*
%TO.C,R213*%
X151256276Y-120762500D02*
X151765724Y-120762500D01*
X151256276Y-121807500D02*
X151765724Y-121807500D01*
%TO.C,D201*%
X117235000Y-110275500D02*
X117235000Y-112275500D01*
X117235000Y-110275500D02*
X121095000Y-110275500D01*
X117235000Y-112275500D02*
X121095000Y-112275500D01*
%TO.C,Q203*%
X151525000Y-116550000D02*
X150725000Y-116550000D01*
X151525000Y-116550000D02*
X152325000Y-116550000D01*
X151525000Y-119670000D02*
X150725000Y-119670000D01*
X151525000Y-119670000D02*
X152325000Y-119670000D01*
X153065000Y-119950000D02*
X152585000Y-119950000D01*
X152825000Y-119620000D01*
X153065000Y-119950000D01*
G36*
X153065000Y-119950000D02*
G01*
X152585000Y-119950000D01*
X152825000Y-119620000D01*
X153065000Y-119950000D01*
G37*
%TO.C,C204*%
X150094733Y-114067500D02*
X150387267Y-114067500D01*
X150094733Y-115087500D02*
X150387267Y-115087500D01*
%TO.C,R212*%
X118744276Y-108721000D02*
X119253724Y-108721000D01*
X118744276Y-109766000D02*
X119253724Y-109766000D01*
%TO.C,C201*%
X132698000Y-110168606D02*
X132698000Y-110461140D01*
X133718000Y-110168606D02*
X133718000Y-110461140D01*
%TO.C,R207*%
X138429276Y-122838373D02*
X138938724Y-122838373D01*
X138429276Y-123883373D02*
X138938724Y-123883373D01*
%TO.C,Q201*%
X119888000Y-114303500D02*
X117938000Y-114303500D01*
X119888000Y-114303500D02*
X121838000Y-114303500D01*
X119888000Y-119423500D02*
X117938000Y-119423500D01*
X119888000Y-119423500D02*
X121838000Y-119423500D01*
X122828000Y-119658500D02*
X122348000Y-119658500D01*
X122588000Y-119328500D01*
X122828000Y-119658500D01*
G36*
X122828000Y-119658500D02*
G01*
X122348000Y-119658500D01*
X122588000Y-119328500D01*
X122828000Y-119658500D01*
G37*
%TO.C,R203*%
X129778276Y-112424373D02*
X130287724Y-112424373D01*
X129778276Y-113469373D02*
X130287724Y-113469373D01*
%TO.C,C202*%
X119741733Y-112924500D02*
X120034267Y-112924500D01*
X119741733Y-113944500D02*
X120034267Y-113944500D01*
%TO.C,R202*%
X130287724Y-115726373D02*
X129778276Y-115726373D01*
X130287724Y-116771373D02*
X129778276Y-116771373D01*
%TO.C,U201*%
X144490000Y-115974500D02*
X144490000Y-115174500D01*
X144490000Y-115974500D02*
X144490000Y-116774500D01*
X147610000Y-115974500D02*
X147610000Y-115174500D01*
X147610000Y-115974500D02*
X147610000Y-116774500D01*
X147890000Y-114914500D02*
X147560000Y-114674500D01*
X147890000Y-114434500D01*
X147890000Y-114914500D01*
G36*
X147890000Y-114914500D02*
G01*
X147560000Y-114674500D01*
X147890000Y-114434500D01*
X147890000Y-114914500D01*
G37*
%TO.C,R206*%
X133970500Y-120439149D02*
X133970500Y-120948597D01*
X135015500Y-120439149D02*
X135015500Y-120948597D01*
%TO.C,R201*%
X129778276Y-114075373D02*
X130287724Y-114075373D01*
X129778276Y-115120373D02*
X130287724Y-115120373D01*
%TO.C,C203*%
X119715233Y-122121500D02*
X120007767Y-122121500D01*
X119715233Y-123141500D02*
X120007767Y-123141500D01*
%TO.C,C206*%
X136000000Y-110195106D02*
X136000000Y-110487640D01*
X137020000Y-110195106D02*
X137020000Y-110487640D01*
%TO.C,C207*%
X134349000Y-110195106D02*
X134349000Y-110487640D01*
X135369000Y-110195106D02*
X135369000Y-110487640D01*
%TO.C,R214*%
X141463500Y-121941097D02*
X141463500Y-121431649D01*
X142508500Y-121941097D02*
X142508500Y-121431649D01*
%TO.C,R210*%
X119609776Y-120585000D02*
X120119224Y-120585000D01*
X119609776Y-121630000D02*
X120119224Y-121630000D01*
%TO.C,R204*%
X130287724Y-110773373D02*
X129778276Y-110773373D01*
X130287724Y-111818373D02*
X129778276Y-111818373D01*
%TD*%
M02*
