%TF.GenerationSoftware,KiCad,Pcbnew,9.0.0*%
%TF.CreationDate,2025-03-06T17:29:06-05:00*%
%TF.ProjectId,USB-C-PD-Controller,5553422d-432d-4504-942d-436f6e74726f,rev?*%
%TF.SameCoordinates,Original*%
%TF.FileFunction,Paste,Top*%
%TF.FilePolarity,Positive*%
%FSLAX46Y46*%
G04 Gerber Fmt 4.6, Leading zero omitted, Abs format (unit mm)*
G04 Created by KiCad (PCBNEW 9.0.0) date 2025-03-06 17:29:06*
%MOMM*%
%LPD*%
G01*
G04 APERTURE LIST*
G04 Aperture macros list*
%AMRoundRect*
0 Rectangle with rounded corners*
0 $1 Rounding radius*
0 $2 $3 $4 $5 $6 $7 $8 $9 X,Y pos of 4 corners*
0 Add a 4 corners polygon primitive as box body*
4,1,4,$2,$3,$4,$5,$6,$7,$8,$9,$2,$3,0*
0 Add four circle primitives for the rounded corners*
1,1,$1+$1,$2,$3*
1,1,$1+$1,$4,$5*
1,1,$1+$1,$6,$7*
1,1,$1+$1,$8,$9*
0 Add four rect primitives between the rounded corners*
20,1,$1+$1,$2,$3,$4,$5,0*
20,1,$1+$1,$4,$5,$6,$7,0*
20,1,$1+$1,$6,$7,$8,$9,0*
20,1,$1+$1,$8,$9,$2,$3,0*%
G04 Aperture macros list end*
%ADD10RoundRect,0.237500X-0.237500X0.300000X-0.237500X-0.300000X0.237500X-0.300000X0.237500X0.300000X0*%
%ADD11RoundRect,0.237500X0.250000X0.237500X-0.250000X0.237500X-0.250000X-0.237500X0.250000X-0.237500X0*%
%ADD12RoundRect,0.237500X-0.237500X0.250000X-0.237500X-0.250000X0.237500X-0.250000X0.237500X0.250000X0*%
%ADD13RoundRect,0.150000X0.150000X0.425000X-0.150000X0.425000X-0.150000X-0.425000X0.150000X-0.425000X0*%
%ADD14RoundRect,0.075000X0.075000X0.500000X-0.075000X0.500000X-0.075000X-0.500000X0.075000X-0.500000X0*%
%ADD15O,1.000000X2.100000*%
%ADD16O,1.000000X1.800000*%
%ADD17RoundRect,0.237500X0.237500X-0.250000X0.237500X0.250000X-0.237500X0.250000X-0.237500X-0.250000X0*%
%ADD18RoundRect,0.237500X0.237500X-0.287500X0.237500X0.287500X-0.237500X0.287500X-0.237500X-0.287500X0*%
%ADD19RoundRect,0.150000X-0.587500X-0.150000X0.587500X-0.150000X0.587500X0.150000X-0.587500X0.150000X0*%
%ADD20RoundRect,0.250000X-0.305000X-0.305000X0.305000X-0.305000X0.305000X0.305000X-0.305000X0.305000X0*%
%ADD21RoundRect,0.062500X-0.337500X-0.062500X0.337500X-0.062500X0.337500X0.062500X-0.337500X0.062500X0*%
%ADD22RoundRect,0.062500X-0.062500X-0.337500X0.062500X-0.337500X0.062500X0.337500X-0.062500X0.337500X0*%
%ADD23RoundRect,0.237500X-0.250000X-0.237500X0.250000X-0.237500X0.250000X0.237500X-0.250000X0.237500X0*%
%ADD24RoundRect,0.250000X-0.300000X-0.300000X0.300000X-0.300000X0.300000X0.300000X-0.300000X0.300000X0*%
%ADD25RoundRect,0.150000X0.512500X0.150000X-0.512500X0.150000X-0.512500X-0.150000X0.512500X-0.150000X0*%
%ADD26RoundRect,0.237500X-0.300000X-0.237500X0.300000X-0.237500X0.300000X0.237500X-0.300000X0.237500X0*%
%ADD27RoundRect,0.150000X0.825000X0.150000X-0.825000X0.150000X-0.825000X-0.150000X0.825000X-0.150000X0*%
%ADD28RoundRect,0.150000X-0.150000X0.512500X-0.150000X-0.512500X0.150000X-0.512500X0.150000X0.512500X0*%
G04 APERTURE END LIST*
D10*
%TO.C,C205*%
X138161000Y-109478873D03*
X138161000Y-111203873D03*
%TD*%
D11*
%TO.C,R208*%
X130937000Y-117864873D03*
X129112000Y-117864873D03*
%TD*%
D12*
%TO.C,R211*%
X136144000Y-119757873D03*
X136144000Y-121582873D03*
%TD*%
D13*
%TO.C,J201*%
X149250000Y-111653500D03*
X148450000Y-111653500D03*
D14*
X147300000Y-111653500D03*
X146300000Y-111653500D03*
X145800000Y-111653500D03*
X144800000Y-111653500D03*
D13*
X143650000Y-111653500D03*
X142850000Y-111653500D03*
X142850000Y-111653500D03*
X143650000Y-111653500D03*
D14*
X144300000Y-111653500D03*
X145300000Y-111653500D03*
X146800000Y-111653500D03*
X147800000Y-111653500D03*
D13*
X148450000Y-111653500D03*
X149250000Y-111653500D03*
D15*
X150370000Y-111078500D03*
D16*
X150370000Y-106898500D03*
D15*
X141730000Y-111078500D03*
D16*
X141730000Y-106898500D03*
%TD*%
D17*
%TO.C,R205*%
X132842000Y-121606373D03*
X132842000Y-119781373D03*
%TD*%
%TO.C,R209*%
X131191000Y-121606373D03*
X131191000Y-119781373D03*
%TD*%
D18*
%TO.C,D202*%
X143637000Y-122575373D03*
X143637000Y-120825373D03*
%TD*%
D19*
%TO.C,Q202*%
X138176000Y-119781373D03*
X138176000Y-121681373D03*
X140051000Y-120731373D03*
%TD*%
D20*
%TO.C,U202*%
X134874000Y-115105873D03*
X134874000Y-116485873D03*
X136254000Y-115105873D03*
X136254000Y-116485873D03*
D21*
X133589000Y-114545873D03*
X133589000Y-115045873D03*
X133589000Y-115545873D03*
X133589000Y-116045873D03*
X133589000Y-116545873D03*
X133589000Y-117045873D03*
D22*
X134314000Y-117770873D03*
X134814000Y-117770873D03*
X135314000Y-117770873D03*
X135814000Y-117770873D03*
X136314000Y-117770873D03*
X136814000Y-117770873D03*
D21*
X137539000Y-117045873D03*
X137539000Y-116545873D03*
X137539000Y-116045873D03*
X137539000Y-115545873D03*
X137539000Y-115045873D03*
X137539000Y-114545873D03*
D22*
X136814000Y-113820873D03*
X136314000Y-113820873D03*
X135814000Y-113820873D03*
X135314000Y-113820873D03*
X134814000Y-113820873D03*
X134314000Y-113820873D03*
%TD*%
D23*
%TO.C,R213*%
X150598500Y-121285000D03*
X152423500Y-121285000D03*
%TD*%
D24*
%TO.C,D201*%
X118045000Y-111275500D03*
X120845000Y-111275500D03*
%TD*%
D25*
%TO.C,Q203*%
X152662500Y-119060000D03*
X152662500Y-118110000D03*
X152662500Y-117160000D03*
X150387500Y-117160000D03*
X150387500Y-118110000D03*
X150387500Y-119060000D03*
%TD*%
D26*
%TO.C,C204*%
X149378500Y-114577500D03*
X151103500Y-114577500D03*
%TD*%
D23*
%TO.C,R212*%
X118086500Y-109243500D03*
X119911500Y-109243500D03*
%TD*%
D10*
%TO.C,C201*%
X133208000Y-109452373D03*
X133208000Y-111177373D03*
%TD*%
D23*
%TO.C,R207*%
X137771500Y-123360873D03*
X139596500Y-123360873D03*
%TD*%
D27*
%TO.C,Q201*%
X122363000Y-118768500D03*
X122363000Y-117498500D03*
X122363000Y-116228500D03*
X122363000Y-114958500D03*
X117413000Y-114958500D03*
X117413000Y-116228500D03*
X117413000Y-117498500D03*
X117413000Y-118768500D03*
%TD*%
D23*
%TO.C,R203*%
X129120500Y-112946873D03*
X130945500Y-112946873D03*
%TD*%
D26*
%TO.C,C202*%
X119025500Y-113434500D03*
X120750500Y-113434500D03*
%TD*%
D11*
%TO.C,R202*%
X130945500Y-116248873D03*
X129120500Y-116248873D03*
%TD*%
D28*
%TO.C,U201*%
X147000000Y-114837000D03*
X146050000Y-114837000D03*
X145100000Y-114837000D03*
X145100000Y-117112000D03*
X146050000Y-117112000D03*
X147000000Y-117112000D03*
%TD*%
D12*
%TO.C,R206*%
X134493000Y-119781373D03*
X134493000Y-121606373D03*
%TD*%
D23*
%TO.C,R201*%
X129120500Y-114597873D03*
X130945500Y-114597873D03*
%TD*%
D26*
%TO.C,C203*%
X118999000Y-122631500D03*
X120724000Y-122631500D03*
%TD*%
D10*
%TO.C,C206*%
X136510000Y-109478873D03*
X136510000Y-111203873D03*
%TD*%
%TO.C,C207*%
X134859000Y-109478873D03*
X134859000Y-111203873D03*
%TD*%
D17*
%TO.C,R214*%
X141986000Y-122598873D03*
X141986000Y-120773873D03*
%TD*%
D23*
%TO.C,R210*%
X118952000Y-121107500D03*
X120777000Y-121107500D03*
%TD*%
D11*
%TO.C,R204*%
X130945500Y-111295873D03*
X129120500Y-111295873D03*
%TD*%
M02*
