M48
; DRILL file {KiCad 9.0.0} date 2025-03-06T17:29:03-0500
; FORMAT={-:-/ absolute / metric / decimal}
; #@! TF.CreationDate,2025-03-06T17:29:03-05:00
; #@! TF.GenerationSoftware,Kicad,Pcbnew,9.0.0
; #@! TF.FileFunction,Plated,1,2,PTH
FMAT,2
METRIC
; #@! TA.AperFunction,Plated,PTH,ViaDrill
T1C0.300
; #@! TA.AperFunction,Plated,PTH,ComponentDrill
T2C0.600
; #@! TA.AperFunction,Plated,PTH,ComponentDrill
T3C1.000
; #@! TA.AperFunction,Plated,PTH,ComponentDrill
T4C1.600
%
G90
G05
T1
X127.635Y-116.736
X127.889Y-113.942
X129.12Y-110.171
X130.302Y-121.606
X132.588Y-108.355
X133.731Y-117.625
X133.731Y-122.959
X134.239Y-108.355
X135.382Y-122.959
X135.89Y-108.355
X136.779Y-112.926
X137.668Y-108.355
X138.176Y-120.927
X138.811Y-114.546
X139.319Y-117.752
X141.7Y-114.546
X146.05Y-115.924
X151.511Y-113.434
X153.84Y-118.025
T3
X110.744Y-108.862
X110.744Y-111.402
X110.744Y-113.942
X110.744Y-116.483
X113.284Y-108.862
X113.284Y-111.402
X113.284Y-113.942
X113.284Y-116.483
X156.464Y-108.862
X156.464Y-111.402
X156.464Y-113.942
X156.464Y-116.483
X159.004Y-108.862
X159.004Y-111.402
X159.004Y-113.942
X159.004Y-116.483
T4
X112.014Y-123.468
X126.617Y-123.468
X126.619Y-108.608
X157.099Y-124.102
T2
G00X141.73Y-107.298
M15
G01X141.73Y-106.498
M16
G05
G00X141.73Y-111.628
M15
G01X141.73Y-110.528
M16
G05
G00X150.37Y-107.298
M15
G01X150.37Y-106.498
M16
G05
G00X150.37Y-111.628
M15
G01X150.37Y-110.528
M16
G05
M30
